M48
; DRILL file {KiCad (5.1.4)-1} date 09/13/21 16:49:03
; FORMAT={-:-/ absolute / inch / decimal}
; #@! TF.CreationDate,2021-09-13T16:49:03-03:00
; #@! TF.GenerationSoftware,Kicad,Pcbnew,(5.1.4)-1
; #@! TF.FileFunction,Plated,1,2,PTH
FMAT,2
INCH
T1C0.0157
T2C0.0197
T3C0.0236
T4C0.0433
T5C0.1181
%
G90
G05
T1
X10.375Y-4.81
X10.375Y-4.87
X10.375Y-5.56
X10.375Y-5.62
X10.375Y-6.31
X10.375Y-6.375
X10.375Y-7.06
X10.375Y-7.13
X10.385Y-4.06
X10.385Y-4.125
X11.125Y-4.8
X11.125Y-4.88
X11.125Y-5.555
X11.125Y-5.625
X11.125Y-6.305
X11.125Y-6.38
X11.13Y-4.055
X11.13Y-4.125
X11.875Y-4.125
X11.875Y-4.805
X11.875Y-4.87
X11.88Y-4.06
X11.88Y-5.56
X11.88Y-5.625
X12.365Y-2.97
X12.52Y-3.25
X12.5375Y-2.9925
X12.625Y-4.805
X12.625Y-4.87
X12.64Y-4.06
X12.64Y-4.13
X12.6425Y-3.235
X12.6525Y-2.995
X12.7027Y-2.682
X12.77Y-2.665
X12.7925Y-3.0714
X12.82Y-2.895
X13.06Y-2.5575
X13.11Y-2.62
X13.11Y-2.88
X13.1888Y-3.1712
X13.245Y-2.4978
X13.245Y-2.56
X13.245Y-2.705
X13.2491Y-2.6658
X13.2502Y-2.6265
X13.2812Y-2.5844
X13.36Y-2.56
X13.364Y-2.996
X13.3731Y-2.9209
X13.3869Y-2.6829
X13.395Y-4.0628
X13.395Y-4.125
X13.4172Y-3.1328
X13.465Y-3.01
X13.4676Y-2.9428
X13.51Y-3.185
X13.5184Y-2.7607
X13.553Y-2.863
X13.56Y-2.9053
X13.56Y-2.9447
X13.6075Y-2.7175
X13.665Y-2.88
X13.665Y-2.9789
X13.8446Y-2.61
X13.8853Y-2.835
X13.8861Y-2.61
X13.9247Y-2.835
X13.995Y-3.015
X14.07Y-2.875
X14.105Y-2.79
X14.105Y-2.905
X14.175Y-3.0775
X14.22Y-2.835
X14.265Y-2.875
X12.15Y-6.12
X12.15Y-6.18
X12.8Y-6.02
X12.8Y-6.08
X2.4Y-7.62
X2.4Y-7.68
X3.05Y-7.52
X3.05Y-7.58
X8.4Y-3.87
X8.4Y-3.93
X9.05Y-3.77
X9.05Y-3.83
X11.4Y-6.12
X11.4Y-6.18
X12.05Y-6.02
X12.05Y-6.08
X9.15Y-6.12
X9.15Y-6.18
X9.8Y-6.02
X9.8Y-6.08
X13.65Y-6.12
X13.65Y-6.18
X14.3Y-6.02
X14.3Y-6.08
X3.9Y-6.12
X3.9Y-6.18
X4.55Y-6.02
X4.55Y-6.08
X9.9Y-6.12
X9.9Y-6.18
X10.55Y-6.02
X10.55Y-6.08
X9.9Y-4.62
X9.9Y-4.68
X10.55Y-4.52
X10.55Y-4.58
X13.65Y-7.62
X13.65Y-7.68
X14.3Y-7.52
X14.3Y-7.58
X4.65Y-4.62
X4.65Y-4.68
X5.3Y-4.52
X5.3Y-4.58
X12.15Y-4.62
X12.15Y-4.68
X12.8Y-4.52
X12.8Y-4.58
X8.4Y-6.87
X8.4Y-6.93
X9.05Y-6.77
X9.05Y-6.83
X3.15Y-3.87
X3.15Y-3.93
X3.8Y-3.77
X3.8Y-3.83
X6.9Y-7.62
X6.9Y-7.68
X7.55Y-7.52
X7.55Y-7.58
X12.9Y-7.62
X12.9Y-7.68
X13.55Y-7.52
X13.55Y-7.58
X3.9Y-6.87
X3.9Y-6.93
X4.55Y-6.77
X4.55Y-6.83
X10.65Y-6.87
X10.65Y-6.93
X11.3Y-6.77
X11.3Y-6.83
X9.9Y-3.87
X9.9Y-3.93
X10.55Y-3.77
X10.55Y-3.83
X6.15Y-6.12
X6.15Y-6.18
X6.8Y-6.02
X6.8Y-6.08
X12.9Y-3.87
X12.9Y-3.93
X13.55Y-3.77
X13.55Y-3.83
X4.65Y-7.62
X4.65Y-7.68
X5.3Y-7.52
X5.3Y-7.58
X11.4Y-7.62
X11.4Y-7.68
X12.05Y-7.52
X12.05Y-7.58
X7.65Y-6.87
X7.65Y-6.93
X8.3Y-6.77
X8.3Y-6.83
X1.65Y-3.87
X1.65Y-3.93
X2.3Y-3.77
X2.3Y-3.83
X7.65Y-4.62
X7.65Y-4.68
X8.3Y-4.52
X8.3Y-4.58
X3.9Y-7.62
X3.9Y-7.68
X4.55Y-7.52
X4.55Y-7.58
X12.15Y-3.87
X12.15Y-3.93
X12.8Y-3.77
X12.8Y-3.83
X2.4Y-6.87
X2.4Y-6.93
X3.05Y-6.77
X3.05Y-6.83
X5.4Y-5.37
X5.4Y-5.43
X6.05Y-5.27
X6.05Y-5.33
X3.15Y-6.12
X3.15Y-6.18
X3.8Y-6.02
X3.8Y-6.08
X2.4Y-5.37
X2.4Y-5.43
X3.05Y-5.27
X3.05Y-5.33
X5.4Y-7.62
X5.4Y-7.68
X6.05Y-7.52
X6.05Y-7.58
X2.4Y-4.62
X2.4Y-4.68
X3.05Y-4.52
X3.05Y-4.58
X7.65Y-5.37
X7.65Y-5.43
X8.3Y-5.27
X8.3Y-5.33
X13.65Y-3.87
X13.65Y-3.93
X14.3Y-3.77
X14.3Y-3.83
X10.65Y-6.12
X10.65Y-6.18
X11.3Y-6.02
X11.3Y-6.08
X7.65Y-6.12
X7.65Y-6.18
X8.3Y-6.02
X8.3Y-6.08
X12.9Y-6.12
X12.9Y-6.18
X13.55Y-6.02
X13.55Y-6.08
X9.9Y-7.62
X9.9Y-7.68
X10.55Y-7.52
X10.55Y-7.58
X9.15Y-5.37
X9.15Y-5.43
X9.8Y-5.27
X9.8Y-5.33
X13.65Y-6.87
X13.65Y-6.93
X14.3Y-6.77
X14.3Y-6.83
X3.9Y-3.87
X3.9Y-3.93
X4.55Y-3.77
X4.55Y-3.83
X11.4Y-5.37
X11.4Y-5.43
X12.05Y-5.27
X12.05Y-5.33
X9.15Y-3.87
X9.15Y-3.93
X9.8Y-3.77
X9.8Y-3.83
X6.9Y-4.62
X6.9Y-4.68
X7.55Y-4.52
X7.55Y-4.58
X13.65Y-4.62
X13.65Y-4.68
X14.3Y-4.52
X14.3Y-4.58
X4.65Y-5.37
X4.65Y-5.43
X5.3Y-5.27
X5.3Y-5.33
X11.4Y-4.62
X11.4Y-4.68
X12.05Y-4.52
X12.05Y-4.58
X8.4Y-6.12
X8.4Y-6.18
X9.05Y-6.02
X9.05Y-6.08
X1.65Y-6.87
X1.65Y-6.93
X2.3Y-6.77
X2.3Y-6.83
X6.9Y-6.12
X6.9Y-6.18
X7.55Y-6.02
X7.55Y-6.08
X12.9Y-4.62
X12.9Y-4.68
X13.55Y-4.52
X13.55Y-4.58
X3.9Y-5.37
X3.9Y-5.43
X4.55Y-5.27
X4.55Y-5.33
X10.65Y-3.87
X10.65Y-3.93
X11.3Y-3.77
X11.3Y-3.83
X8.4Y-4.62
X8.4Y-4.68
X9.05Y-4.52
X9.05Y-4.58
X2.4Y-6.12
X2.4Y-6.18
X3.05Y-6.02
X3.05Y-6.08
X6.15Y-4.62
X6.15Y-4.68
X6.8Y-4.52
X6.8Y-4.58
X12.15Y-7.62
X12.15Y-7.68
X12.8Y-7.52
X12.8Y-7.58
X4.65Y-6.87
X4.65Y-6.93
X5.3Y-6.77
X5.3Y-6.83
X10.65Y-7.62
X10.65Y-7.68
X11.3Y-7.52
X11.3Y-7.58
X9.9Y-5.37
X9.9Y-5.43
X10.55Y-5.27
X10.55Y-5.33
X6.15Y-5.37
X6.15Y-5.43
X6.8Y-5.27
X6.8Y-5.33
X6.9Y-6.87
X6.9Y-6.93
X7.55Y-6.77
X7.55Y-6.83
X3.9Y-4.62
X3.9Y-4.68
X4.55Y-4.52
X4.55Y-4.58
X1.65Y-5.37
X1.65Y-5.43
X2.3Y-5.27
X2.3Y-5.33
X7.65Y-3.87
X7.65Y-3.93
X8.3Y-3.77
X8.3Y-3.83
X3.15Y-5.37
X3.15Y-5.43
X3.8Y-5.27
X3.8Y-5.33
X6.15Y-6.87
X6.15Y-6.93
X6.8Y-6.77
X6.8Y-6.83
X12.15Y-6.87
X12.15Y-6.93
X12.8Y-6.77
X12.8Y-6.83
X2.4Y-3.87
X2.4Y-3.93
X3.05Y-3.77
X3.05Y-3.83
X12.9Y-6.87
X12.9Y-6.93
X13.55Y-6.77
X13.55Y-6.83
X10.65Y-4.62
X10.65Y-4.68
X11.3Y-4.52
X11.3Y-4.58
X9.15Y-6.87
X9.15Y-6.93
X9.8Y-6.77
X9.8Y-6.83
X12.9Y-5.37
X12.9Y-5.43
X13.55Y-5.27
X13.55Y-5.33
X9.9Y-6.87
X9.9Y-6.93
X10.55Y-6.77
X10.55Y-6.83
X9.15Y-4.62
X9.15Y-4.68
X9.8Y-4.52
X9.8Y-4.58
X5.4Y-3.87
X5.4Y-3.93
X6.05Y-3.77
X6.05Y-3.83
X11.4Y-6.87
X11.4Y-6.93
X12.05Y-6.77
X12.05Y-6.83
X9.15Y-7.62
X9.15Y-7.68
X9.8Y-7.52
X9.8Y-7.58
X6.9Y-3.87
X6.9Y-3.93
X7.55Y-3.77
X7.55Y-3.83
X4.65Y-3.87
X4.65Y-3.93
X5.3Y-3.77
X5.3Y-3.83
X11.4Y-3.87
X11.4Y-3.93
X12.05Y-3.77
X12.05Y-3.83
X8.4Y-5.37
X8.4Y-5.43
X9.05Y-5.27
X9.05Y-5.33
X1.65Y-7.62
X1.65Y-7.68
X2.3Y-7.52
X2.3Y-7.58
X6.15Y-7.62
X6.15Y-7.68
X6.8Y-7.52
X6.8Y-7.58
X13.65Y-5.37
X13.65Y-5.43
X14.3Y-5.27
X14.3Y-5.33
X3.15Y-7.62
X3.15Y-7.68
X3.8Y-7.52
X3.8Y-7.58
X12.15Y-5.37
X12.15Y-5.43
X12.8Y-5.27
X12.8Y-5.33
X7.65Y-7.62
X7.65Y-7.68
X8.3Y-7.52
X8.3Y-7.58
X1.65Y-6.12
X1.65Y-6.18
X2.3Y-6.02
X2.3Y-6.08
X5.4Y-6.87
X5.4Y-6.93
X6.05Y-6.77
X6.05Y-6.83
X3.15Y-6.87
X3.15Y-6.93
X3.8Y-6.77
X3.8Y-6.83
X10.65Y-5.37
X10.65Y-5.43
X11.3Y-5.27
X11.3Y-5.33
X8.4Y-7.62
X8.4Y-7.68
X9.05Y-7.52
X9.05Y-7.58
X3.15Y-4.62
X3.15Y-4.68
X3.8Y-4.52
X3.8Y-4.58
X5.4Y-6.12
X5.4Y-6.18
X6.05Y-6.02
X6.05Y-6.08
X4.65Y-6.12
X4.65Y-6.18
X5.3Y-6.02
X5.3Y-6.08
X6.15Y-3.87
X6.15Y-3.93
X6.8Y-3.77
X6.8Y-3.83
X5.4Y-4.62
X5.4Y-4.68
X6.05Y-4.52
X6.05Y-4.58
X1.65Y-4.62
X1.65Y-4.68
X2.3Y-4.52
X2.3Y-4.58
X6.9Y-5.37
X6.9Y-5.43
X7.55Y-5.27
X7.55Y-5.33
T2
X12.6369Y-2.81
X12.6763Y-2.81
X12.7156Y-2.81
X12.755Y-2.81
X13.695Y-3.3575
X13.7344Y-3.3575
X13.7738Y-3.3575
X13.8131Y-3.3575
X13.8525Y-3.3575
X13.615Y-2.7706
X13.615Y-2.81
X13.1494Y-3.265
X13.1888Y-3.265
X13.2281Y-3.265
X13.2675Y-3.265
X13.3069Y-3.265
X13.3463Y-3.265
X13.3856Y-3.265
X13.425Y-3.265
X13.03Y-3.265
X13.0694Y-3.265
X12.6744Y-3.265
X12.7138Y-3.265
X12.7531Y-3.265
X12.7925Y-3.265
X12.8319Y-3.265
X12.8713Y-3.265
X12.9106Y-3.265
X12.95Y-3.265
X12.6344Y-2.45
X12.6738Y-2.45
X12.7131Y-2.45
X12.7525Y-2.45
X12.7919Y-2.45
X12.8313Y-2.45
X12.8706Y-2.45
X12.91Y-2.45
X13.9313Y-3.3575
X13.9706Y-3.3575
X14.01Y-3.3575
X13.1456Y-2.45
X13.185Y-2.45
X13.4969Y-3.3575
X13.5363Y-3.3575
X13.5756Y-3.3575
X13.615Y-3.3575
X13.265Y-2.45
X13.3044Y-2.45
X13.3437Y-2.45
X13.3831Y-2.45
X13.4225Y-2.45
X13.4619Y-2.45
X13.5012Y-2.45
X13.5406Y-2.45
X12.6369Y-2.9
X12.6763Y-2.9
X12.7156Y-2.9
X12.755Y-2.9
X12.715Y-3.1
T4
X12.44Y-2.5
X12.44Y-2.7
X12.44Y-2.9
T5
X6.35Y-3.9
X6.6Y-3.8
X5.6Y-4.65
X5.85Y-4.55
X1.85Y-4.65
X2.1Y-4.55
X7.1Y-5.4
X7.35Y-5.3
X12.35Y-6.15
X12.6Y-6.05
X2.6Y-7.65
X2.85Y-7.55
X8.6Y-3.9
X8.85Y-3.8
X11.6Y-6.15
X11.85Y-6.05
X9.35Y-6.15
X9.6Y-6.05
X13.85Y-6.15
X14.1Y-6.05
X4.1Y-6.15
X4.35Y-6.05
X10.1Y-6.15
X10.35Y-6.05
X10.1Y-4.65
X10.35Y-4.55
X13.85Y-7.65
X14.1Y-7.55
X4.85Y-4.65
X5.1Y-4.55
X12.35Y-4.65
X12.6Y-4.55
X8.6Y-6.9
X8.85Y-6.8
X3.35Y-3.9
X3.6Y-3.8
X7.1Y-7.65
X7.35Y-7.55
X13.1Y-7.65
X13.35Y-7.55
X4.1Y-6.9
X4.35Y-6.8
X10.85Y-6.9
X11.1Y-6.8
X10.1Y-3.9
X10.35Y-3.8
X6.35Y-6.15
X6.6Y-6.05
X13.1Y-3.9
X13.35Y-3.8
X4.85Y-7.65
X5.1Y-7.55
X11.6Y-7.65
X11.85Y-7.55
X7.85Y-6.9
X8.1Y-6.8
X1.85Y-3.9
X2.1Y-3.8
X7.85Y-4.65
X8.1Y-4.55
X4.1Y-7.65
X4.35Y-7.55
X12.35Y-3.9
X12.6Y-3.8
X2.6Y-6.9
X2.85Y-6.8
X5.6Y-5.4
X5.85Y-5.3
X3.35Y-6.15
X3.6Y-6.05
X2.6Y-5.4
X2.85Y-5.3
X5.6Y-7.65
X5.85Y-7.55
X2.6Y-4.65
X2.85Y-4.55
X7.85Y-5.4
X8.1Y-5.3
X13.85Y-3.9
X14.1Y-3.8
X10.85Y-6.15
X11.1Y-6.05
X7.85Y-6.15
X8.1Y-6.05
X13.1Y-6.15
X13.35Y-6.05
X10.1Y-7.65
X10.35Y-7.55
X9.35Y-5.4
X9.6Y-5.3
X13.85Y-6.9
X14.1Y-6.8
X4.1Y-3.9
X4.35Y-3.8
X11.6Y-5.4
X11.85Y-5.3
X9.35Y-3.9
X9.6Y-3.8
X7.1Y-4.65
X7.35Y-4.55
X13.85Y-4.65
X14.1Y-4.55
X4.85Y-5.4
X5.1Y-5.3
X11.6Y-4.65
X11.85Y-4.55
X8.6Y-6.15
X8.85Y-6.05
X1.85Y-6.9
X2.1Y-6.8
X7.1Y-6.15
X7.35Y-6.05
X13.1Y-4.65
X13.35Y-4.55
X4.1Y-5.4
X4.35Y-5.3
X10.85Y-3.9
X11.1Y-3.8
X8.6Y-4.65
X8.85Y-4.55
X2.6Y-6.15
X2.85Y-6.05
X6.35Y-4.65
X6.6Y-4.55
X12.35Y-7.65
X12.6Y-7.55
X4.85Y-6.9
X5.1Y-6.8
X10.85Y-7.65
X11.1Y-7.55
X10.1Y-5.4
X10.35Y-5.3
X6.35Y-5.4
X6.6Y-5.3
X7.1Y-6.9
X7.35Y-6.8
X4.1Y-4.65
X4.35Y-4.55
X1.85Y-5.4
X2.1Y-5.3
X7.85Y-3.9
X8.1Y-3.8
X3.35Y-5.4
X3.6Y-5.3
X6.35Y-6.9
X6.6Y-6.8
X12.35Y-6.9
X12.6Y-6.8
X2.6Y-3.9
X2.85Y-3.8
X13.1Y-6.9
X13.35Y-6.8
X10.85Y-4.65
X11.1Y-4.55
X9.35Y-6.9
X9.6Y-6.8
X13.1Y-5.4
X13.35Y-5.3
X10.1Y-6.9
X10.35Y-6.8
X9.35Y-4.65
X9.6Y-4.55
X5.6Y-3.9
X5.85Y-3.8
X11.6Y-6.9
X11.85Y-6.8
X9.35Y-7.65
X9.6Y-7.55
X7.1Y-3.9
X7.35Y-3.8
X4.85Y-3.9
X5.1Y-3.8
X11.6Y-3.9
X11.85Y-3.8
X8.6Y-5.4
X8.85Y-5.3
X1.85Y-7.65
X2.1Y-7.55
X6.35Y-7.65
X6.6Y-7.55
X13.85Y-5.4
X14.1Y-5.3
X3.35Y-7.65
X3.6Y-7.55
X12.35Y-5.4
X12.6Y-5.3
X7.85Y-7.65
X8.1Y-7.55
X1.85Y-6.15
X2.1Y-6.05
X5.6Y-6.9
X5.85Y-6.8
X3.35Y-6.9
X3.6Y-6.8
X10.85Y-5.4
X11.1Y-5.3
X8.6Y-7.65
X8.85Y-7.55
X3.35Y-4.65
X3.6Y-4.55
X5.6Y-6.15
X5.85Y-6.05
X4.85Y-6.15
X5.1Y-6.05
T3
G00X13.7149Y-2.5169
M15
G01X13.7149Y-2.5405
M16
G05
G00X13.7149Y-2.6716
M15
G01X13.7149Y-2.7149
M16
G05
G00X14.0551Y-2.5169
M15
G01X14.0551Y-2.5405
M16
G05
G00X14.0551Y-2.6716
M15
G01X14.0551Y-2.7149
M16
G05
T0
M30
