M48
; DRILL file {KiCad (5.1.4)-1} date 15-09-2021 16:32:05
; FORMAT={-:-/ absolute / metric / decimal}
; #@! TF.CreationDate,2021-09-15T16:32:05-03:00
; #@! TF.GenerationSoftware,Kicad,Pcbnew,(5.1.4)-1
; #@! TF.FileFunction,Plated,1,2,PTH
FMAT,2
METRIC
T1C0.400
T2C0.500
T3C0.600
T4C1.100
T5C3.000
T6C3.200
%
G90
G05
T1
X263.525Y-122.174
X263.525Y-123.698
X263.525Y-141.224
X263.525Y-142.748
X263.525Y-160.274
X263.525Y-161.925
X263.525Y-179.324
X263.525Y-181.102
X263.779Y-103.124
X263.779Y-104.775
X282.575Y-121.92
X282.575Y-123.952
X282.575Y-141.097
X282.575Y-142.875
X282.575Y-160.147
X282.575Y-162.052
X282.702Y-102.997
X282.702Y-104.775
X294.862Y-86.106
X301.625Y-104.775
X301.625Y-122.047
X301.625Y-123.698
X301.752Y-103.124
X301.752Y-141.224
X301.752Y-142.875
X315.849Y-70.612
X318.452Y-76.01
X320.675Y-122.047
X320.675Y-123.698
X320.952Y-75.311
X321.056Y-103.124
X321.056Y-104.902
X321.945Y-81.28
X323.215Y-79.883
X323.301Y-67.472
X324.358Y-67.691
X324.929Y-78.013
X325.628Y-73.533
X328.549Y-73.152
X328.581Y-89.694
X329.438Y-72.263
X329.438Y-73.152
X329.438Y-74.041
X330.327Y-71.374
X330.327Y-72.263
X330.327Y-73.152
X330.327Y-74.041
X330.327Y-74.93
X331.216Y-70.485
X331.216Y-71.374
X331.216Y-72.263
X331.216Y-73.152
X331.216Y-74.041
X331.216Y-74.93
X331.216Y-75.819
X331.724Y-64.96
X332.105Y-69.596
X332.105Y-70.485
X332.105Y-71.374
X332.105Y-72.263
X332.105Y-73.152
X332.105Y-74.041
X332.105Y-74.93
X332.105Y-75.819
X332.105Y-76.708
X332.994Y-66.548
X332.994Y-68.707
X332.994Y-69.596
X332.994Y-70.485
X332.994Y-71.374
X332.994Y-72.263
X332.994Y-73.152
X332.994Y-74.041
X332.994Y-74.93
X332.994Y-75.819
X332.994Y-76.708
X332.994Y-77.597
X333.883Y-69.596
X333.883Y-70.485
X333.883Y-71.374
X333.883Y-72.263
X333.883Y-73.152
X333.883Y-74.041
X333.883Y-74.93
X333.883Y-75.819
X333.883Y-76.708
X334.772Y-70.485
X334.772Y-71.374
X334.772Y-72.263
X334.772Y-73.152
X334.772Y-74.041
X334.772Y-74.93
X334.772Y-75.819
X334.995Y-80.549
X335.661Y-71.374
X335.661Y-72.263
X335.661Y-73.152
X335.661Y-74.041
X335.661Y-74.93
X336.423Y-63.443
X336.423Y-65.024
X336.423Y-68.707
X336.526Y-67.712
X336.55Y-72.263
X336.55Y-73.152
X336.55Y-74.041
X336.556Y-66.713
X337.343Y-65.645
X337.439Y-73.152
X339.344Y-65.024
X339.445Y-76.099
X339.678Y-74.191
X339.693Y-88.9
X339.887Y-77.898
X340.028Y-68.146
X340.233Y-103.194
X340.233Y-104.775
X340.36Y-79.375
X342.011Y-76.454
X342.077Y-74.746
X342.9Y-80.137
X343.367Y-70.121
X344.247Y-72.721
X344.424Y-73.795
X344.424Y-74.795
X345.63Y-69.025
X347.091Y-73.152
X347.218Y-76.073
X351.652Y-66.294
X352.552Y-81.407
X352.687Y-72.009
X352.706Y-66.294
X353.687Y-72.009
X354.012Y-74.612
X355.473Y-76.581
X357.378Y-73.025
X358.267Y-70.866
X358.267Y-73.787
X360.045Y-78.168
X361.188Y-72.009
X362.331Y-73.025
X289.56Y-193.548
X289.56Y-195.072
X306.07Y-191.008
X306.07Y-192.532
X175.26Y-174.498
X175.26Y-176.022
X191.77Y-171.958
X191.77Y-173.482
X270.51Y-117.348
X270.51Y-118.872
X287.02Y-114.808
X287.02Y-116.332
X80.01Y-117.348
X80.01Y-118.872
X96.52Y-114.808
X96.52Y-116.332
X213.36Y-193.548
X213.36Y-195.072
X229.87Y-191.008
X229.87Y-192.532
X270.51Y-193.548
X270.51Y-195.072
X287.02Y-191.008
X287.02Y-192.532
X60.96Y-117.348
X60.96Y-118.872
X77.47Y-114.808
X77.47Y-116.332
X213.36Y-174.498
X213.36Y-176.022
X229.87Y-171.958
X229.87Y-173.482
X289.56Y-174.498
X289.56Y-176.022
X306.07Y-171.958
X306.07Y-173.482
X137.16Y-155.448
X137.16Y-156.972
X153.67Y-152.908
X153.67Y-154.432
X175.26Y-136.398
X175.26Y-137.922
X191.77Y-133.858
X191.77Y-135.382
X118.11Y-193.548
X118.11Y-195.072
X134.62Y-191.008
X134.62Y-192.532
X308.61Y-174.498
X308.61Y-176.022
X325.12Y-171.958
X325.12Y-173.482
X60.96Y-193.548
X60.96Y-195.072
X77.47Y-191.008
X77.47Y-192.532
X156.21Y-193.548
X156.21Y-195.072
X172.72Y-191.008
X172.72Y-192.532
X41.91Y-98.298
X41.91Y-99.822
X58.42Y-95.758
X58.42Y-97.282
X327.66Y-193.548
X327.66Y-195.072
X344.17Y-191.008
X344.17Y-192.532
X99.06Y-117.348
X99.06Y-118.872
X115.57Y-114.808
X115.57Y-116.332
X232.41Y-155.448
X232.41Y-156.972
X248.92Y-152.908
X248.92Y-154.432
X80.01Y-98.298
X80.01Y-99.822
X96.52Y-95.758
X96.52Y-97.282
X327.66Y-155.448
X327.66Y-156.972
X344.17Y-152.908
X344.17Y-154.432
X118.11Y-174.498
X118.11Y-176.022
X134.62Y-171.958
X134.62Y-173.482
X213.36Y-117.348
X213.36Y-118.872
X229.87Y-114.808
X229.87Y-116.332
X60.96Y-136.398
X60.96Y-137.922
X77.47Y-133.858
X77.47Y-135.382
X346.71Y-193.548
X346.71Y-195.072
X363.22Y-191.008
X363.22Y-192.532
X156.21Y-98.298
X156.21Y-99.822
X172.72Y-95.758
X172.72Y-97.282
X251.46Y-155.448
X251.46Y-156.972
X267.97Y-152.908
X267.97Y-154.432
X80.01Y-136.398
X80.01Y-137.922
X96.52Y-133.858
X96.52Y-135.382
X270.51Y-136.398
X270.51Y-137.922
X287.02Y-133.858
X287.02Y-135.382
X327.66Y-98.298
X327.66Y-99.822
X344.17Y-95.758
X344.17Y-97.282
X232.41Y-117.348
X232.41Y-118.872
X248.92Y-114.808
X248.92Y-116.332
X99.06Y-155.448
X99.06Y-156.972
X115.57Y-152.908
X115.57Y-154.432
X289.56Y-136.398
X289.56Y-137.922
X306.07Y-133.858
X306.07Y-135.382
X346.71Y-117.348
X346.71Y-118.872
X363.22Y-114.808
X363.22Y-116.332
X175.26Y-98.298
X175.26Y-99.822
X191.77Y-95.758
X191.77Y-97.282
X118.11Y-155.448
X118.11Y-156.972
X134.62Y-152.908
X134.62Y-154.432
X308.61Y-117.348
X308.61Y-118.872
X325.12Y-114.808
X325.12Y-116.332
X251.46Y-193.548
X251.46Y-195.072
X267.97Y-191.008
X267.97Y-192.532
X327.66Y-117.348
X327.66Y-118.872
X344.17Y-114.808
X344.17Y-116.332
X137.16Y-136.398
X137.16Y-137.922
X153.67Y-133.858
X153.67Y-135.382
X232.41Y-136.398
X232.41Y-137.922
X248.92Y-133.858
X248.92Y-135.382
X289.56Y-117.348
X289.56Y-118.872
X306.07Y-114.808
X306.07Y-116.332
X80.01Y-174.498
X80.01Y-176.022
X96.52Y-171.958
X96.52Y-173.482
X213.36Y-98.298
X213.36Y-99.822
X229.87Y-95.758
X229.87Y-97.282
X60.96Y-98.298
X60.96Y-99.822
X77.47Y-95.758
X77.47Y-97.282
X308.61Y-98.298
X308.61Y-99.822
X325.12Y-95.758
X325.12Y-97.282
X41.91Y-155.448
X41.91Y-156.972
X58.42Y-152.908
X58.42Y-154.432
X175.26Y-117.348
X175.26Y-118.872
X191.77Y-114.808
X191.77Y-116.332
X137.16Y-174.498
X137.16Y-176.022
X153.67Y-171.958
X153.67Y-173.482
X308.61Y-193.548
X308.61Y-195.072
X325.12Y-191.008
X325.12Y-192.532
X80.01Y-193.548
X80.01Y-195.072
X96.52Y-191.008
X96.52Y-192.532
X213.36Y-136.398
X213.36Y-137.922
X229.87Y-133.858
X229.87Y-135.382
X156.21Y-117.348
X156.21Y-118.872
X172.72Y-114.808
X172.72Y-116.332
X346.71Y-98.298
X346.71Y-99.822
X363.22Y-95.758
X363.22Y-97.282
X118.11Y-117.348
X118.11Y-118.872
X134.62Y-114.808
X134.62Y-116.332
X194.31Y-117.348
X194.31Y-118.872
X210.82Y-114.808
X210.82Y-116.332
X156.21Y-136.398
X156.21Y-137.922
X172.72Y-133.858
X172.72Y-135.382
X137.16Y-117.348
X137.16Y-118.872
X153.67Y-114.808
X153.67Y-116.332
X194.31Y-136.398
X194.31Y-137.922
X210.82Y-133.858
X210.82Y-135.382
X99.06Y-174.498
X99.06Y-176.022
X115.57Y-171.958
X115.57Y-173.482
X251.46Y-117.348
X251.46Y-118.872
X267.97Y-114.808
X267.97Y-116.332
X346.71Y-136.398
X346.71Y-137.922
X363.22Y-133.858
X363.22Y-135.382
X194.31Y-155.448
X194.31Y-156.972
X210.82Y-152.908
X210.82Y-154.432
X118.11Y-98.298
X118.11Y-99.822
X134.62Y-95.758
X134.62Y-97.282
X270.51Y-174.498
X270.51Y-176.022
X287.02Y-171.958
X287.02Y-173.482
X156.21Y-174.498
X156.21Y-176.022
X172.72Y-171.958
X172.72Y-173.482
X213.36Y-155.448
X213.36Y-156.972
X229.87Y-152.908
X229.87Y-154.432
X118.11Y-136.398
X118.11Y-137.922
X134.62Y-133.858
X134.62Y-135.382
X194.31Y-193.548
X194.31Y-195.072
X210.82Y-191.008
X210.82Y-192.532
X327.66Y-136.398
X327.66Y-137.922
X344.17Y-133.858
X344.17Y-135.382
X156.21Y-155.448
X156.21Y-156.972
X172.72Y-152.908
X172.72Y-154.432
X175.26Y-193.548
X175.26Y-195.072
X191.77Y-191.008
X191.77Y-192.532
X137.16Y-98.298
X137.16Y-99.822
X153.67Y-95.758
X153.67Y-97.282
X194.31Y-174.498
X194.31Y-176.022
X210.82Y-171.958
X210.82Y-173.482
X270.51Y-155.448
X270.51Y-156.972
X287.02Y-152.908
X287.02Y-154.432
X270.51Y-98.298
X270.51Y-99.822
X287.02Y-95.758
X287.02Y-97.282
X289.56Y-155.448
X289.56Y-156.972
X306.07Y-152.908
X306.07Y-154.432
X80.01Y-155.448
X80.01Y-156.972
X96.52Y-152.908
X96.52Y-154.432
X251.46Y-98.298
X251.46Y-99.822
X267.97Y-95.758
X267.97Y-97.282
X41.91Y-193.548
X41.91Y-195.072
X58.42Y-191.008
X58.42Y-192.532
X308.61Y-155.448
X308.61Y-156.972
X325.12Y-152.908
X325.12Y-154.432
X41.91Y-117.348
X41.91Y-118.872
X58.42Y-114.808
X58.42Y-116.332
X175.26Y-155.448
X175.26Y-156.972
X191.77Y-152.908
X191.77Y-154.432
X60.96Y-174.498
X60.96Y-176.022
X77.47Y-171.958
X77.47Y-173.482
X327.66Y-174.498
X327.66Y-176.022
X344.17Y-171.958
X344.17Y-173.482
X99.06Y-193.548
X99.06Y-195.072
X115.57Y-191.008
X115.57Y-192.532
X232.41Y-98.298
X232.41Y-99.822
X248.92Y-95.758
X248.92Y-97.282
X99.06Y-98.298
X99.06Y-99.822
X115.57Y-95.758
X115.57Y-97.282
X346.71Y-174.498
X346.71Y-176.022
X363.22Y-171.958
X363.22Y-173.482
X99.06Y-136.398
X99.06Y-137.922
X115.57Y-133.858
X115.57Y-135.382
X232.41Y-193.548
X232.41Y-195.072
X248.92Y-191.008
X248.92Y-192.532
X41.91Y-174.498
X41.91Y-176.022
X58.42Y-171.958
X58.42Y-173.482
X137.16Y-193.548
X137.16Y-195.072
X153.67Y-191.008
X153.67Y-192.532
X232.41Y-174.498
X232.41Y-176.022
X248.92Y-171.958
X248.92Y-173.482
X251.46Y-136.398
X251.46Y-137.922
X267.97Y-133.858
X267.97Y-135.382
X308.61Y-136.398
X308.61Y-137.922
X325.12Y-133.858
X325.12Y-135.382
X251.46Y-174.498
X251.46Y-176.022
X267.97Y-171.958
X267.97Y-173.482
X60.96Y-155.448
X60.96Y-156.972
X77.47Y-152.908
X77.47Y-154.432
X289.56Y-98.298
X289.56Y-99.822
X306.07Y-95.758
X306.07Y-97.282
X346.71Y-155.448
X346.71Y-156.972
X363.22Y-152.908
X363.22Y-154.432
X194.31Y-98.298
X194.31Y-99.822
X210.82Y-95.758
X210.82Y-97.282
X41.91Y-136.398
X41.91Y-137.922
X58.42Y-133.858
X58.42Y-135.382
T2
X333.899Y-62.23
X334.899Y-62.23
X313.055Y-71.501
X313.055Y-72.501
X313.055Y-73.501
X333.995Y-82.931
X334.995Y-82.931
X335.995Y-82.931
X336.995Y-82.931
X337.995Y-82.931
X338.995Y-82.931
X339.995Y-82.931
X340.995Y-82.931
X347.853Y-85.28
X348.853Y-85.28
X349.853Y-85.28
X350.853Y-85.28
X351.853Y-85.28
X330.962Y-82.931
X331.962Y-82.931
X322.961Y-78.74
X330.581Y-62.23
X331.581Y-62.23
X320.914Y-62.23
X321.914Y-62.23
X322.914Y-62.23
X323.914Y-62.23
X324.914Y-62.23
X325.914Y-62.23
X326.914Y-62.23
X327.914Y-62.23
X321.93Y-82.931
X322.93Y-82.931
X323.93Y-82.931
X324.93Y-82.931
X325.93Y-82.931
X326.93Y-82.931
X327.93Y-82.931
X328.93Y-82.931
X342.821Y-85.28
X343.821Y-85.28
X344.821Y-85.28
X345.821Y-85.28
X320.977Y-73.66
X321.977Y-73.66
X322.977Y-73.66
X323.977Y-73.66
X320.977Y-71.374
X321.977Y-71.374
X322.977Y-71.374
X323.977Y-71.374
X345.821Y-70.374
X345.821Y-71.374
X336.931Y-62.23
X337.931Y-62.23
X338.931Y-62.23
X339.931Y-62.23
X340.931Y-62.23
X341.931Y-62.23
X342.931Y-62.23
X343.931Y-62.23
X353.854Y-85.28
X354.854Y-85.28
X355.854Y-85.28
T4
X315.849Y-63.921
X315.849Y-68.921
T5
X294.64Y-194.31
X300.99Y-191.77
X180.34Y-175.26
X186.69Y-172.72
X275.59Y-118.11
X281.94Y-115.57
X85.09Y-118.11
X91.44Y-115.57
X218.44Y-194.31
X224.79Y-191.77
X275.59Y-194.31
X281.94Y-191.77
X66.04Y-118.11
X72.39Y-115.57
X218.44Y-175.26
X224.79Y-172.72
X294.64Y-175.26
X300.99Y-172.72
X142.24Y-156.21
X148.59Y-153.67
X180.34Y-137.16
X186.69Y-134.62
X123.19Y-194.31
X129.54Y-191.77
X313.69Y-175.26
X320.04Y-172.72
X66.04Y-194.31
X72.39Y-191.77
X161.29Y-194.31
X167.64Y-191.77
X46.99Y-99.06
X53.34Y-96.52
X332.74Y-194.31
X339.09Y-191.77
X104.14Y-118.11
X110.49Y-115.57
X237.49Y-156.21
X243.84Y-153.67
X85.09Y-99.06
X91.44Y-96.52
X332.74Y-156.21
X339.09Y-153.67
X123.19Y-175.26
X129.54Y-172.72
X218.44Y-118.11
X224.79Y-115.57
X66.04Y-137.16
X72.39Y-134.62
X351.79Y-194.31
X358.14Y-191.77
X161.29Y-99.06
X167.64Y-96.52
X256.54Y-156.21
X262.89Y-153.67
X85.09Y-137.16
X91.44Y-134.62
X275.59Y-137.16
X281.94Y-134.62
X332.74Y-99.06
X339.09Y-96.52
X237.49Y-118.11
X243.84Y-115.57
X104.14Y-156.21
X110.49Y-153.67
X294.64Y-137.16
X300.99Y-134.62
X351.79Y-118.11
X358.14Y-115.57
X180.34Y-99.06
X186.69Y-96.52
X123.19Y-156.21
X129.54Y-153.67
X313.69Y-118.11
X320.04Y-115.57
X256.54Y-194.31
X262.89Y-191.77
X332.74Y-118.11
X339.09Y-115.57
X142.24Y-137.16
X148.59Y-134.62
X237.49Y-137.16
X243.84Y-134.62
X294.64Y-118.11
X300.99Y-115.57
X85.09Y-175.26
X91.44Y-172.72
X218.44Y-99.06
X224.79Y-96.52
X66.04Y-99.06
X72.39Y-96.52
X313.69Y-99.06
X320.04Y-96.52
X46.99Y-156.21
X53.34Y-153.67
X180.34Y-118.11
X186.69Y-115.57
X142.24Y-175.26
X148.59Y-172.72
X313.69Y-194.31
X320.04Y-191.77
X85.09Y-194.31
X91.44Y-191.77
X218.44Y-137.16
X224.79Y-134.62
X161.29Y-118.11
X167.64Y-115.57
X351.79Y-99.06
X358.14Y-96.52
X123.19Y-118.11
X129.54Y-115.57
X199.39Y-118.11
X205.74Y-115.57
X161.29Y-137.16
X167.64Y-134.62
X142.24Y-118.11
X148.59Y-115.57
X199.39Y-137.16
X205.74Y-134.62
X104.14Y-175.26
X110.49Y-172.72
X256.54Y-118.11
X262.89Y-115.57
X351.79Y-137.16
X358.14Y-134.62
X199.39Y-156.21
X205.74Y-153.67
X123.19Y-99.06
X129.54Y-96.52
X275.59Y-175.26
X281.94Y-172.72
X161.29Y-175.26
X167.64Y-172.72
X218.44Y-156.21
X224.79Y-153.67
X123.19Y-137.16
X129.54Y-134.62
X199.39Y-194.31
X205.74Y-191.77
X332.74Y-137.16
X339.09Y-134.62
X161.29Y-156.21
X167.64Y-153.67
X180.34Y-194.31
X186.69Y-191.77
X142.24Y-99.06
X148.59Y-96.52
X199.39Y-175.26
X205.74Y-172.72
X275.59Y-156.21
X281.94Y-153.67
X275.59Y-99.06
X281.94Y-96.52
X294.64Y-156.21
X300.99Y-153.67
X85.09Y-156.21
X91.44Y-153.67
X256.54Y-99.06
X262.89Y-96.52
X46.99Y-194.31
X53.34Y-191.77
X313.69Y-156.21
X320.04Y-153.67
X46.99Y-118.11
X53.34Y-115.57
X180.34Y-156.21
X186.69Y-153.67
X66.04Y-175.26
X72.39Y-172.72
X332.74Y-175.26
X339.09Y-172.72
X104.14Y-194.31
X110.49Y-191.77
X237.49Y-99.06
X243.84Y-96.52
X104.14Y-99.06
X110.49Y-96.52
X351.79Y-175.26
X358.14Y-172.72
X104.14Y-137.16
X110.49Y-134.62
X237.49Y-194.31
X243.84Y-191.77
X46.99Y-175.26
X53.34Y-172.72
X142.24Y-194.31
X148.59Y-191.77
X237.49Y-175.26
X243.84Y-172.72
X256.54Y-137.16
X262.89Y-134.62
X313.69Y-137.16
X320.04Y-134.62
X256.54Y-175.26
X262.89Y-172.72
X66.04Y-156.21
X72.39Y-153.67
X294.64Y-99.06
X300.99Y-96.52
X351.79Y-156.21
X358.14Y-153.67
X199.39Y-99.06
X205.74Y-96.52
X46.99Y-137.16
X53.34Y-134.62
T6
X60.325Y-183.356
X307.975Y-107.156
X269.875Y-183.356
X60.325Y-145.256
X346.075Y-183.356
X269.875Y-107.156
X155.575Y-107.156
X155.575Y-183.356
X307.975Y-145.256
X269.875Y-145.256
X307.975Y-183.356
X193.675Y-145.256
X193.675Y-183.356
X346.075Y-145.256
X155.575Y-145.256
X60.325Y-107.156
X193.675Y-107.156
X346.075Y-107.156
T3
X348.359Y-63.928G85X348.359Y-64.528
G05
X348.359Y-67.858G85X348.359Y-68.958
G05
X356.999Y-63.928G85X356.999Y-64.528
G05
X356.999Y-67.858G85X356.999Y-68.958
G05
T0
M30
