G04 #@! TF.GenerationSoftware,KiCad,Pcbnew,(5.1.4)-1*
G04 #@! TF.CreationDate,2021-09-15T16:32:01-03:00*
G04 #@! TF.ProjectId,keyboard-pcb,6b657962-6f61-4726-942d-7063622e6b69,rev?*
G04 #@! TF.SameCoordinates,Original*
G04 #@! TF.FileFunction,Copper,L1,Top*
G04 #@! TF.FilePolarity,Positive*
%FSLAX46Y46*%
G04 Gerber Fmt 4.6, Leading zero omitted, Abs format (unit mm)*
G04 Created by KiCad (PCBNEW (5.1.4)-1) date 2021-09-15 16:32:01*
%MOMM*%
%LPD*%
G04 APERTURE LIST*
%ADD10C,5.600000*%
%ADD11O,0.850000X0.850000*%
%ADD12R,0.850000X0.850000*%
%ADD13C,1.524000*%
%ADD14O,1.000000X2.100000*%
%ADD15O,1.000000X1.600000*%
%ADD16C,0.800000*%
%ADD17C,4.000000*%
%ADD18C,0.381000*%
%ADD19C,0.254000*%
G04 APERTURE END LIST*
D10*
X193675000Y-183356250D03*
X193675000Y-145256250D03*
X193675000Y-107156250D03*
X307975000Y-183356250D03*
X307975000Y-145256250D03*
X307975000Y-107156250D03*
X60325000Y-107156250D03*
X60325000Y-145256250D03*
X60325000Y-183356250D03*
X155575000Y-183356250D03*
X155575000Y-145256250D03*
X155575000Y-107156250D03*
X269875000Y-107156250D03*
X269875000Y-183356250D03*
X269875000Y-145256250D03*
X346075000Y-145256250D03*
X346075000Y-183356250D03*
X346075000Y-107156250D03*
D11*
X313055000Y-73501000D03*
X313055000Y-72501000D03*
D12*
X313055000Y-71501000D03*
D13*
X315849000Y-68921000D03*
X315849000Y-63921000D03*
D11*
X331581000Y-62230000D03*
D12*
X330581000Y-62230000D03*
D14*
X356999000Y-68408000D03*
X348359000Y-68408000D03*
D15*
X348359000Y-64228000D03*
X356999000Y-64228000D03*
D16*
X344170000Y-116332000D03*
X327660000Y-118872000D03*
X344170000Y-114808000D03*
X327660000Y-117348000D03*
D17*
X332740000Y-118110000D03*
X339090000Y-115570000D03*
D11*
X320977000Y-73660000D03*
X321977000Y-73660000D03*
X322977000Y-73660000D03*
D12*
X323977000Y-73660000D03*
D11*
X320977000Y-71374000D03*
X321977000Y-71374000D03*
X322977000Y-71374000D03*
D12*
X323977000Y-71374000D03*
D11*
X333899000Y-62230000D03*
D12*
X334899000Y-62230000D03*
D11*
X345821000Y-70374000D03*
D12*
X345821000Y-71374000D03*
X322961000Y-78740000D03*
D11*
X331962000Y-82931000D03*
D12*
X330962000Y-82931000D03*
D11*
X321930000Y-82931000D03*
X322930000Y-82931000D03*
X323930000Y-82931000D03*
X324930000Y-82931000D03*
X325930000Y-82931000D03*
X326930000Y-82931000D03*
X327930000Y-82931000D03*
D12*
X328930000Y-82931000D03*
D16*
X191770000Y-173482000D03*
X175260000Y-176022000D03*
X191770000Y-171958000D03*
X175260000Y-174498000D03*
D17*
X180340000Y-175260000D03*
X186690000Y-172720000D03*
D16*
X363220000Y-192532000D03*
X346710000Y-195072000D03*
X363220000Y-191008000D03*
X346710000Y-193548000D03*
D17*
X351790000Y-194310000D03*
X358140000Y-191770000D03*
D16*
X363220000Y-173482000D03*
X346710000Y-176022000D03*
X363220000Y-171958000D03*
X346710000Y-174498000D03*
D17*
X351790000Y-175260000D03*
X358140000Y-172720000D03*
D16*
X363220000Y-154432000D03*
X346710000Y-156972000D03*
X363220000Y-152908000D03*
X346710000Y-155448000D03*
D17*
X351790000Y-156210000D03*
X358140000Y-153670000D03*
D16*
X363220000Y-135382000D03*
X346710000Y-137922000D03*
X363220000Y-133858000D03*
X346710000Y-136398000D03*
D17*
X351790000Y-137160000D03*
X358140000Y-134620000D03*
D16*
X363220000Y-116332000D03*
X346710000Y-118872000D03*
X363220000Y-114808000D03*
X346710000Y-117348000D03*
D17*
X351790000Y-118110000D03*
X358140000Y-115570000D03*
D16*
X363220000Y-97282000D03*
X346710000Y-99822000D03*
X363220000Y-95758000D03*
X346710000Y-98298000D03*
D17*
X351790000Y-99060000D03*
X358140000Y-96520000D03*
D16*
X344170000Y-192532000D03*
X327660000Y-195072000D03*
X344170000Y-191008000D03*
X327660000Y-193548000D03*
D17*
X332740000Y-194310000D03*
X339090000Y-191770000D03*
D16*
X344170000Y-173482000D03*
X327660000Y-176022000D03*
X344170000Y-171958000D03*
X327660000Y-174498000D03*
D17*
X332740000Y-175260000D03*
X339090000Y-172720000D03*
D16*
X344170000Y-154432000D03*
X327660000Y-156972000D03*
X344170000Y-152908000D03*
X327660000Y-155448000D03*
D17*
X332740000Y-156210000D03*
X339090000Y-153670000D03*
D16*
X344170000Y-135382000D03*
X327660000Y-137922000D03*
X344170000Y-133858000D03*
X327660000Y-136398000D03*
D17*
X332740000Y-137160000D03*
X339090000Y-134620000D03*
D16*
X344170000Y-97282000D03*
X327660000Y-99822000D03*
X344170000Y-95758000D03*
X327660000Y-98298000D03*
D17*
X332740000Y-99060000D03*
X339090000Y-96520000D03*
D16*
X325120000Y-192532000D03*
X308610000Y-195072000D03*
X325120000Y-191008000D03*
X308610000Y-193548000D03*
D17*
X313690000Y-194310000D03*
X320040000Y-191770000D03*
D16*
X325120000Y-173482000D03*
X308610000Y-176022000D03*
X325120000Y-171958000D03*
X308610000Y-174498000D03*
D17*
X313690000Y-175260000D03*
X320040000Y-172720000D03*
D16*
X325120000Y-154432000D03*
X308610000Y-156972000D03*
X325120000Y-152908000D03*
X308610000Y-155448000D03*
D17*
X313690000Y-156210000D03*
X320040000Y-153670000D03*
D16*
X325120000Y-135382000D03*
X308610000Y-137922000D03*
X325120000Y-133858000D03*
X308610000Y-136398000D03*
D17*
X313690000Y-137160000D03*
X320040000Y-134620000D03*
D16*
X325120000Y-116332000D03*
X308610000Y-118872000D03*
X325120000Y-114808000D03*
X308610000Y-117348000D03*
D17*
X313690000Y-118110000D03*
X320040000Y-115570000D03*
D16*
X325120000Y-97282000D03*
X308610000Y-99822000D03*
X325120000Y-95758000D03*
X308610000Y-98298000D03*
D17*
X313690000Y-99060000D03*
X320040000Y-96520000D03*
D16*
X306070000Y-192532000D03*
X289560000Y-195072000D03*
X306070000Y-191008000D03*
X289560000Y-193548000D03*
D17*
X294640000Y-194310000D03*
X300990000Y-191770000D03*
D16*
X306070000Y-173482000D03*
X289560000Y-176022000D03*
X306070000Y-171958000D03*
X289560000Y-174498000D03*
D17*
X294640000Y-175260000D03*
X300990000Y-172720000D03*
D16*
X306070000Y-154432000D03*
X289560000Y-156972000D03*
X306070000Y-152908000D03*
X289560000Y-155448000D03*
D17*
X294640000Y-156210000D03*
X300990000Y-153670000D03*
D16*
X306070000Y-135382000D03*
X289560000Y-137922000D03*
X306070000Y-133858000D03*
X289560000Y-136398000D03*
D17*
X294640000Y-137160000D03*
X300990000Y-134620000D03*
D16*
X306070000Y-116332000D03*
X289560000Y-118872000D03*
X306070000Y-114808000D03*
X289560000Y-117348000D03*
D17*
X294640000Y-118110000D03*
X300990000Y-115570000D03*
D16*
X306070000Y-97282000D03*
X289560000Y-99822000D03*
X306070000Y-95758000D03*
X289560000Y-98298000D03*
D17*
X294640000Y-99060000D03*
X300990000Y-96520000D03*
D16*
X287020000Y-192532000D03*
X270510000Y-195072000D03*
X287020000Y-191008000D03*
X270510000Y-193548000D03*
D17*
X275590000Y-194310000D03*
X281940000Y-191770000D03*
D16*
X287020000Y-173482000D03*
X270510000Y-176022000D03*
X287020000Y-171958000D03*
X270510000Y-174498000D03*
D17*
X275590000Y-175260000D03*
X281940000Y-172720000D03*
D16*
X287020000Y-154432000D03*
X270510000Y-156972000D03*
X287020000Y-152908000D03*
X270510000Y-155448000D03*
D17*
X275590000Y-156210000D03*
X281940000Y-153670000D03*
D16*
X287020000Y-135382000D03*
X270510000Y-137922000D03*
X287020000Y-133858000D03*
X270510000Y-136398000D03*
D17*
X275590000Y-137160000D03*
X281940000Y-134620000D03*
D16*
X287020000Y-116332000D03*
X270510000Y-118872000D03*
X287020000Y-114808000D03*
X270510000Y-117348000D03*
D17*
X275590000Y-118110000D03*
X281940000Y-115570000D03*
D16*
X287020000Y-97282000D03*
X270510000Y-99822000D03*
X287020000Y-95758000D03*
X270510000Y-98298000D03*
D17*
X275590000Y-99060000D03*
X281940000Y-96520000D03*
D16*
X267970000Y-192532000D03*
X251460000Y-195072000D03*
X267970000Y-191008000D03*
X251460000Y-193548000D03*
D17*
X256540000Y-194310000D03*
X262890000Y-191770000D03*
D16*
X267970000Y-173482000D03*
X251460000Y-176022000D03*
X267970000Y-171958000D03*
X251460000Y-174498000D03*
D17*
X256540000Y-175260000D03*
X262890000Y-172720000D03*
D16*
X267970000Y-154432000D03*
X251460000Y-156972000D03*
X267970000Y-152908000D03*
X251460000Y-155448000D03*
D17*
X256540000Y-156210000D03*
X262890000Y-153670000D03*
D16*
X267970000Y-135382000D03*
X251460000Y-137922000D03*
X267970000Y-133858000D03*
X251460000Y-136398000D03*
D17*
X256540000Y-137160000D03*
X262890000Y-134620000D03*
D16*
X267970000Y-116332000D03*
X251460000Y-118872000D03*
X267970000Y-114808000D03*
X251460000Y-117348000D03*
D17*
X256540000Y-118110000D03*
X262890000Y-115570000D03*
D16*
X267970000Y-97282000D03*
X251460000Y-99822000D03*
X267970000Y-95758000D03*
X251460000Y-98298000D03*
D17*
X256540000Y-99060000D03*
X262890000Y-96520000D03*
D16*
X248920000Y-192532000D03*
X232410000Y-195072000D03*
X248920000Y-191008000D03*
X232410000Y-193548000D03*
D17*
X237490000Y-194310000D03*
X243840000Y-191770000D03*
D16*
X248920000Y-173482000D03*
X232410000Y-176022000D03*
X248920000Y-171958000D03*
X232410000Y-174498000D03*
D17*
X237490000Y-175260000D03*
X243840000Y-172720000D03*
D16*
X248920000Y-154432000D03*
X232410000Y-156972000D03*
X248920000Y-152908000D03*
X232410000Y-155448000D03*
D17*
X237490000Y-156210000D03*
X243840000Y-153670000D03*
D16*
X248920000Y-135382000D03*
X232410000Y-137922000D03*
X248920000Y-133858000D03*
X232410000Y-136398000D03*
D17*
X237490000Y-137160000D03*
X243840000Y-134620000D03*
D16*
X248920000Y-116332000D03*
X232410000Y-118872000D03*
X248920000Y-114808000D03*
X232410000Y-117348000D03*
D17*
X237490000Y-118110000D03*
X243840000Y-115570000D03*
D16*
X248920000Y-97282000D03*
X232410000Y-99822000D03*
X248920000Y-95758000D03*
X232410000Y-98298000D03*
D17*
X237490000Y-99060000D03*
X243840000Y-96520000D03*
D16*
X229870000Y-192532000D03*
X213360000Y-195072000D03*
X229870000Y-191008000D03*
X213360000Y-193548000D03*
D17*
X218440000Y-194310000D03*
X224790000Y-191770000D03*
D16*
X229870000Y-173482000D03*
X213360000Y-176022000D03*
X229870000Y-171958000D03*
X213360000Y-174498000D03*
D17*
X218440000Y-175260000D03*
X224790000Y-172720000D03*
D16*
X229870000Y-154432000D03*
X213360000Y-156972000D03*
X229870000Y-152908000D03*
X213360000Y-155448000D03*
D17*
X218440000Y-156210000D03*
X224790000Y-153670000D03*
D16*
X229870000Y-135382000D03*
X213360000Y-137922000D03*
X229870000Y-133858000D03*
X213360000Y-136398000D03*
D17*
X218440000Y-137160000D03*
X224790000Y-134620000D03*
D16*
X229870000Y-116332000D03*
X213360000Y-118872000D03*
X229870000Y-114808000D03*
X213360000Y-117348000D03*
D17*
X218440000Y-118110000D03*
X224790000Y-115570000D03*
D16*
X229870000Y-97282000D03*
X213360000Y-99822000D03*
X229870000Y-95758000D03*
X213360000Y-98298000D03*
D17*
X218440000Y-99060000D03*
X224790000Y-96520000D03*
D16*
X210820000Y-192532000D03*
X194310000Y-195072000D03*
X210820000Y-191008000D03*
X194310000Y-193548000D03*
D17*
X199390000Y-194310000D03*
X205740000Y-191770000D03*
D16*
X210820000Y-173482000D03*
X194310000Y-176022000D03*
X210820000Y-171958000D03*
X194310000Y-174498000D03*
D17*
X199390000Y-175260000D03*
X205740000Y-172720000D03*
D16*
X210820000Y-154432000D03*
X194310000Y-156972000D03*
X210820000Y-152908000D03*
X194310000Y-155448000D03*
D17*
X199390000Y-156210000D03*
X205740000Y-153670000D03*
D16*
X210820000Y-135382000D03*
X194310000Y-137922000D03*
X210820000Y-133858000D03*
X194310000Y-136398000D03*
D17*
X199390000Y-137160000D03*
X205740000Y-134620000D03*
D16*
X210820000Y-116332000D03*
X194310000Y-118872000D03*
X210820000Y-114808000D03*
X194310000Y-117348000D03*
D17*
X199390000Y-118110000D03*
X205740000Y-115570000D03*
D16*
X210820000Y-97282000D03*
X194310000Y-99822000D03*
X210820000Y-95758000D03*
X194310000Y-98298000D03*
D17*
X199390000Y-99060000D03*
X205740000Y-96520000D03*
D16*
X191770000Y-192532000D03*
X175260000Y-195072000D03*
X191770000Y-191008000D03*
X175260000Y-193548000D03*
D17*
X180340000Y-194310000D03*
X186690000Y-191770000D03*
D16*
X191770000Y-154432000D03*
X175260000Y-156972000D03*
X191770000Y-152908000D03*
X175260000Y-155448000D03*
D17*
X180340000Y-156210000D03*
X186690000Y-153670000D03*
D16*
X191770000Y-135382000D03*
X175260000Y-137922000D03*
X191770000Y-133858000D03*
X175260000Y-136398000D03*
D17*
X180340000Y-137160000D03*
X186690000Y-134620000D03*
D16*
X191770000Y-116332000D03*
X175260000Y-118872000D03*
X191770000Y-114808000D03*
X175260000Y-117348000D03*
D17*
X180340000Y-118110000D03*
X186690000Y-115570000D03*
D16*
X191770000Y-97282000D03*
X175260000Y-99822000D03*
X191770000Y-95758000D03*
X175260000Y-98298000D03*
D17*
X180340000Y-99060000D03*
X186690000Y-96520000D03*
D16*
X172720000Y-192532000D03*
X156210000Y-195072000D03*
X172720000Y-191008000D03*
X156210000Y-193548000D03*
D17*
X161290000Y-194310000D03*
X167640000Y-191770000D03*
D16*
X172720000Y-173482000D03*
X156210000Y-176022000D03*
X172720000Y-171958000D03*
X156210000Y-174498000D03*
D17*
X161290000Y-175260000D03*
X167640000Y-172720000D03*
D16*
X172720000Y-154432000D03*
X156210000Y-156972000D03*
X172720000Y-152908000D03*
X156210000Y-155448000D03*
D17*
X161290000Y-156210000D03*
X167640000Y-153670000D03*
D16*
X172720000Y-135382000D03*
X156210000Y-137922000D03*
X172720000Y-133858000D03*
X156210000Y-136398000D03*
D17*
X161290000Y-137160000D03*
X167640000Y-134620000D03*
D16*
X172720000Y-116332000D03*
X156210000Y-118872000D03*
X172720000Y-114808000D03*
X156210000Y-117348000D03*
D17*
X161290000Y-118110000D03*
X167640000Y-115570000D03*
D16*
X172720000Y-97282000D03*
X156210000Y-99822000D03*
X172720000Y-95758000D03*
X156210000Y-98298000D03*
D17*
X161290000Y-99060000D03*
X167640000Y-96520000D03*
D16*
X153670000Y-192532000D03*
X137160000Y-195072000D03*
X153670000Y-191008000D03*
X137160000Y-193548000D03*
D17*
X142240000Y-194310000D03*
X148590000Y-191770000D03*
D16*
X153670000Y-173482000D03*
X137160000Y-176022000D03*
X153670000Y-171958000D03*
X137160000Y-174498000D03*
D17*
X142240000Y-175260000D03*
X148590000Y-172720000D03*
D16*
X153670000Y-154432000D03*
X137160000Y-156972000D03*
X153670000Y-152908000D03*
X137160000Y-155448000D03*
D17*
X142240000Y-156210000D03*
X148590000Y-153670000D03*
D16*
X153670000Y-135382000D03*
X137160000Y-137922000D03*
X153670000Y-133858000D03*
X137160000Y-136398000D03*
D17*
X142240000Y-137160000D03*
X148590000Y-134620000D03*
D16*
X153670000Y-116332000D03*
X137160000Y-118872000D03*
X153670000Y-114808000D03*
X137160000Y-117348000D03*
D17*
X142240000Y-118110000D03*
X148590000Y-115570000D03*
D16*
X153670000Y-97282000D03*
X137160000Y-99822000D03*
X153670000Y-95758000D03*
X137160000Y-98298000D03*
D17*
X142240000Y-99060000D03*
X148590000Y-96520000D03*
D16*
X134620000Y-192532000D03*
X118110000Y-195072000D03*
X134620000Y-191008000D03*
X118110000Y-193548000D03*
D17*
X123190000Y-194310000D03*
X129540000Y-191770000D03*
D16*
X134620000Y-173482000D03*
X118110000Y-176022000D03*
X134620000Y-171958000D03*
X118110000Y-174498000D03*
D17*
X123190000Y-175260000D03*
X129540000Y-172720000D03*
D16*
X134620000Y-154432000D03*
X118110000Y-156972000D03*
X134620000Y-152908000D03*
X118110000Y-155448000D03*
D17*
X123190000Y-156210000D03*
X129540000Y-153670000D03*
D16*
X134620000Y-135382000D03*
X118110000Y-137922000D03*
X134620000Y-133858000D03*
X118110000Y-136398000D03*
D17*
X123190000Y-137160000D03*
X129540000Y-134620000D03*
D16*
X134620000Y-116332000D03*
X118110000Y-118872000D03*
X134620000Y-114808000D03*
X118110000Y-117348000D03*
D17*
X123190000Y-118110000D03*
X129540000Y-115570000D03*
D16*
X134620000Y-97282000D03*
X118110000Y-99822000D03*
X134620000Y-95758000D03*
X118110000Y-98298000D03*
D17*
X123190000Y-99060000D03*
X129540000Y-96520000D03*
D16*
X115570000Y-192532000D03*
X99060000Y-195072000D03*
X115570000Y-191008000D03*
X99060000Y-193548000D03*
D17*
X104140000Y-194310000D03*
X110490000Y-191770000D03*
D16*
X115570000Y-173482000D03*
X99060000Y-176022000D03*
X115570000Y-171958000D03*
X99060000Y-174498000D03*
D17*
X104140000Y-175260000D03*
X110490000Y-172720000D03*
D16*
X115570000Y-154432000D03*
X99060000Y-156972000D03*
X115570000Y-152908000D03*
X99060000Y-155448000D03*
D17*
X104140000Y-156210000D03*
X110490000Y-153670000D03*
D16*
X115570000Y-135382000D03*
X99060000Y-137922000D03*
X115570000Y-133858000D03*
X99060000Y-136398000D03*
D17*
X104140000Y-137160000D03*
X110490000Y-134620000D03*
D16*
X115570000Y-116332000D03*
X99060000Y-118872000D03*
X115570000Y-114808000D03*
X99060000Y-117348000D03*
D17*
X104140000Y-118110000D03*
X110490000Y-115570000D03*
D16*
X115570000Y-97282000D03*
X99060000Y-99822000D03*
X115570000Y-95758000D03*
X99060000Y-98298000D03*
D17*
X104140000Y-99060000D03*
X110490000Y-96520000D03*
D16*
X96520000Y-192532000D03*
X80010000Y-195072000D03*
X96520000Y-191008000D03*
X80010000Y-193548000D03*
D17*
X85090000Y-194310000D03*
X91440000Y-191770000D03*
D16*
X96520000Y-173482000D03*
X80010000Y-176022000D03*
X96520000Y-171958000D03*
X80010000Y-174498000D03*
D17*
X85090000Y-175260000D03*
X91440000Y-172720000D03*
D16*
X96520000Y-154432000D03*
X80010000Y-156972000D03*
X96520000Y-152908000D03*
X80010000Y-155448000D03*
D17*
X85090000Y-156210000D03*
X91440000Y-153670000D03*
D16*
X96520000Y-135382000D03*
X80010000Y-137922000D03*
X96520000Y-133858000D03*
X80010000Y-136398000D03*
D17*
X85090000Y-137160000D03*
X91440000Y-134620000D03*
D16*
X96520000Y-116332000D03*
X80010000Y-118872000D03*
X96520000Y-114808000D03*
X80010000Y-117348000D03*
D17*
X85090000Y-118110000D03*
X91440000Y-115570000D03*
D16*
X96520000Y-97282000D03*
X80010000Y-99822000D03*
X96520000Y-95758000D03*
X80010000Y-98298000D03*
D17*
X85090000Y-99060000D03*
X91440000Y-96520000D03*
D16*
X77470000Y-192532000D03*
X60960000Y-195072000D03*
X77470000Y-191008000D03*
X60960000Y-193548000D03*
D17*
X66040000Y-194310000D03*
X72390000Y-191770000D03*
D16*
X77470000Y-173482000D03*
X60960000Y-176022000D03*
X77470000Y-171958000D03*
X60960000Y-174498000D03*
D17*
X66040000Y-175260000D03*
X72390000Y-172720000D03*
D16*
X77470000Y-154432000D03*
X60960000Y-156972000D03*
X77470000Y-152908000D03*
X60960000Y-155448000D03*
D17*
X66040000Y-156210000D03*
X72390000Y-153670000D03*
D16*
X77470000Y-135382000D03*
X60960000Y-137922000D03*
X77470000Y-133858000D03*
X60960000Y-136398000D03*
D17*
X66040000Y-137160000D03*
X72390000Y-134620000D03*
D16*
X77470000Y-116332000D03*
X60960000Y-118872000D03*
X77470000Y-114808000D03*
X60960000Y-117348000D03*
D17*
X66040000Y-118110000D03*
X72390000Y-115570000D03*
D16*
X77470000Y-97282000D03*
X60960000Y-99822000D03*
X77470000Y-95758000D03*
X60960000Y-98298000D03*
D17*
X66040000Y-99060000D03*
X72390000Y-96520000D03*
D16*
X58420000Y-192532000D03*
X41910000Y-195072000D03*
X58420000Y-191008000D03*
X41910000Y-193548000D03*
D17*
X46990000Y-194310000D03*
X53340000Y-191770000D03*
D16*
X58420000Y-173482000D03*
X41910000Y-176022000D03*
X58420000Y-171958000D03*
X41910000Y-174498000D03*
D17*
X46990000Y-175260000D03*
X53340000Y-172720000D03*
D16*
X58420000Y-154432000D03*
X41910000Y-156972000D03*
X58420000Y-152908000D03*
X41910000Y-155448000D03*
D17*
X46990000Y-156210000D03*
X53340000Y-153670000D03*
D16*
X58420000Y-135382000D03*
X41910000Y-137922000D03*
X58420000Y-133858000D03*
X41910000Y-136398000D03*
D17*
X46990000Y-137160000D03*
X53340000Y-134620000D03*
D16*
X58420000Y-116332000D03*
X41910000Y-118872000D03*
X58420000Y-114808000D03*
X41910000Y-117348000D03*
D17*
X46990000Y-118110000D03*
X53340000Y-115570000D03*
D16*
X58420000Y-97282000D03*
X41910000Y-99822000D03*
X58420000Y-95758000D03*
X41910000Y-98298000D03*
D17*
X46990000Y-99060000D03*
X53340000Y-96520000D03*
D11*
X342821000Y-85280500D03*
X343821000Y-85280500D03*
X344821000Y-85280500D03*
D12*
X345821000Y-85280500D03*
D11*
X347853500Y-85280500D03*
X348853500Y-85280500D03*
X349853500Y-85280500D03*
X350853500Y-85280500D03*
D12*
X351853500Y-85280500D03*
D11*
X353854000Y-85280500D03*
X354854000Y-85280500D03*
D12*
X355854000Y-85280500D03*
D11*
X333995000Y-82931000D03*
X334995000Y-82931000D03*
X335995000Y-82931000D03*
X336995000Y-82931000D03*
X337995000Y-82931000D03*
X338995000Y-82931000D03*
X339995000Y-82931000D03*
D12*
X340995000Y-82931000D03*
D11*
X343931000Y-62230000D03*
X342931000Y-62230000D03*
X341931000Y-62230000D03*
X340931000Y-62230000D03*
X339931000Y-62230000D03*
X338931000Y-62230000D03*
X337931000Y-62230000D03*
D12*
X336931000Y-62230000D03*
D11*
X320914000Y-62230000D03*
X321914000Y-62230000D03*
X322914000Y-62230000D03*
X323914000Y-62230000D03*
X324914000Y-62230000D03*
X325914000Y-62230000D03*
X326914000Y-62230000D03*
D12*
X327914000Y-62230000D03*
D16*
X352552000Y-81407000D03*
X323215000Y-79883000D03*
X294862250Y-86106000D03*
X328580750Y-89693750D03*
X339693250Y-88900000D03*
X337439000Y-73152000D03*
X336550000Y-74041000D03*
X336550000Y-73152000D03*
X336550000Y-72263000D03*
X335661000Y-71374000D03*
X335661000Y-72263000D03*
X335661000Y-73152000D03*
X335661000Y-74041000D03*
X334772000Y-74041000D03*
X334772000Y-73152000D03*
X334772000Y-72263000D03*
X334772000Y-71374000D03*
X334772000Y-70485000D03*
X333883000Y-71374000D03*
X333883000Y-72263000D03*
X333883000Y-73152000D03*
X333883000Y-74041000D03*
X335661000Y-74930000D03*
X334772000Y-75819000D03*
X334772000Y-74930000D03*
X333883000Y-74930000D03*
X333883000Y-75819000D03*
X331216000Y-75819000D03*
X330327000Y-74930000D03*
X331216000Y-74930000D03*
X329438000Y-74041000D03*
X330327000Y-74041000D03*
X331216000Y-74041000D03*
X328549000Y-73152000D03*
X329438000Y-73152000D03*
X330327000Y-73152000D03*
X331216000Y-73152000D03*
X329438000Y-72263000D03*
X330327000Y-72263000D03*
X331216000Y-72263000D03*
X330327000Y-71374000D03*
X331216000Y-71374000D03*
X331216000Y-70485000D03*
X332105000Y-69596000D03*
X333883000Y-70485000D03*
X333883000Y-69596000D03*
X332994000Y-68707000D03*
X332105000Y-70485000D03*
X332105000Y-71374000D03*
X332994000Y-69596000D03*
X332994000Y-70485000D03*
X332994000Y-71374000D03*
X332105000Y-72263000D03*
X332105000Y-73152000D03*
X332105000Y-74041000D03*
X332105000Y-74930000D03*
X332105000Y-75819000D03*
X332105000Y-76708000D03*
X333883000Y-76708000D03*
X332994000Y-77597000D03*
X332994000Y-76708000D03*
X332994000Y-75819000D03*
X332994000Y-74930000D03*
X332994000Y-74041000D03*
X332994000Y-72263000D03*
X360045000Y-78168500D03*
X331724000Y-64960500D03*
X332994000Y-73152000D03*
X318452500Y-76009500D03*
X340027510Y-68145560D03*
X354012500Y-74612500D03*
X339886990Y-77898387D03*
X320952009Y-75311000D03*
X315849000Y-70612000D03*
X321945000Y-81280000D03*
X357378000Y-73025000D03*
X358267000Y-70866000D03*
X342076795Y-74745929D03*
X336423000Y-68707000D03*
X339344000Y-65024000D03*
X332994000Y-66548000D03*
X324358000Y-67691000D03*
X361188000Y-72009000D03*
X355473000Y-76581000D03*
X342011000Y-76454000D03*
X336423000Y-63442999D03*
X336423000Y-65024000D03*
X340233000Y-103193901D03*
X340233000Y-104775000D03*
X321056000Y-103124000D03*
X321056000Y-104902000D03*
X320675000Y-122047000D03*
X320675000Y-123698000D03*
X301752000Y-103124000D03*
X301625000Y-104775000D03*
X301625000Y-122047000D03*
X301625000Y-123698000D03*
X301752000Y-141224000D03*
X301752000Y-142875000D03*
X324929500Y-78013000D03*
X334995000Y-80549000D03*
X282702000Y-102997000D03*
X282702000Y-104775000D03*
X282575000Y-121920000D03*
X282575000Y-123952000D03*
X282575000Y-141097000D03*
X282575000Y-142875000D03*
X282575000Y-160147000D03*
X282575000Y-162052000D03*
X263779000Y-103124000D03*
X263779000Y-104775000D03*
X263525000Y-122174000D03*
X263525000Y-123698000D03*
X263525000Y-141224000D03*
X263525000Y-142748000D03*
X263525000Y-160274000D03*
X263525000Y-161925000D03*
X263525000Y-179324000D03*
X263525000Y-181102000D03*
X325628000Y-73533000D03*
X344424000Y-73795000D03*
X336556078Y-66712756D03*
X344424000Y-74795000D03*
X336526119Y-67712319D03*
X339444511Y-76099489D03*
X323300744Y-67472444D03*
X362331000Y-73025000D03*
X358267000Y-73787000D03*
X347091000Y-73152000D03*
X337342901Y-65644759D03*
X344247348Y-72721348D03*
X351652000Y-66294000D03*
X352687000Y-72009000D03*
X352706000Y-66294000D03*
X353687000Y-72009000D03*
X345630500Y-69024500D03*
X343366636Y-70120882D03*
X347218000Y-76073000D03*
X339677751Y-74191466D03*
X342900000Y-80137000D03*
X340360000Y-79375000D03*
D18*
X356999000Y-68408000D02*
X356999000Y-64228000D01*
X348359000Y-64228000D02*
X348359000Y-68408000D01*
X348359000Y-64228000D02*
X356999000Y-64228000D01*
X356999000Y-68408000D02*
X358883942Y-68408000D01*
X358883942Y-68408000D02*
X363121501Y-72645559D01*
X363121501Y-72645559D02*
X363121501Y-75091999D01*
X363121501Y-75091999D02*
X360045000Y-78168500D01*
X321119500Y-78676500D02*
X318452500Y-76009500D01*
X331724000Y-64960500D02*
X332451001Y-64233499D01*
X332451001Y-64233499D02*
X339723441Y-64233499D01*
X340427509Y-64937567D02*
X340427509Y-67745561D01*
X340427509Y-67745561D02*
X340027510Y-68145560D01*
X339723441Y-64233499D02*
X340427509Y-64937567D01*
X321119500Y-80835500D02*
X321691000Y-81407000D01*
X321119500Y-78676500D02*
X321119500Y-80835500D01*
X332994000Y-73152000D02*
X327694251Y-73152000D01*
X327694251Y-73152000D02*
X325535251Y-75311000D01*
X325535251Y-75311000D02*
X320952009Y-75311000D01*
D19*
X357378000Y-73025000D02*
X357378000Y-71755000D01*
X357378000Y-71755000D02*
X358267000Y-70866000D01*
X342076795Y-74360795D02*
X342076795Y-74745929D01*
X336423000Y-68707000D02*
X342076795Y-74360795D01*
D18*
X355473000Y-72490058D02*
X355473000Y-76581000D01*
X357887559Y-70075499D02*
X355473000Y-72490058D01*
X361188000Y-72009000D02*
X359254499Y-70075499D01*
X359254499Y-70075499D02*
X357887559Y-70075499D01*
X336423000Y-63442999D02*
X339754613Y-63442999D01*
X342382934Y-66071320D02*
X342382934Y-70693378D01*
X339754613Y-63442999D02*
X342382934Y-66071320D01*
D19*
X335083685Y-65024000D02*
X336423000Y-65024000D01*
X332994000Y-66548000D02*
X333559685Y-66548000D01*
X333559685Y-66548000D02*
X335083685Y-65024000D01*
D18*
X336963460Y-64854258D02*
X334126718Y-67691000D01*
X334126718Y-67691000D02*
X324358000Y-67691000D01*
D19*
X338672073Y-64917758D02*
X338778315Y-65024000D01*
X336529242Y-64917758D02*
X338672073Y-64917758D01*
D18*
X339344000Y-65024000D02*
X338778315Y-65024000D01*
D19*
X336423000Y-65024000D02*
X336529242Y-64917758D01*
D18*
X338608573Y-64854258D02*
X336963460Y-64854258D01*
X338778315Y-65024000D02*
X338608573Y-64854258D01*
X343934942Y-76454000D02*
X342011000Y-76454000D01*
X345214501Y-75174441D02*
X343934942Y-76454000D01*
X345214501Y-72518559D02*
X345214501Y-75174441D01*
X344626789Y-71930847D02*
X345214501Y-72518559D01*
X343620403Y-71930847D02*
X344626789Y-71930847D01*
X342382934Y-70693378D02*
X343620403Y-71930847D01*
X341855469Y-83140475D02*
X341855469Y-81669371D01*
X341201478Y-78699707D02*
X342011000Y-77890185D01*
X342011000Y-77890185D02*
X342011000Y-76454000D01*
X341855469Y-81669371D02*
X341201478Y-81015380D01*
X341201478Y-81015380D02*
X341201478Y-78699707D01*
X342690526Y-83975533D02*
X341855469Y-83140475D01*
X344117073Y-83975533D02*
X342690526Y-83975533D01*
X344821000Y-84679460D02*
X344117073Y-83975533D01*
X344821000Y-85280500D02*
X344821000Y-84679460D01*
X332793999Y-63442999D02*
X331581000Y-62230000D01*
X336423000Y-63442999D02*
X332793999Y-63442999D01*
D19*
X340233000Y-104775000D02*
X340233000Y-103193901D01*
X321056000Y-103124000D02*
X321056000Y-104902000D01*
X320675000Y-122047000D02*
X320675000Y-123698000D01*
X301752000Y-103124000D02*
X301752000Y-104648000D01*
X301752000Y-104648000D02*
X301625000Y-104775000D01*
X301625000Y-122047000D02*
X301625000Y-123698000D01*
X301752000Y-141224000D02*
X301752000Y-142875000D01*
X327465500Y-80549000D02*
X334995000Y-80549000D01*
X324929500Y-78013000D02*
X327465500Y-80549000D01*
X282702000Y-102997000D02*
X282702000Y-104775000D01*
X282575000Y-121920000D02*
X282575000Y-123952000D01*
X282575000Y-141097000D02*
X282575000Y-142875000D01*
X282575000Y-160147000D02*
X282575000Y-162052000D01*
X263779000Y-103124000D02*
X263779000Y-104775000D01*
X263525000Y-122174000D02*
X263525000Y-123698000D01*
X263525000Y-141224000D02*
X263525000Y-142748000D01*
X263525000Y-160274000D02*
X263525000Y-161925000D01*
X263525000Y-179324000D02*
X263525000Y-181102000D01*
X320977000Y-71975040D02*
X320977000Y-71374000D01*
X321909959Y-72907999D02*
X320977000Y-71975040D01*
X325628000Y-73533000D02*
X325002999Y-72907999D01*
X325002999Y-72907999D02*
X321909959Y-72907999D01*
X343638322Y-73795000D02*
X336556078Y-66712756D01*
X344424000Y-73795000D02*
X343638322Y-73795000D01*
X343608800Y-74795000D02*
X336526119Y-67712319D01*
X344424000Y-74795000D02*
X343608800Y-74795000D01*
X46990000Y-99060000D02*
X46990000Y-118110000D01*
X46990000Y-118110000D02*
X46990000Y-194310000D01*
X320914000Y-63134000D02*
X320914000Y-62230000D01*
X317700010Y-66347990D02*
X320914000Y-63134000D01*
X315117313Y-66347990D02*
X317700010Y-66347990D01*
X308483000Y-82423000D02*
X308483000Y-72982304D01*
X54243962Y-99060000D02*
X55667001Y-97636961D01*
X46990000Y-99060000D02*
X54243962Y-99060000D01*
X55667001Y-97636961D02*
X55667001Y-97435037D01*
X308483000Y-72982304D02*
X315117313Y-66347990D01*
X55667001Y-97435037D02*
X66107038Y-86995000D01*
X66107038Y-86995000D02*
X303911000Y-86995000D01*
X303911000Y-86995000D02*
X308483000Y-82423000D01*
X66040000Y-99060000D02*
X66040000Y-194310000D01*
X321914000Y-62831040D02*
X321914000Y-62230000D01*
X308991000Y-73116370D02*
X315305370Y-66802000D01*
X308991000Y-82804000D02*
X308991000Y-73116370D01*
X73293962Y-99060000D02*
X74717001Y-97636961D01*
X66040000Y-99060000D02*
X73293962Y-99060000D01*
X317943040Y-66802000D02*
X321914000Y-62831040D01*
X315305370Y-66802000D02*
X317943040Y-66802000D01*
X74717001Y-97636961D02*
X74717001Y-97435037D01*
X84649038Y-87503000D02*
X304292000Y-87503000D01*
X74717001Y-97435037D02*
X84649038Y-87503000D01*
X304292000Y-87503000D02*
X308991000Y-82804000D01*
X85090000Y-99060000D02*
X85090000Y-194310000D01*
X322914000Y-62230000D02*
X322914000Y-62545136D01*
X322914000Y-62831040D02*
X322914000Y-62230000D01*
X315423039Y-67326399D02*
X318418641Y-67326399D01*
X85090000Y-96231573D02*
X93310573Y-88011000D01*
X85090000Y-99060000D02*
X85090000Y-96231573D01*
X93310573Y-88011000D02*
X304546000Y-88011000D01*
X318418641Y-67326399D02*
X322914000Y-62831040D01*
X304546000Y-88011000D02*
X309499000Y-83058000D01*
X309499000Y-83058000D02*
X309499000Y-73250438D01*
X309499000Y-73250438D02*
X315423039Y-67326399D01*
X104140000Y-99060000D02*
X104140000Y-194310000D01*
X104140000Y-96231573D02*
X111852573Y-88519000D01*
X104140000Y-99060000D02*
X104140000Y-96231573D01*
X111852573Y-88519000D02*
X304927000Y-88519000D01*
X304927000Y-88519000D02*
X310007000Y-83439000D01*
X310007000Y-77661962D02*
X310007000Y-83439000D01*
X323914000Y-63754962D02*
X310007000Y-77661962D01*
X323914000Y-62230000D02*
X323914000Y-63754962D01*
X123190000Y-99060000D02*
X123190000Y-194310000D01*
X324914000Y-63397030D02*
X310578500Y-77732530D01*
X324914000Y-62230000D02*
X324914000Y-63397030D01*
X310578500Y-77732530D02*
X310578500Y-83629500D01*
X133223000Y-89027000D02*
X123190000Y-99060000D01*
X305181000Y-89027000D02*
X133223000Y-89027000D01*
X310578500Y-83629500D02*
X305181000Y-89027000D01*
X142240000Y-99060000D02*
X142240000Y-194310000D01*
X325914000Y-62230000D02*
X325914000Y-63039098D01*
X151765000Y-89535000D02*
X142240000Y-99060000D01*
X305435000Y-89535000D02*
X151765000Y-89535000D01*
X311032511Y-83937489D02*
X305435000Y-89535000D01*
X311032511Y-77920587D02*
X311032511Y-83937489D01*
X325914000Y-63039098D02*
X311032511Y-77920587D01*
X161290000Y-99060000D02*
X161290000Y-194310000D01*
X311486522Y-78108644D02*
X311486522Y-84245478D01*
X170307000Y-90043000D02*
X161290000Y-99060000D01*
X305689000Y-90043000D02*
X170307000Y-90043000D01*
X326914000Y-62681166D02*
X311486522Y-78108644D01*
X311486522Y-84245478D02*
X305689000Y-90043000D01*
X326914000Y-62230000D02*
X326914000Y-62681166D01*
X180340000Y-99060000D02*
X180340000Y-194310000D01*
X321930000Y-88773000D02*
X321930000Y-82931000D01*
X180340000Y-99060000D02*
X188849000Y-90551000D01*
X320152000Y-90551000D02*
X321930000Y-88773000D01*
X188849000Y-90551000D02*
X320152000Y-90551000D01*
X199390000Y-99060000D02*
X199390000Y-194310000D01*
X207444989Y-91005011D02*
X199390000Y-99060000D01*
X320340057Y-91005011D02*
X207444989Y-91005011D01*
X322930000Y-88415068D02*
X320340057Y-91005011D01*
X322930000Y-82931000D02*
X322930000Y-88415068D01*
X218440000Y-99060000D02*
X218440000Y-194310000D01*
X226040978Y-91459022D02*
X218440000Y-99060000D01*
X323930000Y-82931000D02*
X323930000Y-88057136D01*
X320528114Y-91459022D02*
X226040978Y-91459022D01*
X323930000Y-88057136D02*
X320528114Y-91459022D01*
X237490000Y-99060000D02*
X237490000Y-194310000D01*
X244636967Y-91913033D02*
X237490000Y-99060000D01*
X320716171Y-91913033D02*
X244636967Y-91913033D01*
X324930000Y-87699204D02*
X320716171Y-91913033D01*
X324930000Y-82931000D02*
X324930000Y-87699204D01*
X256540000Y-99060000D02*
X256540000Y-194310000D01*
X263232956Y-92367044D02*
X266788956Y-92367044D01*
X256540000Y-99060000D02*
X263232956Y-92367044D01*
X266788956Y-92367044D02*
X266436228Y-92367044D01*
X325930000Y-87341272D02*
X320904228Y-92367044D01*
X320904228Y-92367044D02*
X266788956Y-92367044D01*
X325930000Y-82931000D02*
X325930000Y-87341272D01*
X275590000Y-99060000D02*
X275590000Y-194310000D01*
X326930000Y-82931000D02*
X326930000Y-86983340D01*
X321092285Y-92821055D02*
X281828945Y-92821055D01*
X281828945Y-92821055D02*
X275590000Y-99060000D01*
X326930000Y-86983340D02*
X321092285Y-92821055D01*
X294640000Y-99060000D02*
X294640000Y-194310000D01*
X327930000Y-82931000D02*
X327930000Y-86625408D01*
X327930000Y-86625408D02*
X321280342Y-93275066D01*
X300424935Y-93275066D02*
X296639999Y-97060001D01*
X296639999Y-97060001D02*
X294640000Y-99060000D01*
X321280342Y-93275066D02*
X300424935Y-93275066D01*
X313690000Y-99060000D02*
X313690000Y-194310000D01*
X319020923Y-93729077D02*
X313690000Y-99060000D01*
X321468399Y-93729077D02*
X319020923Y-93729077D01*
X328930000Y-86267476D02*
X321468399Y-93729077D01*
X328930000Y-82931000D02*
X328930000Y-86267476D01*
X332740000Y-99060000D02*
X332740000Y-194310000D01*
X330962000Y-82931000D02*
X330962000Y-88900000D01*
X332740000Y-90678000D02*
X332740000Y-99060000D01*
X330962000Y-88900000D02*
X332740000Y-90678000D01*
X351790000Y-99060000D02*
X351790000Y-194310000D01*
X351790000Y-99060000D02*
X344424000Y-91694000D01*
X344424000Y-91694000D02*
X334518000Y-91694000D01*
X331962000Y-89138000D02*
X331962000Y-82931000D01*
X334518000Y-91694000D02*
X331962000Y-89138000D01*
X335149462Y-81470500D02*
X323211462Y-81470500D01*
X339444511Y-77175451D02*
X335149462Y-81470500D01*
X339444511Y-76099489D02*
X339444511Y-77175451D01*
X320224999Y-70548189D02*
X323300744Y-67472444D01*
X320224999Y-76000461D02*
X320224999Y-70548189D01*
X321754500Y-80013538D02*
X321754500Y-77529962D01*
X321754500Y-77529962D02*
X320224999Y-76000461D01*
X323211462Y-81470500D02*
X321754500Y-80013538D01*
D18*
X362331000Y-73025000D02*
X361569000Y-73787000D01*
X361569000Y-73787000D02*
X358267000Y-73787000D01*
X356263501Y-75790499D02*
X358267000Y-73787000D01*
X356263501Y-76960441D02*
X356263501Y-75790499D01*
X355852441Y-77371501D02*
X356263501Y-76960441D01*
X354485501Y-77371501D02*
X355852441Y-77371501D01*
X354139500Y-77025500D02*
X354485501Y-77371501D01*
X349948500Y-77025500D02*
X354139500Y-77025500D01*
X349104001Y-72853499D02*
X349186500Y-72935998D01*
X349186500Y-72935998D02*
X349186500Y-76263500D01*
X349186500Y-76263500D02*
X349948500Y-77025500D01*
X349002503Y-72752001D02*
X349186500Y-72935998D01*
X347490999Y-72752001D02*
X349002503Y-72752001D01*
X347091000Y-73152000D02*
X347490999Y-72752001D01*
X337342901Y-66578901D02*
X337342901Y-65644759D01*
X343412913Y-72648913D02*
X337342901Y-66578901D01*
X344247348Y-72721348D02*
X343619089Y-72648913D01*
X343619089Y-72648913D02*
X343412913Y-72648913D01*
D19*
X352960000Y-71736000D02*
X352687000Y-72009000D01*
X352960000Y-67602000D02*
X352960000Y-71736000D01*
X351652000Y-66294000D02*
X352960000Y-67602000D01*
X353414000Y-71736000D02*
X353687000Y-72009000D01*
X352706000Y-66294000D02*
X352706000Y-66705947D01*
X352706000Y-66705947D02*
X353414000Y-67413947D01*
X353414000Y-67413947D02*
X353414000Y-71736000D01*
X345630500Y-69024500D02*
X344463018Y-69024500D01*
X344463018Y-69024500D02*
X343366636Y-70120882D01*
X354711000Y-85280500D02*
X354854000Y-85280500D01*
X354606001Y-85175501D02*
X354711000Y-85280500D01*
X354606001Y-79460501D02*
X354606001Y-85175501D01*
X352688510Y-77543010D02*
X354606001Y-79460501D01*
X348122325Y-77543010D02*
X352688510Y-77543010D01*
X347218000Y-76638685D02*
X348122325Y-77543010D01*
X347218000Y-76073000D02*
X347218000Y-76638685D01*
X343401988Y-77641480D02*
X341718988Y-79324480D01*
X341718988Y-80801020D02*
X342372978Y-81455010D01*
X341718988Y-79324480D02*
X341718988Y-80801020D01*
X342372978Y-81455010D02*
X342372979Y-82926115D01*
X342904886Y-83458022D02*
X346031022Y-83458022D01*
X346031022Y-83458022D02*
X347853500Y-85280500D01*
X342372979Y-82926115D02*
X342904886Y-83458022D01*
X345821000Y-71374000D02*
X345820999Y-75864537D01*
X344044057Y-77641479D02*
X343401988Y-77641480D01*
X345820999Y-75864537D02*
X344044057Y-77641479D01*
X344306510Y-78095490D02*
X343590046Y-78095490D01*
X342826989Y-82738057D02*
X343092943Y-83004011D01*
X343092943Y-83004011D02*
X347178051Y-83004011D01*
X342826989Y-81266953D02*
X342826989Y-82738057D01*
X342172998Y-80612962D02*
X342826989Y-81266953D01*
X342172998Y-79512538D02*
X342172998Y-80612962D01*
X343590046Y-78095490D02*
X342172998Y-79512538D01*
X346275010Y-76126990D02*
X344306510Y-78095490D01*
X346573001Y-72060601D02*
X346275010Y-72358592D01*
X346573001Y-70524961D02*
X346573001Y-72060601D01*
X346422040Y-70374000D02*
X346573001Y-70524961D01*
X346275010Y-72358592D02*
X346275010Y-76126990D01*
X345821000Y-70374000D02*
X346422040Y-70374000D01*
X348853500Y-84679460D02*
X348853500Y-85280500D01*
X347178051Y-83004011D02*
X348853500Y-84679460D01*
X349853500Y-84679460D02*
X347724040Y-82550000D01*
X349853500Y-85280500D02*
X349853500Y-84679460D01*
X343398490Y-80635490D02*
X342900000Y-80137000D01*
X343398490Y-82050454D02*
X343398490Y-80635490D01*
X343898036Y-82550000D02*
X343398490Y-82050454D01*
X347724040Y-82550000D02*
X343898036Y-82550000D01*
X340360000Y-78809315D02*
X341122000Y-78047315D01*
X340360000Y-79375000D02*
X340360000Y-78809315D01*
X341122000Y-75635715D02*
X339677751Y-74191466D01*
X341122000Y-78047315D02*
X341122000Y-75635715D01*
X339995000Y-83532040D02*
X339995000Y-82931000D01*
X341743460Y-85280500D02*
X339995000Y-83532040D01*
X342821000Y-85280500D02*
X341743460Y-85280500D01*
X343634584Y-84493044D02*
X343821000Y-84679460D01*
X341878044Y-84493044D02*
X343634584Y-84493044D01*
X340995000Y-82931000D02*
X340995000Y-83610000D01*
X340995000Y-83610000D02*
X341878044Y-84493044D01*
X343821000Y-84679460D02*
X343821000Y-85280500D01*
G36*
X303595370Y-86233000D02*
G01*
X66144461Y-86233000D01*
X66107038Y-86229314D01*
X66069615Y-86233000D01*
X66069612Y-86233000D01*
X65957660Y-86244026D01*
X65814023Y-86287598D01*
X65782239Y-86304587D01*
X65681645Y-86358355D01*
X65599538Y-86425739D01*
X65565616Y-86453578D01*
X65541759Y-86482648D01*
X60076408Y-91948000D01*
X41935000Y-91948000D01*
X41935000Y-87344779D01*
X41970886Y-86978790D01*
X42067801Y-86657790D01*
X42225221Y-86361725D01*
X42437149Y-86101877D01*
X42695510Y-85888142D01*
X42990464Y-85728662D01*
X43310782Y-85629506D01*
X43674762Y-85591250D01*
X302451169Y-85591250D01*
X302481489Y-85588264D01*
X302506275Y-85588437D01*
X302515446Y-85587537D01*
X303285767Y-85506573D01*
X303344353Y-85494547D01*
X303403124Y-85483336D01*
X303411946Y-85480673D01*
X304151870Y-85251628D01*
X304207021Y-85228444D01*
X304262477Y-85206039D01*
X304270613Y-85201712D01*
X304951959Y-84833311D01*
X305001543Y-84799866D01*
X305051606Y-84767106D01*
X305058747Y-84761282D01*
X305107035Y-84721335D01*
X303595370Y-86233000D01*
X303595370Y-86233000D01*
G37*
X303595370Y-86233000D02*
X66144461Y-86233000D01*
X66107038Y-86229314D01*
X66069615Y-86233000D01*
X66069612Y-86233000D01*
X65957660Y-86244026D01*
X65814023Y-86287598D01*
X65782239Y-86304587D01*
X65681645Y-86358355D01*
X65599538Y-86425739D01*
X65565616Y-86453578D01*
X65541759Y-86482648D01*
X60076408Y-91948000D01*
X41935000Y-91948000D01*
X41935000Y-87344779D01*
X41970886Y-86978790D01*
X42067801Y-86657790D01*
X42225221Y-86361725D01*
X42437149Y-86101877D01*
X42695510Y-85888142D01*
X42990464Y-85728662D01*
X43310782Y-85629506D01*
X43674762Y-85591250D01*
X302451169Y-85591250D01*
X302481489Y-85588264D01*
X302506275Y-85588437D01*
X302515446Y-85587537D01*
X303285767Y-85506573D01*
X303344353Y-85494547D01*
X303403124Y-85483336D01*
X303411946Y-85480673D01*
X304151870Y-85251628D01*
X304207021Y-85228444D01*
X304262477Y-85206039D01*
X304270613Y-85201712D01*
X304951959Y-84833311D01*
X305001543Y-84799866D01*
X305051606Y-84767106D01*
X305058747Y-84761282D01*
X305107035Y-84721335D01*
X303595370Y-86233000D01*
G36*
X329947498Y-83600180D02*
G01*
X330006463Y-83710494D01*
X330085815Y-83807185D01*
X330182506Y-83886537D01*
X330200000Y-83895888D01*
X330200001Y-88862567D01*
X330196314Y-88900000D01*
X330211027Y-89049378D01*
X330254599Y-89193015D01*
X330325355Y-89325392D01*
X330374785Y-89385622D01*
X330420579Y-89441422D01*
X330449649Y-89465279D01*
X331978000Y-90993630D01*
X331978000Y-91948000D01*
X324327106Y-91948000D01*
X329442352Y-86832755D01*
X329471422Y-86808898D01*
X329566645Y-86692868D01*
X329637402Y-86560491D01*
X329680974Y-86416854D01*
X329692000Y-86304902D01*
X329692000Y-86304900D01*
X329695686Y-86267477D01*
X329692000Y-86230054D01*
X329692000Y-83895888D01*
X329709494Y-83886537D01*
X329806185Y-83807185D01*
X329885537Y-83710494D01*
X329944502Y-83600180D01*
X329946000Y-83595242D01*
X329947498Y-83600180D01*
X329947498Y-83600180D01*
G37*
X329947498Y-83600180D02*
X330006463Y-83710494D01*
X330085815Y-83807185D01*
X330182506Y-83886537D01*
X330200000Y-83895888D01*
X330200001Y-88862567D01*
X330196314Y-88900000D01*
X330211027Y-89049378D01*
X330254599Y-89193015D01*
X330325355Y-89325392D01*
X330374785Y-89385622D01*
X330420579Y-89441422D01*
X330449649Y-89465279D01*
X331978000Y-90993630D01*
X331978000Y-91948000D01*
X324327106Y-91948000D01*
X329442352Y-86832755D01*
X329471422Y-86808898D01*
X329566645Y-86692868D01*
X329637402Y-86560491D01*
X329680974Y-86416854D01*
X329692000Y-86304902D01*
X329692000Y-86304900D01*
X329695686Y-86267477D01*
X329692000Y-86230054D01*
X329692000Y-83895888D01*
X329709494Y-83886537D01*
X329806185Y-83807185D01*
X329885537Y-83710494D01*
X329944502Y-83600180D01*
X329946000Y-83595242D01*
X329947498Y-83600180D01*
G36*
X363077460Y-61814636D02*
G01*
X363398460Y-61911551D01*
X363694525Y-62068971D01*
X363954373Y-62280899D01*
X364168108Y-62539260D01*
X364327588Y-62834214D01*
X364426744Y-63154532D01*
X364465000Y-63518512D01*
X364465000Y-91948000D01*
X345755630Y-91948000D01*
X344989284Y-91181654D01*
X344965422Y-91152578D01*
X344849392Y-91057355D01*
X344717015Y-90986598D01*
X344573378Y-90943026D01*
X344461426Y-90932000D01*
X344461423Y-90932000D01*
X344424000Y-90928314D01*
X344386577Y-90932000D01*
X334833631Y-90932000D01*
X332724000Y-88822370D01*
X332724000Y-83673386D01*
X332847622Y-83522753D01*
X332946050Y-83338607D01*
X332978500Y-83231634D01*
X333010950Y-83338607D01*
X333109378Y-83522753D01*
X333241841Y-83684159D01*
X333403247Y-83816622D01*
X333587393Y-83915050D01*
X333787204Y-83975662D01*
X333942934Y-83991000D01*
X334047066Y-83991000D01*
X334202796Y-83975662D01*
X334402607Y-83915050D01*
X334495000Y-83865665D01*
X334587393Y-83915050D01*
X334787204Y-83975662D01*
X334942934Y-83991000D01*
X335047066Y-83991000D01*
X335202796Y-83975662D01*
X335402607Y-83915050D01*
X335495000Y-83865665D01*
X335587393Y-83915050D01*
X335787204Y-83975662D01*
X335942934Y-83991000D01*
X336047066Y-83991000D01*
X336202796Y-83975662D01*
X336402607Y-83915050D01*
X336495000Y-83865665D01*
X336587393Y-83915050D01*
X336787204Y-83975662D01*
X336942934Y-83991000D01*
X337047066Y-83991000D01*
X337202796Y-83975662D01*
X337402607Y-83915050D01*
X337495000Y-83865665D01*
X337587393Y-83915050D01*
X337787204Y-83975662D01*
X337942934Y-83991000D01*
X338047066Y-83991000D01*
X338202796Y-83975662D01*
X338402607Y-83915050D01*
X338495000Y-83865665D01*
X338587393Y-83915050D01*
X338787204Y-83975662D01*
X338942934Y-83991000D01*
X339047066Y-83991000D01*
X339202796Y-83975662D01*
X339345036Y-83932514D01*
X339358355Y-83957432D01*
X339384887Y-83989761D01*
X339453578Y-84073462D01*
X339482654Y-84097324D01*
X341178181Y-85792852D01*
X341202038Y-85821922D01*
X341231108Y-85845779D01*
X341318067Y-85917145D01*
X341342735Y-85930330D01*
X341450445Y-85987902D01*
X341594082Y-86031474D01*
X341706034Y-86042500D01*
X341706037Y-86042500D01*
X341743460Y-86046186D01*
X341780883Y-86042500D01*
X342078614Y-86042500D01*
X342229247Y-86166122D01*
X342413393Y-86264550D01*
X342613204Y-86325162D01*
X342768934Y-86340500D01*
X342873066Y-86340500D01*
X343028796Y-86325162D01*
X343228607Y-86264550D01*
X343321000Y-86215165D01*
X343413393Y-86264550D01*
X343613204Y-86325162D01*
X343768934Y-86340500D01*
X343873066Y-86340500D01*
X344028796Y-86325162D01*
X344228607Y-86264550D01*
X344321000Y-86215165D01*
X344413393Y-86264550D01*
X344613204Y-86325162D01*
X344768934Y-86340500D01*
X344873066Y-86340500D01*
X345028796Y-86325162D01*
X345143276Y-86290435D01*
X345151820Y-86295002D01*
X345271518Y-86331312D01*
X345396000Y-86343572D01*
X345535250Y-86340500D01*
X345694000Y-86181750D01*
X345694000Y-85887633D01*
X345706622Y-85872253D01*
X345805050Y-85688107D01*
X345865662Y-85488296D01*
X345886128Y-85280500D01*
X345871650Y-85133500D01*
X345948000Y-85133500D01*
X345948000Y-85153500D01*
X345968000Y-85153500D01*
X345968000Y-85407500D01*
X345948000Y-85407500D01*
X345948000Y-86181750D01*
X346106750Y-86340500D01*
X346246000Y-86343572D01*
X346370482Y-86331312D01*
X346490180Y-86295002D01*
X346600494Y-86236037D01*
X346697185Y-86156685D01*
X346776537Y-86059994D01*
X346835502Y-85949680D01*
X346871812Y-85829982D01*
X346883243Y-85713913D01*
X346967878Y-85872253D01*
X347100341Y-86033659D01*
X347261747Y-86166122D01*
X347445893Y-86264550D01*
X347645704Y-86325162D01*
X347801434Y-86340500D01*
X347905566Y-86340500D01*
X348061296Y-86325162D01*
X348261107Y-86264550D01*
X348353500Y-86215165D01*
X348445893Y-86264550D01*
X348645704Y-86325162D01*
X348801434Y-86340500D01*
X348905566Y-86340500D01*
X349061296Y-86325162D01*
X349261107Y-86264550D01*
X349353500Y-86215165D01*
X349445893Y-86264550D01*
X349645704Y-86325162D01*
X349801434Y-86340500D01*
X349905566Y-86340500D01*
X350061296Y-86325162D01*
X350261107Y-86264550D01*
X350353500Y-86215165D01*
X350445893Y-86264550D01*
X350645704Y-86325162D01*
X350801434Y-86340500D01*
X350905566Y-86340500D01*
X351061296Y-86325162D01*
X351175776Y-86290435D01*
X351184320Y-86295002D01*
X351304018Y-86331312D01*
X351428500Y-86343572D01*
X351567750Y-86340500D01*
X351726500Y-86181750D01*
X351726500Y-85887633D01*
X351739122Y-85872253D01*
X351837550Y-85688107D01*
X351898162Y-85488296D01*
X351918628Y-85280500D01*
X351898162Y-85072704D01*
X351837550Y-84872893D01*
X351739122Y-84688747D01*
X351726500Y-84673367D01*
X351726500Y-84379250D01*
X351567750Y-84220500D01*
X351428500Y-84217428D01*
X351304018Y-84229688D01*
X351184320Y-84265998D01*
X351175776Y-84270565D01*
X351061296Y-84235838D01*
X350905566Y-84220500D01*
X350801434Y-84220500D01*
X350645704Y-84235838D01*
X350503464Y-84278986D01*
X350490145Y-84254068D01*
X350394922Y-84138038D01*
X350365852Y-84114181D01*
X348289324Y-82037654D01*
X348265462Y-82008578D01*
X348149432Y-81913355D01*
X348017055Y-81842598D01*
X347873418Y-81799026D01*
X347761466Y-81788000D01*
X347761463Y-81788000D01*
X347724040Y-81784314D01*
X347686617Y-81788000D01*
X344213665Y-81788000D01*
X344160490Y-81734824D01*
X344160490Y-80672912D01*
X344164176Y-80635489D01*
X344160490Y-80598064D01*
X344149464Y-80486112D01*
X344105892Y-80342475D01*
X344035135Y-80210098D01*
X343939912Y-80094068D01*
X343935000Y-80090037D01*
X343935000Y-80035061D01*
X343895226Y-79835102D01*
X343817205Y-79646744D01*
X343703937Y-79477226D01*
X343559774Y-79333063D01*
X343482042Y-79281124D01*
X343905676Y-78857490D01*
X344269087Y-78857490D01*
X344306510Y-78861176D01*
X344343933Y-78857490D01*
X344343936Y-78857490D01*
X344455888Y-78846464D01*
X344599525Y-78802892D01*
X344731902Y-78732135D01*
X344847932Y-78636912D01*
X344871794Y-78607836D01*
X346523602Y-76956029D01*
X346537247Y-76981556D01*
X346581355Y-77064077D01*
X346639141Y-77134489D01*
X346676579Y-77180107D01*
X346705649Y-77203964D01*
X347557041Y-78055356D01*
X347580903Y-78084432D01*
X347645997Y-78137853D01*
X347696932Y-78179655D01*
X347729385Y-78197001D01*
X347829310Y-78250412D01*
X347972947Y-78293984D01*
X348084899Y-78305010D01*
X348084902Y-78305010D01*
X348122325Y-78308696D01*
X348159748Y-78305010D01*
X352372880Y-78305010D01*
X353844001Y-79776132D01*
X353844002Y-84220500D01*
X353801934Y-84220500D01*
X353646204Y-84235838D01*
X353446393Y-84296450D01*
X353262247Y-84394878D01*
X353100841Y-84527341D01*
X352968378Y-84688747D01*
X352910765Y-84796534D01*
X352904312Y-84731018D01*
X352868002Y-84611320D01*
X352809037Y-84501006D01*
X352729685Y-84404315D01*
X352632994Y-84324963D01*
X352522680Y-84265998D01*
X352402982Y-84229688D01*
X352278500Y-84217428D01*
X352139250Y-84220500D01*
X351980500Y-84379250D01*
X351980500Y-85153500D01*
X352000500Y-85153500D01*
X352000500Y-85407500D01*
X351980500Y-85407500D01*
X351980500Y-86181750D01*
X352139250Y-86340500D01*
X352278500Y-86343572D01*
X352402982Y-86331312D01*
X352522680Y-86295002D01*
X352632994Y-86236037D01*
X352729685Y-86156685D01*
X352809037Y-86059994D01*
X352868002Y-85949680D01*
X352904312Y-85829982D01*
X352910765Y-85764466D01*
X352968378Y-85872253D01*
X353100841Y-86033659D01*
X353262247Y-86166122D01*
X353446393Y-86264550D01*
X353646204Y-86325162D01*
X353801934Y-86340500D01*
X353906066Y-86340500D01*
X354061796Y-86325162D01*
X354261607Y-86264550D01*
X354354000Y-86215165D01*
X354446393Y-86264550D01*
X354646204Y-86325162D01*
X354801934Y-86340500D01*
X354906066Y-86340500D01*
X355061796Y-86325162D01*
X355176276Y-86290435D01*
X355184820Y-86295002D01*
X355304518Y-86331312D01*
X355429000Y-86343572D01*
X355568250Y-86340500D01*
X355727000Y-86181750D01*
X355727000Y-85887633D01*
X355739622Y-85872253D01*
X355838050Y-85688107D01*
X355898662Y-85488296D01*
X355906619Y-85407500D01*
X355981000Y-85407500D01*
X355981000Y-86181750D01*
X356139750Y-86340500D01*
X356279000Y-86343572D01*
X356403482Y-86331312D01*
X356523180Y-86295002D01*
X356633494Y-86236037D01*
X356730185Y-86156685D01*
X356809537Y-86059994D01*
X356868502Y-85949680D01*
X356904812Y-85829982D01*
X356917072Y-85705500D01*
X356914000Y-85566250D01*
X356755250Y-85407500D01*
X355981000Y-85407500D01*
X355906619Y-85407500D01*
X355919128Y-85280500D01*
X355898662Y-85072704D01*
X355838050Y-84872893D01*
X355739622Y-84688747D01*
X355727000Y-84673367D01*
X355727000Y-84379250D01*
X355981000Y-84379250D01*
X355981000Y-85153500D01*
X356755250Y-85153500D01*
X356914000Y-84994750D01*
X356917072Y-84855500D01*
X356904812Y-84731018D01*
X356868502Y-84611320D01*
X356809537Y-84501006D01*
X356730185Y-84404315D01*
X356633494Y-84324963D01*
X356523180Y-84265998D01*
X356403482Y-84229688D01*
X356279000Y-84217428D01*
X356139750Y-84220500D01*
X355981000Y-84379250D01*
X355727000Y-84379250D01*
X355568250Y-84220500D01*
X355429000Y-84217428D01*
X355368001Y-84223436D01*
X355368001Y-79497924D01*
X355371687Y-79460501D01*
X355366952Y-79412425D01*
X355356975Y-79311123D01*
X355313403Y-79167486D01*
X355270461Y-79087147D01*
X355242646Y-79035108D01*
X355171280Y-78948149D01*
X355147423Y-78919079D01*
X355118354Y-78895223D01*
X354417420Y-78194290D01*
X354444948Y-78197001D01*
X354444950Y-78197001D01*
X354485500Y-78200995D01*
X354526051Y-78197001D01*
X355811891Y-78197001D01*
X355852441Y-78200995D01*
X355892991Y-78197001D01*
X355892994Y-78197001D01*
X356014267Y-78185057D01*
X356169875Y-78137854D01*
X356313283Y-78061200D01*
X356438982Y-77958042D01*
X356464838Y-77926536D01*
X356818541Y-77572834D01*
X356850042Y-77546982D01*
X356953200Y-77421283D01*
X357029854Y-77277875D01*
X357077057Y-77122267D01*
X357089001Y-77000994D01*
X357089001Y-77000992D01*
X357092995Y-76960441D01*
X357089001Y-76919891D01*
X357089001Y-76132431D01*
X358407004Y-74814428D01*
X358568898Y-74782226D01*
X358757256Y-74704205D01*
X358894503Y-74612500D01*
X361528450Y-74612500D01*
X361569000Y-74616494D01*
X361609550Y-74612500D01*
X361609553Y-74612500D01*
X361730826Y-74600556D01*
X361886434Y-74553353D01*
X362029842Y-74476699D01*
X362155541Y-74373541D01*
X362181397Y-74342035D01*
X362471004Y-74052428D01*
X362632898Y-74020226D01*
X362821256Y-73942205D01*
X362990774Y-73828937D01*
X363134937Y-73684774D01*
X363248205Y-73515256D01*
X363326226Y-73326898D01*
X363366000Y-73126939D01*
X363366000Y-72923061D01*
X363326226Y-72723102D01*
X363248205Y-72534744D01*
X363134937Y-72365226D01*
X362990774Y-72221063D01*
X362821256Y-72107795D01*
X362632898Y-72029774D01*
X362432939Y-71990000D01*
X362229061Y-71990000D01*
X362223000Y-71991206D01*
X362223000Y-71907061D01*
X362183226Y-71707102D01*
X362105205Y-71518744D01*
X361991937Y-71349226D01*
X361847774Y-71205063D01*
X361678256Y-71091795D01*
X361489898Y-71013774D01*
X361328004Y-70981572D01*
X359866897Y-69520465D01*
X359841040Y-69488958D01*
X359715341Y-69385800D01*
X359571933Y-69309146D01*
X359416325Y-69261943D01*
X359295052Y-69249999D01*
X359295049Y-69249999D01*
X359254499Y-69246005D01*
X359213949Y-69249999D01*
X358098900Y-69249999D01*
X358134000Y-69085000D01*
X358134000Y-68535000D01*
X357126000Y-68535000D01*
X357126000Y-68555000D01*
X356872000Y-68555000D01*
X356872000Y-68535000D01*
X356852000Y-68535000D01*
X356852000Y-68281000D01*
X356872000Y-68281000D01*
X356872000Y-66890046D01*
X357126000Y-66890046D01*
X357126000Y-68281000D01*
X358134000Y-68281000D01*
X358134000Y-67731000D01*
X358087415Y-67512013D01*
X357999003Y-67306322D01*
X357872161Y-67121831D01*
X357711764Y-66965631D01*
X357523976Y-66843724D01*
X357300874Y-66763881D01*
X357126000Y-66890046D01*
X356872000Y-66890046D01*
X356697126Y-66763881D01*
X356474024Y-66843724D01*
X356286236Y-66965631D01*
X356141884Y-67106206D01*
X356023731Y-67027259D01*
X355849022Y-66954892D01*
X355663552Y-66918000D01*
X355474448Y-66918000D01*
X355288978Y-66954892D01*
X355114269Y-67027259D01*
X354957036Y-67132319D01*
X354823319Y-67266036D01*
X354718259Y-67423269D01*
X354645892Y-67597978D01*
X354609000Y-67783448D01*
X354609000Y-67972552D01*
X354645892Y-68158022D01*
X354718259Y-68332731D01*
X354823319Y-68489964D01*
X354957036Y-68623681D01*
X355114269Y-68728741D01*
X355288978Y-68801108D01*
X355474448Y-68838000D01*
X355663552Y-68838000D01*
X355849022Y-68801108D01*
X355864000Y-68794904D01*
X355864000Y-69085000D01*
X355910585Y-69303987D01*
X355998997Y-69509678D01*
X356125839Y-69694169D01*
X356286236Y-69850369D01*
X356474024Y-69972276D01*
X356697126Y-70052119D01*
X356863639Y-69931986D01*
X354917966Y-71877660D01*
X354886459Y-71903517D01*
X354819057Y-71985648D01*
X354783301Y-72029216D01*
X354732415Y-72124417D01*
X354711557Y-72163439D01*
X354722000Y-72110939D01*
X354722000Y-71907061D01*
X354682226Y-71707102D01*
X354604205Y-71518744D01*
X354490937Y-71349226D01*
X354346774Y-71205063D01*
X354177256Y-71091795D01*
X354176000Y-71091275D01*
X354176000Y-67451369D01*
X354179686Y-67413946D01*
X354175090Y-67367279D01*
X354164974Y-67264569D01*
X354121402Y-67120932D01*
X354050645Y-66988555D01*
X353955422Y-66872525D01*
X353926353Y-66848669D01*
X353693129Y-66615445D01*
X353701226Y-66595898D01*
X353741000Y-66395939D01*
X353741000Y-66192061D01*
X353701226Y-65992102D01*
X353623205Y-65803744D01*
X353509937Y-65634226D01*
X353365774Y-65490063D01*
X353196256Y-65376795D01*
X353007898Y-65298774D01*
X352807939Y-65259000D01*
X352604061Y-65259000D01*
X352404102Y-65298774D01*
X352215744Y-65376795D01*
X352179000Y-65401346D01*
X352142256Y-65376795D01*
X351953898Y-65298774D01*
X351753939Y-65259000D01*
X351550061Y-65259000D01*
X351350102Y-65298774D01*
X351161744Y-65376795D01*
X350992226Y-65490063D01*
X350848063Y-65634226D01*
X350734795Y-65803744D01*
X350656774Y-65992102D01*
X350617000Y-66192061D01*
X350617000Y-66395939D01*
X350656774Y-66595898D01*
X350734795Y-66784256D01*
X350848063Y-66953774D01*
X350992226Y-67097937D01*
X351161744Y-67211205D01*
X351350102Y-67289226D01*
X351550061Y-67329000D01*
X351609370Y-67329000D01*
X352198000Y-67917631D01*
X352198001Y-71091274D01*
X352196744Y-71091795D01*
X352027226Y-71205063D01*
X351883063Y-71349226D01*
X351769795Y-71518744D01*
X351691774Y-71707102D01*
X351652000Y-71907061D01*
X351652000Y-72110939D01*
X351691774Y-72310898D01*
X351769795Y-72499256D01*
X351883063Y-72668774D01*
X352027226Y-72812937D01*
X352196744Y-72926205D01*
X352385102Y-73004226D01*
X352585061Y-73044000D01*
X352788939Y-73044000D01*
X352988898Y-73004226D01*
X353177256Y-72926205D01*
X353187000Y-72919694D01*
X353196744Y-72926205D01*
X353385102Y-73004226D01*
X353585061Y-73044000D01*
X353788939Y-73044000D01*
X353988898Y-73004226D01*
X354177256Y-72926205D01*
X354346774Y-72812937D01*
X354490937Y-72668774D01*
X354604205Y-72499256D01*
X354654577Y-72377648D01*
X354648338Y-72441000D01*
X354643506Y-72490058D01*
X354647500Y-72530609D01*
X354647501Y-75953496D01*
X354555795Y-76090744D01*
X354480764Y-76271884D01*
X354456934Y-76259147D01*
X354301326Y-76211944D01*
X354180053Y-76200000D01*
X354180050Y-76200000D01*
X354139500Y-76196006D01*
X354098950Y-76200000D01*
X350290433Y-76200000D01*
X350012000Y-75921567D01*
X350012000Y-72976548D01*
X350015994Y-72935997D01*
X350012000Y-72895445D01*
X350000056Y-72774172D01*
X349952853Y-72618564D01*
X349876199Y-72475156D01*
X349773041Y-72349457D01*
X349741535Y-72323601D01*
X349614901Y-72196967D01*
X349589044Y-72165460D01*
X349463345Y-72062302D01*
X349319937Y-71985648D01*
X349164329Y-71938445D01*
X349043056Y-71926501D01*
X349043053Y-71926501D01*
X349002503Y-71922507D01*
X348961953Y-71926501D01*
X347531549Y-71926501D01*
X347490998Y-71922507D01*
X347450448Y-71926501D01*
X347450446Y-71926501D01*
X347335001Y-71937871D01*
X347335001Y-70562383D01*
X347338687Y-70524960D01*
X347334899Y-70486498D01*
X347323975Y-70375583D01*
X347280403Y-70231946D01*
X347209646Y-70099569D01*
X347114423Y-69983539D01*
X347085348Y-69959678D01*
X346987324Y-69861654D01*
X346963462Y-69832578D01*
X346847432Y-69737355D01*
X346715055Y-69666598D01*
X346577455Y-69624857D01*
X346574159Y-69620841D01*
X346511294Y-69569249D01*
X346547705Y-69514756D01*
X346625726Y-69326398D01*
X346665500Y-69126439D01*
X346665500Y-68922561D01*
X346625726Y-68722602D01*
X346548019Y-68535000D01*
X347224000Y-68535000D01*
X347224000Y-69085000D01*
X347270585Y-69303987D01*
X347358997Y-69509678D01*
X347485839Y-69694169D01*
X347646236Y-69850369D01*
X347834024Y-69972276D01*
X348057126Y-70052119D01*
X348232000Y-69925954D01*
X348232000Y-68535000D01*
X347224000Y-68535000D01*
X346548019Y-68535000D01*
X346547705Y-68534244D01*
X346434437Y-68364726D01*
X346290274Y-68220563D01*
X346120756Y-68107295D01*
X345932398Y-68029274D01*
X345732439Y-67989500D01*
X345528561Y-67989500D01*
X345328602Y-68029274D01*
X345140244Y-68107295D01*
X344970726Y-68220563D01*
X344928789Y-68262500D01*
X344500440Y-68262500D01*
X344463017Y-68258814D01*
X344425594Y-68262500D01*
X344425592Y-68262500D01*
X344313640Y-68273526D01*
X344170003Y-68317098D01*
X344037626Y-68387855D01*
X343921596Y-68483078D01*
X343897739Y-68512148D01*
X343324006Y-69085882D01*
X343264697Y-69085882D01*
X343208434Y-69097073D01*
X343208434Y-67731000D01*
X347224000Y-67731000D01*
X347224000Y-68281000D01*
X348232000Y-68281000D01*
X348232000Y-66890046D01*
X348486000Y-66890046D01*
X348486000Y-68281000D01*
X348506000Y-68281000D01*
X348506000Y-68535000D01*
X348486000Y-68535000D01*
X348486000Y-69925954D01*
X348660874Y-70052119D01*
X348883976Y-69972276D01*
X349071764Y-69850369D01*
X349232161Y-69694169D01*
X349359003Y-69509678D01*
X349447415Y-69303987D01*
X349494000Y-69085000D01*
X349494000Y-68794904D01*
X349508978Y-68801108D01*
X349694448Y-68838000D01*
X349883552Y-68838000D01*
X350069022Y-68801108D01*
X350243731Y-68728741D01*
X350400964Y-68623681D01*
X350534681Y-68489964D01*
X350639741Y-68332731D01*
X350712108Y-68158022D01*
X350749000Y-67972552D01*
X350749000Y-67783448D01*
X350712108Y-67597978D01*
X350639741Y-67423269D01*
X350534681Y-67266036D01*
X350400964Y-67132319D01*
X350243731Y-67027259D01*
X350069022Y-66954892D01*
X349883552Y-66918000D01*
X349694448Y-66918000D01*
X349508978Y-66954892D01*
X349334269Y-67027259D01*
X349216116Y-67106206D01*
X349071764Y-66965631D01*
X348883976Y-66843724D01*
X348660874Y-66763881D01*
X348486000Y-66890046D01*
X348232000Y-66890046D01*
X348057126Y-66763881D01*
X347834024Y-66843724D01*
X347646236Y-66965631D01*
X347485839Y-67121831D01*
X347358997Y-67306322D01*
X347270585Y-67512013D01*
X347224000Y-67731000D01*
X343208434Y-67731000D01*
X343208434Y-66111870D01*
X343212428Y-66071319D01*
X343207297Y-66019226D01*
X343196490Y-65909494D01*
X343149287Y-65753886D01*
X343088728Y-65640589D01*
X343072633Y-65610477D01*
X343016661Y-65542276D01*
X342969475Y-65484779D01*
X342937975Y-65458928D01*
X341834047Y-64355000D01*
X347224000Y-64355000D01*
X347224000Y-64655000D01*
X347270585Y-64873987D01*
X347358997Y-65079678D01*
X347485839Y-65264169D01*
X347646236Y-65420369D01*
X347834024Y-65542276D01*
X348057126Y-65622119D01*
X348232000Y-65495954D01*
X348232000Y-64355000D01*
X348486000Y-64355000D01*
X348486000Y-65495954D01*
X348660874Y-65622119D01*
X348883976Y-65542276D01*
X349071764Y-65420369D01*
X349232161Y-65264169D01*
X349359003Y-65079678D01*
X349447415Y-64873987D01*
X349494000Y-64655000D01*
X349494000Y-64355000D01*
X355864000Y-64355000D01*
X355864000Y-64655000D01*
X355910585Y-64873987D01*
X355998997Y-65079678D01*
X356125839Y-65264169D01*
X356286236Y-65420369D01*
X356474024Y-65542276D01*
X356697126Y-65622119D01*
X356872000Y-65495954D01*
X356872000Y-64355000D01*
X357126000Y-64355000D01*
X357126000Y-65495954D01*
X357300874Y-65622119D01*
X357523976Y-65542276D01*
X357711764Y-65420369D01*
X357872161Y-65264169D01*
X357999003Y-65079678D01*
X358087415Y-64873987D01*
X358134000Y-64655000D01*
X358134000Y-64355000D01*
X357126000Y-64355000D01*
X356872000Y-64355000D01*
X355864000Y-64355000D01*
X349494000Y-64355000D01*
X348486000Y-64355000D01*
X348232000Y-64355000D01*
X347224000Y-64355000D01*
X341834047Y-64355000D01*
X341280047Y-63801000D01*
X347224000Y-63801000D01*
X347224000Y-64101000D01*
X348232000Y-64101000D01*
X348232000Y-62960046D01*
X348486000Y-62960046D01*
X348486000Y-64101000D01*
X349494000Y-64101000D01*
X349494000Y-63801000D01*
X355864000Y-63801000D01*
X355864000Y-64101000D01*
X356872000Y-64101000D01*
X356872000Y-62960046D01*
X357126000Y-62960046D01*
X357126000Y-64101000D01*
X358134000Y-64101000D01*
X358134000Y-63801000D01*
X358087415Y-63582013D01*
X357999003Y-63376322D01*
X357872161Y-63191831D01*
X357711764Y-63035631D01*
X357523976Y-62913724D01*
X357300874Y-62833881D01*
X357126000Y-62960046D01*
X356872000Y-62960046D01*
X356697126Y-62833881D01*
X356474024Y-62913724D01*
X356286236Y-63035631D01*
X356125839Y-63191831D01*
X355998997Y-63376322D01*
X355910585Y-63582013D01*
X355864000Y-63801000D01*
X349494000Y-63801000D01*
X349447415Y-63582013D01*
X349359003Y-63376322D01*
X349232161Y-63191831D01*
X349071764Y-63035631D01*
X348883976Y-62913724D01*
X348660874Y-62833881D01*
X348486000Y-62960046D01*
X348232000Y-62960046D01*
X348057126Y-62833881D01*
X347834024Y-62913724D01*
X347646236Y-63035631D01*
X347485839Y-63191831D01*
X347358997Y-63376322D01*
X347270585Y-63582013D01*
X347224000Y-63801000D01*
X341280047Y-63801000D01*
X340757041Y-63277995D01*
X340878934Y-63290000D01*
X340983066Y-63290000D01*
X341138796Y-63274662D01*
X341338607Y-63214050D01*
X341431000Y-63164665D01*
X341523393Y-63214050D01*
X341723204Y-63274662D01*
X341878934Y-63290000D01*
X341983066Y-63290000D01*
X342138796Y-63274662D01*
X342338607Y-63214050D01*
X342431000Y-63164665D01*
X342523393Y-63214050D01*
X342723204Y-63274662D01*
X342878934Y-63290000D01*
X342983066Y-63290000D01*
X343138796Y-63274662D01*
X343338607Y-63214050D01*
X343431000Y-63164665D01*
X343523393Y-63214050D01*
X343723204Y-63274662D01*
X343878934Y-63290000D01*
X343983066Y-63290000D01*
X344138796Y-63274662D01*
X344338607Y-63214050D01*
X344522753Y-63115622D01*
X344684159Y-62983159D01*
X344816622Y-62821753D01*
X344915050Y-62637607D01*
X344975662Y-62437796D01*
X344996128Y-62230000D01*
X344975662Y-62022204D01*
X344915050Y-61822393D01*
X344891722Y-61778750D01*
X362711471Y-61778750D01*
X363077460Y-61814636D01*
X363077460Y-61814636D01*
G37*
X363077460Y-61814636D02*
X363398460Y-61911551D01*
X363694525Y-62068971D01*
X363954373Y-62280899D01*
X364168108Y-62539260D01*
X364327588Y-62834214D01*
X364426744Y-63154532D01*
X364465000Y-63518512D01*
X364465000Y-91948000D01*
X345755630Y-91948000D01*
X344989284Y-91181654D01*
X344965422Y-91152578D01*
X344849392Y-91057355D01*
X344717015Y-90986598D01*
X344573378Y-90943026D01*
X344461426Y-90932000D01*
X344461423Y-90932000D01*
X344424000Y-90928314D01*
X344386577Y-90932000D01*
X334833631Y-90932000D01*
X332724000Y-88822370D01*
X332724000Y-83673386D01*
X332847622Y-83522753D01*
X332946050Y-83338607D01*
X332978500Y-83231634D01*
X333010950Y-83338607D01*
X333109378Y-83522753D01*
X333241841Y-83684159D01*
X333403247Y-83816622D01*
X333587393Y-83915050D01*
X333787204Y-83975662D01*
X333942934Y-83991000D01*
X334047066Y-83991000D01*
X334202796Y-83975662D01*
X334402607Y-83915050D01*
X334495000Y-83865665D01*
X334587393Y-83915050D01*
X334787204Y-83975662D01*
X334942934Y-83991000D01*
X335047066Y-83991000D01*
X335202796Y-83975662D01*
X335402607Y-83915050D01*
X335495000Y-83865665D01*
X335587393Y-83915050D01*
X335787204Y-83975662D01*
X335942934Y-83991000D01*
X336047066Y-83991000D01*
X336202796Y-83975662D01*
X336402607Y-83915050D01*
X336495000Y-83865665D01*
X336587393Y-83915050D01*
X336787204Y-83975662D01*
X336942934Y-83991000D01*
X337047066Y-83991000D01*
X337202796Y-83975662D01*
X337402607Y-83915050D01*
X337495000Y-83865665D01*
X337587393Y-83915050D01*
X337787204Y-83975662D01*
X337942934Y-83991000D01*
X338047066Y-83991000D01*
X338202796Y-83975662D01*
X338402607Y-83915050D01*
X338495000Y-83865665D01*
X338587393Y-83915050D01*
X338787204Y-83975662D01*
X338942934Y-83991000D01*
X339047066Y-83991000D01*
X339202796Y-83975662D01*
X339345036Y-83932514D01*
X339358355Y-83957432D01*
X339384887Y-83989761D01*
X339453578Y-84073462D01*
X339482654Y-84097324D01*
X341178181Y-85792852D01*
X341202038Y-85821922D01*
X341231108Y-85845779D01*
X341318067Y-85917145D01*
X341342735Y-85930330D01*
X341450445Y-85987902D01*
X341594082Y-86031474D01*
X341706034Y-86042500D01*
X341706037Y-86042500D01*
X341743460Y-86046186D01*
X341780883Y-86042500D01*
X342078614Y-86042500D01*
X342229247Y-86166122D01*
X342413393Y-86264550D01*
X342613204Y-86325162D01*
X342768934Y-86340500D01*
X342873066Y-86340500D01*
X343028796Y-86325162D01*
X343228607Y-86264550D01*
X343321000Y-86215165D01*
X343413393Y-86264550D01*
X343613204Y-86325162D01*
X343768934Y-86340500D01*
X343873066Y-86340500D01*
X344028796Y-86325162D01*
X344228607Y-86264550D01*
X344321000Y-86215165D01*
X344413393Y-86264550D01*
X344613204Y-86325162D01*
X344768934Y-86340500D01*
X344873066Y-86340500D01*
X345028796Y-86325162D01*
X345143276Y-86290435D01*
X345151820Y-86295002D01*
X345271518Y-86331312D01*
X345396000Y-86343572D01*
X345535250Y-86340500D01*
X345694000Y-86181750D01*
X345694000Y-85887633D01*
X345706622Y-85872253D01*
X345805050Y-85688107D01*
X345865662Y-85488296D01*
X345886128Y-85280500D01*
X345871650Y-85133500D01*
X345948000Y-85133500D01*
X345948000Y-85153500D01*
X345968000Y-85153500D01*
X345968000Y-85407500D01*
X345948000Y-85407500D01*
X345948000Y-86181750D01*
X346106750Y-86340500D01*
X346246000Y-86343572D01*
X346370482Y-86331312D01*
X346490180Y-86295002D01*
X346600494Y-86236037D01*
X346697185Y-86156685D01*
X346776537Y-86059994D01*
X346835502Y-85949680D01*
X346871812Y-85829982D01*
X346883243Y-85713913D01*
X346967878Y-85872253D01*
X347100341Y-86033659D01*
X347261747Y-86166122D01*
X347445893Y-86264550D01*
X347645704Y-86325162D01*
X347801434Y-86340500D01*
X347905566Y-86340500D01*
X348061296Y-86325162D01*
X348261107Y-86264550D01*
X348353500Y-86215165D01*
X348445893Y-86264550D01*
X348645704Y-86325162D01*
X348801434Y-86340500D01*
X348905566Y-86340500D01*
X349061296Y-86325162D01*
X349261107Y-86264550D01*
X349353500Y-86215165D01*
X349445893Y-86264550D01*
X349645704Y-86325162D01*
X349801434Y-86340500D01*
X349905566Y-86340500D01*
X350061296Y-86325162D01*
X350261107Y-86264550D01*
X350353500Y-86215165D01*
X350445893Y-86264550D01*
X350645704Y-86325162D01*
X350801434Y-86340500D01*
X350905566Y-86340500D01*
X351061296Y-86325162D01*
X351175776Y-86290435D01*
X351184320Y-86295002D01*
X351304018Y-86331312D01*
X351428500Y-86343572D01*
X351567750Y-86340500D01*
X351726500Y-86181750D01*
X351726500Y-85887633D01*
X351739122Y-85872253D01*
X351837550Y-85688107D01*
X351898162Y-85488296D01*
X351918628Y-85280500D01*
X351898162Y-85072704D01*
X351837550Y-84872893D01*
X351739122Y-84688747D01*
X351726500Y-84673367D01*
X351726500Y-84379250D01*
X351567750Y-84220500D01*
X351428500Y-84217428D01*
X351304018Y-84229688D01*
X351184320Y-84265998D01*
X351175776Y-84270565D01*
X351061296Y-84235838D01*
X350905566Y-84220500D01*
X350801434Y-84220500D01*
X350645704Y-84235838D01*
X350503464Y-84278986D01*
X350490145Y-84254068D01*
X350394922Y-84138038D01*
X350365852Y-84114181D01*
X348289324Y-82037654D01*
X348265462Y-82008578D01*
X348149432Y-81913355D01*
X348017055Y-81842598D01*
X347873418Y-81799026D01*
X347761466Y-81788000D01*
X347761463Y-81788000D01*
X347724040Y-81784314D01*
X347686617Y-81788000D01*
X344213665Y-81788000D01*
X344160490Y-81734824D01*
X344160490Y-80672912D01*
X344164176Y-80635489D01*
X344160490Y-80598064D01*
X344149464Y-80486112D01*
X344105892Y-80342475D01*
X344035135Y-80210098D01*
X343939912Y-80094068D01*
X343935000Y-80090037D01*
X343935000Y-80035061D01*
X343895226Y-79835102D01*
X343817205Y-79646744D01*
X343703937Y-79477226D01*
X343559774Y-79333063D01*
X343482042Y-79281124D01*
X343905676Y-78857490D01*
X344269087Y-78857490D01*
X344306510Y-78861176D01*
X344343933Y-78857490D01*
X344343936Y-78857490D01*
X344455888Y-78846464D01*
X344599525Y-78802892D01*
X344731902Y-78732135D01*
X344847932Y-78636912D01*
X344871794Y-78607836D01*
X346523602Y-76956029D01*
X346537247Y-76981556D01*
X346581355Y-77064077D01*
X346639141Y-77134489D01*
X346676579Y-77180107D01*
X346705649Y-77203964D01*
X347557041Y-78055356D01*
X347580903Y-78084432D01*
X347645997Y-78137853D01*
X347696932Y-78179655D01*
X347729385Y-78197001D01*
X347829310Y-78250412D01*
X347972947Y-78293984D01*
X348084899Y-78305010D01*
X348084902Y-78305010D01*
X348122325Y-78308696D01*
X348159748Y-78305010D01*
X352372880Y-78305010D01*
X353844001Y-79776132D01*
X353844002Y-84220500D01*
X353801934Y-84220500D01*
X353646204Y-84235838D01*
X353446393Y-84296450D01*
X353262247Y-84394878D01*
X353100841Y-84527341D01*
X352968378Y-84688747D01*
X352910765Y-84796534D01*
X352904312Y-84731018D01*
X352868002Y-84611320D01*
X352809037Y-84501006D01*
X352729685Y-84404315D01*
X352632994Y-84324963D01*
X352522680Y-84265998D01*
X352402982Y-84229688D01*
X352278500Y-84217428D01*
X352139250Y-84220500D01*
X351980500Y-84379250D01*
X351980500Y-85153500D01*
X352000500Y-85153500D01*
X352000500Y-85407500D01*
X351980500Y-85407500D01*
X351980500Y-86181750D01*
X352139250Y-86340500D01*
X352278500Y-86343572D01*
X352402982Y-86331312D01*
X352522680Y-86295002D01*
X352632994Y-86236037D01*
X352729685Y-86156685D01*
X352809037Y-86059994D01*
X352868002Y-85949680D01*
X352904312Y-85829982D01*
X352910765Y-85764466D01*
X352968378Y-85872253D01*
X353100841Y-86033659D01*
X353262247Y-86166122D01*
X353446393Y-86264550D01*
X353646204Y-86325162D01*
X353801934Y-86340500D01*
X353906066Y-86340500D01*
X354061796Y-86325162D01*
X354261607Y-86264550D01*
X354354000Y-86215165D01*
X354446393Y-86264550D01*
X354646204Y-86325162D01*
X354801934Y-86340500D01*
X354906066Y-86340500D01*
X355061796Y-86325162D01*
X355176276Y-86290435D01*
X355184820Y-86295002D01*
X355304518Y-86331312D01*
X355429000Y-86343572D01*
X355568250Y-86340500D01*
X355727000Y-86181750D01*
X355727000Y-85887633D01*
X355739622Y-85872253D01*
X355838050Y-85688107D01*
X355898662Y-85488296D01*
X355906619Y-85407500D01*
X355981000Y-85407500D01*
X355981000Y-86181750D01*
X356139750Y-86340500D01*
X356279000Y-86343572D01*
X356403482Y-86331312D01*
X356523180Y-86295002D01*
X356633494Y-86236037D01*
X356730185Y-86156685D01*
X356809537Y-86059994D01*
X356868502Y-85949680D01*
X356904812Y-85829982D01*
X356917072Y-85705500D01*
X356914000Y-85566250D01*
X356755250Y-85407500D01*
X355981000Y-85407500D01*
X355906619Y-85407500D01*
X355919128Y-85280500D01*
X355898662Y-85072704D01*
X355838050Y-84872893D01*
X355739622Y-84688747D01*
X355727000Y-84673367D01*
X355727000Y-84379250D01*
X355981000Y-84379250D01*
X355981000Y-85153500D01*
X356755250Y-85153500D01*
X356914000Y-84994750D01*
X356917072Y-84855500D01*
X356904812Y-84731018D01*
X356868502Y-84611320D01*
X356809537Y-84501006D01*
X356730185Y-84404315D01*
X356633494Y-84324963D01*
X356523180Y-84265998D01*
X356403482Y-84229688D01*
X356279000Y-84217428D01*
X356139750Y-84220500D01*
X355981000Y-84379250D01*
X355727000Y-84379250D01*
X355568250Y-84220500D01*
X355429000Y-84217428D01*
X355368001Y-84223436D01*
X355368001Y-79497924D01*
X355371687Y-79460501D01*
X355366952Y-79412425D01*
X355356975Y-79311123D01*
X355313403Y-79167486D01*
X355270461Y-79087147D01*
X355242646Y-79035108D01*
X355171280Y-78948149D01*
X355147423Y-78919079D01*
X355118354Y-78895223D01*
X354417420Y-78194290D01*
X354444948Y-78197001D01*
X354444950Y-78197001D01*
X354485500Y-78200995D01*
X354526051Y-78197001D01*
X355811891Y-78197001D01*
X355852441Y-78200995D01*
X355892991Y-78197001D01*
X355892994Y-78197001D01*
X356014267Y-78185057D01*
X356169875Y-78137854D01*
X356313283Y-78061200D01*
X356438982Y-77958042D01*
X356464838Y-77926536D01*
X356818541Y-77572834D01*
X356850042Y-77546982D01*
X356953200Y-77421283D01*
X357029854Y-77277875D01*
X357077057Y-77122267D01*
X357089001Y-77000994D01*
X357089001Y-77000992D01*
X357092995Y-76960441D01*
X357089001Y-76919891D01*
X357089001Y-76132431D01*
X358407004Y-74814428D01*
X358568898Y-74782226D01*
X358757256Y-74704205D01*
X358894503Y-74612500D01*
X361528450Y-74612500D01*
X361569000Y-74616494D01*
X361609550Y-74612500D01*
X361609553Y-74612500D01*
X361730826Y-74600556D01*
X361886434Y-74553353D01*
X362029842Y-74476699D01*
X362155541Y-74373541D01*
X362181397Y-74342035D01*
X362471004Y-74052428D01*
X362632898Y-74020226D01*
X362821256Y-73942205D01*
X362990774Y-73828937D01*
X363134937Y-73684774D01*
X363248205Y-73515256D01*
X363326226Y-73326898D01*
X363366000Y-73126939D01*
X363366000Y-72923061D01*
X363326226Y-72723102D01*
X363248205Y-72534744D01*
X363134937Y-72365226D01*
X362990774Y-72221063D01*
X362821256Y-72107795D01*
X362632898Y-72029774D01*
X362432939Y-71990000D01*
X362229061Y-71990000D01*
X362223000Y-71991206D01*
X362223000Y-71907061D01*
X362183226Y-71707102D01*
X362105205Y-71518744D01*
X361991937Y-71349226D01*
X361847774Y-71205063D01*
X361678256Y-71091795D01*
X361489898Y-71013774D01*
X361328004Y-70981572D01*
X359866897Y-69520465D01*
X359841040Y-69488958D01*
X359715341Y-69385800D01*
X359571933Y-69309146D01*
X359416325Y-69261943D01*
X359295052Y-69249999D01*
X359295049Y-69249999D01*
X359254499Y-69246005D01*
X359213949Y-69249999D01*
X358098900Y-69249999D01*
X358134000Y-69085000D01*
X358134000Y-68535000D01*
X357126000Y-68535000D01*
X357126000Y-68555000D01*
X356872000Y-68555000D01*
X356872000Y-68535000D01*
X356852000Y-68535000D01*
X356852000Y-68281000D01*
X356872000Y-68281000D01*
X356872000Y-66890046D01*
X357126000Y-66890046D01*
X357126000Y-68281000D01*
X358134000Y-68281000D01*
X358134000Y-67731000D01*
X358087415Y-67512013D01*
X357999003Y-67306322D01*
X357872161Y-67121831D01*
X357711764Y-66965631D01*
X357523976Y-66843724D01*
X357300874Y-66763881D01*
X357126000Y-66890046D01*
X356872000Y-66890046D01*
X356697126Y-66763881D01*
X356474024Y-66843724D01*
X356286236Y-66965631D01*
X356141884Y-67106206D01*
X356023731Y-67027259D01*
X355849022Y-66954892D01*
X355663552Y-66918000D01*
X355474448Y-66918000D01*
X355288978Y-66954892D01*
X355114269Y-67027259D01*
X354957036Y-67132319D01*
X354823319Y-67266036D01*
X354718259Y-67423269D01*
X354645892Y-67597978D01*
X354609000Y-67783448D01*
X354609000Y-67972552D01*
X354645892Y-68158022D01*
X354718259Y-68332731D01*
X354823319Y-68489964D01*
X354957036Y-68623681D01*
X355114269Y-68728741D01*
X355288978Y-68801108D01*
X355474448Y-68838000D01*
X355663552Y-68838000D01*
X355849022Y-68801108D01*
X355864000Y-68794904D01*
X355864000Y-69085000D01*
X355910585Y-69303987D01*
X355998997Y-69509678D01*
X356125839Y-69694169D01*
X356286236Y-69850369D01*
X356474024Y-69972276D01*
X356697126Y-70052119D01*
X356863639Y-69931986D01*
X354917966Y-71877660D01*
X354886459Y-71903517D01*
X354819057Y-71985648D01*
X354783301Y-72029216D01*
X354732415Y-72124417D01*
X354711557Y-72163439D01*
X354722000Y-72110939D01*
X354722000Y-71907061D01*
X354682226Y-71707102D01*
X354604205Y-71518744D01*
X354490937Y-71349226D01*
X354346774Y-71205063D01*
X354177256Y-71091795D01*
X354176000Y-71091275D01*
X354176000Y-67451369D01*
X354179686Y-67413946D01*
X354175090Y-67367279D01*
X354164974Y-67264569D01*
X354121402Y-67120932D01*
X354050645Y-66988555D01*
X353955422Y-66872525D01*
X353926353Y-66848669D01*
X353693129Y-66615445D01*
X353701226Y-66595898D01*
X353741000Y-66395939D01*
X353741000Y-66192061D01*
X353701226Y-65992102D01*
X353623205Y-65803744D01*
X353509937Y-65634226D01*
X353365774Y-65490063D01*
X353196256Y-65376795D01*
X353007898Y-65298774D01*
X352807939Y-65259000D01*
X352604061Y-65259000D01*
X352404102Y-65298774D01*
X352215744Y-65376795D01*
X352179000Y-65401346D01*
X352142256Y-65376795D01*
X351953898Y-65298774D01*
X351753939Y-65259000D01*
X351550061Y-65259000D01*
X351350102Y-65298774D01*
X351161744Y-65376795D01*
X350992226Y-65490063D01*
X350848063Y-65634226D01*
X350734795Y-65803744D01*
X350656774Y-65992102D01*
X350617000Y-66192061D01*
X350617000Y-66395939D01*
X350656774Y-66595898D01*
X350734795Y-66784256D01*
X350848063Y-66953774D01*
X350992226Y-67097937D01*
X351161744Y-67211205D01*
X351350102Y-67289226D01*
X351550061Y-67329000D01*
X351609370Y-67329000D01*
X352198000Y-67917631D01*
X352198001Y-71091274D01*
X352196744Y-71091795D01*
X352027226Y-71205063D01*
X351883063Y-71349226D01*
X351769795Y-71518744D01*
X351691774Y-71707102D01*
X351652000Y-71907061D01*
X351652000Y-72110939D01*
X351691774Y-72310898D01*
X351769795Y-72499256D01*
X351883063Y-72668774D01*
X352027226Y-72812937D01*
X352196744Y-72926205D01*
X352385102Y-73004226D01*
X352585061Y-73044000D01*
X352788939Y-73044000D01*
X352988898Y-73004226D01*
X353177256Y-72926205D01*
X353187000Y-72919694D01*
X353196744Y-72926205D01*
X353385102Y-73004226D01*
X353585061Y-73044000D01*
X353788939Y-73044000D01*
X353988898Y-73004226D01*
X354177256Y-72926205D01*
X354346774Y-72812937D01*
X354490937Y-72668774D01*
X354604205Y-72499256D01*
X354654577Y-72377648D01*
X354648338Y-72441000D01*
X354643506Y-72490058D01*
X354647500Y-72530609D01*
X354647501Y-75953496D01*
X354555795Y-76090744D01*
X354480764Y-76271884D01*
X354456934Y-76259147D01*
X354301326Y-76211944D01*
X354180053Y-76200000D01*
X354180050Y-76200000D01*
X354139500Y-76196006D01*
X354098950Y-76200000D01*
X350290433Y-76200000D01*
X350012000Y-75921567D01*
X350012000Y-72976548D01*
X350015994Y-72935997D01*
X350012000Y-72895445D01*
X350000056Y-72774172D01*
X349952853Y-72618564D01*
X349876199Y-72475156D01*
X349773041Y-72349457D01*
X349741535Y-72323601D01*
X349614901Y-72196967D01*
X349589044Y-72165460D01*
X349463345Y-72062302D01*
X349319937Y-71985648D01*
X349164329Y-71938445D01*
X349043056Y-71926501D01*
X349043053Y-71926501D01*
X349002503Y-71922507D01*
X348961953Y-71926501D01*
X347531549Y-71926501D01*
X347490998Y-71922507D01*
X347450448Y-71926501D01*
X347450446Y-71926501D01*
X347335001Y-71937871D01*
X347335001Y-70562383D01*
X347338687Y-70524960D01*
X347334899Y-70486498D01*
X347323975Y-70375583D01*
X347280403Y-70231946D01*
X347209646Y-70099569D01*
X347114423Y-69983539D01*
X347085348Y-69959678D01*
X346987324Y-69861654D01*
X346963462Y-69832578D01*
X346847432Y-69737355D01*
X346715055Y-69666598D01*
X346577455Y-69624857D01*
X346574159Y-69620841D01*
X346511294Y-69569249D01*
X346547705Y-69514756D01*
X346625726Y-69326398D01*
X346665500Y-69126439D01*
X346665500Y-68922561D01*
X346625726Y-68722602D01*
X346548019Y-68535000D01*
X347224000Y-68535000D01*
X347224000Y-69085000D01*
X347270585Y-69303987D01*
X347358997Y-69509678D01*
X347485839Y-69694169D01*
X347646236Y-69850369D01*
X347834024Y-69972276D01*
X348057126Y-70052119D01*
X348232000Y-69925954D01*
X348232000Y-68535000D01*
X347224000Y-68535000D01*
X346548019Y-68535000D01*
X346547705Y-68534244D01*
X346434437Y-68364726D01*
X346290274Y-68220563D01*
X346120756Y-68107295D01*
X345932398Y-68029274D01*
X345732439Y-67989500D01*
X345528561Y-67989500D01*
X345328602Y-68029274D01*
X345140244Y-68107295D01*
X344970726Y-68220563D01*
X344928789Y-68262500D01*
X344500440Y-68262500D01*
X344463017Y-68258814D01*
X344425594Y-68262500D01*
X344425592Y-68262500D01*
X344313640Y-68273526D01*
X344170003Y-68317098D01*
X344037626Y-68387855D01*
X343921596Y-68483078D01*
X343897739Y-68512148D01*
X343324006Y-69085882D01*
X343264697Y-69085882D01*
X343208434Y-69097073D01*
X343208434Y-67731000D01*
X347224000Y-67731000D01*
X347224000Y-68281000D01*
X348232000Y-68281000D01*
X348232000Y-66890046D01*
X348486000Y-66890046D01*
X348486000Y-68281000D01*
X348506000Y-68281000D01*
X348506000Y-68535000D01*
X348486000Y-68535000D01*
X348486000Y-69925954D01*
X348660874Y-70052119D01*
X348883976Y-69972276D01*
X349071764Y-69850369D01*
X349232161Y-69694169D01*
X349359003Y-69509678D01*
X349447415Y-69303987D01*
X349494000Y-69085000D01*
X349494000Y-68794904D01*
X349508978Y-68801108D01*
X349694448Y-68838000D01*
X349883552Y-68838000D01*
X350069022Y-68801108D01*
X350243731Y-68728741D01*
X350400964Y-68623681D01*
X350534681Y-68489964D01*
X350639741Y-68332731D01*
X350712108Y-68158022D01*
X350749000Y-67972552D01*
X350749000Y-67783448D01*
X350712108Y-67597978D01*
X350639741Y-67423269D01*
X350534681Y-67266036D01*
X350400964Y-67132319D01*
X350243731Y-67027259D01*
X350069022Y-66954892D01*
X349883552Y-66918000D01*
X349694448Y-66918000D01*
X349508978Y-66954892D01*
X349334269Y-67027259D01*
X349216116Y-67106206D01*
X349071764Y-66965631D01*
X348883976Y-66843724D01*
X348660874Y-66763881D01*
X348486000Y-66890046D01*
X348232000Y-66890046D01*
X348057126Y-66763881D01*
X347834024Y-66843724D01*
X347646236Y-66965631D01*
X347485839Y-67121831D01*
X347358997Y-67306322D01*
X347270585Y-67512013D01*
X347224000Y-67731000D01*
X343208434Y-67731000D01*
X343208434Y-66111870D01*
X343212428Y-66071319D01*
X343207297Y-66019226D01*
X343196490Y-65909494D01*
X343149287Y-65753886D01*
X343088728Y-65640589D01*
X343072633Y-65610477D01*
X343016661Y-65542276D01*
X342969475Y-65484779D01*
X342937975Y-65458928D01*
X341834047Y-64355000D01*
X347224000Y-64355000D01*
X347224000Y-64655000D01*
X347270585Y-64873987D01*
X347358997Y-65079678D01*
X347485839Y-65264169D01*
X347646236Y-65420369D01*
X347834024Y-65542276D01*
X348057126Y-65622119D01*
X348232000Y-65495954D01*
X348232000Y-64355000D01*
X348486000Y-64355000D01*
X348486000Y-65495954D01*
X348660874Y-65622119D01*
X348883976Y-65542276D01*
X349071764Y-65420369D01*
X349232161Y-65264169D01*
X349359003Y-65079678D01*
X349447415Y-64873987D01*
X349494000Y-64655000D01*
X349494000Y-64355000D01*
X355864000Y-64355000D01*
X355864000Y-64655000D01*
X355910585Y-64873987D01*
X355998997Y-65079678D01*
X356125839Y-65264169D01*
X356286236Y-65420369D01*
X356474024Y-65542276D01*
X356697126Y-65622119D01*
X356872000Y-65495954D01*
X356872000Y-64355000D01*
X357126000Y-64355000D01*
X357126000Y-65495954D01*
X357300874Y-65622119D01*
X357523976Y-65542276D01*
X357711764Y-65420369D01*
X357872161Y-65264169D01*
X357999003Y-65079678D01*
X358087415Y-64873987D01*
X358134000Y-64655000D01*
X358134000Y-64355000D01*
X357126000Y-64355000D01*
X356872000Y-64355000D01*
X355864000Y-64355000D01*
X349494000Y-64355000D01*
X348486000Y-64355000D01*
X348232000Y-64355000D01*
X347224000Y-64355000D01*
X341834047Y-64355000D01*
X341280047Y-63801000D01*
X347224000Y-63801000D01*
X347224000Y-64101000D01*
X348232000Y-64101000D01*
X348232000Y-62960046D01*
X348486000Y-62960046D01*
X348486000Y-64101000D01*
X349494000Y-64101000D01*
X349494000Y-63801000D01*
X355864000Y-63801000D01*
X355864000Y-64101000D01*
X356872000Y-64101000D01*
X356872000Y-62960046D01*
X357126000Y-62960046D01*
X357126000Y-64101000D01*
X358134000Y-64101000D01*
X358134000Y-63801000D01*
X358087415Y-63582013D01*
X357999003Y-63376322D01*
X357872161Y-63191831D01*
X357711764Y-63035631D01*
X357523976Y-62913724D01*
X357300874Y-62833881D01*
X357126000Y-62960046D01*
X356872000Y-62960046D01*
X356697126Y-62833881D01*
X356474024Y-62913724D01*
X356286236Y-63035631D01*
X356125839Y-63191831D01*
X355998997Y-63376322D01*
X355910585Y-63582013D01*
X355864000Y-63801000D01*
X349494000Y-63801000D01*
X349447415Y-63582013D01*
X349359003Y-63376322D01*
X349232161Y-63191831D01*
X349071764Y-63035631D01*
X348883976Y-62913724D01*
X348660874Y-62833881D01*
X348486000Y-62960046D01*
X348232000Y-62960046D01*
X348057126Y-62833881D01*
X347834024Y-62913724D01*
X347646236Y-63035631D01*
X347485839Y-63191831D01*
X347358997Y-63376322D01*
X347270585Y-63582013D01*
X347224000Y-63801000D01*
X341280047Y-63801000D01*
X340757041Y-63277995D01*
X340878934Y-63290000D01*
X340983066Y-63290000D01*
X341138796Y-63274662D01*
X341338607Y-63214050D01*
X341431000Y-63164665D01*
X341523393Y-63214050D01*
X341723204Y-63274662D01*
X341878934Y-63290000D01*
X341983066Y-63290000D01*
X342138796Y-63274662D01*
X342338607Y-63214050D01*
X342431000Y-63164665D01*
X342523393Y-63214050D01*
X342723204Y-63274662D01*
X342878934Y-63290000D01*
X342983066Y-63290000D01*
X343138796Y-63274662D01*
X343338607Y-63214050D01*
X343431000Y-63164665D01*
X343523393Y-63214050D01*
X343723204Y-63274662D01*
X343878934Y-63290000D01*
X343983066Y-63290000D01*
X344138796Y-63274662D01*
X344338607Y-63214050D01*
X344522753Y-63115622D01*
X344684159Y-62983159D01*
X344816622Y-62821753D01*
X344915050Y-62637607D01*
X344975662Y-62437796D01*
X344996128Y-62230000D01*
X344975662Y-62022204D01*
X344915050Y-61822393D01*
X344891722Y-61778750D01*
X362711471Y-61778750D01*
X363077460Y-61814636D01*
G36*
X319462999Y-75963038D02*
G01*
X319459313Y-76000461D01*
X319462999Y-76037884D01*
X319462999Y-76037886D01*
X319474025Y-76149838D01*
X319517597Y-76293475D01*
X319517598Y-76293476D01*
X319588354Y-76425853D01*
X319624961Y-76470458D01*
X319683577Y-76541883D01*
X319712653Y-76565745D01*
X320992501Y-77845594D01*
X320992500Y-79976115D01*
X320988814Y-80013538D01*
X320992500Y-80050961D01*
X320992500Y-80050963D01*
X321003526Y-80162915D01*
X321047098Y-80306552D01*
X321060709Y-80332016D01*
X321117855Y-80438930D01*
X321156576Y-80486111D01*
X321213078Y-80554960D01*
X321242154Y-80578822D01*
X322589826Y-81926495D01*
X322522393Y-81946950D01*
X322430000Y-81996335D01*
X322337607Y-81946950D01*
X322137796Y-81886338D01*
X321982066Y-81871000D01*
X321877934Y-81871000D01*
X321722204Y-81886338D01*
X321522393Y-81946950D01*
X321338247Y-82045378D01*
X321176841Y-82177841D01*
X321044378Y-82339247D01*
X320945950Y-82523393D01*
X320885338Y-82723204D01*
X320864872Y-82931000D01*
X320885338Y-83138796D01*
X320945950Y-83338607D01*
X321044378Y-83522753D01*
X321168001Y-83673387D01*
X321168000Y-88457370D01*
X319836370Y-89789000D01*
X307020630Y-89789000D01*
X311998874Y-84810757D01*
X312027944Y-84786900D01*
X312123167Y-84670870D01*
X312193924Y-84538493D01*
X312237496Y-84394856D01*
X312248522Y-84282904D01*
X312248522Y-84282902D01*
X312252208Y-84245479D01*
X312248522Y-84208056D01*
X312248522Y-78424274D01*
X319463000Y-71209796D01*
X319462999Y-75963038D01*
X319462999Y-75963038D01*
G37*
X319462999Y-75963038D02*
X319459313Y-76000461D01*
X319462999Y-76037884D01*
X319462999Y-76037886D01*
X319474025Y-76149838D01*
X319517597Y-76293475D01*
X319517598Y-76293476D01*
X319588354Y-76425853D01*
X319624961Y-76470458D01*
X319683577Y-76541883D01*
X319712653Y-76565745D01*
X320992501Y-77845594D01*
X320992500Y-79976115D01*
X320988814Y-80013538D01*
X320992500Y-80050961D01*
X320992500Y-80050963D01*
X321003526Y-80162915D01*
X321047098Y-80306552D01*
X321060709Y-80332016D01*
X321117855Y-80438930D01*
X321156576Y-80486111D01*
X321213078Y-80554960D01*
X321242154Y-80578822D01*
X322589826Y-81926495D01*
X322522393Y-81946950D01*
X322430000Y-81996335D01*
X322337607Y-81946950D01*
X322137796Y-81886338D01*
X321982066Y-81871000D01*
X321877934Y-81871000D01*
X321722204Y-81886338D01*
X321522393Y-81946950D01*
X321338247Y-82045378D01*
X321176841Y-82177841D01*
X321044378Y-82339247D01*
X320945950Y-82523393D01*
X320885338Y-82723204D01*
X320864872Y-82931000D01*
X320885338Y-83138796D01*
X320945950Y-83338607D01*
X321044378Y-83522753D01*
X321168001Y-83673387D01*
X321168000Y-88457370D01*
X319836370Y-89789000D01*
X307020630Y-89789000D01*
X311998874Y-84810757D01*
X312027944Y-84786900D01*
X312123167Y-84670870D01*
X312193924Y-84538493D01*
X312237496Y-84394856D01*
X312248522Y-84282904D01*
X312248522Y-84282902D01*
X312252208Y-84245479D01*
X312248522Y-84208056D01*
X312248522Y-78424274D01*
X319463000Y-71209796D01*
X319462999Y-75963038D01*
G36*
X319929950Y-61822393D02*
G01*
X319869338Y-62022204D01*
X319848872Y-62230000D01*
X319869338Y-62437796D01*
X319929950Y-62637607D01*
X320028378Y-62821753D01*
X320082576Y-62887793D01*
X317384380Y-65585990D01*
X315154735Y-65585990D01*
X315117312Y-65582304D01*
X315079889Y-65585990D01*
X315079887Y-65585990D01*
X314967935Y-65597016D01*
X314824298Y-65640588D01*
X314691921Y-65711345D01*
X314575891Y-65806568D01*
X314552034Y-65835638D01*
X307970649Y-72417025D01*
X307941579Y-72440882D01*
X307917722Y-72469952D01*
X307917721Y-72469953D01*
X307846355Y-72556912D01*
X307775599Y-72689289D01*
X307732027Y-72832926D01*
X307717314Y-72982304D01*
X307721001Y-73019737D01*
X307721000Y-82107369D01*
X306162508Y-83665861D01*
X306235869Y-83575912D01*
X306268951Y-83526119D01*
X306302769Y-83476730D01*
X306307151Y-83468624D01*
X306670788Y-82784724D01*
X306693581Y-82729423D01*
X306717148Y-82674438D01*
X306719873Y-82665634D01*
X306943747Y-81924129D01*
X306955372Y-81865420D01*
X306967803Y-81806937D01*
X306968766Y-81797772D01*
X307044350Y-81026904D01*
X307044350Y-81026902D01*
X307047500Y-80994919D01*
X307047500Y-64886565D01*
X315063040Y-64886565D01*
X315130020Y-65126656D01*
X315379048Y-65243756D01*
X315646135Y-65310023D01*
X315921017Y-65322910D01*
X316193133Y-65281922D01*
X316452023Y-65188636D01*
X316567980Y-65126656D01*
X316634960Y-64886565D01*
X315849000Y-64100605D01*
X315063040Y-64886565D01*
X307047500Y-64886565D01*
X307047500Y-63993017D01*
X314447090Y-63993017D01*
X314488078Y-64265133D01*
X314581364Y-64524023D01*
X314643344Y-64639980D01*
X314883435Y-64706960D01*
X315669395Y-63921000D01*
X316028605Y-63921000D01*
X316814565Y-64706960D01*
X317054656Y-64639980D01*
X317171756Y-64390952D01*
X317238023Y-64123865D01*
X317250910Y-63848983D01*
X317209922Y-63576867D01*
X317116636Y-63317977D01*
X317054656Y-63202020D01*
X316814565Y-63135040D01*
X316028605Y-63921000D01*
X315669395Y-63921000D01*
X314883435Y-63135040D01*
X314643344Y-63202020D01*
X314526244Y-63451048D01*
X314459977Y-63718135D01*
X314447090Y-63993017D01*
X307047500Y-63993017D01*
X307047500Y-63532279D01*
X307083386Y-63166290D01*
X307147046Y-62955435D01*
X315063040Y-62955435D01*
X315849000Y-63741395D01*
X316634960Y-62955435D01*
X316567980Y-62715344D01*
X316318952Y-62598244D01*
X316051865Y-62531977D01*
X315776983Y-62519090D01*
X315504867Y-62560078D01*
X315245977Y-62653364D01*
X315130020Y-62715344D01*
X315063040Y-62955435D01*
X307147046Y-62955435D01*
X307180301Y-62845290D01*
X307337721Y-62549225D01*
X307549649Y-62289377D01*
X307808010Y-62075642D01*
X308102964Y-61916162D01*
X308423282Y-61817006D01*
X308787262Y-61778750D01*
X319953278Y-61778750D01*
X319929950Y-61822393D01*
X319929950Y-61822393D01*
G37*
X319929950Y-61822393D02*
X319869338Y-62022204D01*
X319848872Y-62230000D01*
X319869338Y-62437796D01*
X319929950Y-62637607D01*
X320028378Y-62821753D01*
X320082576Y-62887793D01*
X317384380Y-65585990D01*
X315154735Y-65585990D01*
X315117312Y-65582304D01*
X315079889Y-65585990D01*
X315079887Y-65585990D01*
X314967935Y-65597016D01*
X314824298Y-65640588D01*
X314691921Y-65711345D01*
X314575891Y-65806568D01*
X314552034Y-65835638D01*
X307970649Y-72417025D01*
X307941579Y-72440882D01*
X307917722Y-72469952D01*
X307917721Y-72469953D01*
X307846355Y-72556912D01*
X307775599Y-72689289D01*
X307732027Y-72832926D01*
X307717314Y-72982304D01*
X307721001Y-73019737D01*
X307721000Y-82107369D01*
X306162508Y-83665861D01*
X306235869Y-83575912D01*
X306268951Y-83526119D01*
X306302769Y-83476730D01*
X306307151Y-83468624D01*
X306670788Y-82784724D01*
X306693581Y-82729423D01*
X306717148Y-82674438D01*
X306719873Y-82665634D01*
X306943747Y-81924129D01*
X306955372Y-81865420D01*
X306967803Y-81806937D01*
X306968766Y-81797772D01*
X307044350Y-81026904D01*
X307044350Y-81026902D01*
X307047500Y-80994919D01*
X307047500Y-64886565D01*
X315063040Y-64886565D01*
X315130020Y-65126656D01*
X315379048Y-65243756D01*
X315646135Y-65310023D01*
X315921017Y-65322910D01*
X316193133Y-65281922D01*
X316452023Y-65188636D01*
X316567980Y-65126656D01*
X316634960Y-64886565D01*
X315849000Y-64100605D01*
X315063040Y-64886565D01*
X307047500Y-64886565D01*
X307047500Y-63993017D01*
X314447090Y-63993017D01*
X314488078Y-64265133D01*
X314581364Y-64524023D01*
X314643344Y-64639980D01*
X314883435Y-64706960D01*
X315669395Y-63921000D01*
X316028605Y-63921000D01*
X316814565Y-64706960D01*
X317054656Y-64639980D01*
X317171756Y-64390952D01*
X317238023Y-64123865D01*
X317250910Y-63848983D01*
X317209922Y-63576867D01*
X317116636Y-63317977D01*
X317054656Y-63202020D01*
X316814565Y-63135040D01*
X316028605Y-63921000D01*
X315669395Y-63921000D01*
X314883435Y-63135040D01*
X314643344Y-63202020D01*
X314526244Y-63451048D01*
X314459977Y-63718135D01*
X314447090Y-63993017D01*
X307047500Y-63993017D01*
X307047500Y-63532279D01*
X307083386Y-63166290D01*
X307147046Y-62955435D01*
X315063040Y-62955435D01*
X315849000Y-63741395D01*
X316634960Y-62955435D01*
X316567980Y-62715344D01*
X316318952Y-62598244D01*
X316051865Y-62531977D01*
X315776983Y-62519090D01*
X315504867Y-62560078D01*
X315245977Y-62653364D01*
X315130020Y-62715344D01*
X315063040Y-62955435D01*
X307147046Y-62955435D01*
X307180301Y-62845290D01*
X307337721Y-62549225D01*
X307549649Y-62289377D01*
X307808010Y-62075642D01*
X308102964Y-61916162D01*
X308423282Y-61817006D01*
X308787262Y-61778750D01*
X319953278Y-61778750D01*
X319929950Y-61822393D01*
G36*
X340360000Y-77731684D02*
G01*
X339847649Y-78244036D01*
X339818579Y-78267893D01*
X339794722Y-78296963D01*
X339794721Y-78296964D01*
X339723355Y-78383923D01*
X339699984Y-78427648D01*
X339652598Y-78516300D01*
X339609026Y-78659937D01*
X339608772Y-78662517D01*
X339556063Y-78715226D01*
X339442795Y-78884744D01*
X339364774Y-79073102D01*
X339325000Y-79273061D01*
X339325000Y-79476939D01*
X339364774Y-79676898D01*
X339442795Y-79865256D01*
X339556063Y-80034774D01*
X339700226Y-80178937D01*
X339869744Y-80292205D01*
X340058102Y-80370226D01*
X340258061Y-80410000D01*
X340375978Y-80410000D01*
X340375978Y-80974829D01*
X340371984Y-81015380D01*
X340375978Y-81055930D01*
X340375978Y-81055932D01*
X340387922Y-81177205D01*
X340426880Y-81305632D01*
X340435125Y-81332813D01*
X340511779Y-81476222D01*
X340538205Y-81508422D01*
X340614937Y-81601921D01*
X340646444Y-81627778D01*
X340886594Y-81867928D01*
X340570000Y-81867928D01*
X340445518Y-81880188D01*
X340325820Y-81916498D01*
X340317276Y-81921065D01*
X340202796Y-81886338D01*
X340047066Y-81871000D01*
X339942934Y-81871000D01*
X339787204Y-81886338D01*
X339587393Y-81946950D01*
X339495000Y-81996335D01*
X339402607Y-81946950D01*
X339202796Y-81886338D01*
X339047066Y-81871000D01*
X338942934Y-81871000D01*
X338787204Y-81886338D01*
X338587393Y-81946950D01*
X338495000Y-81996335D01*
X338402607Y-81946950D01*
X338202796Y-81886338D01*
X338047066Y-81871000D01*
X337942934Y-81871000D01*
X337787204Y-81886338D01*
X337587393Y-81946950D01*
X337495000Y-81996335D01*
X337402607Y-81946950D01*
X337202796Y-81886338D01*
X337047066Y-81871000D01*
X336942934Y-81871000D01*
X336787204Y-81886338D01*
X336587393Y-81946950D01*
X336495000Y-81996335D01*
X336402607Y-81946950D01*
X336202796Y-81886338D01*
X336047066Y-81871000D01*
X335942934Y-81871000D01*
X335813881Y-81883711D01*
X339956857Y-77740735D01*
X339985933Y-77716873D01*
X340050751Y-77637892D01*
X340081156Y-77600844D01*
X340136017Y-77498205D01*
X340151913Y-77468466D01*
X340195485Y-77324829D01*
X340206511Y-77212877D01*
X340206511Y-77212874D01*
X340210197Y-77175451D01*
X340206511Y-77138028D01*
X340206511Y-76801200D01*
X340248448Y-76759263D01*
X340360001Y-76592312D01*
X340360000Y-77731684D01*
X340360000Y-77731684D01*
G37*
X340360000Y-77731684D02*
X339847649Y-78244036D01*
X339818579Y-78267893D01*
X339794722Y-78296963D01*
X339794721Y-78296964D01*
X339723355Y-78383923D01*
X339699984Y-78427648D01*
X339652598Y-78516300D01*
X339609026Y-78659937D01*
X339608772Y-78662517D01*
X339556063Y-78715226D01*
X339442795Y-78884744D01*
X339364774Y-79073102D01*
X339325000Y-79273061D01*
X339325000Y-79476939D01*
X339364774Y-79676898D01*
X339442795Y-79865256D01*
X339556063Y-80034774D01*
X339700226Y-80178937D01*
X339869744Y-80292205D01*
X340058102Y-80370226D01*
X340258061Y-80410000D01*
X340375978Y-80410000D01*
X340375978Y-80974829D01*
X340371984Y-81015380D01*
X340375978Y-81055930D01*
X340375978Y-81055932D01*
X340387922Y-81177205D01*
X340426880Y-81305632D01*
X340435125Y-81332813D01*
X340511779Y-81476222D01*
X340538205Y-81508422D01*
X340614937Y-81601921D01*
X340646444Y-81627778D01*
X340886594Y-81867928D01*
X340570000Y-81867928D01*
X340445518Y-81880188D01*
X340325820Y-81916498D01*
X340317276Y-81921065D01*
X340202796Y-81886338D01*
X340047066Y-81871000D01*
X339942934Y-81871000D01*
X339787204Y-81886338D01*
X339587393Y-81946950D01*
X339495000Y-81996335D01*
X339402607Y-81946950D01*
X339202796Y-81886338D01*
X339047066Y-81871000D01*
X338942934Y-81871000D01*
X338787204Y-81886338D01*
X338587393Y-81946950D01*
X338495000Y-81996335D01*
X338402607Y-81946950D01*
X338202796Y-81886338D01*
X338047066Y-81871000D01*
X337942934Y-81871000D01*
X337787204Y-81886338D01*
X337587393Y-81946950D01*
X337495000Y-81996335D01*
X337402607Y-81946950D01*
X337202796Y-81886338D01*
X337047066Y-81871000D01*
X336942934Y-81871000D01*
X336787204Y-81886338D01*
X336587393Y-81946950D01*
X336495000Y-81996335D01*
X336402607Y-81946950D01*
X336202796Y-81886338D01*
X336047066Y-81871000D01*
X335942934Y-81871000D01*
X335813881Y-81883711D01*
X339956857Y-77740735D01*
X339985933Y-77716873D01*
X340050751Y-77637892D01*
X340081156Y-77600844D01*
X340136017Y-77498205D01*
X340151913Y-77468466D01*
X340195485Y-77324829D01*
X340206511Y-77212877D01*
X340206511Y-77212874D01*
X340210197Y-77175451D01*
X340206511Y-77138028D01*
X340206511Y-76801200D01*
X340248448Y-76759263D01*
X340360001Y-76592312D01*
X340360000Y-77731684D01*
G36*
X324125563Y-78672774D02*
G01*
X324269726Y-78816937D01*
X324439244Y-78930205D01*
X324627602Y-79008226D01*
X324827561Y-79048000D01*
X324886870Y-79048000D01*
X326547370Y-80708500D01*
X323527093Y-80708500D01*
X322621664Y-79803072D01*
X323386000Y-79803072D01*
X323510482Y-79790812D01*
X323630180Y-79754502D01*
X323740494Y-79695537D01*
X323837185Y-79616185D01*
X323916537Y-79519494D01*
X323975502Y-79409180D01*
X324011812Y-79289482D01*
X324024072Y-79165000D01*
X324024072Y-78520882D01*
X324125563Y-78672774D01*
X324125563Y-78672774D01*
G37*
X324125563Y-78672774D02*
X324269726Y-78816937D01*
X324439244Y-78930205D01*
X324627602Y-79008226D01*
X324827561Y-79048000D01*
X324886870Y-79048000D01*
X326547370Y-80708500D01*
X323527093Y-80708500D01*
X322621664Y-79803072D01*
X323386000Y-79803072D01*
X323510482Y-79790812D01*
X323630180Y-79754502D01*
X323740494Y-79695537D01*
X323837185Y-79616185D01*
X323916537Y-79519494D01*
X323975502Y-79409180D01*
X324011812Y-79289482D01*
X324024072Y-79165000D01*
X324024072Y-78520882D01*
X324125563Y-78672774D01*
G36*
X335491119Y-67610380D02*
G01*
X335491119Y-67814258D01*
X335530893Y-68014217D01*
X335573075Y-68116052D01*
X335505795Y-68216744D01*
X335427774Y-68405102D01*
X335388000Y-68605061D01*
X335388000Y-68808939D01*
X335427774Y-69008898D01*
X335505795Y-69197256D01*
X335619063Y-69366774D01*
X335763226Y-69510937D01*
X335932744Y-69624205D01*
X336121102Y-69702226D01*
X336321061Y-69742000D01*
X336380370Y-69742000D01*
X339798597Y-73160227D01*
X339779690Y-73156466D01*
X339575812Y-73156466D01*
X339375853Y-73196240D01*
X339187495Y-73274261D01*
X339017977Y-73387529D01*
X338873814Y-73531692D01*
X338760546Y-73701210D01*
X338682525Y-73889568D01*
X338642751Y-74089527D01*
X338642751Y-74293405D01*
X338682525Y-74493364D01*
X338760546Y-74681722D01*
X338873814Y-74851240D01*
X339017977Y-74995403D01*
X339172115Y-75098395D01*
X339142613Y-75104263D01*
X338954255Y-75182284D01*
X338784737Y-75295552D01*
X338640574Y-75439715D01*
X338527306Y-75609233D01*
X338449285Y-75797591D01*
X338409511Y-75997550D01*
X338409511Y-76201428D01*
X338449285Y-76401387D01*
X338527306Y-76589745D01*
X338640574Y-76759263D01*
X338682512Y-76801201D01*
X338682512Y-76859820D01*
X335726022Y-79816311D01*
X335654774Y-79745063D01*
X335485256Y-79631795D01*
X335296898Y-79553774D01*
X335096939Y-79514000D01*
X334893061Y-79514000D01*
X334693102Y-79553774D01*
X334504744Y-79631795D01*
X334335226Y-79745063D01*
X334293289Y-79787000D01*
X327781130Y-79787000D01*
X325964500Y-77970370D01*
X325964500Y-77911061D01*
X325924726Y-77711102D01*
X325846705Y-77522744D01*
X325733437Y-77353226D01*
X325589274Y-77209063D01*
X325419756Y-77095795D01*
X325231398Y-77017774D01*
X325031439Y-76978000D01*
X324827561Y-76978000D01*
X324627602Y-77017774D01*
X324439244Y-77095795D01*
X324269726Y-77209063D01*
X324125563Y-77353226D01*
X324012295Y-77522744D01*
X323934274Y-77711102D01*
X323894500Y-77911061D01*
X323894500Y-77933654D01*
X323837185Y-77863815D01*
X323740494Y-77784463D01*
X323630180Y-77725498D01*
X323510482Y-77689188D01*
X323386000Y-77676928D01*
X322536000Y-77676928D01*
X322516500Y-77678849D01*
X322516500Y-77567384D01*
X322520186Y-77529961D01*
X322514129Y-77468466D01*
X322505474Y-77380584D01*
X322461902Y-77236947D01*
X322391145Y-77104570D01*
X322295922Y-76988540D01*
X322266852Y-76964683D01*
X320986999Y-75684831D01*
X320986999Y-74720000D01*
X321029066Y-74720000D01*
X321184796Y-74704662D01*
X321384607Y-74644050D01*
X321477000Y-74594665D01*
X321569393Y-74644050D01*
X321769204Y-74704662D01*
X321924934Y-74720000D01*
X322029066Y-74720000D01*
X322184796Y-74704662D01*
X322384607Y-74644050D01*
X322477000Y-74594665D01*
X322569393Y-74644050D01*
X322769204Y-74704662D01*
X322924934Y-74720000D01*
X323029066Y-74720000D01*
X323184796Y-74704662D01*
X323299276Y-74669935D01*
X323307820Y-74674502D01*
X323427518Y-74710812D01*
X323552000Y-74723072D01*
X324402000Y-74723072D01*
X324526482Y-74710812D01*
X324646180Y-74674502D01*
X324756494Y-74615537D01*
X324853185Y-74536185D01*
X324932537Y-74439494D01*
X324982321Y-74346355D01*
X325137744Y-74450205D01*
X325326102Y-74528226D01*
X325526061Y-74568000D01*
X325729939Y-74568000D01*
X325929898Y-74528226D01*
X326118256Y-74450205D01*
X326287774Y-74336937D01*
X326431937Y-74192774D01*
X326545205Y-74023256D01*
X326623226Y-73834898D01*
X326663000Y-73634939D01*
X326663000Y-73431061D01*
X326623226Y-73231102D01*
X326545205Y-73042744D01*
X326431937Y-72873226D01*
X326287774Y-72729063D01*
X326118256Y-72615795D01*
X325929898Y-72537774D01*
X325729939Y-72498000D01*
X325670630Y-72498000D01*
X325568282Y-72395652D01*
X325544421Y-72366577D01*
X325428391Y-72271354D01*
X325296014Y-72200597D01*
X325152377Y-72157025D01*
X325040425Y-72145999D01*
X325040422Y-72145999D01*
X325002999Y-72142313D01*
X324965576Y-72145999D01*
X324936543Y-72145999D01*
X324991502Y-72043180D01*
X325027812Y-71923482D01*
X325040072Y-71799000D01*
X325040072Y-70949000D01*
X325027812Y-70824518D01*
X324991502Y-70704820D01*
X324932537Y-70594506D01*
X324853185Y-70497815D01*
X324756494Y-70418463D01*
X324646180Y-70359498D01*
X324526482Y-70323188D01*
X324402000Y-70310928D01*
X323552000Y-70310928D01*
X323427518Y-70323188D01*
X323307820Y-70359498D01*
X323299276Y-70364065D01*
X323184796Y-70329338D01*
X323029066Y-70314000D01*
X322924934Y-70314000D01*
X322769204Y-70329338D01*
X322569393Y-70389950D01*
X322477000Y-70439335D01*
X322384607Y-70389950D01*
X322184796Y-70329338D01*
X322029066Y-70314000D01*
X321924934Y-70314000D01*
X321769204Y-70329338D01*
X321569393Y-70389950D01*
X321477000Y-70439335D01*
X321434304Y-70416514D01*
X323343375Y-68507444D01*
X323402683Y-68507444D01*
X323602642Y-68467670D01*
X323650949Y-68447660D01*
X323698226Y-68494937D01*
X323867744Y-68608205D01*
X324056102Y-68686226D01*
X324256061Y-68726000D01*
X324459939Y-68726000D01*
X324659898Y-68686226D01*
X324848256Y-68608205D01*
X324985503Y-68516500D01*
X334086168Y-68516500D01*
X334126718Y-68520494D01*
X334167268Y-68516500D01*
X334167271Y-68516500D01*
X334288544Y-68504556D01*
X334444152Y-68457353D01*
X334587560Y-68380699D01*
X334713259Y-68277541D01*
X334739116Y-68246034D01*
X335520008Y-67465142D01*
X335491119Y-67610380D01*
X335491119Y-67610380D01*
G37*
X335491119Y-67610380D02*
X335491119Y-67814258D01*
X335530893Y-68014217D01*
X335573075Y-68116052D01*
X335505795Y-68216744D01*
X335427774Y-68405102D01*
X335388000Y-68605061D01*
X335388000Y-68808939D01*
X335427774Y-69008898D01*
X335505795Y-69197256D01*
X335619063Y-69366774D01*
X335763226Y-69510937D01*
X335932744Y-69624205D01*
X336121102Y-69702226D01*
X336321061Y-69742000D01*
X336380370Y-69742000D01*
X339798597Y-73160227D01*
X339779690Y-73156466D01*
X339575812Y-73156466D01*
X339375853Y-73196240D01*
X339187495Y-73274261D01*
X339017977Y-73387529D01*
X338873814Y-73531692D01*
X338760546Y-73701210D01*
X338682525Y-73889568D01*
X338642751Y-74089527D01*
X338642751Y-74293405D01*
X338682525Y-74493364D01*
X338760546Y-74681722D01*
X338873814Y-74851240D01*
X339017977Y-74995403D01*
X339172115Y-75098395D01*
X339142613Y-75104263D01*
X338954255Y-75182284D01*
X338784737Y-75295552D01*
X338640574Y-75439715D01*
X338527306Y-75609233D01*
X338449285Y-75797591D01*
X338409511Y-75997550D01*
X338409511Y-76201428D01*
X338449285Y-76401387D01*
X338527306Y-76589745D01*
X338640574Y-76759263D01*
X338682512Y-76801201D01*
X338682512Y-76859820D01*
X335726022Y-79816311D01*
X335654774Y-79745063D01*
X335485256Y-79631795D01*
X335296898Y-79553774D01*
X335096939Y-79514000D01*
X334893061Y-79514000D01*
X334693102Y-79553774D01*
X334504744Y-79631795D01*
X334335226Y-79745063D01*
X334293289Y-79787000D01*
X327781130Y-79787000D01*
X325964500Y-77970370D01*
X325964500Y-77911061D01*
X325924726Y-77711102D01*
X325846705Y-77522744D01*
X325733437Y-77353226D01*
X325589274Y-77209063D01*
X325419756Y-77095795D01*
X325231398Y-77017774D01*
X325031439Y-76978000D01*
X324827561Y-76978000D01*
X324627602Y-77017774D01*
X324439244Y-77095795D01*
X324269726Y-77209063D01*
X324125563Y-77353226D01*
X324012295Y-77522744D01*
X323934274Y-77711102D01*
X323894500Y-77911061D01*
X323894500Y-77933654D01*
X323837185Y-77863815D01*
X323740494Y-77784463D01*
X323630180Y-77725498D01*
X323510482Y-77689188D01*
X323386000Y-77676928D01*
X322536000Y-77676928D01*
X322516500Y-77678849D01*
X322516500Y-77567384D01*
X322520186Y-77529961D01*
X322514129Y-77468466D01*
X322505474Y-77380584D01*
X322461902Y-77236947D01*
X322391145Y-77104570D01*
X322295922Y-76988540D01*
X322266852Y-76964683D01*
X320986999Y-75684831D01*
X320986999Y-74720000D01*
X321029066Y-74720000D01*
X321184796Y-74704662D01*
X321384607Y-74644050D01*
X321477000Y-74594665D01*
X321569393Y-74644050D01*
X321769204Y-74704662D01*
X321924934Y-74720000D01*
X322029066Y-74720000D01*
X322184796Y-74704662D01*
X322384607Y-74644050D01*
X322477000Y-74594665D01*
X322569393Y-74644050D01*
X322769204Y-74704662D01*
X322924934Y-74720000D01*
X323029066Y-74720000D01*
X323184796Y-74704662D01*
X323299276Y-74669935D01*
X323307820Y-74674502D01*
X323427518Y-74710812D01*
X323552000Y-74723072D01*
X324402000Y-74723072D01*
X324526482Y-74710812D01*
X324646180Y-74674502D01*
X324756494Y-74615537D01*
X324853185Y-74536185D01*
X324932537Y-74439494D01*
X324982321Y-74346355D01*
X325137744Y-74450205D01*
X325326102Y-74528226D01*
X325526061Y-74568000D01*
X325729939Y-74568000D01*
X325929898Y-74528226D01*
X326118256Y-74450205D01*
X326287774Y-74336937D01*
X326431937Y-74192774D01*
X326545205Y-74023256D01*
X326623226Y-73834898D01*
X326663000Y-73634939D01*
X326663000Y-73431061D01*
X326623226Y-73231102D01*
X326545205Y-73042744D01*
X326431937Y-72873226D01*
X326287774Y-72729063D01*
X326118256Y-72615795D01*
X325929898Y-72537774D01*
X325729939Y-72498000D01*
X325670630Y-72498000D01*
X325568282Y-72395652D01*
X325544421Y-72366577D01*
X325428391Y-72271354D01*
X325296014Y-72200597D01*
X325152377Y-72157025D01*
X325040425Y-72145999D01*
X325040422Y-72145999D01*
X325002999Y-72142313D01*
X324965576Y-72145999D01*
X324936543Y-72145999D01*
X324991502Y-72043180D01*
X325027812Y-71923482D01*
X325040072Y-71799000D01*
X325040072Y-70949000D01*
X325027812Y-70824518D01*
X324991502Y-70704820D01*
X324932537Y-70594506D01*
X324853185Y-70497815D01*
X324756494Y-70418463D01*
X324646180Y-70359498D01*
X324526482Y-70323188D01*
X324402000Y-70310928D01*
X323552000Y-70310928D01*
X323427518Y-70323188D01*
X323307820Y-70359498D01*
X323299276Y-70364065D01*
X323184796Y-70329338D01*
X323029066Y-70314000D01*
X322924934Y-70314000D01*
X322769204Y-70329338D01*
X322569393Y-70389950D01*
X322477000Y-70439335D01*
X322384607Y-70389950D01*
X322184796Y-70329338D01*
X322029066Y-70314000D01*
X321924934Y-70314000D01*
X321769204Y-70329338D01*
X321569393Y-70389950D01*
X321477000Y-70439335D01*
X321434304Y-70416514D01*
X323343375Y-68507444D01*
X323402683Y-68507444D01*
X323602642Y-68467670D01*
X323650949Y-68447660D01*
X323698226Y-68494937D01*
X323867744Y-68608205D01*
X324056102Y-68686226D01*
X324256061Y-68726000D01*
X324459939Y-68726000D01*
X324659898Y-68686226D01*
X324848256Y-68608205D01*
X324985503Y-68516500D01*
X334086168Y-68516500D01*
X334126718Y-68520494D01*
X334167268Y-68516500D01*
X334167271Y-68516500D01*
X334288544Y-68504556D01*
X334444152Y-68457353D01*
X334587560Y-68380699D01*
X334713259Y-68277541D01*
X334739116Y-68246034D01*
X335520008Y-67465142D01*
X335491119Y-67610380D01*
G36*
X314505686Y-69328490D02*
G01*
X314610995Y-69582727D01*
X314763880Y-69811535D01*
X314958465Y-70006120D01*
X315187273Y-70159005D01*
X315441510Y-70264314D01*
X315711408Y-70318000D01*
X315986592Y-70318000D01*
X316256490Y-70264314D01*
X316376888Y-70214443D01*
X314117456Y-72473875D01*
X314099662Y-72293204D01*
X314064935Y-72178724D01*
X314069502Y-72170180D01*
X314105812Y-72050482D01*
X314118072Y-71926000D01*
X314115000Y-71786750D01*
X313956250Y-71628000D01*
X313662133Y-71628000D01*
X313646753Y-71615378D01*
X313462607Y-71516950D01*
X313262796Y-71456338D01*
X313107066Y-71441000D01*
X313002934Y-71441000D01*
X312908000Y-71450350D01*
X312908000Y-71374000D01*
X312928000Y-71374000D01*
X312928000Y-71354000D01*
X313182000Y-71354000D01*
X313182000Y-71374000D01*
X313956250Y-71374000D01*
X314115000Y-71215250D01*
X314118072Y-71076000D01*
X314105812Y-70951518D01*
X314069502Y-70831820D01*
X314010537Y-70721506D01*
X313931185Y-70624815D01*
X313834494Y-70545463D01*
X313724180Y-70486498D01*
X313604482Y-70450188D01*
X313480000Y-70437928D01*
X313387091Y-70439978D01*
X314504507Y-69322562D01*
X314505686Y-69328490D01*
X314505686Y-69328490D01*
G37*
X314505686Y-69328490D02*
X314610995Y-69582727D01*
X314763880Y-69811535D01*
X314958465Y-70006120D01*
X315187273Y-70159005D01*
X315441510Y-70264314D01*
X315711408Y-70318000D01*
X315986592Y-70318000D01*
X316256490Y-70264314D01*
X316376888Y-70214443D01*
X314117456Y-72473875D01*
X314099662Y-72293204D01*
X314064935Y-72178724D01*
X314069502Y-72170180D01*
X314105812Y-72050482D01*
X314118072Y-71926000D01*
X314115000Y-71786750D01*
X313956250Y-71628000D01*
X313662133Y-71628000D01*
X313646753Y-71615378D01*
X313462607Y-71516950D01*
X313262796Y-71456338D01*
X313107066Y-71441000D01*
X313002934Y-71441000D01*
X312908000Y-71450350D01*
X312908000Y-71374000D01*
X312928000Y-71374000D01*
X312928000Y-71354000D01*
X313182000Y-71354000D01*
X313182000Y-71374000D01*
X313956250Y-71374000D01*
X314115000Y-71215250D01*
X314118072Y-71076000D01*
X314105812Y-70951518D01*
X314069502Y-70831820D01*
X314010537Y-70721506D01*
X313931185Y-70624815D01*
X313834494Y-70545463D01*
X313724180Y-70486498D01*
X313604482Y-70450188D01*
X313480000Y-70437928D01*
X313387091Y-70439978D01*
X314504507Y-69322562D01*
X314505686Y-69328490D01*
G36*
X341557434Y-66413253D02*
G01*
X341557435Y-69626002D01*
X338182537Y-66251105D01*
X338260106Y-66135015D01*
X338338127Y-65946657D01*
X338377901Y-65746698D01*
X338377901Y-65745999D01*
X338460881Y-65790353D01*
X338616489Y-65837556D01*
X338712821Y-65847044D01*
X338853744Y-65941205D01*
X339042102Y-66019226D01*
X339242061Y-66059000D01*
X339445939Y-66059000D01*
X339645898Y-66019226D01*
X339834256Y-65941205D01*
X340003774Y-65827937D01*
X340147937Y-65683774D01*
X340261205Y-65514256D01*
X340339226Y-65325898D01*
X340360936Y-65216754D01*
X341557434Y-66413253D01*
X341557434Y-66413253D01*
G37*
X341557434Y-66413253D02*
X341557435Y-69626002D01*
X338182537Y-66251105D01*
X338260106Y-66135015D01*
X338338127Y-65946657D01*
X338377901Y-65746698D01*
X338377901Y-65745999D01*
X338460881Y-65790353D01*
X338616489Y-65837556D01*
X338712821Y-65847044D01*
X338853744Y-65941205D01*
X339042102Y-66019226D01*
X339242061Y-66059000D01*
X339445939Y-66059000D01*
X339645898Y-66019226D01*
X339834256Y-65941205D01*
X340003774Y-65827937D01*
X340147937Y-65683774D01*
X340261205Y-65514256D01*
X340339226Y-65325898D01*
X340360936Y-65216754D01*
X341557434Y-66413253D01*
G36*
X329517928Y-61805000D02*
G01*
X329521000Y-61944250D01*
X329679750Y-62103000D01*
X330454000Y-62103000D01*
X330454000Y-62083000D01*
X330530350Y-62083000D01*
X330515872Y-62230000D01*
X330536338Y-62437796D01*
X330596950Y-62637607D01*
X330695378Y-62821753D01*
X330708000Y-62837133D01*
X330708000Y-63131250D01*
X330866750Y-63290000D01*
X331006000Y-63293072D01*
X331130482Y-63280812D01*
X331250180Y-63244502D01*
X331258724Y-63239935D01*
X331373204Y-63274662D01*
X331467518Y-63283951D01*
X332181610Y-63998044D01*
X332207458Y-64029540D01*
X332238954Y-64055388D01*
X332238957Y-64055391D01*
X332333156Y-64132698D01*
X332476565Y-64209352D01*
X332632173Y-64256555D01*
X332753446Y-64268499D01*
X332753448Y-64268499D01*
X332793999Y-64272493D01*
X332834549Y-64268499D01*
X334980272Y-64268499D01*
X334934307Y-64273026D01*
X334790670Y-64316598D01*
X334658293Y-64387355D01*
X334542263Y-64482578D01*
X334518406Y-64511648D01*
X333424155Y-65605900D01*
X333295898Y-65552774D01*
X333095939Y-65513000D01*
X332892061Y-65513000D01*
X332692102Y-65552774D01*
X332503744Y-65630795D01*
X332334226Y-65744063D01*
X332190063Y-65888226D01*
X332076795Y-66057744D01*
X331998774Y-66246102D01*
X331959000Y-66446061D01*
X331959000Y-66649939D01*
X331998774Y-66849898D01*
X332005237Y-66865500D01*
X324985503Y-66865500D01*
X324848256Y-66773795D01*
X324659898Y-66695774D01*
X324459939Y-66656000D01*
X324256061Y-66656000D01*
X324056102Y-66695774D01*
X324007795Y-66715784D01*
X323982404Y-66690393D01*
X327389521Y-63283275D01*
X327489000Y-63293072D01*
X328339000Y-63293072D01*
X328463482Y-63280812D01*
X328583180Y-63244502D01*
X328693494Y-63185537D01*
X328790185Y-63106185D01*
X328869537Y-63009494D01*
X328928502Y-62899180D01*
X328964812Y-62779482D01*
X328977072Y-62655000D01*
X329517928Y-62655000D01*
X329530188Y-62779482D01*
X329566498Y-62899180D01*
X329625463Y-63009494D01*
X329704815Y-63106185D01*
X329801506Y-63185537D01*
X329911820Y-63244502D01*
X330031518Y-63280812D01*
X330156000Y-63293072D01*
X330295250Y-63290000D01*
X330454000Y-63131250D01*
X330454000Y-62357000D01*
X329679750Y-62357000D01*
X329521000Y-62515750D01*
X329517928Y-62655000D01*
X328977072Y-62655000D01*
X328977072Y-61805000D01*
X328974487Y-61778750D01*
X329520513Y-61778750D01*
X329517928Y-61805000D01*
X329517928Y-61805000D01*
G37*
X329517928Y-61805000D02*
X329521000Y-61944250D01*
X329679750Y-62103000D01*
X330454000Y-62103000D01*
X330454000Y-62083000D01*
X330530350Y-62083000D01*
X330515872Y-62230000D01*
X330536338Y-62437796D01*
X330596950Y-62637607D01*
X330695378Y-62821753D01*
X330708000Y-62837133D01*
X330708000Y-63131250D01*
X330866750Y-63290000D01*
X331006000Y-63293072D01*
X331130482Y-63280812D01*
X331250180Y-63244502D01*
X331258724Y-63239935D01*
X331373204Y-63274662D01*
X331467518Y-63283951D01*
X332181610Y-63998044D01*
X332207458Y-64029540D01*
X332238954Y-64055388D01*
X332238957Y-64055391D01*
X332333156Y-64132698D01*
X332476565Y-64209352D01*
X332632173Y-64256555D01*
X332753446Y-64268499D01*
X332753448Y-64268499D01*
X332793999Y-64272493D01*
X332834549Y-64268499D01*
X334980272Y-64268499D01*
X334934307Y-64273026D01*
X334790670Y-64316598D01*
X334658293Y-64387355D01*
X334542263Y-64482578D01*
X334518406Y-64511648D01*
X333424155Y-65605900D01*
X333295898Y-65552774D01*
X333095939Y-65513000D01*
X332892061Y-65513000D01*
X332692102Y-65552774D01*
X332503744Y-65630795D01*
X332334226Y-65744063D01*
X332190063Y-65888226D01*
X332076795Y-66057744D01*
X331998774Y-66246102D01*
X331959000Y-66446061D01*
X331959000Y-66649939D01*
X331998774Y-66849898D01*
X332005237Y-66865500D01*
X324985503Y-66865500D01*
X324848256Y-66773795D01*
X324659898Y-66695774D01*
X324459939Y-66656000D01*
X324256061Y-66656000D01*
X324056102Y-66695774D01*
X324007795Y-66715784D01*
X323982404Y-66690393D01*
X327389521Y-63283275D01*
X327489000Y-63293072D01*
X328339000Y-63293072D01*
X328463482Y-63280812D01*
X328583180Y-63244502D01*
X328693494Y-63185537D01*
X328790185Y-63106185D01*
X328869537Y-63009494D01*
X328928502Y-62899180D01*
X328964812Y-62779482D01*
X328977072Y-62655000D01*
X329517928Y-62655000D01*
X329530188Y-62779482D01*
X329566498Y-62899180D01*
X329625463Y-63009494D01*
X329704815Y-63106185D01*
X329801506Y-63185537D01*
X329911820Y-63244502D01*
X330031518Y-63280812D01*
X330156000Y-63293072D01*
X330295250Y-63290000D01*
X330454000Y-63131250D01*
X330454000Y-62357000D01*
X329679750Y-62357000D01*
X329521000Y-62515750D01*
X329517928Y-62655000D01*
X328977072Y-62655000D01*
X328977072Y-61805000D01*
X328974487Y-61778750D01*
X329520513Y-61778750D01*
X329517928Y-61805000D01*
M02*
