%FSLAX45Y45*%
G04 Gerber Fmt 4.5, Leading zero omitted, Abs format (unit mm)*
G04 Created by KiCad (PCBNEW (5.1.4)-1) date 2021-09-14 20:53:47*
%MOMM*%
%LPD*%
G04 APERTURE LIST*
%ADD10C,0.050000*%
%ADD11C,0.200000*%
%ADD12C,0.300000*%
G04 APERTURE END LIST*
D10*
X36512500Y-6350000D02*
X36512500Y-20399375D01*
X36274375Y-6111875D02*
G75*
G02X36512500Y-6350000I0J-238125D01*
G01*
X30638750Y-8096250D02*
G75*
G02X30241875Y-8493125I-396875J0D01*
G01*
X30638750Y-6350000D02*
G75*
G02X30876875Y-6111875I238125J0D01*
G01*
X4127500Y-8731250D02*
G75*
G02X4365625Y-8493125I238125J0D01*
G01*
X30241875Y-8493125D02*
X4365625Y-8493125D01*
X30638750Y-6350000D02*
X30638750Y-8096250D01*
X36512500Y-20399375D02*
G75*
G02X36274375Y-20637500I-238125J0D01*
G01*
X4365625Y-20637500D02*
G75*
G02X4127500Y-20399375I0J238125D01*
G01*
X36274375Y-20637500D02*
X4365625Y-20637500D01*
X30876875Y-6111875D02*
X36274375Y-6111875D01*
X4127500Y-20399375D02*
X4127500Y-8731250D01*
D11*
X26332500Y-12197400D02*
X26372500Y-12237400D01*
X26372500Y-12197400D02*
X26332500Y-12237400D01*
X26332500Y-12349800D02*
X26372500Y-12389800D01*
X26372500Y-12349800D02*
X26332500Y-12389800D01*
X26332500Y-14102400D02*
X26372500Y-14142400D01*
X26372500Y-14102400D02*
X26332500Y-14142400D01*
X26332500Y-14254800D02*
X26372500Y-14294800D01*
X26372500Y-14254800D02*
X26332500Y-14294800D01*
X26332500Y-16007400D02*
X26372500Y-16047400D01*
X26372500Y-16007400D02*
X26332500Y-16047400D01*
X26332500Y-16172500D02*
X26372500Y-16212500D01*
X26372500Y-16172500D02*
X26332500Y-16212500D01*
X26332500Y-17912400D02*
X26372500Y-17952400D01*
X26372500Y-17912400D02*
X26332500Y-17952400D01*
X26332500Y-18090200D02*
X26372500Y-18130200D01*
X26372500Y-18090200D02*
X26332500Y-18130200D01*
X26357900Y-10292400D02*
X26397900Y-10332400D01*
X26397900Y-10292400D02*
X26357900Y-10332400D01*
X26357900Y-10457500D02*
X26397900Y-10497500D01*
X26397900Y-10457500D02*
X26357900Y-10497500D01*
X28237500Y-12172000D02*
X28277500Y-12212000D01*
X28277500Y-12172000D02*
X28237500Y-12212000D01*
X28237500Y-12375200D02*
X28277500Y-12415200D01*
X28277500Y-12375200D02*
X28237500Y-12415200D01*
X28237500Y-14089700D02*
X28277500Y-14129700D01*
X28277500Y-14089700D02*
X28237500Y-14129700D01*
X28237500Y-14267500D02*
X28277500Y-14307500D01*
X28277500Y-14267500D02*
X28237500Y-14307500D01*
X28237500Y-15994700D02*
X28277500Y-16034700D01*
X28277500Y-15994700D02*
X28237500Y-16034700D01*
X28237500Y-16185200D02*
X28277500Y-16225200D01*
X28277500Y-16185200D02*
X28237500Y-16225200D01*
X28250200Y-10279700D02*
X28290200Y-10319700D01*
X28290200Y-10279700D02*
X28250200Y-10319700D01*
X28250200Y-10457500D02*
X28290200Y-10497500D01*
X28290200Y-10457500D02*
X28250200Y-10497500D01*
X29466225Y-8590600D02*
X29506225Y-8630600D01*
X29506225Y-8590600D02*
X29466225Y-8630600D01*
X30142500Y-10457500D02*
X30182500Y-10497500D01*
X30182500Y-10457500D02*
X30142500Y-10497500D01*
X30142500Y-12184700D02*
X30182500Y-12224700D01*
X30182500Y-12184700D02*
X30142500Y-12224700D01*
X30142500Y-12349800D02*
X30182500Y-12389800D01*
X30182500Y-12349800D02*
X30142500Y-12389800D01*
X30155200Y-10292400D02*
X30195200Y-10332400D01*
X30195200Y-10292400D02*
X30155200Y-10332400D01*
X30155200Y-14102400D02*
X30195200Y-14142400D01*
X30195200Y-14102400D02*
X30155200Y-14142400D01*
X30155200Y-14267500D02*
X30195200Y-14307500D01*
X30195200Y-14267500D02*
X30155200Y-14307500D01*
X31387100Y-7523800D02*
X31427100Y-7563800D01*
X31427100Y-7523800D02*
X31387100Y-7563800D01*
X31780800Y-8235000D02*
X31820800Y-8275000D01*
X31820800Y-8235000D02*
X31780800Y-8275000D01*
X31825250Y-7580950D02*
X31865250Y-7620950D01*
X31865250Y-7580950D02*
X31825250Y-7620950D01*
X32047500Y-12184700D02*
X32087500Y-12224700D01*
X32087500Y-12184700D02*
X32047500Y-12224700D01*
X32047500Y-12349800D02*
X32087500Y-12389800D01*
X32087500Y-12349800D02*
X32047500Y-12389800D01*
X32072900Y-7511100D02*
X32112900Y-7551100D01*
X32112900Y-7511100D02*
X32072900Y-7551100D01*
X32085600Y-10292400D02*
X32125600Y-10332400D01*
X32125600Y-10292400D02*
X32085600Y-10332400D01*
X32085600Y-10470200D02*
X32125600Y-10510200D01*
X32125600Y-10470200D02*
X32085600Y-10510200D01*
X32149100Y-8120700D02*
X32189100Y-8160700D01*
X32189100Y-8120700D02*
X32149100Y-8160700D01*
X32244959Y-6792360D02*
X32284959Y-6832360D01*
X32284959Y-6792360D02*
X32244959Y-6832360D01*
X32415800Y-6749100D02*
X32455800Y-6789100D01*
X32455800Y-6749100D02*
X32415800Y-6789100D01*
X32472950Y-7781300D02*
X32512950Y-7821300D01*
X32512950Y-7781300D02*
X32472950Y-7821300D01*
X32542800Y-7333300D02*
X32582800Y-7373300D01*
X32582800Y-7333300D02*
X32542800Y-7373300D01*
X32834900Y-7295200D02*
X32874900Y-7335200D01*
X32874900Y-7295200D02*
X32834900Y-7335200D01*
X32838075Y-8949375D02*
X32878075Y-8989375D01*
X32878075Y-8949375D02*
X32838075Y-8989375D01*
X32923800Y-7206300D02*
X32963800Y-7246300D01*
X32963800Y-7206300D02*
X32923800Y-7246300D01*
X32923800Y-7295200D02*
X32963800Y-7335200D01*
X32963800Y-7295200D02*
X32923800Y-7335200D01*
X32923800Y-7384100D02*
X32963800Y-7424100D01*
X32963800Y-7384100D02*
X32923800Y-7424100D01*
X33012700Y-7117400D02*
X33052700Y-7157400D01*
X33052700Y-7117400D02*
X33012700Y-7157400D01*
X33012700Y-7206300D02*
X33052700Y-7246300D01*
X33052700Y-7206300D02*
X33012700Y-7246300D01*
X33012700Y-7295200D02*
X33052700Y-7335200D01*
X33052700Y-7295200D02*
X33012700Y-7335200D01*
X33012700Y-7384100D02*
X33052700Y-7424100D01*
X33052700Y-7384100D02*
X33012700Y-7424100D01*
X33012700Y-7473000D02*
X33052700Y-7513000D01*
X33052700Y-7473000D02*
X33012700Y-7513000D01*
X33101600Y-7028500D02*
X33141600Y-7068500D01*
X33141600Y-7028500D02*
X33101600Y-7068500D01*
X33101600Y-7117400D02*
X33141600Y-7157400D01*
X33141600Y-7117400D02*
X33101600Y-7157400D01*
X33101600Y-7206300D02*
X33141600Y-7246300D01*
X33141600Y-7206300D02*
X33101600Y-7246300D01*
X33101600Y-7295200D02*
X33141600Y-7335200D01*
X33141600Y-7295200D02*
X33101600Y-7335200D01*
X33101600Y-7384100D02*
X33141600Y-7424100D01*
X33141600Y-7384100D02*
X33101600Y-7424100D01*
X33101600Y-7473000D02*
X33141600Y-7513000D01*
X33141600Y-7473000D02*
X33101600Y-7513000D01*
X33101600Y-7561900D02*
X33141600Y-7601900D01*
X33141600Y-7561900D02*
X33101600Y-7601900D01*
X33152400Y-6476050D02*
X33192400Y-6516050D01*
X33192400Y-6476050D02*
X33152400Y-6516050D01*
X33190500Y-6939600D02*
X33230500Y-6979600D01*
X33230500Y-6939600D02*
X33190500Y-6979600D01*
X33190500Y-7028500D02*
X33230500Y-7068500D01*
X33230500Y-7028500D02*
X33190500Y-7068500D01*
X33190500Y-7117400D02*
X33230500Y-7157400D01*
X33230500Y-7117400D02*
X33190500Y-7157400D01*
X33190500Y-7206300D02*
X33230500Y-7246300D01*
X33230500Y-7206300D02*
X33190500Y-7246300D01*
X33190500Y-7295200D02*
X33230500Y-7335200D01*
X33230500Y-7295200D02*
X33190500Y-7335200D01*
X33190500Y-7384100D02*
X33230500Y-7424100D01*
X33230500Y-7384100D02*
X33190500Y-7424100D01*
X33190500Y-7473000D02*
X33230500Y-7513000D01*
X33230500Y-7473000D02*
X33190500Y-7513000D01*
X33190500Y-7561900D02*
X33230500Y-7601900D01*
X33230500Y-7561900D02*
X33190500Y-7601900D01*
X33190500Y-7650800D02*
X33230500Y-7690800D01*
X33230500Y-7650800D02*
X33190500Y-7690800D01*
X33279400Y-6634800D02*
X33319400Y-6674800D01*
X33319400Y-6634800D02*
X33279400Y-6674800D01*
X33279400Y-6850700D02*
X33319400Y-6890700D01*
X33319400Y-6850700D02*
X33279400Y-6890700D01*
X33279400Y-6939600D02*
X33319400Y-6979600D01*
X33319400Y-6939600D02*
X33279400Y-6979600D01*
X33279400Y-7028500D02*
X33319400Y-7068500D01*
X33319400Y-7028500D02*
X33279400Y-7068500D01*
X33279400Y-7117400D02*
X33319400Y-7157400D01*
X33319400Y-7117400D02*
X33279400Y-7157400D01*
X33279400Y-7206300D02*
X33319400Y-7246300D01*
X33319400Y-7206300D02*
X33279400Y-7246300D01*
X33279400Y-7295200D02*
X33319400Y-7335200D01*
X33319400Y-7295200D02*
X33279400Y-7335200D01*
X33279400Y-7384100D02*
X33319400Y-7424100D01*
X33319400Y-7384100D02*
X33279400Y-7424100D01*
X33279400Y-7473000D02*
X33319400Y-7513000D01*
X33319400Y-7473000D02*
X33279400Y-7513000D01*
X33279400Y-7561900D02*
X33319400Y-7601900D01*
X33319400Y-7561900D02*
X33279400Y-7601900D01*
X33279400Y-7650800D02*
X33319400Y-7690800D01*
X33319400Y-7650800D02*
X33279400Y-7690800D01*
X33279400Y-7739700D02*
X33319400Y-7779700D01*
X33319400Y-7739700D02*
X33279400Y-7779700D01*
X33368300Y-6939600D02*
X33408300Y-6979600D01*
X33408300Y-6939600D02*
X33368300Y-6979600D01*
X33368300Y-7028500D02*
X33408300Y-7068500D01*
X33408300Y-7028500D02*
X33368300Y-7068500D01*
X33368300Y-7117400D02*
X33408300Y-7157400D01*
X33408300Y-7117400D02*
X33368300Y-7157400D01*
X33368300Y-7206300D02*
X33408300Y-7246300D01*
X33408300Y-7206300D02*
X33368300Y-7246300D01*
X33368300Y-7295200D02*
X33408300Y-7335200D01*
X33408300Y-7295200D02*
X33368300Y-7335200D01*
X33368300Y-7384100D02*
X33408300Y-7424100D01*
X33408300Y-7384100D02*
X33368300Y-7424100D01*
X33368300Y-7473000D02*
X33408300Y-7513000D01*
X33408300Y-7473000D02*
X33368300Y-7513000D01*
X33368300Y-7561900D02*
X33408300Y-7601900D01*
X33408300Y-7561900D02*
X33368300Y-7601900D01*
X33368300Y-7650800D02*
X33408300Y-7690800D01*
X33408300Y-7650800D02*
X33368300Y-7690800D01*
X33457200Y-7028500D02*
X33497200Y-7068500D01*
X33497200Y-7028500D02*
X33457200Y-7068500D01*
X33457200Y-7117400D02*
X33497200Y-7157400D01*
X33497200Y-7117400D02*
X33457200Y-7157400D01*
X33457200Y-7206300D02*
X33497200Y-7246300D01*
X33497200Y-7206300D02*
X33457200Y-7246300D01*
X33457200Y-7295200D02*
X33497200Y-7335200D01*
X33497200Y-7295200D02*
X33457200Y-7335200D01*
X33457200Y-7384100D02*
X33497200Y-7424100D01*
X33497200Y-7384100D02*
X33457200Y-7424100D01*
X33457200Y-7473000D02*
X33497200Y-7513000D01*
X33497200Y-7473000D02*
X33457200Y-7513000D01*
X33457200Y-7561900D02*
X33497200Y-7601900D01*
X33497200Y-7561900D02*
X33457200Y-7601900D01*
X33479500Y-8034900D02*
X33519500Y-8074900D01*
X33519500Y-8034900D02*
X33479500Y-8074900D01*
X33546100Y-7117400D02*
X33586100Y-7157400D01*
X33586100Y-7117400D02*
X33546100Y-7157400D01*
X33546100Y-7206300D02*
X33586100Y-7246300D01*
X33586100Y-7206300D02*
X33546100Y-7246300D01*
X33546100Y-7295200D02*
X33586100Y-7335200D01*
X33586100Y-7295200D02*
X33546100Y-7335200D01*
X33546100Y-7384100D02*
X33586100Y-7424100D01*
X33586100Y-7384100D02*
X33546100Y-7424100D01*
X33546100Y-7473000D02*
X33586100Y-7513000D01*
X33586100Y-7473000D02*
X33546100Y-7513000D01*
X33622300Y-6324300D02*
X33662300Y-6364300D01*
X33662300Y-6324300D02*
X33622300Y-6364300D01*
X33622300Y-6482400D02*
X33662300Y-6522400D01*
X33662300Y-6482400D02*
X33622300Y-6522400D01*
X33622300Y-6850700D02*
X33662300Y-6890700D01*
X33662300Y-6850700D02*
X33622300Y-6890700D01*
X33632612Y-6751232D02*
X33672612Y-6791232D01*
X33672612Y-6751232D02*
X33632612Y-6791232D01*
X33635000Y-7206300D02*
X33675000Y-7246300D01*
X33675000Y-7206300D02*
X33635000Y-7246300D01*
X33635000Y-7295200D02*
X33675000Y-7335200D01*
X33675000Y-7295200D02*
X33635000Y-7335200D01*
X33635000Y-7384100D02*
X33675000Y-7424100D01*
X33675000Y-7384100D02*
X33635000Y-7424100D01*
X33635608Y-6651276D02*
X33675608Y-6691276D01*
X33675608Y-6651276D02*
X33635608Y-6691276D01*
X33714290Y-6544476D02*
X33754290Y-6584476D01*
X33754290Y-6544476D02*
X33714290Y-6584476D01*
X33723900Y-7295200D02*
X33763900Y-7335200D01*
X33763900Y-7295200D02*
X33723900Y-7335200D01*
X33914400Y-6482400D02*
X33954400Y-6522400D01*
X33954400Y-6482400D02*
X33914400Y-6522400D01*
X33924451Y-7589949D02*
X33964451Y-7629949D01*
X33964451Y-7589949D02*
X33924451Y-7629949D01*
X33947775Y-7399147D02*
X33987775Y-7439147D01*
X33987775Y-7399147D02*
X33947775Y-7439147D01*
X33949325Y-8870000D02*
X33989325Y-8910000D01*
X33989325Y-8870000D02*
X33949325Y-8910000D01*
X33968699Y-7769839D02*
X34008699Y-7809839D01*
X34008699Y-7769839D02*
X33968699Y-7809839D01*
X33982751Y-6794556D02*
X34022751Y-6834556D01*
X34022751Y-6794556D02*
X33982751Y-6834556D01*
X34003300Y-10299390D02*
X34043300Y-10339390D01*
X34043300Y-10299390D02*
X34003300Y-10339390D01*
X34003300Y-10457500D02*
X34043300Y-10497500D01*
X34043300Y-10457500D02*
X34003300Y-10497500D01*
X34016000Y-7917500D02*
X34056000Y-7957500D01*
X34056000Y-7917500D02*
X34016000Y-7957500D01*
X34181100Y-7625400D02*
X34221100Y-7665400D01*
X34221100Y-7625400D02*
X34181100Y-7665400D01*
X34187680Y-7454593D02*
X34227680Y-7494593D01*
X34227680Y-7454593D02*
X34187680Y-7494593D01*
X34270000Y-7993700D02*
X34310000Y-8033700D01*
X34310000Y-7993700D02*
X34270000Y-8033700D01*
X34316664Y-6992088D02*
X34356664Y-7032088D01*
X34356664Y-6992088D02*
X34316664Y-7032088D01*
X34404735Y-7252135D02*
X34444735Y-7292135D01*
X34444735Y-7252135D02*
X34404735Y-7292135D01*
X34422400Y-7359500D02*
X34462400Y-7399500D01*
X34462400Y-7359500D02*
X34422400Y-7399500D01*
X34422400Y-7459500D02*
X34462400Y-7499500D01*
X34462400Y-7459500D02*
X34422400Y-7499500D01*
X34543050Y-6882450D02*
X34583050Y-6922450D01*
X34583050Y-6882450D02*
X34543050Y-6922450D01*
X34689100Y-7295200D02*
X34729100Y-7335200D01*
X34729100Y-7295200D02*
X34689100Y-7335200D01*
X34689100Y-7546350D02*
X34729100Y-7586350D01*
X34729100Y-7546350D02*
X34689100Y-7586350D01*
X35145200Y-6609400D02*
X35185200Y-6649400D01*
X35185200Y-6609400D02*
X35145200Y-6649400D01*
X35248700Y-7180900D02*
X35288700Y-7220900D01*
X35288700Y-7180900D02*
X35248700Y-7220900D01*
X35250600Y-6609400D02*
X35290600Y-6649400D01*
X35290600Y-6609400D02*
X35250600Y-6649400D01*
X35348700Y-7180900D02*
X35388700Y-7220900D01*
X35388700Y-7180900D02*
X35348700Y-7220900D01*
X35381250Y-7441250D02*
X35421250Y-7481250D01*
X35421250Y-7441250D02*
X35381250Y-7481250D01*
X35527300Y-7638100D02*
X35567300Y-7678100D01*
X35567300Y-7638100D02*
X35527300Y-7678100D01*
X35717800Y-7282500D02*
X35757800Y-7322500D01*
X35757800Y-7282500D02*
X35717800Y-7322500D01*
X35806700Y-7066600D02*
X35846700Y-7106600D01*
X35846700Y-7066600D02*
X35806700Y-7106600D01*
X35806700Y-7358700D02*
X35846700Y-7398700D01*
X35846700Y-7358700D02*
X35806700Y-7398700D01*
X35984500Y-7796850D02*
X36024500Y-7836850D01*
X36024500Y-7796850D02*
X35984500Y-7836850D01*
X36098800Y-7180900D02*
X36138800Y-7220900D01*
X36138800Y-7180900D02*
X36098800Y-7220900D01*
X36213100Y-7282500D02*
X36253100Y-7322500D01*
X36253100Y-7282500D02*
X36213100Y-7322500D01*
X17506000Y-17429800D02*
X17546000Y-17469800D01*
X17546000Y-17429800D02*
X17506000Y-17469800D01*
X17506000Y-17582200D02*
X17546000Y-17622200D01*
X17546000Y-17582200D02*
X17506000Y-17622200D01*
X19157000Y-17175800D02*
X19197000Y-17215800D01*
X19197000Y-17175800D02*
X19157000Y-17215800D01*
X19157000Y-17328200D02*
X19197000Y-17368200D01*
X19197000Y-17328200D02*
X19157000Y-17368200D01*
X25126000Y-19334800D02*
X25166000Y-19374800D01*
X25166000Y-19334800D02*
X25126000Y-19374800D01*
X25126000Y-19487200D02*
X25166000Y-19527200D01*
X25166000Y-19487200D02*
X25126000Y-19527200D01*
X26777000Y-19080800D02*
X26817000Y-19120800D01*
X26817000Y-19080800D02*
X26777000Y-19120800D01*
X26777000Y-19233200D02*
X26817000Y-19273200D01*
X26817000Y-19233200D02*
X26777000Y-19273200D01*
X32746000Y-19334800D02*
X32786000Y-19374800D01*
X32786000Y-19334800D02*
X32746000Y-19374800D01*
X32746000Y-19487200D02*
X32786000Y-19527200D01*
X32786000Y-19487200D02*
X32746000Y-19527200D01*
X34397000Y-19080800D02*
X34437000Y-19120800D01*
X34437000Y-19080800D02*
X34397000Y-19120800D01*
X34397000Y-19233200D02*
X34437000Y-19273200D01*
X34437000Y-19233200D02*
X34397000Y-19273200D01*
X21316000Y-9809800D02*
X21356000Y-9849800D01*
X21356000Y-9809800D02*
X21316000Y-9849800D01*
X21316000Y-9962200D02*
X21356000Y-10002200D01*
X21356000Y-9962200D02*
X21316000Y-10002200D01*
X22967000Y-9555800D02*
X23007000Y-9595800D01*
X23007000Y-9555800D02*
X22967000Y-9595800D01*
X22967000Y-9708200D02*
X23007000Y-9748200D01*
X23007000Y-9708200D02*
X22967000Y-9748200D01*
X28936000Y-17429800D02*
X28976000Y-17469800D01*
X28976000Y-17429800D02*
X28936000Y-17469800D01*
X28936000Y-17582200D02*
X28976000Y-17622200D01*
X28976000Y-17582200D02*
X28936000Y-17622200D01*
X30587000Y-17175800D02*
X30627000Y-17215800D01*
X30627000Y-17175800D02*
X30587000Y-17215800D01*
X30587000Y-17328200D02*
X30627000Y-17368200D01*
X30627000Y-17328200D02*
X30587000Y-17368200D01*
X13696000Y-15524800D02*
X13736000Y-15564800D01*
X13736000Y-15524800D02*
X13696000Y-15564800D01*
X13696000Y-15677200D02*
X13736000Y-15717200D01*
X13736000Y-15677200D02*
X13696000Y-15717200D01*
X15347000Y-15270800D02*
X15387000Y-15310800D01*
X15387000Y-15270800D02*
X15347000Y-15310800D01*
X15347000Y-15423200D02*
X15387000Y-15463200D01*
X15387000Y-15423200D02*
X15347000Y-15463200D01*
X27031000Y-13619800D02*
X27071000Y-13659800D01*
X27071000Y-13619800D02*
X27031000Y-13659800D01*
X27031000Y-13772200D02*
X27071000Y-13812200D01*
X27071000Y-13772200D02*
X27031000Y-13812200D01*
X28682000Y-13365800D02*
X28722000Y-13405800D01*
X28722000Y-13365800D02*
X28682000Y-13405800D01*
X28682000Y-13518200D02*
X28722000Y-13558200D01*
X28722000Y-13518200D02*
X28682000Y-13558200D01*
X4171000Y-17429800D02*
X4211000Y-17469800D01*
X4211000Y-17429800D02*
X4171000Y-17469800D01*
X4171000Y-17582200D02*
X4211000Y-17622200D01*
X4211000Y-17582200D02*
X4171000Y-17622200D01*
X5822000Y-17175800D02*
X5862000Y-17215800D01*
X5862000Y-17175800D02*
X5822000Y-17215800D01*
X5822000Y-17328200D02*
X5862000Y-17368200D01*
X5862000Y-17328200D02*
X5822000Y-17368200D01*
X7981000Y-9809800D02*
X8021000Y-9849800D01*
X8021000Y-9809800D02*
X7981000Y-9849800D01*
X7981000Y-9962200D02*
X8021000Y-10002200D01*
X8021000Y-9962200D02*
X7981000Y-10002200D01*
X9632000Y-9555800D02*
X9672000Y-9595800D01*
X9672000Y-9555800D02*
X9632000Y-9595800D01*
X9632000Y-9708200D02*
X9672000Y-9748200D01*
X9672000Y-9708200D02*
X9632000Y-9748200D01*
X15601000Y-13619800D02*
X15641000Y-13659800D01*
X15641000Y-13619800D02*
X15601000Y-13659800D01*
X15601000Y-13772200D02*
X15641000Y-13812200D01*
X15641000Y-13772200D02*
X15601000Y-13812200D01*
X17252000Y-13365800D02*
X17292000Y-13405800D01*
X17292000Y-13365800D02*
X17252000Y-13405800D01*
X17252000Y-13518200D02*
X17292000Y-13558200D01*
X17292000Y-13518200D02*
X17252000Y-13558200D01*
X7981000Y-19334800D02*
X8021000Y-19374800D01*
X8021000Y-19334800D02*
X7981000Y-19374800D01*
X7981000Y-19487200D02*
X8021000Y-19527200D01*
X8021000Y-19487200D02*
X7981000Y-19527200D01*
X9632000Y-19080800D02*
X9672000Y-19120800D01*
X9672000Y-19080800D02*
X9632000Y-19120800D01*
X9632000Y-19233200D02*
X9672000Y-19273200D01*
X9672000Y-19233200D02*
X9632000Y-19273200D01*
X13696000Y-9809800D02*
X13736000Y-9849800D01*
X13736000Y-9809800D02*
X13696000Y-9849800D01*
X13696000Y-9962200D02*
X13736000Y-10002200D01*
X13736000Y-9962200D02*
X13696000Y-10002200D01*
X15347000Y-9555800D02*
X15387000Y-9595800D01*
X15387000Y-9555800D02*
X15347000Y-9595800D01*
X15347000Y-9708200D02*
X15387000Y-9748200D01*
X15387000Y-9708200D02*
X15347000Y-9748200D01*
X6076000Y-11714800D02*
X6116000Y-11754800D01*
X6116000Y-11714800D02*
X6076000Y-11754800D01*
X6076000Y-11867200D02*
X6116000Y-11907200D01*
X6116000Y-11867200D02*
X6076000Y-11907200D01*
X7727000Y-11460800D02*
X7767000Y-11500800D01*
X7767000Y-11460800D02*
X7727000Y-11500800D01*
X7727000Y-11613200D02*
X7767000Y-11653200D01*
X7767000Y-11613200D02*
X7727000Y-11653200D01*
X9886000Y-11714800D02*
X9926000Y-11754800D01*
X9926000Y-11714800D02*
X9886000Y-11754800D01*
X9886000Y-11867200D02*
X9926000Y-11907200D01*
X9926000Y-11867200D02*
X9886000Y-11907200D01*
X11537000Y-11460800D02*
X11577000Y-11500800D01*
X11577000Y-11460800D02*
X11537000Y-11500800D01*
X11537000Y-11613200D02*
X11577000Y-11653200D01*
X11577000Y-11613200D02*
X11537000Y-11653200D01*
X17506000Y-15524800D02*
X17546000Y-15564800D01*
X17546000Y-15524800D02*
X17506000Y-15564800D01*
X17506000Y-15677200D02*
X17546000Y-15717200D01*
X17546000Y-15677200D02*
X17506000Y-15717200D01*
X19157000Y-15270800D02*
X19197000Y-15310800D01*
X19197000Y-15270800D02*
X19157000Y-15310800D01*
X19157000Y-15423200D02*
X19197000Y-15463200D01*
X19197000Y-15423200D02*
X19157000Y-15463200D01*
X19411000Y-15524800D02*
X19451000Y-15564800D01*
X19451000Y-15524800D02*
X19411000Y-15564800D01*
X19411000Y-15677200D02*
X19451000Y-15717200D01*
X19451000Y-15677200D02*
X19411000Y-15717200D01*
X21062000Y-15270800D02*
X21102000Y-15310800D01*
X21102000Y-15270800D02*
X21062000Y-15310800D01*
X21062000Y-15423200D02*
X21102000Y-15463200D01*
X21102000Y-15423200D02*
X21062000Y-15463200D01*
X7981000Y-11714800D02*
X8021000Y-11754800D01*
X8021000Y-11714800D02*
X7981000Y-11754800D01*
X7981000Y-11867200D02*
X8021000Y-11907200D01*
X8021000Y-11867200D02*
X7981000Y-11907200D01*
X9632000Y-11460800D02*
X9672000Y-11500800D01*
X9672000Y-11460800D02*
X9632000Y-11500800D01*
X9632000Y-11613200D02*
X9672000Y-11653200D01*
X9672000Y-11613200D02*
X9632000Y-11653200D01*
X28936000Y-9809800D02*
X28976000Y-9849800D01*
X28976000Y-9809800D02*
X28936000Y-9849800D01*
X28936000Y-9962200D02*
X28976000Y-10002200D01*
X28976000Y-9962200D02*
X28936000Y-10002200D01*
X30587000Y-9555800D02*
X30627000Y-9595800D01*
X30627000Y-9555800D02*
X30587000Y-9595800D01*
X30587000Y-9708200D02*
X30627000Y-9748200D01*
X30627000Y-9708200D02*
X30587000Y-9748200D01*
X15601000Y-19334800D02*
X15641000Y-19374800D01*
X15641000Y-19334800D02*
X15601000Y-19374800D01*
X15601000Y-19487200D02*
X15641000Y-19527200D01*
X15641000Y-19487200D02*
X15601000Y-19527200D01*
X17252000Y-19080800D02*
X17292000Y-19120800D01*
X17292000Y-19080800D02*
X17252000Y-19120800D01*
X17252000Y-19233200D02*
X17292000Y-19273200D01*
X17292000Y-19233200D02*
X17252000Y-19273200D01*
X34651000Y-19334800D02*
X34691000Y-19374800D01*
X34691000Y-19334800D02*
X34651000Y-19374800D01*
X34651000Y-19487200D02*
X34691000Y-19527200D01*
X34691000Y-19487200D02*
X34651000Y-19527200D01*
X36302000Y-19080800D02*
X36342000Y-19120800D01*
X36342000Y-19080800D02*
X36302000Y-19120800D01*
X36302000Y-19233200D02*
X36342000Y-19273200D01*
X36342000Y-19233200D02*
X36302000Y-19273200D01*
X23221000Y-13619800D02*
X23261000Y-13659800D01*
X23261000Y-13619800D02*
X23221000Y-13659800D01*
X23221000Y-13772200D02*
X23261000Y-13812200D01*
X23261000Y-13772200D02*
X23221000Y-13812200D01*
X24872000Y-13365800D02*
X24912000Y-13405800D01*
X24912000Y-13365800D02*
X24872000Y-13405800D01*
X24872000Y-13518200D02*
X24912000Y-13558200D01*
X24912000Y-13518200D02*
X24872000Y-13558200D01*
X6076000Y-17429800D02*
X6116000Y-17469800D01*
X6116000Y-17429800D02*
X6076000Y-17469800D01*
X6076000Y-17582200D02*
X6116000Y-17622200D01*
X6116000Y-17582200D02*
X6076000Y-17622200D01*
X7727000Y-17175800D02*
X7767000Y-17215800D01*
X7767000Y-17175800D02*
X7727000Y-17215800D01*
X7727000Y-17328200D02*
X7767000Y-17368200D01*
X7767000Y-17328200D02*
X7727000Y-17368200D01*
X9886000Y-15524800D02*
X9926000Y-15564800D01*
X9926000Y-15524800D02*
X9886000Y-15564800D01*
X9886000Y-15677200D02*
X9926000Y-15717200D01*
X9926000Y-15677200D02*
X9886000Y-15717200D01*
X11537000Y-15270800D02*
X11577000Y-15310800D01*
X11577000Y-15270800D02*
X11537000Y-15310800D01*
X11537000Y-15423200D02*
X11577000Y-15463200D01*
X11577000Y-15423200D02*
X11537000Y-15463200D01*
X28936000Y-13619800D02*
X28976000Y-13659800D01*
X28976000Y-13619800D02*
X28936000Y-13659800D01*
X28936000Y-13772200D02*
X28976000Y-13812200D01*
X28976000Y-13772200D02*
X28936000Y-13812200D01*
X30587000Y-13365800D02*
X30627000Y-13405800D01*
X30627000Y-13365800D02*
X30587000Y-13405800D01*
X30587000Y-13518200D02*
X30627000Y-13558200D01*
X30627000Y-13518200D02*
X30587000Y-13558200D01*
X17506000Y-9809800D02*
X17546000Y-9849800D01*
X17546000Y-9809800D02*
X17506000Y-9849800D01*
X17506000Y-9962200D02*
X17546000Y-10002200D01*
X17546000Y-9962200D02*
X17506000Y-10002200D01*
X19157000Y-9555800D02*
X19197000Y-9595800D01*
X19197000Y-9555800D02*
X19157000Y-9595800D01*
X19157000Y-9708200D02*
X19197000Y-9748200D01*
X19197000Y-9708200D02*
X19157000Y-9748200D01*
X32746000Y-17429800D02*
X32786000Y-17469800D01*
X32786000Y-17429800D02*
X32746000Y-17469800D01*
X32746000Y-17582200D02*
X32786000Y-17622200D01*
X32786000Y-17582200D02*
X32746000Y-17622200D01*
X34397000Y-17175800D02*
X34437000Y-17215800D01*
X34437000Y-17175800D02*
X34397000Y-17215800D01*
X34397000Y-17328200D02*
X34437000Y-17368200D01*
X34437000Y-17328200D02*
X34397000Y-17368200D01*
X19411000Y-13619800D02*
X19451000Y-13659800D01*
X19451000Y-13619800D02*
X19411000Y-13659800D01*
X19411000Y-13772200D02*
X19451000Y-13812200D01*
X19451000Y-13772200D02*
X19411000Y-13812200D01*
X21062000Y-13365800D02*
X21102000Y-13405800D01*
X21102000Y-13365800D02*
X21062000Y-13405800D01*
X21062000Y-13518200D02*
X21102000Y-13558200D01*
X21102000Y-13518200D02*
X21062000Y-13558200D01*
X4171000Y-13619800D02*
X4211000Y-13659800D01*
X4211000Y-13619800D02*
X4171000Y-13659800D01*
X4171000Y-13772200D02*
X4211000Y-13812200D01*
X4211000Y-13772200D02*
X4171000Y-13812200D01*
X5822000Y-13365800D02*
X5862000Y-13405800D01*
X5862000Y-13365800D02*
X5822000Y-13405800D01*
X5822000Y-13518200D02*
X5862000Y-13558200D01*
X5862000Y-13518200D02*
X5822000Y-13558200D01*
X9886000Y-19334800D02*
X9926000Y-19374800D01*
X9926000Y-19334800D02*
X9886000Y-19374800D01*
X9886000Y-19487200D02*
X9926000Y-19527200D01*
X9926000Y-19487200D02*
X9886000Y-19527200D01*
X11537000Y-19080800D02*
X11577000Y-19120800D01*
X11577000Y-19080800D02*
X11537000Y-19120800D01*
X11537000Y-19233200D02*
X11577000Y-19273200D01*
X11577000Y-19233200D02*
X11537000Y-19273200D01*
X27031000Y-9809800D02*
X27071000Y-9849800D01*
X27071000Y-9809800D02*
X27031000Y-9849800D01*
X27031000Y-9962200D02*
X27071000Y-10002200D01*
X27071000Y-9962200D02*
X27031000Y-10002200D01*
X28682000Y-9555800D02*
X28722000Y-9595800D01*
X28722000Y-9555800D02*
X28682000Y-9595800D01*
X28682000Y-9708200D02*
X28722000Y-9748200D01*
X28722000Y-9708200D02*
X28682000Y-9748200D01*
X32746000Y-9809800D02*
X32786000Y-9849800D01*
X32786000Y-9809800D02*
X32746000Y-9849800D01*
X32746000Y-9962200D02*
X32786000Y-10002200D01*
X32786000Y-9962200D02*
X32746000Y-10002200D01*
X34397000Y-9555800D02*
X34437000Y-9595800D01*
X34437000Y-9555800D02*
X34397000Y-9595800D01*
X34397000Y-9708200D02*
X34437000Y-9748200D01*
X34437000Y-9708200D02*
X34397000Y-9748200D01*
X23221000Y-9809800D02*
X23261000Y-9849800D01*
X23261000Y-9809800D02*
X23221000Y-9849800D01*
X23221000Y-9962200D02*
X23261000Y-10002200D01*
X23261000Y-9962200D02*
X23221000Y-10002200D01*
X24872000Y-9555800D02*
X24912000Y-9595800D01*
X24912000Y-9555800D02*
X24872000Y-9595800D01*
X24872000Y-9708200D02*
X24912000Y-9748200D01*
X24912000Y-9708200D02*
X24872000Y-9748200D01*
X28936000Y-11714800D02*
X28976000Y-11754800D01*
X28976000Y-11714800D02*
X28936000Y-11754800D01*
X28936000Y-11867200D02*
X28976000Y-11907200D01*
X28976000Y-11867200D02*
X28936000Y-11907200D01*
X30587000Y-11460800D02*
X30627000Y-11500800D01*
X30627000Y-11460800D02*
X30587000Y-11500800D01*
X30587000Y-11613200D02*
X30627000Y-11653200D01*
X30627000Y-11613200D02*
X30587000Y-11653200D01*
X34651000Y-9809800D02*
X34691000Y-9849800D01*
X34691000Y-9809800D02*
X34651000Y-9849800D01*
X34651000Y-9962200D02*
X34691000Y-10002200D01*
X34691000Y-9962200D02*
X34651000Y-10002200D01*
X36302000Y-9555800D02*
X36342000Y-9595800D01*
X36342000Y-9555800D02*
X36302000Y-9595800D01*
X36302000Y-9708200D02*
X36342000Y-9748200D01*
X36342000Y-9708200D02*
X36302000Y-9748200D01*
X23221000Y-11714800D02*
X23261000Y-11754800D01*
X23261000Y-11714800D02*
X23221000Y-11754800D01*
X23221000Y-11867200D02*
X23261000Y-11907200D01*
X23261000Y-11867200D02*
X23221000Y-11907200D01*
X24872000Y-11460800D02*
X24912000Y-11500800D01*
X24912000Y-11460800D02*
X24872000Y-11500800D01*
X24872000Y-11613200D02*
X24912000Y-11653200D01*
X24912000Y-11613200D02*
X24872000Y-11653200D01*
X30841000Y-9809800D02*
X30881000Y-9849800D01*
X30881000Y-9809800D02*
X30841000Y-9849800D01*
X30841000Y-9962200D02*
X30881000Y-10002200D01*
X30881000Y-9962200D02*
X30841000Y-10002200D01*
X32492000Y-9555800D02*
X32532000Y-9595800D01*
X32532000Y-9555800D02*
X32492000Y-9595800D01*
X32492000Y-9708200D02*
X32532000Y-9748200D01*
X32532000Y-9708200D02*
X32492000Y-9748200D01*
X34651000Y-13619800D02*
X34691000Y-13659800D01*
X34691000Y-13619800D02*
X34651000Y-13659800D01*
X34651000Y-13772200D02*
X34691000Y-13812200D01*
X34691000Y-13772200D02*
X34651000Y-13812200D01*
X36302000Y-13365800D02*
X36342000Y-13405800D01*
X36342000Y-13365800D02*
X36302000Y-13405800D01*
X36302000Y-13518200D02*
X36342000Y-13558200D01*
X36342000Y-13518200D02*
X36302000Y-13558200D01*
X25126000Y-9809800D02*
X25166000Y-9849800D01*
X25166000Y-9809800D02*
X25126000Y-9849800D01*
X25126000Y-9962200D02*
X25166000Y-10002200D01*
X25166000Y-9962200D02*
X25126000Y-10002200D01*
X26777000Y-9555800D02*
X26817000Y-9595800D01*
X26817000Y-9555800D02*
X26777000Y-9595800D01*
X26777000Y-9708200D02*
X26817000Y-9748200D01*
X26817000Y-9708200D02*
X26777000Y-9748200D01*
X27031000Y-17429800D02*
X27071000Y-17469800D01*
X27071000Y-17429800D02*
X27031000Y-17469800D01*
X27031000Y-17582200D02*
X27071000Y-17622200D01*
X27071000Y-17582200D02*
X27031000Y-17622200D01*
X28682000Y-17175800D02*
X28722000Y-17215800D01*
X28722000Y-17175800D02*
X28682000Y-17215800D01*
X28682000Y-17328200D02*
X28722000Y-17368200D01*
X28722000Y-17328200D02*
X28682000Y-17368200D01*
X17506000Y-11714800D02*
X17546000Y-11754800D01*
X17546000Y-11714800D02*
X17506000Y-11754800D01*
X17506000Y-11867200D02*
X17546000Y-11907200D01*
X17546000Y-11867200D02*
X17506000Y-11907200D01*
X19157000Y-11460800D02*
X19197000Y-11500800D01*
X19197000Y-11460800D02*
X19157000Y-11500800D01*
X19157000Y-11613200D02*
X19197000Y-11653200D01*
X19197000Y-11613200D02*
X19157000Y-11653200D01*
X11791000Y-13619800D02*
X11831000Y-13659800D01*
X11831000Y-13619800D02*
X11791000Y-13659800D01*
X11791000Y-13772200D02*
X11831000Y-13812200D01*
X11831000Y-13772200D02*
X11791000Y-13812200D01*
X13442000Y-13365800D02*
X13482000Y-13405800D01*
X13482000Y-13365800D02*
X13442000Y-13405800D01*
X13442000Y-13518200D02*
X13482000Y-13558200D01*
X13482000Y-13518200D02*
X13442000Y-13558200D01*
X15601000Y-15524800D02*
X15641000Y-15564800D01*
X15641000Y-15524800D02*
X15601000Y-15564800D01*
X15601000Y-15677200D02*
X15641000Y-15717200D01*
X15641000Y-15677200D02*
X15601000Y-15717200D01*
X17252000Y-15270800D02*
X17292000Y-15310800D01*
X17292000Y-15270800D02*
X17252000Y-15310800D01*
X17252000Y-15423200D02*
X17292000Y-15463200D01*
X17292000Y-15423200D02*
X17252000Y-15463200D01*
X7981000Y-13619800D02*
X8021000Y-13659800D01*
X8021000Y-13619800D02*
X7981000Y-13659800D01*
X7981000Y-13772200D02*
X8021000Y-13812200D01*
X8021000Y-13772200D02*
X7981000Y-13812200D01*
X9632000Y-13365800D02*
X9672000Y-13405800D01*
X9672000Y-13365800D02*
X9632000Y-13405800D01*
X9632000Y-13518200D02*
X9672000Y-13558200D01*
X9672000Y-13518200D02*
X9632000Y-13558200D01*
X13696000Y-11714800D02*
X13736000Y-11754800D01*
X13736000Y-11714800D02*
X13696000Y-11754800D01*
X13696000Y-11867200D02*
X13736000Y-11907200D01*
X13736000Y-11867200D02*
X13696000Y-11907200D01*
X15347000Y-11460800D02*
X15387000Y-11500800D01*
X15387000Y-11460800D02*
X15347000Y-11500800D01*
X15347000Y-11613200D02*
X15387000Y-11653200D01*
X15387000Y-11613200D02*
X15347000Y-11653200D01*
X19411000Y-19334800D02*
X19451000Y-19374800D01*
X19451000Y-19334800D02*
X19411000Y-19374800D01*
X19411000Y-19487200D02*
X19451000Y-19527200D01*
X19451000Y-19487200D02*
X19411000Y-19527200D01*
X21062000Y-19080800D02*
X21102000Y-19120800D01*
X21102000Y-19080800D02*
X21062000Y-19120800D01*
X21062000Y-19233200D02*
X21102000Y-19273200D01*
X21102000Y-19233200D02*
X21062000Y-19273200D01*
X4171000Y-9809800D02*
X4211000Y-9849800D01*
X4211000Y-9809800D02*
X4171000Y-9849800D01*
X4171000Y-9962200D02*
X4211000Y-10002200D01*
X4211000Y-9962200D02*
X4171000Y-10002200D01*
X5822000Y-9555800D02*
X5862000Y-9595800D01*
X5862000Y-9555800D02*
X5822000Y-9595800D01*
X5822000Y-9708200D02*
X5862000Y-9748200D01*
X5862000Y-9708200D02*
X5822000Y-9748200D01*
X11791000Y-19334800D02*
X11831000Y-19374800D01*
X11831000Y-19334800D02*
X11791000Y-19374800D01*
X11791000Y-19487200D02*
X11831000Y-19527200D01*
X11831000Y-19487200D02*
X11791000Y-19527200D01*
X13442000Y-19080800D02*
X13482000Y-19120800D01*
X13482000Y-19080800D02*
X13442000Y-19120800D01*
X13442000Y-19233200D02*
X13482000Y-19273200D01*
X13482000Y-19233200D02*
X13442000Y-19273200D01*
X17506000Y-19334800D02*
X17546000Y-19374800D01*
X17546000Y-19334800D02*
X17506000Y-19374800D01*
X17506000Y-19487200D02*
X17546000Y-19527200D01*
X17546000Y-19487200D02*
X17506000Y-19527200D01*
X19157000Y-19080800D02*
X19197000Y-19120800D01*
X19197000Y-19080800D02*
X19157000Y-19120800D01*
X19157000Y-19233200D02*
X19197000Y-19273200D01*
X19197000Y-19233200D02*
X19157000Y-19273200D01*
X30841000Y-13619800D02*
X30881000Y-13659800D01*
X30881000Y-13619800D02*
X30841000Y-13659800D01*
X30841000Y-13772200D02*
X30881000Y-13812200D01*
X30881000Y-13772200D02*
X30841000Y-13812200D01*
X32492000Y-13365800D02*
X32532000Y-13405800D01*
X32532000Y-13365800D02*
X32492000Y-13405800D01*
X32492000Y-13518200D02*
X32532000Y-13558200D01*
X32532000Y-13518200D02*
X32492000Y-13558200D01*
X23221000Y-19334800D02*
X23261000Y-19374800D01*
X23261000Y-19334800D02*
X23221000Y-19374800D01*
X23221000Y-19487200D02*
X23261000Y-19527200D01*
X23261000Y-19487200D02*
X23221000Y-19527200D01*
X24872000Y-19080800D02*
X24912000Y-19120800D01*
X24912000Y-19080800D02*
X24872000Y-19120800D01*
X24872000Y-19233200D02*
X24912000Y-19273200D01*
X24912000Y-19233200D02*
X24872000Y-19273200D01*
X4171000Y-19334800D02*
X4211000Y-19374800D01*
X4211000Y-19334800D02*
X4171000Y-19374800D01*
X4171000Y-19487200D02*
X4211000Y-19527200D01*
X4211000Y-19487200D02*
X4171000Y-19527200D01*
X5822000Y-19080800D02*
X5862000Y-19120800D01*
X5862000Y-19080800D02*
X5822000Y-19120800D01*
X5822000Y-19233200D02*
X5862000Y-19273200D01*
X5862000Y-19233200D02*
X5822000Y-19273200D01*
X11791000Y-9809800D02*
X11831000Y-9849800D01*
X11831000Y-9809800D02*
X11791000Y-9849800D01*
X11791000Y-9962200D02*
X11831000Y-10002200D01*
X11831000Y-9962200D02*
X11791000Y-10002200D01*
X13442000Y-9555800D02*
X13482000Y-9595800D01*
X13482000Y-9555800D02*
X13442000Y-9595800D01*
X13442000Y-9708200D02*
X13482000Y-9748200D01*
X13482000Y-9708200D02*
X13442000Y-9748200D01*
X25126000Y-15524800D02*
X25166000Y-15564800D01*
X25166000Y-15524800D02*
X25126000Y-15564800D01*
X25126000Y-15677200D02*
X25166000Y-15717200D01*
X25166000Y-15677200D02*
X25126000Y-15717200D01*
X26777000Y-15270800D02*
X26817000Y-15310800D01*
X26817000Y-15270800D02*
X26777000Y-15310800D01*
X26777000Y-15423200D02*
X26817000Y-15463200D01*
X26817000Y-15423200D02*
X26777000Y-15463200D01*
X15601000Y-11714800D02*
X15641000Y-11754800D01*
X15641000Y-11714800D02*
X15601000Y-11754800D01*
X15601000Y-11867200D02*
X15641000Y-11907200D01*
X15641000Y-11867200D02*
X15601000Y-11907200D01*
X17252000Y-11460800D02*
X17292000Y-11500800D01*
X17292000Y-11460800D02*
X17252000Y-11500800D01*
X17252000Y-11613200D02*
X17292000Y-11653200D01*
X17292000Y-11613200D02*
X17252000Y-11653200D01*
X30841000Y-11714800D02*
X30881000Y-11754800D01*
X30881000Y-11714800D02*
X30841000Y-11754800D01*
X30841000Y-11867200D02*
X30881000Y-11907200D01*
X30881000Y-11867200D02*
X30841000Y-11907200D01*
X32492000Y-11460800D02*
X32532000Y-11500800D01*
X32532000Y-11460800D02*
X32492000Y-11500800D01*
X32492000Y-11613200D02*
X32532000Y-11653200D01*
X32532000Y-11613200D02*
X32492000Y-11653200D01*
X21316000Y-17429800D02*
X21356000Y-17469800D01*
X21356000Y-17429800D02*
X21316000Y-17469800D01*
X21316000Y-17582200D02*
X21356000Y-17622200D01*
X21356000Y-17582200D02*
X21316000Y-17622200D01*
X22967000Y-17175800D02*
X23007000Y-17215800D01*
X23007000Y-17175800D02*
X22967000Y-17215800D01*
X22967000Y-17328200D02*
X23007000Y-17368200D01*
X23007000Y-17328200D02*
X22967000Y-17368200D01*
X6076000Y-9809800D02*
X6116000Y-9849800D01*
X6116000Y-9809800D02*
X6076000Y-9849800D01*
X6076000Y-9962200D02*
X6116000Y-10002200D01*
X6116000Y-9962200D02*
X6076000Y-10002200D01*
X7727000Y-9555800D02*
X7767000Y-9595800D01*
X7767000Y-9555800D02*
X7727000Y-9595800D01*
X7727000Y-9708200D02*
X7767000Y-9748200D01*
X7767000Y-9708200D02*
X7727000Y-9748200D01*
X11791000Y-15524800D02*
X11831000Y-15564800D01*
X11831000Y-15524800D02*
X11791000Y-15564800D01*
X11791000Y-15677200D02*
X11831000Y-15717200D01*
X11831000Y-15677200D02*
X11791000Y-15717200D01*
X13442000Y-15270800D02*
X13482000Y-15310800D01*
X13482000Y-15270800D02*
X13442000Y-15310800D01*
X13442000Y-15423200D02*
X13482000Y-15463200D01*
X13482000Y-15423200D02*
X13442000Y-15463200D01*
X28936000Y-15524800D02*
X28976000Y-15564800D01*
X28976000Y-15524800D02*
X28936000Y-15564800D01*
X28936000Y-15677200D02*
X28976000Y-15717200D01*
X28976000Y-15677200D02*
X28936000Y-15717200D01*
X30587000Y-15270800D02*
X30627000Y-15310800D01*
X30627000Y-15270800D02*
X30587000Y-15310800D01*
X30587000Y-15423200D02*
X30627000Y-15463200D01*
X30627000Y-15423200D02*
X30587000Y-15463200D01*
X15601000Y-9809800D02*
X15641000Y-9849800D01*
X15641000Y-9809800D02*
X15601000Y-9849800D01*
X15601000Y-9962200D02*
X15641000Y-10002200D01*
X15641000Y-9962200D02*
X15601000Y-10002200D01*
X17252000Y-9555800D02*
X17292000Y-9595800D01*
X17292000Y-9555800D02*
X17252000Y-9595800D01*
X17252000Y-9708200D02*
X17292000Y-9748200D01*
X17292000Y-9708200D02*
X17252000Y-9748200D01*
X34651000Y-15524800D02*
X34691000Y-15564800D01*
X34691000Y-15524800D02*
X34651000Y-15564800D01*
X34651000Y-15677200D02*
X34691000Y-15717200D01*
X34691000Y-15677200D02*
X34651000Y-15717200D01*
X36302000Y-15270800D02*
X36342000Y-15310800D01*
X36342000Y-15270800D02*
X36302000Y-15310800D01*
X36302000Y-15423200D02*
X36342000Y-15463200D01*
X36342000Y-15423200D02*
X36302000Y-15463200D01*
X19411000Y-11714800D02*
X19451000Y-11754800D01*
X19451000Y-11714800D02*
X19411000Y-11754800D01*
X19411000Y-11867200D02*
X19451000Y-11907200D01*
X19451000Y-11867200D02*
X19411000Y-11907200D01*
X21062000Y-11460800D02*
X21102000Y-11500800D01*
X21102000Y-11460800D02*
X21062000Y-11500800D01*
X21062000Y-11613200D02*
X21102000Y-11653200D01*
X21102000Y-11613200D02*
X21062000Y-11653200D01*
X4171000Y-11714800D02*
X4211000Y-11754800D01*
X4211000Y-11714800D02*
X4171000Y-11754800D01*
X4171000Y-11867200D02*
X4211000Y-11907200D01*
X4211000Y-11867200D02*
X4171000Y-11907200D01*
X5822000Y-11460800D02*
X5862000Y-11500800D01*
X5862000Y-11460800D02*
X5822000Y-11500800D01*
X5822000Y-11613200D02*
X5862000Y-11653200D01*
X5862000Y-11613200D02*
X5822000Y-11653200D01*
X9886000Y-13619800D02*
X9926000Y-13659800D01*
X9926000Y-13619800D02*
X9886000Y-13659800D01*
X9886000Y-13772200D02*
X9926000Y-13812200D01*
X9926000Y-13772200D02*
X9886000Y-13812200D01*
X11537000Y-13365800D02*
X11577000Y-13405800D01*
X11577000Y-13365800D02*
X11537000Y-13405800D01*
X11537000Y-13518200D02*
X11577000Y-13558200D01*
X11577000Y-13518200D02*
X11537000Y-13558200D01*
X25126000Y-17429800D02*
X25166000Y-17469800D01*
X25166000Y-17429800D02*
X25126000Y-17469800D01*
X25126000Y-17582200D02*
X25166000Y-17622200D01*
X25166000Y-17582200D02*
X25126000Y-17622200D01*
X26777000Y-17175800D02*
X26817000Y-17215800D01*
X26817000Y-17175800D02*
X26777000Y-17215800D01*
X26777000Y-17328200D02*
X26817000Y-17368200D01*
X26817000Y-17328200D02*
X26777000Y-17368200D01*
X30841000Y-19334800D02*
X30881000Y-19374800D01*
X30881000Y-19334800D02*
X30841000Y-19374800D01*
X30841000Y-19487200D02*
X30881000Y-19527200D01*
X30881000Y-19487200D02*
X30841000Y-19527200D01*
X32492000Y-19080800D02*
X32532000Y-19120800D01*
X32532000Y-19080800D02*
X32492000Y-19120800D01*
X32492000Y-19233200D02*
X32532000Y-19273200D01*
X32532000Y-19233200D02*
X32492000Y-19273200D01*
X21316000Y-11714800D02*
X21356000Y-11754800D01*
X21356000Y-11714800D02*
X21316000Y-11754800D01*
X21316000Y-11867200D02*
X21356000Y-11907200D01*
X21356000Y-11867200D02*
X21316000Y-11907200D01*
X22967000Y-11460800D02*
X23007000Y-11500800D01*
X23007000Y-11460800D02*
X22967000Y-11500800D01*
X22967000Y-11613200D02*
X23007000Y-11653200D01*
X23007000Y-11613200D02*
X22967000Y-11653200D01*
X27031000Y-15524800D02*
X27071000Y-15564800D01*
X27071000Y-15524800D02*
X27031000Y-15564800D01*
X27031000Y-15677200D02*
X27071000Y-15717200D01*
X27071000Y-15677200D02*
X27031000Y-15717200D01*
X28682000Y-15270800D02*
X28722000Y-15310800D01*
X28722000Y-15270800D02*
X28682000Y-15310800D01*
X28682000Y-15423200D02*
X28722000Y-15463200D01*
X28722000Y-15423200D02*
X28682000Y-15463200D01*
X32746000Y-15524800D02*
X32786000Y-15564800D01*
X32786000Y-15524800D02*
X32746000Y-15564800D01*
X32746000Y-15677200D02*
X32786000Y-15717200D01*
X32786000Y-15677200D02*
X32746000Y-15717200D01*
X34397000Y-15270800D02*
X34437000Y-15310800D01*
X34437000Y-15270800D02*
X34397000Y-15310800D01*
X34397000Y-15423200D02*
X34437000Y-15463200D01*
X34437000Y-15423200D02*
X34397000Y-15463200D01*
X21316000Y-19334800D02*
X21356000Y-19374800D01*
X21356000Y-19334800D02*
X21316000Y-19374800D01*
X21316000Y-19487200D02*
X21356000Y-19527200D01*
X21356000Y-19487200D02*
X21316000Y-19527200D01*
X22967000Y-19080800D02*
X23007000Y-19120800D01*
X23007000Y-19080800D02*
X22967000Y-19120800D01*
X22967000Y-19233200D02*
X23007000Y-19273200D01*
X23007000Y-19233200D02*
X22967000Y-19273200D01*
X27031000Y-19334800D02*
X27071000Y-19374800D01*
X27071000Y-19334800D02*
X27031000Y-19374800D01*
X27031000Y-19487200D02*
X27071000Y-19527200D01*
X27071000Y-19487200D02*
X27031000Y-19527200D01*
X28682000Y-19080800D02*
X28722000Y-19120800D01*
X28722000Y-19080800D02*
X28682000Y-19120800D01*
X28682000Y-19233200D02*
X28722000Y-19273200D01*
X28722000Y-19233200D02*
X28682000Y-19273200D01*
X30841000Y-15524800D02*
X30881000Y-15564800D01*
X30881000Y-15524800D02*
X30841000Y-15564800D01*
X30841000Y-15677200D02*
X30881000Y-15717200D01*
X30881000Y-15677200D02*
X30841000Y-15717200D01*
X32492000Y-15270800D02*
X32532000Y-15310800D01*
X32532000Y-15270800D02*
X32492000Y-15310800D01*
X32492000Y-15423200D02*
X32532000Y-15463200D01*
X32532000Y-15423200D02*
X32492000Y-15463200D01*
X25126000Y-13619800D02*
X25166000Y-13659800D01*
X25166000Y-13619800D02*
X25126000Y-13659800D01*
X25126000Y-13772200D02*
X25166000Y-13812200D01*
X25166000Y-13772200D02*
X25126000Y-13812200D01*
X26777000Y-13365800D02*
X26817000Y-13405800D01*
X26817000Y-13365800D02*
X26777000Y-13405800D01*
X26777000Y-13518200D02*
X26817000Y-13558200D01*
X26817000Y-13518200D02*
X26777000Y-13558200D01*
X15601000Y-17429800D02*
X15641000Y-17469800D01*
X15641000Y-17429800D02*
X15601000Y-17469800D01*
X15601000Y-17582200D02*
X15641000Y-17622200D01*
X15641000Y-17582200D02*
X15601000Y-17622200D01*
X17252000Y-17175800D02*
X17292000Y-17215800D01*
X17292000Y-17175800D02*
X17252000Y-17215800D01*
X17252000Y-17328200D02*
X17292000Y-17368200D01*
X17292000Y-17328200D02*
X17252000Y-17368200D01*
X6076000Y-15524800D02*
X6116000Y-15564800D01*
X6116000Y-15524800D02*
X6076000Y-15564800D01*
X6076000Y-15677200D02*
X6116000Y-15717200D01*
X6116000Y-15677200D02*
X6076000Y-15717200D01*
X7727000Y-15270800D02*
X7767000Y-15310800D01*
X7767000Y-15270800D02*
X7727000Y-15310800D01*
X7727000Y-15423200D02*
X7767000Y-15463200D01*
X7767000Y-15423200D02*
X7727000Y-15463200D01*
X7981000Y-15524800D02*
X8021000Y-15564800D01*
X8021000Y-15524800D02*
X7981000Y-15564800D01*
X7981000Y-15677200D02*
X8021000Y-15717200D01*
X8021000Y-15677200D02*
X7981000Y-15717200D01*
X9632000Y-15270800D02*
X9672000Y-15310800D01*
X9672000Y-15270800D02*
X9632000Y-15310800D01*
X9632000Y-15423200D02*
X9672000Y-15463200D01*
X9672000Y-15423200D02*
X9632000Y-15463200D01*
X13696000Y-13619800D02*
X13736000Y-13659800D01*
X13736000Y-13619800D02*
X13696000Y-13659800D01*
X13696000Y-13772200D02*
X13736000Y-13812200D01*
X13736000Y-13772200D02*
X13696000Y-13812200D01*
X15347000Y-13365800D02*
X15387000Y-13405800D01*
X15387000Y-13365800D02*
X15347000Y-13405800D01*
X15347000Y-13518200D02*
X15387000Y-13558200D01*
X15387000Y-13518200D02*
X15347000Y-13558200D01*
X32746000Y-11714800D02*
X32786000Y-11754800D01*
X32786000Y-11714800D02*
X32746000Y-11754800D01*
X32746000Y-11867200D02*
X32786000Y-11907200D01*
X32786000Y-11867200D02*
X32746000Y-11907200D01*
X34397000Y-11460800D02*
X34437000Y-11500800D01*
X34437000Y-11460800D02*
X34397000Y-11500800D01*
X34397000Y-11613200D02*
X34437000Y-11653200D01*
X34437000Y-11613200D02*
X34397000Y-11653200D01*
X6076000Y-19334800D02*
X6116000Y-19374800D01*
X6116000Y-19334800D02*
X6076000Y-19374800D01*
X6076000Y-19487200D02*
X6116000Y-19527200D01*
X6116000Y-19487200D02*
X6076000Y-19527200D01*
X7727000Y-19080800D02*
X7767000Y-19120800D01*
X7767000Y-19080800D02*
X7727000Y-19120800D01*
X7727000Y-19233200D02*
X7767000Y-19273200D01*
X7767000Y-19233200D02*
X7727000Y-19273200D01*
X11791000Y-17429800D02*
X11831000Y-17469800D01*
X11831000Y-17429800D02*
X11791000Y-17469800D01*
X11791000Y-17582200D02*
X11831000Y-17622200D01*
X11831000Y-17582200D02*
X11791000Y-17622200D01*
X13442000Y-17175800D02*
X13482000Y-17215800D01*
X13482000Y-17175800D02*
X13442000Y-17215800D01*
X13442000Y-17328200D02*
X13482000Y-17368200D01*
X13482000Y-17328200D02*
X13442000Y-17368200D01*
X19411000Y-9809800D02*
X19451000Y-9849800D01*
X19451000Y-9809800D02*
X19411000Y-9849800D01*
X19411000Y-9962200D02*
X19451000Y-10002200D01*
X19451000Y-9962200D02*
X19411000Y-10002200D01*
X21062000Y-9555800D02*
X21102000Y-9595800D01*
X21102000Y-9555800D02*
X21062000Y-9595800D01*
X21062000Y-9708200D02*
X21102000Y-9748200D01*
X21102000Y-9708200D02*
X21062000Y-9748200D01*
X32746000Y-13619800D02*
X32786000Y-13659800D01*
X32786000Y-13619800D02*
X32746000Y-13659800D01*
X32746000Y-13772200D02*
X32786000Y-13812200D01*
X32786000Y-13772200D02*
X32746000Y-13812200D01*
X34397000Y-13365800D02*
X34437000Y-13405800D01*
X34437000Y-13365800D02*
X34397000Y-13405800D01*
X34397000Y-13518200D02*
X34437000Y-13558200D01*
X34437000Y-13518200D02*
X34397000Y-13558200D01*
X19411000Y-17429800D02*
X19451000Y-17469800D01*
X19451000Y-17429800D02*
X19411000Y-17469800D01*
X19411000Y-17582200D02*
X19451000Y-17622200D01*
X19451000Y-17582200D02*
X19411000Y-17622200D01*
X21062000Y-17175800D02*
X21102000Y-17215800D01*
X21102000Y-17175800D02*
X21062000Y-17215800D01*
X21062000Y-17328200D02*
X21102000Y-17368200D01*
X21102000Y-17328200D02*
X21062000Y-17368200D01*
X7981000Y-17429800D02*
X8021000Y-17469800D01*
X8021000Y-17429800D02*
X7981000Y-17469800D01*
X7981000Y-17582200D02*
X8021000Y-17622200D01*
X8021000Y-17582200D02*
X7981000Y-17622200D01*
X9632000Y-17175800D02*
X9672000Y-17215800D01*
X9672000Y-17175800D02*
X9632000Y-17215800D01*
X9632000Y-17328200D02*
X9672000Y-17368200D01*
X9672000Y-17328200D02*
X9632000Y-17368200D01*
X17506000Y-13619800D02*
X17546000Y-13659800D01*
X17546000Y-13619800D02*
X17506000Y-13659800D01*
X17506000Y-13772200D02*
X17546000Y-13812200D01*
X17546000Y-13772200D02*
X17506000Y-13812200D01*
X19157000Y-13365800D02*
X19197000Y-13405800D01*
X19197000Y-13365800D02*
X19157000Y-13405800D01*
X19157000Y-13518200D02*
X19197000Y-13558200D01*
X19197000Y-13518200D02*
X19157000Y-13558200D01*
X21316000Y-15524800D02*
X21356000Y-15564800D01*
X21356000Y-15524800D02*
X21316000Y-15564800D01*
X21316000Y-15677200D02*
X21356000Y-15717200D01*
X21356000Y-15677200D02*
X21316000Y-15717200D01*
X22967000Y-15270800D02*
X23007000Y-15310800D01*
X23007000Y-15270800D02*
X22967000Y-15310800D01*
X22967000Y-15423200D02*
X23007000Y-15463200D01*
X23007000Y-15423200D02*
X22967000Y-15463200D01*
X6076000Y-13619800D02*
X6116000Y-13659800D01*
X6116000Y-13619800D02*
X6076000Y-13659800D01*
X6076000Y-13772200D02*
X6116000Y-13812200D01*
X6116000Y-13772200D02*
X6076000Y-13812200D01*
X7727000Y-13365800D02*
X7767000Y-13405800D01*
X7767000Y-13365800D02*
X7727000Y-13405800D01*
X7727000Y-13518200D02*
X7767000Y-13558200D01*
X7767000Y-13518200D02*
X7727000Y-13558200D01*
X11791000Y-11714800D02*
X11831000Y-11754800D01*
X11831000Y-11714800D02*
X11791000Y-11754800D01*
X11791000Y-11867200D02*
X11831000Y-11907200D01*
X11831000Y-11867200D02*
X11791000Y-11907200D01*
X13442000Y-11460800D02*
X13482000Y-11500800D01*
X13482000Y-11460800D02*
X13442000Y-11500800D01*
X13442000Y-11613200D02*
X13482000Y-11653200D01*
X13482000Y-11613200D02*
X13442000Y-11653200D01*
X28936000Y-19334800D02*
X28976000Y-19374800D01*
X28976000Y-19334800D02*
X28936000Y-19374800D01*
X28936000Y-19487200D02*
X28976000Y-19527200D01*
X28976000Y-19487200D02*
X28936000Y-19527200D01*
X30587000Y-19080800D02*
X30627000Y-19120800D01*
X30627000Y-19080800D02*
X30587000Y-19120800D01*
X30587000Y-19233200D02*
X30627000Y-19273200D01*
X30627000Y-19233200D02*
X30587000Y-19273200D01*
X13696000Y-19334800D02*
X13736000Y-19374800D01*
X13736000Y-19334800D02*
X13696000Y-19374800D01*
X13696000Y-19487200D02*
X13736000Y-19527200D01*
X13736000Y-19487200D02*
X13696000Y-19527200D01*
X15347000Y-19080800D02*
X15387000Y-19120800D01*
X15387000Y-19080800D02*
X15347000Y-19120800D01*
X15347000Y-19233200D02*
X15387000Y-19273200D01*
X15387000Y-19233200D02*
X15347000Y-19273200D01*
X34651000Y-17429800D02*
X34691000Y-17469800D01*
X34691000Y-17429800D02*
X34651000Y-17469800D01*
X34651000Y-17582200D02*
X34691000Y-17622200D01*
X34691000Y-17582200D02*
X34651000Y-17622200D01*
X36302000Y-17175800D02*
X36342000Y-17215800D01*
X36342000Y-17175800D02*
X36302000Y-17215800D01*
X36302000Y-17328200D02*
X36342000Y-17368200D01*
X36342000Y-17328200D02*
X36302000Y-17368200D01*
X21316000Y-13619800D02*
X21356000Y-13659800D01*
X21356000Y-13619800D02*
X21316000Y-13659800D01*
X21316000Y-13772200D02*
X21356000Y-13812200D01*
X21356000Y-13772200D02*
X21316000Y-13812200D01*
X22967000Y-13365800D02*
X23007000Y-13405800D01*
X23007000Y-13365800D02*
X22967000Y-13405800D01*
X22967000Y-13518200D02*
X23007000Y-13558200D01*
X23007000Y-13518200D02*
X22967000Y-13558200D01*
X4171000Y-15524800D02*
X4211000Y-15564800D01*
X4211000Y-15524800D02*
X4171000Y-15564800D01*
X4171000Y-15677200D02*
X4211000Y-15717200D01*
X4211000Y-15677200D02*
X4171000Y-15717200D01*
X5822000Y-15270800D02*
X5862000Y-15310800D01*
X5862000Y-15270800D02*
X5822000Y-15310800D01*
X5822000Y-15423200D02*
X5862000Y-15463200D01*
X5862000Y-15423200D02*
X5822000Y-15463200D01*
X9886000Y-9809800D02*
X9926000Y-9849800D01*
X9926000Y-9809800D02*
X9886000Y-9849800D01*
X9886000Y-9962200D02*
X9926000Y-10002200D01*
X9926000Y-9962200D02*
X9886000Y-10002200D01*
X11537000Y-9555800D02*
X11577000Y-9595800D01*
X11577000Y-9555800D02*
X11537000Y-9595800D01*
X11537000Y-9708200D02*
X11577000Y-9748200D01*
X11577000Y-9708200D02*
X11537000Y-9748200D01*
X25126000Y-11714800D02*
X25166000Y-11754800D01*
X25166000Y-11714800D02*
X25126000Y-11754800D01*
X25126000Y-11867200D02*
X25166000Y-11907200D01*
X25166000Y-11867200D02*
X25126000Y-11907200D01*
X26777000Y-11460800D02*
X26817000Y-11500800D01*
X26817000Y-11460800D02*
X26777000Y-11500800D01*
X26777000Y-11613200D02*
X26817000Y-11653200D01*
X26817000Y-11613200D02*
X26777000Y-11653200D01*
X13696000Y-17429800D02*
X13736000Y-17469800D01*
X13736000Y-17429800D02*
X13696000Y-17469800D01*
X13696000Y-17582200D02*
X13736000Y-17622200D01*
X13736000Y-17582200D02*
X13696000Y-17622200D01*
X15347000Y-17175800D02*
X15387000Y-17215800D01*
X15387000Y-17175800D02*
X15347000Y-17215800D01*
X15347000Y-17328200D02*
X15387000Y-17368200D01*
X15387000Y-17328200D02*
X15347000Y-17368200D01*
X34651000Y-11714800D02*
X34691000Y-11754800D01*
X34691000Y-11714800D02*
X34651000Y-11754800D01*
X34651000Y-11867200D02*
X34691000Y-11907200D01*
X34691000Y-11867200D02*
X34651000Y-11907200D01*
X36302000Y-11460800D02*
X36342000Y-11500800D01*
X36342000Y-11460800D02*
X36302000Y-11500800D01*
X36302000Y-11613200D02*
X36342000Y-11653200D01*
X36342000Y-11613200D02*
X36302000Y-11653200D01*
X23221000Y-17429800D02*
X23261000Y-17469800D01*
X23261000Y-17429800D02*
X23221000Y-17469800D01*
X23221000Y-17582200D02*
X23261000Y-17622200D01*
X23261000Y-17582200D02*
X23221000Y-17622200D01*
X24872000Y-17175800D02*
X24912000Y-17215800D01*
X24912000Y-17175800D02*
X24872000Y-17215800D01*
X24872000Y-17328200D02*
X24912000Y-17368200D01*
X24912000Y-17328200D02*
X24872000Y-17368200D01*
X9886000Y-17429800D02*
X9926000Y-17469800D01*
X9926000Y-17429800D02*
X9886000Y-17469800D01*
X9886000Y-17582200D02*
X9926000Y-17622200D01*
X9926000Y-17582200D02*
X9886000Y-17622200D01*
X11537000Y-17175800D02*
X11577000Y-17215800D01*
X11577000Y-17175800D02*
X11537000Y-17215800D01*
X11537000Y-17328200D02*
X11577000Y-17368200D01*
X11577000Y-17328200D02*
X11537000Y-17368200D01*
X27031000Y-11714800D02*
X27071000Y-11754800D01*
X27071000Y-11714800D02*
X27031000Y-11754800D01*
X27031000Y-11867200D02*
X27071000Y-11907200D01*
X27071000Y-11867200D02*
X27031000Y-11907200D01*
X28682000Y-11460800D02*
X28722000Y-11500800D01*
X28722000Y-11460800D02*
X28682000Y-11500800D01*
X28682000Y-11613200D02*
X28722000Y-11653200D01*
X28722000Y-11613200D02*
X28682000Y-11653200D01*
X30841000Y-17429800D02*
X30881000Y-17469800D01*
X30881000Y-17429800D02*
X30841000Y-17469800D01*
X30841000Y-17582200D02*
X30881000Y-17622200D01*
X30881000Y-17582200D02*
X30841000Y-17622200D01*
X32492000Y-17175800D02*
X32532000Y-17215800D01*
X32532000Y-17175800D02*
X32492000Y-17215800D01*
X32492000Y-17328200D02*
X32532000Y-17368200D01*
X32532000Y-17328200D02*
X32492000Y-17368200D01*
X23221000Y-15524800D02*
X23261000Y-15564800D01*
X23261000Y-15524800D02*
X23221000Y-15564800D01*
X23221000Y-15677200D02*
X23261000Y-15717200D01*
X23261000Y-15677200D02*
X23221000Y-15717200D01*
X24872000Y-15270800D02*
X24912000Y-15310800D01*
X24912000Y-15270800D02*
X24872000Y-15310800D01*
X24872000Y-15423200D02*
X24912000Y-15463200D01*
X24912000Y-15423200D02*
X24872000Y-15463200D01*
X32122700Y-7366000D02*
G75*
G03X32122700Y-7366000I-25000J0D01*
G01*
X32222700Y-7366000D02*
G75*
G03X32222700Y-7366000I-25000J0D01*
G01*
X32322700Y-7366000D02*
G75*
G03X32322700Y-7366000I-25000J0D01*
G01*
X32422700Y-7366000D02*
G75*
G03X32422700Y-7366000I-25000J0D01*
G01*
X34307100Y-8528050D02*
G75*
G03X34307100Y-8528050I-25000J0D01*
G01*
X34407100Y-8528050D02*
G75*
G03X34407100Y-8528050I-25000J0D01*
G01*
X34507100Y-8528050D02*
G75*
G03X34507100Y-8528050I-25000J0D01*
G01*
X34607100Y-8528050D02*
G75*
G03X34607100Y-8528050I-25000J0D01*
G01*
X33718100Y-6223000D02*
G75*
G03X33718100Y-6223000I-25000J0D01*
G01*
X33818100Y-6223000D02*
G75*
G03X33818100Y-6223000I-25000J0D01*
G01*
X33918100Y-6223000D02*
G75*
G03X33918100Y-6223000I-25000J0D01*
G01*
X34018100Y-6223000D02*
G75*
G03X34018100Y-6223000I-25000J0D01*
G01*
X34118100Y-6223000D02*
G75*
G03X34118100Y-6223000I-25000J0D01*
G01*
X34218100Y-6223000D02*
G75*
G03X34218100Y-6223000I-25000J0D01*
G01*
X34318100Y-6223000D02*
G75*
G03X34318100Y-6223000I-25000J0D01*
G01*
X34418100Y-6223000D02*
G75*
G03X34418100Y-6223000I-25000J0D01*
G01*
X33424500Y-8293100D02*
G75*
G03X33424500Y-8293100I-25000J0D01*
G01*
X33524500Y-8293100D02*
G75*
G03X33524500Y-8293100I-25000J0D01*
G01*
X33624500Y-8293100D02*
G75*
G03X33624500Y-8293100I-25000J0D01*
G01*
X33724500Y-8293100D02*
G75*
G03X33724500Y-8293100I-25000J0D01*
G01*
X33824500Y-8293100D02*
G75*
G03X33824500Y-8293100I-25000J0D01*
G01*
X33924500Y-8293100D02*
G75*
G03X33924500Y-8293100I-25000J0D01*
G01*
X34024500Y-8293100D02*
G75*
G03X34024500Y-8293100I-25000J0D01*
G01*
X34124500Y-8293100D02*
G75*
G03X34124500Y-8293100I-25000J0D01*
G01*
X32321100Y-7874000D02*
G75*
G03X32321100Y-7874000I-25000J0D01*
G01*
X33414900Y-6223000D02*
G75*
G03X33414900Y-6223000I-25000J0D01*
G01*
X33514900Y-6223000D02*
G75*
G03X33514900Y-6223000I-25000J0D01*
G01*
X32218000Y-8293100D02*
G75*
G03X32218000Y-8293100I-25000J0D01*
G01*
X32318000Y-8293100D02*
G75*
G03X32318000Y-8293100I-25000J0D01*
G01*
X32418000Y-8293100D02*
G75*
G03X32418000Y-8293100I-25000J0D01*
G01*
X32518000Y-8293100D02*
G75*
G03X32518000Y-8293100I-25000J0D01*
G01*
X32618000Y-8293100D02*
G75*
G03X32618000Y-8293100I-25000J0D01*
G01*
X32718000Y-8293100D02*
G75*
G03X32718000Y-8293100I-25000J0D01*
G01*
X32818000Y-8293100D02*
G75*
G03X32818000Y-8293100I-25000J0D01*
G01*
X32918000Y-8293100D02*
G75*
G03X32918000Y-8293100I-25000J0D01*
G01*
X34607100Y-7037400D02*
G75*
G03X34607100Y-7037400I-25000J0D01*
G01*
X34607100Y-7137400D02*
G75*
G03X34607100Y-7137400I-25000J0D01*
G01*
X32116400Y-6223000D02*
G75*
G03X32116400Y-6223000I-25000J0D01*
G01*
X32216400Y-6223000D02*
G75*
G03X32216400Y-6223000I-25000J0D01*
G01*
X32316400Y-6223000D02*
G75*
G03X32316400Y-6223000I-25000J0D01*
G01*
X32416400Y-6223000D02*
G75*
G03X32416400Y-6223000I-25000J0D01*
G01*
X32516400Y-6223000D02*
G75*
G03X32516400Y-6223000I-25000J0D01*
G01*
X32616400Y-6223000D02*
G75*
G03X32616400Y-6223000I-25000J0D01*
G01*
X32716400Y-6223000D02*
G75*
G03X32716400Y-6223000I-25000J0D01*
G01*
X32816400Y-6223000D02*
G75*
G03X32816400Y-6223000I-25000J0D01*
G01*
X34810350Y-8528050D02*
G75*
G03X34810350Y-8528050I-25000J0D01*
G01*
X34910350Y-8528050D02*
G75*
G03X34910350Y-8528050I-25000J0D01*
G01*
X35010350Y-8528050D02*
G75*
G03X35010350Y-8528050I-25000J0D01*
G01*
X35110350Y-8528050D02*
G75*
G03X35110350Y-8528050I-25000J0D01*
G01*
X35210350Y-8528050D02*
G75*
G03X35210350Y-8528050I-25000J0D01*
G01*
X33121200Y-8293100D02*
G75*
G03X33121200Y-8293100I-25000J0D01*
G01*
X33221200Y-8293100D02*
G75*
G03X33221200Y-8293100I-25000J0D01*
G01*
X32122700Y-7137400D02*
G75*
G03X32122700Y-7137400I-25000J0D01*
G01*
X32222700Y-7137400D02*
G75*
G03X32222700Y-7137400I-25000J0D01*
G01*
X32322700Y-7137400D02*
G75*
G03X32322700Y-7137400I-25000J0D01*
G01*
X32422700Y-7137400D02*
G75*
G03X32422700Y-7137400I-25000J0D01*
G01*
X35410400Y-8528050D02*
G75*
G03X35410400Y-8528050I-25000J0D01*
G01*
X35510400Y-8528050D02*
G75*
G03X35510400Y-8528050I-25000J0D01*
G01*
X35610400Y-8528050D02*
G75*
G03X35610400Y-8528050I-25000J0D01*
G01*
X34835900Y-6392800D02*
X34835900Y-6452800D01*
X34805900Y-6422800D02*
X34865900Y-6422800D01*
X34815900Y-6392800D02*
X34815900Y-6452800D01*
X34855900Y-6392800D02*
X34855900Y-6452800D01*
X34815900Y-6452800D02*
G75*
G03X34855900Y-6452800I20000J0D01*
G01*
X34855900Y-6392800D02*
G75*
G03X34815900Y-6392800I-20000J0D01*
G01*
X34835900Y-6810800D02*
X34835900Y-6870800D01*
X34805900Y-6840800D02*
X34865900Y-6840800D01*
X34815900Y-6785800D02*
X34815900Y-6895800D01*
X34855900Y-6785800D02*
X34855900Y-6895800D01*
X34815900Y-6895800D02*
G75*
G03X34855900Y-6895800I20000J0D01*
G01*
X34855900Y-6785800D02*
G75*
G03X34815900Y-6785800I-20000J0D01*
G01*
X35699900Y-6392800D02*
X35699900Y-6452800D01*
X35669900Y-6422800D02*
X35729900Y-6422800D01*
X35679900Y-6392800D02*
X35679900Y-6452800D01*
X35719900Y-6392800D02*
X35719900Y-6452800D01*
X35679900Y-6452800D02*
G75*
G03X35719900Y-6452800I20000J0D01*
G01*
X35719900Y-6392800D02*
G75*
G03X35679900Y-6392800I-20000J0D01*
G01*
X35699900Y-6810800D02*
X35699900Y-6870800D01*
X35669900Y-6840800D02*
X35729900Y-6840800D01*
X35679900Y-6785800D02*
X35679900Y-6895800D01*
X35719900Y-6785800D02*
X35719900Y-6895800D01*
X35679900Y-6895800D02*
G75*
G03X35719900Y-6895800I20000J0D01*
G01*
X35719900Y-6785800D02*
G75*
G03X35679900Y-6785800I-20000J0D01*
G01*
X31636491Y-6388891D02*
X31636491Y-6311109D01*
X31558709Y-6311109D01*
X31558709Y-6388891D01*
X31636491Y-6388891D01*
X31636491Y-6896891D02*
X31636491Y-6819109D01*
X31558709Y-6819109D01*
X31558709Y-6896891D01*
X31636491Y-6896891D01*
X31636491Y-7404891D02*
X31636491Y-7327109D01*
X31558709Y-7327109D01*
X31558709Y-7404891D01*
X31636491Y-7404891D01*
X8509000Y-19581000D02*
X8659000Y-19431000D01*
X8509000Y-19281000D01*
X8359000Y-19431000D01*
X8509000Y-19581000D01*
X9144000Y-19327000D02*
X9294000Y-19177000D01*
X9144000Y-19027000D01*
X8994000Y-19177000D01*
X9144000Y-19327000D01*
X14224000Y-10056000D02*
X14374000Y-9906000D01*
X14224000Y-9756000D01*
X14074000Y-9906000D01*
X14224000Y-10056000D01*
X14859000Y-9802000D02*
X15009000Y-9652000D01*
X14859000Y-9502000D01*
X14709000Y-9652000D01*
X14859000Y-9802000D01*
X6604000Y-11961000D02*
X6754000Y-11811000D01*
X6604000Y-11661000D01*
X6454000Y-11811000D01*
X6604000Y-11961000D01*
X7239000Y-11707000D02*
X7389000Y-11557000D01*
X7239000Y-11407000D01*
X7089000Y-11557000D01*
X7239000Y-11707000D01*
X10414000Y-11961000D02*
X10564000Y-11811000D01*
X10414000Y-11661000D01*
X10264000Y-11811000D01*
X10414000Y-11961000D01*
X11049000Y-11707000D02*
X11199000Y-11557000D01*
X11049000Y-11407000D01*
X10899000Y-11557000D01*
X11049000Y-11707000D01*
X18034000Y-15771000D02*
X18184000Y-15621000D01*
X18034000Y-15471000D01*
X17884000Y-15621000D01*
X18034000Y-15771000D01*
X18669000Y-15517000D02*
X18819000Y-15367000D01*
X18669000Y-15217000D01*
X18519000Y-15367000D01*
X18669000Y-15517000D01*
X19939000Y-15771000D02*
X20089000Y-15621000D01*
X19939000Y-15471000D01*
X19789000Y-15621000D01*
X19939000Y-15771000D01*
X20574000Y-15517000D02*
X20724000Y-15367000D01*
X20574000Y-15217000D01*
X20424000Y-15367000D01*
X20574000Y-15517000D01*
X8509000Y-11961000D02*
X8659000Y-11811000D01*
X8509000Y-11661000D01*
X8359000Y-11811000D01*
X8509000Y-11961000D01*
X9144000Y-11707000D02*
X9294000Y-11557000D01*
X9144000Y-11407000D01*
X8994000Y-11557000D01*
X9144000Y-11707000D01*
X29464000Y-10056000D02*
X29614000Y-9906000D01*
X29464000Y-9756000D01*
X29314000Y-9906000D01*
X29464000Y-10056000D01*
X30099000Y-9802000D02*
X30249000Y-9652000D01*
X30099000Y-9502000D01*
X29949000Y-9652000D01*
X30099000Y-9802000D01*
X16129000Y-19581000D02*
X16279000Y-19431000D01*
X16129000Y-19281000D01*
X15979000Y-19431000D01*
X16129000Y-19581000D01*
X16764000Y-19327000D02*
X16914000Y-19177000D01*
X16764000Y-19027000D01*
X16614000Y-19177000D01*
X16764000Y-19327000D01*
X35179000Y-19581000D02*
X35329000Y-19431000D01*
X35179000Y-19281000D01*
X35029000Y-19431000D01*
X35179000Y-19581000D01*
X35814000Y-19327000D02*
X35964000Y-19177000D01*
X35814000Y-19027000D01*
X35664000Y-19177000D01*
X35814000Y-19327000D01*
X23749000Y-13866000D02*
X23899000Y-13716000D01*
X23749000Y-13566000D01*
X23599000Y-13716000D01*
X23749000Y-13866000D01*
X24384000Y-13612000D02*
X24534000Y-13462000D01*
X24384000Y-13312000D01*
X24234000Y-13462000D01*
X24384000Y-13612000D01*
X6604000Y-17676000D02*
X6754000Y-17526000D01*
X6604000Y-17376000D01*
X6454000Y-17526000D01*
X6604000Y-17676000D01*
X7239000Y-17422000D02*
X7389000Y-17272000D01*
X7239000Y-17122000D01*
X7089000Y-17272000D01*
X7239000Y-17422000D01*
X10414000Y-15771000D02*
X10564000Y-15621000D01*
X10414000Y-15471000D01*
X10264000Y-15621000D01*
X10414000Y-15771000D01*
X11049000Y-15517000D02*
X11199000Y-15367000D01*
X11049000Y-15217000D01*
X10899000Y-15367000D01*
X11049000Y-15517000D01*
X29464000Y-13866000D02*
X29614000Y-13716000D01*
X29464000Y-13566000D01*
X29314000Y-13716000D01*
X29464000Y-13866000D01*
X30099000Y-13612000D02*
X30249000Y-13462000D01*
X30099000Y-13312000D01*
X29949000Y-13462000D01*
X30099000Y-13612000D01*
X18034000Y-10056000D02*
X18184000Y-9906000D01*
X18034000Y-9756000D01*
X17884000Y-9906000D01*
X18034000Y-10056000D01*
X18669000Y-9802000D02*
X18819000Y-9652000D01*
X18669000Y-9502000D01*
X18519000Y-9652000D01*
X18669000Y-9802000D01*
X33274000Y-17676000D02*
X33424000Y-17526000D01*
X33274000Y-17376000D01*
X33124000Y-17526000D01*
X33274000Y-17676000D01*
X33909000Y-17422000D02*
X34059000Y-17272000D01*
X33909000Y-17122000D01*
X33759000Y-17272000D01*
X33909000Y-17422000D01*
X19939000Y-13866000D02*
X20089000Y-13716000D01*
X19939000Y-13566000D01*
X19789000Y-13716000D01*
X19939000Y-13866000D01*
X20574000Y-13612000D02*
X20724000Y-13462000D01*
X20574000Y-13312000D01*
X20424000Y-13462000D01*
X20574000Y-13612000D01*
X4699000Y-13866000D02*
X4849000Y-13716000D01*
X4699000Y-13566000D01*
X4549000Y-13716000D01*
X4699000Y-13866000D01*
X5334000Y-13612000D02*
X5484000Y-13462000D01*
X5334000Y-13312000D01*
X5184000Y-13462000D01*
X5334000Y-13612000D01*
X10414000Y-19581000D02*
X10564000Y-19431000D01*
X10414000Y-19281000D01*
X10264000Y-19431000D01*
X10414000Y-19581000D01*
X11049000Y-19327000D02*
X11199000Y-19177000D01*
X11049000Y-19027000D01*
X10899000Y-19177000D01*
X11049000Y-19327000D01*
X27559000Y-10056000D02*
X27709000Y-9906000D01*
X27559000Y-9756000D01*
X27409000Y-9906000D01*
X27559000Y-10056000D01*
X28194000Y-9802000D02*
X28344000Y-9652000D01*
X28194000Y-9502000D01*
X28044000Y-9652000D01*
X28194000Y-9802000D01*
X33274000Y-10056000D02*
X33424000Y-9906000D01*
X33274000Y-9756000D01*
X33124000Y-9906000D01*
X33274000Y-10056000D01*
X33909000Y-9802000D02*
X34059000Y-9652000D01*
X33909000Y-9502000D01*
X33759000Y-9652000D01*
X33909000Y-9802000D01*
X23749000Y-10056000D02*
X23899000Y-9906000D01*
X23749000Y-9756000D01*
X23599000Y-9906000D01*
X23749000Y-10056000D01*
X24384000Y-9802000D02*
X24534000Y-9652000D01*
X24384000Y-9502000D01*
X24234000Y-9652000D01*
X24384000Y-9802000D01*
X29464000Y-11961000D02*
X29614000Y-11811000D01*
X29464000Y-11661000D01*
X29314000Y-11811000D01*
X29464000Y-11961000D01*
X30099000Y-11707000D02*
X30249000Y-11557000D01*
X30099000Y-11407000D01*
X29949000Y-11557000D01*
X30099000Y-11707000D01*
X35179000Y-10056000D02*
X35329000Y-9906000D01*
X35179000Y-9756000D01*
X35029000Y-9906000D01*
X35179000Y-10056000D01*
X35814000Y-9802000D02*
X35964000Y-9652000D01*
X35814000Y-9502000D01*
X35664000Y-9652000D01*
X35814000Y-9802000D01*
X23749000Y-11961000D02*
X23899000Y-11811000D01*
X23749000Y-11661000D01*
X23599000Y-11811000D01*
X23749000Y-11961000D01*
X24384000Y-11707000D02*
X24534000Y-11557000D01*
X24384000Y-11407000D01*
X24234000Y-11557000D01*
X24384000Y-11707000D01*
X31369000Y-10056000D02*
X31519000Y-9906000D01*
X31369000Y-9756000D01*
X31219000Y-9906000D01*
X31369000Y-10056000D01*
X32004000Y-9802000D02*
X32154000Y-9652000D01*
X32004000Y-9502000D01*
X31854000Y-9652000D01*
X32004000Y-9802000D01*
X35179000Y-13866000D02*
X35329000Y-13716000D01*
X35179000Y-13566000D01*
X35029000Y-13716000D01*
X35179000Y-13866000D01*
X35814000Y-13612000D02*
X35964000Y-13462000D01*
X35814000Y-13312000D01*
X35664000Y-13462000D01*
X35814000Y-13612000D01*
X25654000Y-10056000D02*
X25804000Y-9906000D01*
X25654000Y-9756000D01*
X25504000Y-9906000D01*
X25654000Y-10056000D01*
X26289000Y-9802000D02*
X26439000Y-9652000D01*
X26289000Y-9502000D01*
X26139000Y-9652000D01*
X26289000Y-9802000D01*
X27559000Y-17676000D02*
X27709000Y-17526000D01*
X27559000Y-17376000D01*
X27409000Y-17526000D01*
X27559000Y-17676000D01*
X28194000Y-17422000D02*
X28344000Y-17272000D01*
X28194000Y-17122000D01*
X28044000Y-17272000D01*
X28194000Y-17422000D01*
X18034000Y-11961000D02*
X18184000Y-11811000D01*
X18034000Y-11661000D01*
X17884000Y-11811000D01*
X18034000Y-11961000D01*
X18669000Y-11707000D02*
X18819000Y-11557000D01*
X18669000Y-11407000D01*
X18519000Y-11557000D01*
X18669000Y-11707000D01*
X12319000Y-13866000D02*
X12469000Y-13716000D01*
X12319000Y-13566000D01*
X12169000Y-13716000D01*
X12319000Y-13866000D01*
X12954000Y-13612000D02*
X13104000Y-13462000D01*
X12954000Y-13312000D01*
X12804000Y-13462000D01*
X12954000Y-13612000D01*
X16129000Y-15771000D02*
X16279000Y-15621000D01*
X16129000Y-15471000D01*
X15979000Y-15621000D01*
X16129000Y-15771000D01*
X16764000Y-15517000D02*
X16914000Y-15367000D01*
X16764000Y-15217000D01*
X16614000Y-15367000D01*
X16764000Y-15517000D01*
X8509000Y-13866000D02*
X8659000Y-13716000D01*
X8509000Y-13566000D01*
X8359000Y-13716000D01*
X8509000Y-13866000D01*
X9144000Y-13612000D02*
X9294000Y-13462000D01*
X9144000Y-13312000D01*
X8994000Y-13462000D01*
X9144000Y-13612000D01*
X14224000Y-11961000D02*
X14374000Y-11811000D01*
X14224000Y-11661000D01*
X14074000Y-11811000D01*
X14224000Y-11961000D01*
X14859000Y-11707000D02*
X15009000Y-11557000D01*
X14859000Y-11407000D01*
X14709000Y-11557000D01*
X14859000Y-11707000D01*
X19939000Y-19581000D02*
X20089000Y-19431000D01*
X19939000Y-19281000D01*
X19789000Y-19431000D01*
X19939000Y-19581000D01*
X20574000Y-19327000D02*
X20724000Y-19177000D01*
X20574000Y-19027000D01*
X20424000Y-19177000D01*
X20574000Y-19327000D01*
X4699000Y-10056000D02*
X4849000Y-9906000D01*
X4699000Y-9756000D01*
X4549000Y-9906000D01*
X4699000Y-10056000D01*
X5334000Y-9802000D02*
X5484000Y-9652000D01*
X5334000Y-9502000D01*
X5184000Y-9652000D01*
X5334000Y-9802000D01*
X12319000Y-19581000D02*
X12469000Y-19431000D01*
X12319000Y-19281000D01*
X12169000Y-19431000D01*
X12319000Y-19581000D01*
X12954000Y-19327000D02*
X13104000Y-19177000D01*
X12954000Y-19027000D01*
X12804000Y-19177000D01*
X12954000Y-19327000D01*
X18034000Y-19581000D02*
X18184000Y-19431000D01*
X18034000Y-19281000D01*
X17884000Y-19431000D01*
X18034000Y-19581000D01*
X18669000Y-19327000D02*
X18819000Y-19177000D01*
X18669000Y-19027000D01*
X18519000Y-19177000D01*
X18669000Y-19327000D01*
X31369000Y-13866000D02*
X31519000Y-13716000D01*
X31369000Y-13566000D01*
X31219000Y-13716000D01*
X31369000Y-13866000D01*
X32004000Y-13612000D02*
X32154000Y-13462000D01*
X32004000Y-13312000D01*
X31854000Y-13462000D01*
X32004000Y-13612000D01*
X23749000Y-19581000D02*
X23899000Y-19431000D01*
X23749000Y-19281000D01*
X23599000Y-19431000D01*
X23749000Y-19581000D01*
X24384000Y-19327000D02*
X24534000Y-19177000D01*
X24384000Y-19027000D01*
X24234000Y-19177000D01*
X24384000Y-19327000D01*
X4699000Y-19581000D02*
X4849000Y-19431000D01*
X4699000Y-19281000D01*
X4549000Y-19431000D01*
X4699000Y-19581000D01*
X5334000Y-19327000D02*
X5484000Y-19177000D01*
X5334000Y-19027000D01*
X5184000Y-19177000D01*
X5334000Y-19327000D01*
X12319000Y-10056000D02*
X12469000Y-9906000D01*
X12319000Y-9756000D01*
X12169000Y-9906000D01*
X12319000Y-10056000D01*
X12954000Y-9802000D02*
X13104000Y-9652000D01*
X12954000Y-9502000D01*
X12804000Y-9652000D01*
X12954000Y-9802000D01*
X25654000Y-15771000D02*
X25804000Y-15621000D01*
X25654000Y-15471000D01*
X25504000Y-15621000D01*
X25654000Y-15771000D01*
X26289000Y-15517000D02*
X26439000Y-15367000D01*
X26289000Y-15217000D01*
X26139000Y-15367000D01*
X26289000Y-15517000D01*
X16129000Y-11961000D02*
X16279000Y-11811000D01*
X16129000Y-11661000D01*
X15979000Y-11811000D01*
X16129000Y-11961000D01*
X16764000Y-11707000D02*
X16914000Y-11557000D01*
X16764000Y-11407000D01*
X16614000Y-11557000D01*
X16764000Y-11707000D01*
X31369000Y-11961000D02*
X31519000Y-11811000D01*
X31369000Y-11661000D01*
X31219000Y-11811000D01*
X31369000Y-11961000D01*
X32004000Y-11707000D02*
X32154000Y-11557000D01*
X32004000Y-11407000D01*
X31854000Y-11557000D01*
X32004000Y-11707000D01*
X21844000Y-17676000D02*
X21994000Y-17526000D01*
X21844000Y-17376000D01*
X21694000Y-17526000D01*
X21844000Y-17676000D01*
X22479000Y-17422000D02*
X22629000Y-17272000D01*
X22479000Y-17122000D01*
X22329000Y-17272000D01*
X22479000Y-17422000D01*
X6604000Y-10056000D02*
X6754000Y-9906000D01*
X6604000Y-9756000D01*
X6454000Y-9906000D01*
X6604000Y-10056000D01*
X7239000Y-9802000D02*
X7389000Y-9652000D01*
X7239000Y-9502000D01*
X7089000Y-9652000D01*
X7239000Y-9802000D01*
X12319000Y-15771000D02*
X12469000Y-15621000D01*
X12319000Y-15471000D01*
X12169000Y-15621000D01*
X12319000Y-15771000D01*
X12954000Y-15517000D02*
X13104000Y-15367000D01*
X12954000Y-15217000D01*
X12804000Y-15367000D01*
X12954000Y-15517000D01*
X29464000Y-15771000D02*
X29614000Y-15621000D01*
X29464000Y-15471000D01*
X29314000Y-15621000D01*
X29464000Y-15771000D01*
X30099000Y-15517000D02*
X30249000Y-15367000D01*
X30099000Y-15217000D01*
X29949000Y-15367000D01*
X30099000Y-15517000D01*
X16129000Y-10056000D02*
X16279000Y-9906000D01*
X16129000Y-9756000D01*
X15979000Y-9906000D01*
X16129000Y-10056000D01*
X16764000Y-9802000D02*
X16914000Y-9652000D01*
X16764000Y-9502000D01*
X16614000Y-9652000D01*
X16764000Y-9802000D01*
X35179000Y-15771000D02*
X35329000Y-15621000D01*
X35179000Y-15471000D01*
X35029000Y-15621000D01*
X35179000Y-15771000D01*
X35814000Y-15517000D02*
X35964000Y-15367000D01*
X35814000Y-15217000D01*
X35664000Y-15367000D01*
X35814000Y-15517000D01*
X19939000Y-11961000D02*
X20089000Y-11811000D01*
X19939000Y-11661000D01*
X19789000Y-11811000D01*
X19939000Y-11961000D01*
X20574000Y-11707000D02*
X20724000Y-11557000D01*
X20574000Y-11407000D01*
X20424000Y-11557000D01*
X20574000Y-11707000D01*
X4699000Y-11961000D02*
X4849000Y-11811000D01*
X4699000Y-11661000D01*
X4549000Y-11811000D01*
X4699000Y-11961000D01*
X5334000Y-11707000D02*
X5484000Y-11557000D01*
X5334000Y-11407000D01*
X5184000Y-11557000D01*
X5334000Y-11707000D01*
X10414000Y-13866000D02*
X10564000Y-13716000D01*
X10414000Y-13566000D01*
X10264000Y-13716000D01*
X10414000Y-13866000D01*
X11049000Y-13612000D02*
X11199000Y-13462000D01*
X11049000Y-13312000D01*
X10899000Y-13462000D01*
X11049000Y-13612000D01*
X25654000Y-17676000D02*
X25804000Y-17526000D01*
X25654000Y-17376000D01*
X25504000Y-17526000D01*
X25654000Y-17676000D01*
X26289000Y-17422000D02*
X26439000Y-17272000D01*
X26289000Y-17122000D01*
X26139000Y-17272000D01*
X26289000Y-17422000D01*
X31369000Y-19581000D02*
X31519000Y-19431000D01*
X31369000Y-19281000D01*
X31219000Y-19431000D01*
X31369000Y-19581000D01*
X32004000Y-19327000D02*
X32154000Y-19177000D01*
X32004000Y-19027000D01*
X31854000Y-19177000D01*
X32004000Y-19327000D01*
X21844000Y-11961000D02*
X21994000Y-11811000D01*
X21844000Y-11661000D01*
X21694000Y-11811000D01*
X21844000Y-11961000D01*
X22479000Y-11707000D02*
X22629000Y-11557000D01*
X22479000Y-11407000D01*
X22329000Y-11557000D01*
X22479000Y-11707000D01*
X27559000Y-15771000D02*
X27709000Y-15621000D01*
X27559000Y-15471000D01*
X27409000Y-15621000D01*
X27559000Y-15771000D01*
X28194000Y-15517000D02*
X28344000Y-15367000D01*
X28194000Y-15217000D01*
X28044000Y-15367000D01*
X28194000Y-15517000D01*
X33274000Y-15771000D02*
X33424000Y-15621000D01*
X33274000Y-15471000D01*
X33124000Y-15621000D01*
X33274000Y-15771000D01*
X33909000Y-15517000D02*
X34059000Y-15367000D01*
X33909000Y-15217000D01*
X33759000Y-15367000D01*
X33909000Y-15517000D01*
X21844000Y-19581000D02*
X21994000Y-19431000D01*
X21844000Y-19281000D01*
X21694000Y-19431000D01*
X21844000Y-19581000D01*
X22479000Y-19327000D02*
X22629000Y-19177000D01*
X22479000Y-19027000D01*
X22329000Y-19177000D01*
X22479000Y-19327000D01*
X27559000Y-19581000D02*
X27709000Y-19431000D01*
X27559000Y-19281000D01*
X27409000Y-19431000D01*
X27559000Y-19581000D01*
X28194000Y-19327000D02*
X28344000Y-19177000D01*
X28194000Y-19027000D01*
X28044000Y-19177000D01*
X28194000Y-19327000D01*
X31369000Y-15771000D02*
X31519000Y-15621000D01*
X31369000Y-15471000D01*
X31219000Y-15621000D01*
X31369000Y-15771000D01*
X32004000Y-15517000D02*
X32154000Y-15367000D01*
X32004000Y-15217000D01*
X31854000Y-15367000D01*
X32004000Y-15517000D01*
X25654000Y-13866000D02*
X25804000Y-13716000D01*
X25654000Y-13566000D01*
X25504000Y-13716000D01*
X25654000Y-13866000D01*
X26289000Y-13612000D02*
X26439000Y-13462000D01*
X26289000Y-13312000D01*
X26139000Y-13462000D01*
X26289000Y-13612000D01*
X16129000Y-17676000D02*
X16279000Y-17526000D01*
X16129000Y-17376000D01*
X15979000Y-17526000D01*
X16129000Y-17676000D01*
X16764000Y-17422000D02*
X16914000Y-17272000D01*
X16764000Y-17122000D01*
X16614000Y-17272000D01*
X16764000Y-17422000D01*
X6604000Y-15771000D02*
X6754000Y-15621000D01*
X6604000Y-15471000D01*
X6454000Y-15621000D01*
X6604000Y-15771000D01*
X7239000Y-15517000D02*
X7389000Y-15367000D01*
X7239000Y-15217000D01*
X7089000Y-15367000D01*
X7239000Y-15517000D01*
X8509000Y-15771000D02*
X8659000Y-15621000D01*
X8509000Y-15471000D01*
X8359000Y-15621000D01*
X8509000Y-15771000D01*
X9144000Y-15517000D02*
X9294000Y-15367000D01*
X9144000Y-15217000D01*
X8994000Y-15367000D01*
X9144000Y-15517000D01*
X14224000Y-13866000D02*
X14374000Y-13716000D01*
X14224000Y-13566000D01*
X14074000Y-13716000D01*
X14224000Y-13866000D01*
X14859000Y-13612000D02*
X15009000Y-13462000D01*
X14859000Y-13312000D01*
X14709000Y-13462000D01*
X14859000Y-13612000D01*
X33274000Y-11961000D02*
X33424000Y-11811000D01*
X33274000Y-11661000D01*
X33124000Y-11811000D01*
X33274000Y-11961000D01*
X33909000Y-11707000D02*
X34059000Y-11557000D01*
X33909000Y-11407000D01*
X33759000Y-11557000D01*
X33909000Y-11707000D01*
X6604000Y-19581000D02*
X6754000Y-19431000D01*
X6604000Y-19281000D01*
X6454000Y-19431000D01*
X6604000Y-19581000D01*
X7239000Y-19327000D02*
X7389000Y-19177000D01*
X7239000Y-19027000D01*
X7089000Y-19177000D01*
X7239000Y-19327000D01*
X12319000Y-17676000D02*
X12469000Y-17526000D01*
X12319000Y-17376000D01*
X12169000Y-17526000D01*
X12319000Y-17676000D01*
X12954000Y-17422000D02*
X13104000Y-17272000D01*
X12954000Y-17122000D01*
X12804000Y-17272000D01*
X12954000Y-17422000D01*
X19939000Y-10056000D02*
X20089000Y-9906000D01*
X19939000Y-9756000D01*
X19789000Y-9906000D01*
X19939000Y-10056000D01*
X20574000Y-9802000D02*
X20724000Y-9652000D01*
X20574000Y-9502000D01*
X20424000Y-9652000D01*
X20574000Y-9802000D01*
X33274000Y-13866000D02*
X33424000Y-13716000D01*
X33274000Y-13566000D01*
X33124000Y-13716000D01*
X33274000Y-13866000D01*
X33909000Y-13612000D02*
X34059000Y-13462000D01*
X33909000Y-13312000D01*
X33759000Y-13462000D01*
X33909000Y-13612000D01*
X19939000Y-17676000D02*
X20089000Y-17526000D01*
X19939000Y-17376000D01*
X19789000Y-17526000D01*
X19939000Y-17676000D01*
X20574000Y-17422000D02*
X20724000Y-17272000D01*
X20574000Y-17122000D01*
X20424000Y-17272000D01*
X20574000Y-17422000D01*
X8509000Y-17676000D02*
X8659000Y-17526000D01*
X8509000Y-17376000D01*
X8359000Y-17526000D01*
X8509000Y-17676000D01*
X9144000Y-17422000D02*
X9294000Y-17272000D01*
X9144000Y-17122000D01*
X8994000Y-17272000D01*
X9144000Y-17422000D01*
X18034000Y-13866000D02*
X18184000Y-13716000D01*
X18034000Y-13566000D01*
X17884000Y-13716000D01*
X18034000Y-13866000D01*
X18669000Y-13612000D02*
X18819000Y-13462000D01*
X18669000Y-13312000D01*
X18519000Y-13462000D01*
X18669000Y-13612000D01*
X21844000Y-15771000D02*
X21994000Y-15621000D01*
X21844000Y-15471000D01*
X21694000Y-15621000D01*
X21844000Y-15771000D01*
X22479000Y-15517000D02*
X22629000Y-15367000D01*
X22479000Y-15217000D01*
X22329000Y-15367000D01*
X22479000Y-15517000D01*
X6604000Y-13866000D02*
X6754000Y-13716000D01*
X6604000Y-13566000D01*
X6454000Y-13716000D01*
X6604000Y-13866000D01*
X7239000Y-13612000D02*
X7389000Y-13462000D01*
X7239000Y-13312000D01*
X7089000Y-13462000D01*
X7239000Y-13612000D01*
X12319000Y-11961000D02*
X12469000Y-11811000D01*
X12319000Y-11661000D01*
X12169000Y-11811000D01*
X12319000Y-11961000D01*
X12954000Y-11707000D02*
X13104000Y-11557000D01*
X12954000Y-11407000D01*
X12804000Y-11557000D01*
X12954000Y-11707000D01*
X29464000Y-19581000D02*
X29614000Y-19431000D01*
X29464000Y-19281000D01*
X29314000Y-19431000D01*
X29464000Y-19581000D01*
X30099000Y-19327000D02*
X30249000Y-19177000D01*
X30099000Y-19027000D01*
X29949000Y-19177000D01*
X30099000Y-19327000D01*
X14224000Y-19581000D02*
X14374000Y-19431000D01*
X14224000Y-19281000D01*
X14074000Y-19431000D01*
X14224000Y-19581000D01*
X14859000Y-19327000D02*
X15009000Y-19177000D01*
X14859000Y-19027000D01*
X14709000Y-19177000D01*
X14859000Y-19327000D01*
X35179000Y-17676000D02*
X35329000Y-17526000D01*
X35179000Y-17376000D01*
X35029000Y-17526000D01*
X35179000Y-17676000D01*
X35814000Y-17422000D02*
X35964000Y-17272000D01*
X35814000Y-17122000D01*
X35664000Y-17272000D01*
X35814000Y-17422000D01*
X21844000Y-13866000D02*
X21994000Y-13716000D01*
X21844000Y-13566000D01*
X21694000Y-13716000D01*
X21844000Y-13866000D01*
X22479000Y-13612000D02*
X22629000Y-13462000D01*
X22479000Y-13312000D01*
X22329000Y-13462000D01*
X22479000Y-13612000D01*
X4699000Y-15771000D02*
X4849000Y-15621000D01*
X4699000Y-15471000D01*
X4549000Y-15621000D01*
X4699000Y-15771000D01*
X5334000Y-15517000D02*
X5484000Y-15367000D01*
X5334000Y-15217000D01*
X5184000Y-15367000D01*
X5334000Y-15517000D01*
X10414000Y-10056000D02*
X10564000Y-9906000D01*
X10414000Y-9756000D01*
X10264000Y-9906000D01*
X10414000Y-10056000D01*
X11049000Y-9802000D02*
X11199000Y-9652000D01*
X11049000Y-9502000D01*
X10899000Y-9652000D01*
X11049000Y-9802000D01*
X25654000Y-11961000D02*
X25804000Y-11811000D01*
X25654000Y-11661000D01*
X25504000Y-11811000D01*
X25654000Y-11961000D01*
X26289000Y-11707000D02*
X26439000Y-11557000D01*
X26289000Y-11407000D01*
X26139000Y-11557000D01*
X26289000Y-11707000D01*
X14224000Y-17676000D02*
X14374000Y-17526000D01*
X14224000Y-17376000D01*
X14074000Y-17526000D01*
X14224000Y-17676000D01*
X14859000Y-17422000D02*
X15009000Y-17272000D01*
X14859000Y-17122000D01*
X14709000Y-17272000D01*
X14859000Y-17422000D01*
X35179000Y-11961000D02*
X35329000Y-11811000D01*
X35179000Y-11661000D01*
X35029000Y-11811000D01*
X35179000Y-11961000D01*
X35814000Y-11707000D02*
X35964000Y-11557000D01*
X35814000Y-11407000D01*
X35664000Y-11557000D01*
X35814000Y-11707000D01*
X23749000Y-17676000D02*
X23899000Y-17526000D01*
X23749000Y-17376000D01*
X23599000Y-17526000D01*
X23749000Y-17676000D01*
X24384000Y-17422000D02*
X24534000Y-17272000D01*
X24384000Y-17122000D01*
X24234000Y-17272000D01*
X24384000Y-17422000D01*
X10414000Y-17676000D02*
X10564000Y-17526000D01*
X10414000Y-17376000D01*
X10264000Y-17526000D01*
X10414000Y-17676000D01*
X11049000Y-17422000D02*
X11199000Y-17272000D01*
X11049000Y-17122000D01*
X10899000Y-17272000D01*
X11049000Y-17422000D01*
X27559000Y-11961000D02*
X27709000Y-11811000D01*
X27559000Y-11661000D01*
X27409000Y-11811000D01*
X27559000Y-11961000D01*
X28194000Y-11707000D02*
X28344000Y-11557000D01*
X28194000Y-11407000D01*
X28044000Y-11557000D01*
X28194000Y-11707000D01*
X31369000Y-17676000D02*
X31519000Y-17526000D01*
X31369000Y-17376000D01*
X31219000Y-17526000D01*
X31369000Y-17676000D01*
X32004000Y-17422000D02*
X32154000Y-17272000D01*
X32004000Y-17122000D01*
X31854000Y-17272000D01*
X32004000Y-17422000D01*
X23749000Y-15771000D02*
X23899000Y-15621000D01*
X23749000Y-15471000D01*
X23599000Y-15621000D01*
X23749000Y-15771000D01*
X24384000Y-15517000D02*
X24534000Y-15367000D01*
X24384000Y-15217000D01*
X24234000Y-15367000D01*
X24384000Y-15517000D01*
X18034000Y-17676000D02*
X18184000Y-17526000D01*
X18034000Y-17376000D01*
X17884000Y-17526000D01*
X18034000Y-17676000D01*
X18669000Y-17422000D02*
X18819000Y-17272000D01*
X18669000Y-17122000D01*
X18519000Y-17272000D01*
X18669000Y-17422000D01*
X25654000Y-19581000D02*
X25804000Y-19431000D01*
X25654000Y-19281000D01*
X25504000Y-19431000D01*
X25654000Y-19581000D01*
X26289000Y-19327000D02*
X26439000Y-19177000D01*
X26289000Y-19027000D01*
X26139000Y-19177000D01*
X26289000Y-19327000D01*
X33274000Y-19581000D02*
X33424000Y-19431000D01*
X33274000Y-19281000D01*
X33124000Y-19431000D01*
X33274000Y-19581000D01*
X33909000Y-19327000D02*
X34059000Y-19177000D01*
X33909000Y-19027000D01*
X33759000Y-19177000D01*
X33909000Y-19327000D01*
X21844000Y-10056000D02*
X21994000Y-9906000D01*
X21844000Y-9756000D01*
X21694000Y-9906000D01*
X21844000Y-10056000D01*
X22479000Y-9802000D02*
X22629000Y-9652000D01*
X22479000Y-9502000D01*
X22329000Y-9652000D01*
X22479000Y-9802000D01*
X29464000Y-17676000D02*
X29614000Y-17526000D01*
X29464000Y-17376000D01*
X29314000Y-17526000D01*
X29464000Y-17676000D01*
X30099000Y-17422000D02*
X30249000Y-17272000D01*
X30099000Y-17122000D01*
X29949000Y-17272000D01*
X30099000Y-17422000D01*
X14224000Y-15771000D02*
X14374000Y-15621000D01*
X14224000Y-15471000D01*
X14074000Y-15621000D01*
X14224000Y-15771000D01*
X14859000Y-15517000D02*
X15009000Y-15367000D01*
X14859000Y-15217000D01*
X14709000Y-15367000D01*
X14859000Y-15517000D01*
X27559000Y-13866000D02*
X27709000Y-13716000D01*
X27559000Y-13566000D01*
X27409000Y-13716000D01*
X27559000Y-13866000D01*
X28194000Y-13612000D02*
X28344000Y-13462000D01*
X28194000Y-13312000D01*
X28044000Y-13462000D01*
X28194000Y-13612000D01*
X4699000Y-17676000D02*
X4849000Y-17526000D01*
X4699000Y-17376000D01*
X4549000Y-17526000D01*
X4699000Y-17676000D01*
X5334000Y-17422000D02*
X5484000Y-17272000D01*
X5334000Y-17122000D01*
X5184000Y-17272000D01*
X5334000Y-17422000D01*
X8509000Y-10056000D02*
X8659000Y-9906000D01*
X8509000Y-9756000D01*
X8359000Y-9906000D01*
X8509000Y-10056000D01*
X9144000Y-9802000D02*
X9294000Y-9652000D01*
X9144000Y-9502000D01*
X8994000Y-9652000D01*
X9144000Y-9802000D01*
X16129000Y-13866000D02*
X16279000Y-13716000D01*
X16129000Y-13566000D01*
X15979000Y-13716000D01*
X16129000Y-13866000D01*
X16764000Y-13612000D02*
X16914000Y-13462000D01*
X16764000Y-13312000D01*
X16614000Y-13462000D01*
X16764000Y-13612000D01*
D12*
X4411428Y-21105714D02*
X4411428Y-20805714D01*
X4482857Y-20805714D01*
X4525714Y-20820000D01*
X4554286Y-20848572D01*
X4568571Y-20877143D01*
X4582857Y-20934286D01*
X4582857Y-20977143D01*
X4568571Y-21034286D01*
X4554286Y-21062857D01*
X4525714Y-21091429D01*
X4482857Y-21105714D01*
X4411428Y-21105714D01*
X4711428Y-21105714D02*
X4711428Y-20905714D01*
X4711428Y-20962857D02*
X4725714Y-20934286D01*
X4740000Y-20920000D01*
X4768571Y-20905714D01*
X4797143Y-20905714D01*
X4897143Y-21105714D02*
X4897143Y-20905714D01*
X4897143Y-20805714D02*
X4882857Y-20820000D01*
X4897143Y-20834286D01*
X4911428Y-20820000D01*
X4897143Y-20805714D01*
X4897143Y-20834286D01*
X5082857Y-21105714D02*
X5054286Y-21091429D01*
X5040000Y-21062857D01*
X5040000Y-20805714D01*
X5240000Y-21105714D02*
X5211428Y-21091429D01*
X5197143Y-21062857D01*
X5197143Y-20805714D01*
X5582857Y-21105714D02*
X5582857Y-20805714D01*
X5682857Y-21020000D01*
X5782857Y-20805714D01*
X5782857Y-21105714D01*
X6054286Y-21105714D02*
X6054286Y-20948572D01*
X6040000Y-20920000D01*
X6011428Y-20905714D01*
X5954286Y-20905714D01*
X5925714Y-20920000D01*
X6054286Y-21091429D02*
X6025714Y-21105714D01*
X5954286Y-21105714D01*
X5925714Y-21091429D01*
X5911428Y-21062857D01*
X5911428Y-21034286D01*
X5925714Y-21005714D01*
X5954286Y-20991429D01*
X6025714Y-20991429D01*
X6054286Y-20977143D01*
X6197143Y-20905714D02*
X6197143Y-21205714D01*
X6197143Y-20920000D02*
X6225714Y-20905714D01*
X6282857Y-20905714D01*
X6311428Y-20920000D01*
X6325714Y-20934286D01*
X6340000Y-20962857D01*
X6340000Y-21048572D01*
X6325714Y-21077143D01*
X6311428Y-21091429D01*
X6282857Y-21105714D01*
X6225714Y-21105714D01*
X6197143Y-21091429D01*
X6468571Y-21077143D02*
X6482857Y-21091429D01*
X6468571Y-21105714D01*
X6454286Y-21091429D01*
X6468571Y-21077143D01*
X6468571Y-21105714D01*
X6468571Y-20920000D02*
X6482857Y-20934286D01*
X6468571Y-20948572D01*
X6454286Y-20934286D01*
X6468571Y-20920000D01*
X6468571Y-20948572D01*
X4085000Y-21580000D02*
X4125000Y-21620000D01*
X4125000Y-21580000D02*
X4085000Y-21620000D01*
X4468571Y-21435714D02*
X4497143Y-21435714D01*
X4525714Y-21450000D01*
X4540000Y-21464286D01*
X4554286Y-21492857D01*
X4568571Y-21550000D01*
X4568571Y-21621429D01*
X4554286Y-21678572D01*
X4540000Y-21707143D01*
X4525714Y-21721429D01*
X4497143Y-21735714D01*
X4468571Y-21735714D01*
X4440000Y-21721429D01*
X4425714Y-21707143D01*
X4411428Y-21678572D01*
X4397143Y-21621429D01*
X4397143Y-21550000D01*
X4411428Y-21492857D01*
X4425714Y-21464286D01*
X4440000Y-21450000D01*
X4468571Y-21435714D01*
X4697143Y-21707143D02*
X4711428Y-21721429D01*
X4697143Y-21735714D01*
X4682857Y-21721429D01*
X4697143Y-21707143D01*
X4697143Y-21735714D01*
X4968571Y-21535714D02*
X4968571Y-21735714D01*
X4897143Y-21421429D02*
X4825714Y-21635714D01*
X5011428Y-21635714D01*
X5182857Y-21435714D02*
X5211428Y-21435714D01*
X5240000Y-21450000D01*
X5254286Y-21464286D01*
X5268571Y-21492857D01*
X5282857Y-21550000D01*
X5282857Y-21621429D01*
X5268571Y-21678572D01*
X5254286Y-21707143D01*
X5240000Y-21721429D01*
X5211428Y-21735714D01*
X5182857Y-21735714D01*
X5154286Y-21721429D01*
X5140000Y-21707143D01*
X5125714Y-21678572D01*
X5111428Y-21621429D01*
X5111428Y-21550000D01*
X5125714Y-21492857D01*
X5140000Y-21464286D01*
X5154286Y-21450000D01*
X5182857Y-21435714D01*
X5411428Y-21735714D02*
X5411428Y-21535714D01*
X5411428Y-21564286D02*
X5425714Y-21550000D01*
X5454286Y-21535714D01*
X5497143Y-21535714D01*
X5525714Y-21550000D01*
X5540000Y-21578572D01*
X5540000Y-21735714D01*
X5540000Y-21578572D02*
X5554286Y-21550000D01*
X5582857Y-21535714D01*
X5625714Y-21535714D01*
X5654286Y-21550000D01*
X5668571Y-21578572D01*
X5668571Y-21735714D01*
X5811428Y-21735714D02*
X5811428Y-21535714D01*
X5811428Y-21564286D02*
X5825714Y-21550000D01*
X5854286Y-21535714D01*
X5897143Y-21535714D01*
X5925714Y-21550000D01*
X5940000Y-21578572D01*
X5940000Y-21735714D01*
X5940000Y-21578572D02*
X5954286Y-21550000D01*
X5982857Y-21535714D01*
X6025714Y-21535714D01*
X6054286Y-21550000D01*
X6068571Y-21578572D01*
X6068571Y-21735714D01*
X6654286Y-21421429D02*
X6397143Y-21807143D01*
X7040000Y-21435714D02*
X7068571Y-21435714D01*
X7097143Y-21450000D01*
X7111428Y-21464286D01*
X7125714Y-21492857D01*
X7140000Y-21550000D01*
X7140000Y-21621429D01*
X7125714Y-21678572D01*
X7111428Y-21707143D01*
X7097143Y-21721429D01*
X7068571Y-21735714D01*
X7040000Y-21735714D01*
X7011428Y-21721429D01*
X6997143Y-21707143D01*
X6982857Y-21678572D01*
X6968571Y-21621429D01*
X6968571Y-21550000D01*
X6982857Y-21492857D01*
X6997143Y-21464286D01*
X7011428Y-21450000D01*
X7040000Y-21435714D01*
X7268571Y-21707143D02*
X7282857Y-21721429D01*
X7268571Y-21735714D01*
X7254286Y-21721429D01*
X7268571Y-21707143D01*
X7268571Y-21735714D01*
X7468571Y-21435714D02*
X7497143Y-21435714D01*
X7525714Y-21450000D01*
X7540000Y-21464286D01*
X7554286Y-21492857D01*
X7568571Y-21550000D01*
X7568571Y-21621429D01*
X7554286Y-21678572D01*
X7540000Y-21707143D01*
X7525714Y-21721429D01*
X7497143Y-21735714D01*
X7468571Y-21735714D01*
X7440000Y-21721429D01*
X7425714Y-21707143D01*
X7411428Y-21678572D01*
X7397143Y-21621429D01*
X7397143Y-21550000D01*
X7411428Y-21492857D01*
X7425714Y-21464286D01*
X7440000Y-21450000D01*
X7468571Y-21435714D01*
X7854286Y-21735714D02*
X7682857Y-21735714D01*
X7768571Y-21735714D02*
X7768571Y-21435714D01*
X7740000Y-21478572D01*
X7711428Y-21507143D01*
X7682857Y-21521429D01*
X8111428Y-21435714D02*
X8054286Y-21435714D01*
X8025714Y-21450000D01*
X8011428Y-21464286D01*
X7982857Y-21507143D01*
X7968571Y-21564286D01*
X7968571Y-21678572D01*
X7982857Y-21707143D01*
X7997143Y-21721429D01*
X8025714Y-21735714D01*
X8082857Y-21735714D01*
X8111428Y-21721429D01*
X8125714Y-21707143D01*
X8140000Y-21678572D01*
X8140000Y-21607143D01*
X8125714Y-21578572D01*
X8111428Y-21564286D01*
X8082857Y-21550000D01*
X8025714Y-21550000D01*
X7997143Y-21564286D01*
X7982857Y-21578572D01*
X7968571Y-21607143D01*
X8254286Y-21435714D02*
X8254286Y-21492857D01*
X8368571Y-21435714D02*
X8368571Y-21492857D01*
X8811428Y-21850000D02*
X8797143Y-21835714D01*
X8768571Y-21792857D01*
X8754286Y-21764286D01*
X8740000Y-21721429D01*
X8725714Y-21650000D01*
X8725714Y-21592857D01*
X8740000Y-21521429D01*
X8754286Y-21478572D01*
X8768571Y-21450000D01*
X8797143Y-21407143D01*
X8811428Y-21392857D01*
X9068571Y-21435714D02*
X8925714Y-21435714D01*
X8911428Y-21578572D01*
X8925714Y-21564286D01*
X8954286Y-21550000D01*
X9025714Y-21550000D01*
X9054286Y-21564286D01*
X9068571Y-21578572D01*
X9082857Y-21607143D01*
X9082857Y-21678572D01*
X9068571Y-21707143D01*
X9054286Y-21721429D01*
X9025714Y-21735714D01*
X8954286Y-21735714D01*
X8925714Y-21721429D01*
X8911428Y-21707143D01*
X9340000Y-21535714D02*
X9340000Y-21735714D01*
X9268571Y-21421429D02*
X9197143Y-21635714D01*
X9382857Y-21635714D01*
X9540000Y-21564286D02*
X9511428Y-21550000D01*
X9497143Y-21535714D01*
X9482857Y-21507143D01*
X9482857Y-21492857D01*
X9497143Y-21464286D01*
X9511428Y-21450000D01*
X9540000Y-21435714D01*
X9597143Y-21435714D01*
X9625714Y-21450000D01*
X9640000Y-21464286D01*
X9654286Y-21492857D01*
X9654286Y-21507143D01*
X9640000Y-21535714D01*
X9625714Y-21550000D01*
X9597143Y-21564286D01*
X9540000Y-21564286D01*
X9511428Y-21578572D01*
X9497143Y-21592857D01*
X9482857Y-21621429D01*
X9482857Y-21678572D01*
X9497143Y-21707143D01*
X9511428Y-21721429D01*
X9540000Y-21735714D01*
X9597143Y-21735714D01*
X9625714Y-21721429D01*
X9640000Y-21707143D01*
X9654286Y-21678572D01*
X9654286Y-21621429D01*
X9640000Y-21592857D01*
X9625714Y-21578572D01*
X9597143Y-21564286D01*
X10011428Y-21735714D02*
X10011428Y-21435714D01*
X10140000Y-21735714D02*
X10140000Y-21578572D01*
X10125714Y-21550000D01*
X10097143Y-21535714D01*
X10054286Y-21535714D01*
X10025714Y-21550000D01*
X10011428Y-21564286D01*
X10325714Y-21735714D02*
X10297143Y-21721429D01*
X10282857Y-21707143D01*
X10268571Y-21678572D01*
X10268571Y-21592857D01*
X10282857Y-21564286D01*
X10297143Y-21550000D01*
X10325714Y-21535714D01*
X10368571Y-21535714D01*
X10397143Y-21550000D01*
X10411428Y-21564286D01*
X10425714Y-21592857D01*
X10425714Y-21678572D01*
X10411428Y-21707143D01*
X10397143Y-21721429D01*
X10368571Y-21735714D01*
X10325714Y-21735714D01*
X10597143Y-21735714D02*
X10568571Y-21721429D01*
X10554286Y-21692857D01*
X10554286Y-21435714D01*
X10825714Y-21721429D02*
X10797143Y-21735714D01*
X10740000Y-21735714D01*
X10711428Y-21721429D01*
X10697143Y-21692857D01*
X10697143Y-21578572D01*
X10711428Y-21550000D01*
X10740000Y-21535714D01*
X10797143Y-21535714D01*
X10825714Y-21550000D01*
X10840000Y-21578572D01*
X10840000Y-21607143D01*
X10697143Y-21635714D01*
X10954286Y-21721429D02*
X10982857Y-21735714D01*
X11040000Y-21735714D01*
X11068571Y-21721429D01*
X11082857Y-21692857D01*
X11082857Y-21678572D01*
X11068571Y-21650000D01*
X11040000Y-21635714D01*
X10997143Y-21635714D01*
X10968571Y-21621429D01*
X10954286Y-21592857D01*
X10954286Y-21578572D01*
X10968571Y-21550000D01*
X10997143Y-21535714D01*
X11040000Y-21535714D01*
X11068571Y-21550000D01*
X11182857Y-21850000D02*
X11197143Y-21835714D01*
X11225714Y-21792857D01*
X11240000Y-21764286D01*
X11254286Y-21721429D01*
X11268571Y-21650000D01*
X11268571Y-21592857D01*
X11254286Y-21521429D01*
X11240000Y-21478572D01*
X11225714Y-21450000D01*
X11197143Y-21407143D01*
X11182857Y-21392857D01*
X4125000Y-21996000D02*
G75*
G03X4125000Y-21996000I-25000J0D01*
G01*
X4468571Y-21831714D02*
X4497143Y-21831714D01*
X4525714Y-21846000D01*
X4540000Y-21860286D01*
X4554286Y-21888857D01*
X4568571Y-21946000D01*
X4568571Y-22017429D01*
X4554286Y-22074572D01*
X4540000Y-22103143D01*
X4525714Y-22117429D01*
X4497143Y-22131714D01*
X4468571Y-22131714D01*
X4440000Y-22117429D01*
X4425714Y-22103143D01*
X4411428Y-22074572D01*
X4397143Y-22017429D01*
X4397143Y-21946000D01*
X4411428Y-21888857D01*
X4425714Y-21860286D01*
X4440000Y-21846000D01*
X4468571Y-21831714D01*
X4697143Y-22103143D02*
X4711428Y-22117429D01*
X4697143Y-22131714D01*
X4682857Y-22117429D01*
X4697143Y-22103143D01*
X4697143Y-22131714D01*
X4982857Y-21831714D02*
X4840000Y-21831714D01*
X4825714Y-21974572D01*
X4840000Y-21960286D01*
X4868571Y-21946000D01*
X4940000Y-21946000D01*
X4968571Y-21960286D01*
X4982857Y-21974572D01*
X4997143Y-22003143D01*
X4997143Y-22074572D01*
X4982857Y-22103143D01*
X4968571Y-22117429D01*
X4940000Y-22131714D01*
X4868571Y-22131714D01*
X4840000Y-22117429D01*
X4825714Y-22103143D01*
X5182857Y-21831714D02*
X5211428Y-21831714D01*
X5240000Y-21846000D01*
X5254286Y-21860286D01*
X5268571Y-21888857D01*
X5282857Y-21946000D01*
X5282857Y-22017429D01*
X5268571Y-22074572D01*
X5254286Y-22103143D01*
X5240000Y-22117429D01*
X5211428Y-22131714D01*
X5182857Y-22131714D01*
X5154286Y-22117429D01*
X5140000Y-22103143D01*
X5125714Y-22074572D01*
X5111428Y-22017429D01*
X5111428Y-21946000D01*
X5125714Y-21888857D01*
X5140000Y-21860286D01*
X5154286Y-21846000D01*
X5182857Y-21831714D01*
X5411428Y-22131714D02*
X5411428Y-21931714D01*
X5411428Y-21960286D02*
X5425714Y-21946000D01*
X5454286Y-21931714D01*
X5497143Y-21931714D01*
X5525714Y-21946000D01*
X5540000Y-21974572D01*
X5540000Y-22131714D01*
X5540000Y-21974572D02*
X5554286Y-21946000D01*
X5582857Y-21931714D01*
X5625714Y-21931714D01*
X5654286Y-21946000D01*
X5668571Y-21974572D01*
X5668571Y-22131714D01*
X5811428Y-22131714D02*
X5811428Y-21931714D01*
X5811428Y-21960286D02*
X5825714Y-21946000D01*
X5854286Y-21931714D01*
X5897143Y-21931714D01*
X5925714Y-21946000D01*
X5940000Y-21974572D01*
X5940000Y-22131714D01*
X5940000Y-21974572D02*
X5954286Y-21946000D01*
X5982857Y-21931714D01*
X6025714Y-21931714D01*
X6054286Y-21946000D01*
X6068571Y-21974572D01*
X6068571Y-22131714D01*
X6654286Y-21817429D02*
X6397143Y-22203143D01*
X7040000Y-21831714D02*
X7068571Y-21831714D01*
X7097143Y-21846000D01*
X7111428Y-21860286D01*
X7125714Y-21888857D01*
X7140000Y-21946000D01*
X7140000Y-22017429D01*
X7125714Y-22074572D01*
X7111428Y-22103143D01*
X7097143Y-22117429D01*
X7068571Y-22131714D01*
X7040000Y-22131714D01*
X7011428Y-22117429D01*
X6997143Y-22103143D01*
X6982857Y-22074572D01*
X6968571Y-22017429D01*
X6968571Y-21946000D01*
X6982857Y-21888857D01*
X6997143Y-21860286D01*
X7011428Y-21846000D01*
X7040000Y-21831714D01*
X7268571Y-22103143D02*
X7282857Y-22117429D01*
X7268571Y-22131714D01*
X7254286Y-22117429D01*
X7268571Y-22103143D01*
X7268571Y-22131714D01*
X7468571Y-21831714D02*
X7497143Y-21831714D01*
X7525714Y-21846000D01*
X7540000Y-21860286D01*
X7554286Y-21888857D01*
X7568571Y-21946000D01*
X7568571Y-22017429D01*
X7554286Y-22074572D01*
X7540000Y-22103143D01*
X7525714Y-22117429D01*
X7497143Y-22131714D01*
X7468571Y-22131714D01*
X7440000Y-22117429D01*
X7425714Y-22103143D01*
X7411428Y-22074572D01*
X7397143Y-22017429D01*
X7397143Y-21946000D01*
X7411428Y-21888857D01*
X7425714Y-21860286D01*
X7440000Y-21846000D01*
X7468571Y-21831714D01*
X7682857Y-21860286D02*
X7697143Y-21846000D01*
X7725714Y-21831714D01*
X7797143Y-21831714D01*
X7825714Y-21846000D01*
X7840000Y-21860286D01*
X7854286Y-21888857D01*
X7854286Y-21917429D01*
X7840000Y-21960286D01*
X7668571Y-22131714D01*
X7854286Y-22131714D01*
X8040000Y-21831714D02*
X8068571Y-21831714D01*
X8097143Y-21846000D01*
X8111428Y-21860286D01*
X8125714Y-21888857D01*
X8140000Y-21946000D01*
X8140000Y-22017429D01*
X8125714Y-22074572D01*
X8111428Y-22103143D01*
X8097143Y-22117429D01*
X8068571Y-22131714D01*
X8040000Y-22131714D01*
X8011428Y-22117429D01*
X7997143Y-22103143D01*
X7982857Y-22074572D01*
X7968571Y-22017429D01*
X7968571Y-21946000D01*
X7982857Y-21888857D01*
X7997143Y-21860286D01*
X8011428Y-21846000D01*
X8040000Y-21831714D01*
X8254286Y-21831714D02*
X8254286Y-21888857D01*
X8368571Y-21831714D02*
X8368571Y-21888857D01*
X8811428Y-22246000D02*
X8797143Y-22231714D01*
X8768571Y-22188857D01*
X8754286Y-22160286D01*
X8740000Y-22117429D01*
X8725714Y-22046000D01*
X8725714Y-21988857D01*
X8740000Y-21917429D01*
X8754286Y-21874572D01*
X8768571Y-21846000D01*
X8797143Y-21803143D01*
X8811428Y-21788857D01*
X9068571Y-21831714D02*
X8925714Y-21831714D01*
X8911428Y-21974572D01*
X8925714Y-21960286D01*
X8954286Y-21946000D01*
X9025714Y-21946000D01*
X9054286Y-21960286D01*
X9068571Y-21974572D01*
X9082857Y-22003143D01*
X9082857Y-22074572D01*
X9068571Y-22103143D01*
X9054286Y-22117429D01*
X9025714Y-22131714D01*
X8954286Y-22131714D01*
X8925714Y-22117429D01*
X8911428Y-22103143D01*
X9225714Y-22131714D02*
X9282857Y-22131714D01*
X9311428Y-22117429D01*
X9325714Y-22103143D01*
X9354286Y-22060286D01*
X9368571Y-22003143D01*
X9368571Y-21888857D01*
X9354286Y-21860286D01*
X9340000Y-21846000D01*
X9311428Y-21831714D01*
X9254286Y-21831714D01*
X9225714Y-21846000D01*
X9211428Y-21860286D01*
X9197143Y-21888857D01*
X9197143Y-21960286D01*
X9211428Y-21988857D01*
X9225714Y-22003143D01*
X9254286Y-22017429D01*
X9311428Y-22017429D01*
X9340000Y-22003143D01*
X9354286Y-21988857D01*
X9368571Y-21960286D01*
X9725714Y-22131714D02*
X9725714Y-21831714D01*
X9854286Y-22131714D02*
X9854286Y-21974572D01*
X9840000Y-21946000D01*
X9811428Y-21931714D01*
X9768571Y-21931714D01*
X9740000Y-21946000D01*
X9725714Y-21960286D01*
X10040000Y-22131714D02*
X10011428Y-22117429D01*
X9997143Y-22103143D01*
X9982857Y-22074572D01*
X9982857Y-21988857D01*
X9997143Y-21960286D01*
X10011428Y-21946000D01*
X10040000Y-21931714D01*
X10082857Y-21931714D01*
X10111428Y-21946000D01*
X10125714Y-21960286D01*
X10140000Y-21988857D01*
X10140000Y-22074572D01*
X10125714Y-22103143D01*
X10111428Y-22117429D01*
X10082857Y-22131714D01*
X10040000Y-22131714D01*
X10311428Y-22131714D02*
X10282857Y-22117429D01*
X10268571Y-22088857D01*
X10268571Y-21831714D01*
X10540000Y-22117429D02*
X10511428Y-22131714D01*
X10454286Y-22131714D01*
X10425714Y-22117429D01*
X10411428Y-22088857D01*
X10411428Y-21974572D01*
X10425714Y-21946000D01*
X10454286Y-21931714D01*
X10511428Y-21931714D01*
X10540000Y-21946000D01*
X10554286Y-21974572D01*
X10554286Y-22003143D01*
X10411428Y-22031714D01*
X10668571Y-22117429D02*
X10697143Y-22131714D01*
X10754286Y-22131714D01*
X10782857Y-22117429D01*
X10797143Y-22088857D01*
X10797143Y-22074572D01*
X10782857Y-22046000D01*
X10754286Y-22031714D01*
X10711428Y-22031714D01*
X10682857Y-22017429D01*
X10668571Y-21988857D01*
X10668571Y-21974572D01*
X10682857Y-21946000D01*
X10711428Y-21931714D01*
X10754286Y-21931714D01*
X10782857Y-21946000D01*
X10897143Y-22246000D02*
X10911428Y-22231714D01*
X10940000Y-22188857D01*
X10954286Y-22160286D01*
X10968571Y-22117429D01*
X10982857Y-22046000D01*
X10982857Y-21988857D01*
X10968571Y-21917429D01*
X10954286Y-21874572D01*
X10940000Y-21846000D01*
X10911428Y-21803143D01*
X10897143Y-21788857D01*
X4095000Y-22362000D02*
X4095000Y-22422000D01*
X4065000Y-22392000D02*
X4125000Y-22392000D01*
X4468571Y-22227714D02*
X4497143Y-22227714D01*
X4525714Y-22242000D01*
X4540000Y-22256286D01*
X4554286Y-22284857D01*
X4568571Y-22342000D01*
X4568571Y-22413429D01*
X4554286Y-22470571D01*
X4540000Y-22499143D01*
X4525714Y-22513429D01*
X4497143Y-22527714D01*
X4468571Y-22527714D01*
X4440000Y-22513429D01*
X4425714Y-22499143D01*
X4411428Y-22470571D01*
X4397143Y-22413429D01*
X4397143Y-22342000D01*
X4411428Y-22284857D01*
X4425714Y-22256286D01*
X4440000Y-22242000D01*
X4468571Y-22227714D01*
X4697143Y-22499143D02*
X4711428Y-22513429D01*
X4697143Y-22527714D01*
X4682857Y-22513429D01*
X4697143Y-22499143D01*
X4697143Y-22527714D01*
X4968571Y-22227714D02*
X4911428Y-22227714D01*
X4882857Y-22242000D01*
X4868571Y-22256286D01*
X4840000Y-22299143D01*
X4825714Y-22356286D01*
X4825714Y-22470571D01*
X4840000Y-22499143D01*
X4854286Y-22513429D01*
X4882857Y-22527714D01*
X4940000Y-22527714D01*
X4968571Y-22513429D01*
X4982857Y-22499143D01*
X4997143Y-22470571D01*
X4997143Y-22399143D01*
X4982857Y-22370571D01*
X4968571Y-22356286D01*
X4940000Y-22342000D01*
X4882857Y-22342000D01*
X4854286Y-22356286D01*
X4840000Y-22370571D01*
X4825714Y-22399143D01*
X5182857Y-22227714D02*
X5211428Y-22227714D01*
X5240000Y-22242000D01*
X5254286Y-22256286D01*
X5268571Y-22284857D01*
X5282857Y-22342000D01*
X5282857Y-22413429D01*
X5268571Y-22470571D01*
X5254286Y-22499143D01*
X5240000Y-22513429D01*
X5211428Y-22527714D01*
X5182857Y-22527714D01*
X5154286Y-22513429D01*
X5140000Y-22499143D01*
X5125714Y-22470571D01*
X5111428Y-22413429D01*
X5111428Y-22342000D01*
X5125714Y-22284857D01*
X5140000Y-22256286D01*
X5154286Y-22242000D01*
X5182857Y-22227714D01*
X5411428Y-22527714D02*
X5411428Y-22327714D01*
X5411428Y-22356286D02*
X5425714Y-22342000D01*
X5454286Y-22327714D01*
X5497143Y-22327714D01*
X5525714Y-22342000D01*
X5540000Y-22370571D01*
X5540000Y-22527714D01*
X5540000Y-22370571D02*
X5554286Y-22342000D01*
X5582857Y-22327714D01*
X5625714Y-22327714D01*
X5654286Y-22342000D01*
X5668571Y-22370571D01*
X5668571Y-22527714D01*
X5811428Y-22527714D02*
X5811428Y-22327714D01*
X5811428Y-22356286D02*
X5825714Y-22342000D01*
X5854286Y-22327714D01*
X5897143Y-22327714D01*
X5925714Y-22342000D01*
X5940000Y-22370571D01*
X5940000Y-22527714D01*
X5940000Y-22370571D02*
X5954286Y-22342000D01*
X5982857Y-22327714D01*
X6025714Y-22327714D01*
X6054286Y-22342000D01*
X6068571Y-22370571D01*
X6068571Y-22527714D01*
X6654286Y-22213429D02*
X6397143Y-22599143D01*
X7040000Y-22227714D02*
X7068571Y-22227714D01*
X7097143Y-22242000D01*
X7111428Y-22256286D01*
X7125714Y-22284857D01*
X7140000Y-22342000D01*
X7140000Y-22413429D01*
X7125714Y-22470571D01*
X7111428Y-22499143D01*
X7097143Y-22513429D01*
X7068571Y-22527714D01*
X7040000Y-22527714D01*
X7011428Y-22513429D01*
X6997143Y-22499143D01*
X6982857Y-22470571D01*
X6968571Y-22413429D01*
X6968571Y-22342000D01*
X6982857Y-22284857D01*
X6997143Y-22256286D01*
X7011428Y-22242000D01*
X7040000Y-22227714D01*
X7268571Y-22499143D02*
X7282857Y-22513429D01*
X7268571Y-22527714D01*
X7254286Y-22513429D01*
X7268571Y-22499143D01*
X7268571Y-22527714D01*
X7468571Y-22227714D02*
X7497143Y-22227714D01*
X7525714Y-22242000D01*
X7540000Y-22256286D01*
X7554286Y-22284857D01*
X7568571Y-22342000D01*
X7568571Y-22413429D01*
X7554286Y-22470571D01*
X7540000Y-22499143D01*
X7525714Y-22513429D01*
X7497143Y-22527714D01*
X7468571Y-22527714D01*
X7440000Y-22513429D01*
X7425714Y-22499143D01*
X7411428Y-22470571D01*
X7397143Y-22413429D01*
X7397143Y-22342000D01*
X7411428Y-22284857D01*
X7425714Y-22256286D01*
X7440000Y-22242000D01*
X7468571Y-22227714D01*
X7682857Y-22256286D02*
X7697143Y-22242000D01*
X7725714Y-22227714D01*
X7797143Y-22227714D01*
X7825714Y-22242000D01*
X7840000Y-22256286D01*
X7854286Y-22284857D01*
X7854286Y-22313429D01*
X7840000Y-22356286D01*
X7668571Y-22527714D01*
X7854286Y-22527714D01*
X8111428Y-22327714D02*
X8111428Y-22527714D01*
X8040000Y-22213429D02*
X7968571Y-22427714D01*
X8154286Y-22427714D01*
X8254286Y-22227714D02*
X8254286Y-22284857D01*
X8368571Y-22227714D02*
X8368571Y-22284857D01*
X8811428Y-22642000D02*
X8797143Y-22627714D01*
X8768571Y-22584857D01*
X8754286Y-22556286D01*
X8740000Y-22513429D01*
X8725714Y-22442000D01*
X8725714Y-22384857D01*
X8740000Y-22313429D01*
X8754286Y-22270572D01*
X8768571Y-22242000D01*
X8797143Y-22199143D01*
X8811428Y-22184857D01*
X8982857Y-22227714D02*
X9011428Y-22227714D01*
X9040000Y-22242000D01*
X9054286Y-22256286D01*
X9068571Y-22284857D01*
X9082857Y-22342000D01*
X9082857Y-22413429D01*
X9068571Y-22470571D01*
X9054286Y-22499143D01*
X9040000Y-22513429D01*
X9011428Y-22527714D01*
X8982857Y-22527714D01*
X8954286Y-22513429D01*
X8940000Y-22499143D01*
X8925714Y-22470571D01*
X8911428Y-22413429D01*
X8911428Y-22342000D01*
X8925714Y-22284857D01*
X8940000Y-22256286D01*
X8954286Y-22242000D01*
X8982857Y-22227714D01*
X9440000Y-22527714D02*
X9440000Y-22227714D01*
X9568571Y-22527714D02*
X9568571Y-22370571D01*
X9554286Y-22342000D01*
X9525714Y-22327714D01*
X9482857Y-22327714D01*
X9454286Y-22342000D01*
X9440000Y-22356286D01*
X9754286Y-22527714D02*
X9725714Y-22513429D01*
X9711428Y-22499143D01*
X9697143Y-22470571D01*
X9697143Y-22384857D01*
X9711428Y-22356286D01*
X9725714Y-22342000D01*
X9754286Y-22327714D01*
X9797143Y-22327714D01*
X9825714Y-22342000D01*
X9840000Y-22356286D01*
X9854286Y-22384857D01*
X9854286Y-22470571D01*
X9840000Y-22499143D01*
X9825714Y-22513429D01*
X9797143Y-22527714D01*
X9754286Y-22527714D01*
X10025714Y-22527714D02*
X9997143Y-22513429D01*
X9982857Y-22484857D01*
X9982857Y-22227714D01*
X10254286Y-22513429D02*
X10225714Y-22527714D01*
X10168571Y-22527714D01*
X10140000Y-22513429D01*
X10125714Y-22484857D01*
X10125714Y-22370571D01*
X10140000Y-22342000D01*
X10168571Y-22327714D01*
X10225714Y-22327714D01*
X10254286Y-22342000D01*
X10268571Y-22370571D01*
X10268571Y-22399143D01*
X10125714Y-22427714D01*
X10382857Y-22513429D02*
X10411428Y-22527714D01*
X10468571Y-22527714D01*
X10497143Y-22513429D01*
X10511428Y-22484857D01*
X10511428Y-22470571D01*
X10497143Y-22442000D01*
X10468571Y-22427714D01*
X10425714Y-22427714D01*
X10397143Y-22413429D01*
X10382857Y-22384857D01*
X10382857Y-22370571D01*
X10397143Y-22342000D01*
X10425714Y-22327714D01*
X10468571Y-22327714D01*
X10497143Y-22342000D01*
X10868571Y-22413429D02*
X11097143Y-22413429D01*
X10982857Y-22527714D02*
X10982857Y-22299143D01*
X11597143Y-22327714D02*
X11597143Y-22527714D01*
X11525714Y-22213429D02*
X11454286Y-22427714D01*
X11640000Y-22427714D01*
X11968571Y-22513429D02*
X11997143Y-22527714D01*
X12054286Y-22527714D01*
X12082857Y-22513429D01*
X12097143Y-22484857D01*
X12097143Y-22470571D01*
X12082857Y-22442000D01*
X12054286Y-22427714D01*
X12011428Y-22427714D01*
X11982857Y-22413429D01*
X11968571Y-22384857D01*
X11968571Y-22370571D01*
X11982857Y-22342000D01*
X12011428Y-22327714D01*
X12054286Y-22327714D01*
X12082857Y-22342000D01*
X12268571Y-22527714D02*
X12240000Y-22513429D01*
X12225714Y-22484857D01*
X12225714Y-22227714D01*
X12425714Y-22527714D02*
X12397143Y-22513429D01*
X12382857Y-22499143D01*
X12368571Y-22470571D01*
X12368571Y-22384857D01*
X12382857Y-22356286D01*
X12397143Y-22342000D01*
X12425714Y-22327714D01*
X12468571Y-22327714D01*
X12497143Y-22342000D01*
X12511428Y-22356286D01*
X12525714Y-22384857D01*
X12525714Y-22470571D01*
X12511428Y-22499143D01*
X12497143Y-22513429D01*
X12468571Y-22527714D01*
X12425714Y-22527714D01*
X12611428Y-22327714D02*
X12725714Y-22327714D01*
X12654286Y-22227714D02*
X12654286Y-22484857D01*
X12668571Y-22513429D01*
X12697143Y-22527714D01*
X12725714Y-22527714D01*
X12811428Y-22513429D02*
X12840000Y-22527714D01*
X12897143Y-22527714D01*
X12925714Y-22513429D01*
X12940000Y-22484857D01*
X12940000Y-22470571D01*
X12925714Y-22442000D01*
X12897143Y-22427714D01*
X12854286Y-22427714D01*
X12825714Y-22413429D01*
X12811428Y-22384857D01*
X12811428Y-22370571D01*
X12825714Y-22342000D01*
X12854286Y-22327714D01*
X12897143Y-22327714D01*
X12925714Y-22342000D01*
X13040000Y-22642000D02*
X13054286Y-22627714D01*
X13082857Y-22584857D01*
X13097143Y-22556286D01*
X13111428Y-22513429D01*
X13125714Y-22442000D01*
X13125714Y-22384857D01*
X13111428Y-22313429D01*
X13097143Y-22270572D01*
X13082857Y-22242000D01*
X13054286Y-22199143D01*
X13040000Y-22184857D01*
X4108891Y-22826891D02*
X4108891Y-22749109D01*
X4031109Y-22749109D01*
X4031109Y-22826891D01*
X4108891Y-22826891D01*
X4568571Y-22923714D02*
X4397143Y-22923714D01*
X4482857Y-22923714D02*
X4482857Y-22623714D01*
X4454286Y-22666571D01*
X4425714Y-22695143D01*
X4397143Y-22709429D01*
X4697143Y-22895143D02*
X4711428Y-22909429D01*
X4697143Y-22923714D01*
X4682857Y-22909429D01*
X4697143Y-22895143D01*
X4697143Y-22923714D01*
X4997143Y-22923714D02*
X4825714Y-22923714D01*
X4911428Y-22923714D02*
X4911428Y-22623714D01*
X4882857Y-22666571D01*
X4854286Y-22695143D01*
X4825714Y-22709429D01*
X5182857Y-22623714D02*
X5211428Y-22623714D01*
X5240000Y-22638000D01*
X5254286Y-22652286D01*
X5268571Y-22680857D01*
X5282857Y-22738000D01*
X5282857Y-22809429D01*
X5268571Y-22866571D01*
X5254286Y-22895143D01*
X5240000Y-22909429D01*
X5211428Y-22923714D01*
X5182857Y-22923714D01*
X5154286Y-22909429D01*
X5140000Y-22895143D01*
X5125714Y-22866571D01*
X5111428Y-22809429D01*
X5111428Y-22738000D01*
X5125714Y-22680857D01*
X5140000Y-22652286D01*
X5154286Y-22638000D01*
X5182857Y-22623714D01*
X5411428Y-22923714D02*
X5411428Y-22723714D01*
X5411428Y-22752286D02*
X5425714Y-22738000D01*
X5454286Y-22723714D01*
X5497143Y-22723714D01*
X5525714Y-22738000D01*
X5540000Y-22766571D01*
X5540000Y-22923714D01*
X5540000Y-22766571D02*
X5554286Y-22738000D01*
X5582857Y-22723714D01*
X5625714Y-22723714D01*
X5654286Y-22738000D01*
X5668571Y-22766571D01*
X5668571Y-22923714D01*
X5811428Y-22923714D02*
X5811428Y-22723714D01*
X5811428Y-22752286D02*
X5825714Y-22738000D01*
X5854286Y-22723714D01*
X5897143Y-22723714D01*
X5925714Y-22738000D01*
X5940000Y-22766571D01*
X5940000Y-22923714D01*
X5940000Y-22766571D02*
X5954286Y-22738000D01*
X5982857Y-22723714D01*
X6025714Y-22723714D01*
X6054286Y-22738000D01*
X6068571Y-22766571D01*
X6068571Y-22923714D01*
X6654286Y-22609429D02*
X6397143Y-22995143D01*
X7040000Y-22623714D02*
X7068571Y-22623714D01*
X7097143Y-22638000D01*
X7111428Y-22652286D01*
X7125714Y-22680857D01*
X7140000Y-22738000D01*
X7140000Y-22809429D01*
X7125714Y-22866571D01*
X7111428Y-22895143D01*
X7097143Y-22909429D01*
X7068571Y-22923714D01*
X7040000Y-22923714D01*
X7011428Y-22909429D01*
X6997143Y-22895143D01*
X6982857Y-22866571D01*
X6968571Y-22809429D01*
X6968571Y-22738000D01*
X6982857Y-22680857D01*
X6997143Y-22652286D01*
X7011428Y-22638000D01*
X7040000Y-22623714D01*
X7268571Y-22895143D02*
X7282857Y-22909429D01*
X7268571Y-22923714D01*
X7254286Y-22909429D01*
X7268571Y-22895143D01*
X7268571Y-22923714D01*
X7468571Y-22623714D02*
X7497143Y-22623714D01*
X7525714Y-22638000D01*
X7540000Y-22652286D01*
X7554286Y-22680857D01*
X7568571Y-22738000D01*
X7568571Y-22809429D01*
X7554286Y-22866571D01*
X7540000Y-22895143D01*
X7525714Y-22909429D01*
X7497143Y-22923714D01*
X7468571Y-22923714D01*
X7440000Y-22909429D01*
X7425714Y-22895143D01*
X7411428Y-22866571D01*
X7397143Y-22809429D01*
X7397143Y-22738000D01*
X7411428Y-22680857D01*
X7425714Y-22652286D01*
X7440000Y-22638000D01*
X7468571Y-22623714D01*
X7825714Y-22723714D02*
X7825714Y-22923714D01*
X7754286Y-22609429D02*
X7682857Y-22823714D01*
X7868571Y-22823714D01*
X7954286Y-22623714D02*
X8140000Y-22623714D01*
X8040000Y-22738000D01*
X8082857Y-22738000D01*
X8111428Y-22752286D01*
X8125714Y-22766571D01*
X8140000Y-22795143D01*
X8140000Y-22866571D01*
X8125714Y-22895143D01*
X8111428Y-22909429D01*
X8082857Y-22923714D01*
X7997143Y-22923714D01*
X7968571Y-22909429D01*
X7954286Y-22895143D01*
X8254286Y-22623714D02*
X8254286Y-22680857D01*
X8368571Y-22623714D02*
X8368571Y-22680857D01*
X8811428Y-23038000D02*
X8797143Y-23023714D01*
X8768571Y-22980857D01*
X8754286Y-22952286D01*
X8740000Y-22909429D01*
X8725714Y-22838000D01*
X8725714Y-22780857D01*
X8740000Y-22709429D01*
X8754286Y-22666571D01*
X8768571Y-22638000D01*
X8797143Y-22595143D01*
X8811428Y-22580857D01*
X8897143Y-22623714D02*
X9082857Y-22623714D01*
X8982857Y-22738000D01*
X9025714Y-22738000D01*
X9054286Y-22752286D01*
X9068571Y-22766571D01*
X9082857Y-22795143D01*
X9082857Y-22866571D01*
X9068571Y-22895143D01*
X9054286Y-22909429D01*
X9025714Y-22923714D01*
X8940000Y-22923714D01*
X8911428Y-22909429D01*
X8897143Y-22895143D01*
X9440000Y-22923714D02*
X9440000Y-22623714D01*
X9568571Y-22923714D02*
X9568571Y-22766571D01*
X9554286Y-22738000D01*
X9525714Y-22723714D01*
X9482857Y-22723714D01*
X9454286Y-22738000D01*
X9440000Y-22752286D01*
X9754286Y-22923714D02*
X9725714Y-22909429D01*
X9711428Y-22895143D01*
X9697143Y-22866571D01*
X9697143Y-22780857D01*
X9711428Y-22752286D01*
X9725714Y-22738000D01*
X9754286Y-22723714D01*
X9797143Y-22723714D01*
X9825714Y-22738000D01*
X9840000Y-22752286D01*
X9854286Y-22780857D01*
X9854286Y-22866571D01*
X9840000Y-22895143D01*
X9825714Y-22909429D01*
X9797143Y-22923714D01*
X9754286Y-22923714D01*
X10025714Y-22923714D02*
X9997143Y-22909429D01*
X9982857Y-22880857D01*
X9982857Y-22623714D01*
X10254286Y-22909429D02*
X10225714Y-22923714D01*
X10168571Y-22923714D01*
X10140000Y-22909429D01*
X10125714Y-22880857D01*
X10125714Y-22766571D01*
X10140000Y-22738000D01*
X10168571Y-22723714D01*
X10225714Y-22723714D01*
X10254286Y-22738000D01*
X10268571Y-22766571D01*
X10268571Y-22795143D01*
X10125714Y-22823714D01*
X10382857Y-22909429D02*
X10411428Y-22923714D01*
X10468571Y-22923714D01*
X10497143Y-22909429D01*
X10511428Y-22880857D01*
X10511428Y-22866571D01*
X10497143Y-22838000D01*
X10468571Y-22823714D01*
X10425714Y-22823714D01*
X10397143Y-22809429D01*
X10382857Y-22780857D01*
X10382857Y-22766571D01*
X10397143Y-22738000D01*
X10425714Y-22723714D01*
X10468571Y-22723714D01*
X10497143Y-22738000D01*
X10611428Y-23038000D02*
X10625714Y-23023714D01*
X10654286Y-22980857D01*
X10668571Y-22952286D01*
X10682857Y-22909429D01*
X10697143Y-22838000D01*
X10697143Y-22780857D01*
X10682857Y-22709429D01*
X10668571Y-22666571D01*
X10654286Y-22638000D01*
X10625714Y-22595143D01*
X10611428Y-22580857D01*
X3975000Y-23334000D02*
X4125000Y-23184000D01*
X3975000Y-23034000D01*
X3825000Y-23184000D01*
X3975000Y-23334000D01*
X4382857Y-23019714D02*
X4568571Y-23019714D01*
X4468571Y-23134000D01*
X4511428Y-23134000D01*
X4540000Y-23148286D01*
X4554286Y-23162571D01*
X4568571Y-23191143D01*
X4568571Y-23262571D01*
X4554286Y-23291143D01*
X4540000Y-23305429D01*
X4511428Y-23319714D01*
X4425714Y-23319714D01*
X4397143Y-23305429D01*
X4382857Y-23291143D01*
X4697143Y-23291143D02*
X4711428Y-23305429D01*
X4697143Y-23319714D01*
X4682857Y-23305429D01*
X4697143Y-23291143D01*
X4697143Y-23319714D01*
X4897143Y-23019714D02*
X4925714Y-23019714D01*
X4954286Y-23034000D01*
X4968571Y-23048286D01*
X4982857Y-23076857D01*
X4997143Y-23134000D01*
X4997143Y-23205429D01*
X4982857Y-23262571D01*
X4968571Y-23291143D01*
X4954286Y-23305429D01*
X4925714Y-23319714D01*
X4897143Y-23319714D01*
X4868571Y-23305429D01*
X4854286Y-23291143D01*
X4840000Y-23262571D01*
X4825714Y-23205429D01*
X4825714Y-23134000D01*
X4840000Y-23076857D01*
X4854286Y-23048286D01*
X4868571Y-23034000D01*
X4897143Y-23019714D01*
X5182857Y-23019714D02*
X5211428Y-23019714D01*
X5240000Y-23034000D01*
X5254286Y-23048286D01*
X5268571Y-23076857D01*
X5282857Y-23134000D01*
X5282857Y-23205429D01*
X5268571Y-23262571D01*
X5254286Y-23291143D01*
X5240000Y-23305429D01*
X5211428Y-23319714D01*
X5182857Y-23319714D01*
X5154286Y-23305429D01*
X5140000Y-23291143D01*
X5125714Y-23262571D01*
X5111428Y-23205429D01*
X5111428Y-23134000D01*
X5125714Y-23076857D01*
X5140000Y-23048286D01*
X5154286Y-23034000D01*
X5182857Y-23019714D01*
X5411428Y-23319714D02*
X5411428Y-23119714D01*
X5411428Y-23148286D02*
X5425714Y-23134000D01*
X5454286Y-23119714D01*
X5497143Y-23119714D01*
X5525714Y-23134000D01*
X5540000Y-23162571D01*
X5540000Y-23319714D01*
X5540000Y-23162571D02*
X5554286Y-23134000D01*
X5582857Y-23119714D01*
X5625714Y-23119714D01*
X5654286Y-23134000D01*
X5668571Y-23162571D01*
X5668571Y-23319714D01*
X5811428Y-23319714D02*
X5811428Y-23119714D01*
X5811428Y-23148286D02*
X5825714Y-23134000D01*
X5854286Y-23119714D01*
X5897143Y-23119714D01*
X5925714Y-23134000D01*
X5940000Y-23162571D01*
X5940000Y-23319714D01*
X5940000Y-23162571D02*
X5954286Y-23134000D01*
X5982857Y-23119714D01*
X6025714Y-23119714D01*
X6054286Y-23134000D01*
X6068571Y-23162571D01*
X6068571Y-23319714D01*
X6654286Y-23005429D02*
X6397143Y-23391143D01*
X7040000Y-23019714D02*
X7068571Y-23019714D01*
X7097143Y-23034000D01*
X7111428Y-23048286D01*
X7125714Y-23076857D01*
X7140000Y-23134000D01*
X7140000Y-23205429D01*
X7125714Y-23262571D01*
X7111428Y-23291143D01*
X7097143Y-23305429D01*
X7068571Y-23319714D01*
X7040000Y-23319714D01*
X7011428Y-23305429D01*
X6997143Y-23291143D01*
X6982857Y-23262571D01*
X6968571Y-23205429D01*
X6968571Y-23134000D01*
X6982857Y-23076857D01*
X6997143Y-23048286D01*
X7011428Y-23034000D01*
X7040000Y-23019714D01*
X7268571Y-23291143D02*
X7282857Y-23305429D01*
X7268571Y-23319714D01*
X7254286Y-23305429D01*
X7268571Y-23291143D01*
X7268571Y-23319714D01*
X7568571Y-23319714D02*
X7397143Y-23319714D01*
X7482857Y-23319714D02*
X7482857Y-23019714D01*
X7454286Y-23062571D01*
X7425714Y-23091143D01*
X7397143Y-23105429D01*
X7854286Y-23319714D02*
X7682857Y-23319714D01*
X7768571Y-23319714D02*
X7768571Y-23019714D01*
X7740000Y-23062571D01*
X7711428Y-23091143D01*
X7682857Y-23105429D01*
X8025714Y-23148286D02*
X7997143Y-23134000D01*
X7982857Y-23119714D01*
X7968571Y-23091143D01*
X7968571Y-23076857D01*
X7982857Y-23048286D01*
X7997143Y-23034000D01*
X8025714Y-23019714D01*
X8082857Y-23019714D01*
X8111428Y-23034000D01*
X8125714Y-23048286D01*
X8140000Y-23076857D01*
X8140000Y-23091143D01*
X8125714Y-23119714D01*
X8111428Y-23134000D01*
X8082857Y-23148286D01*
X8025714Y-23148286D01*
X7997143Y-23162571D01*
X7982857Y-23176857D01*
X7968571Y-23205429D01*
X7968571Y-23262571D01*
X7982857Y-23291143D01*
X7997143Y-23305429D01*
X8025714Y-23319714D01*
X8082857Y-23319714D01*
X8111428Y-23305429D01*
X8125714Y-23291143D01*
X8140000Y-23262571D01*
X8140000Y-23205429D01*
X8125714Y-23176857D01*
X8111428Y-23162571D01*
X8082857Y-23148286D01*
X8254286Y-23019714D02*
X8254286Y-23076857D01*
X8368571Y-23019714D02*
X8368571Y-23076857D01*
X8811428Y-23434000D02*
X8797143Y-23419714D01*
X8768571Y-23376857D01*
X8754286Y-23348286D01*
X8740000Y-23305429D01*
X8725714Y-23234000D01*
X8725714Y-23176857D01*
X8740000Y-23105429D01*
X8754286Y-23062571D01*
X8768571Y-23034000D01*
X8797143Y-22991143D01*
X8811428Y-22976857D01*
X8911428Y-23048286D02*
X8925714Y-23034000D01*
X8954286Y-23019714D01*
X9025714Y-23019714D01*
X9054286Y-23034000D01*
X9068571Y-23048286D01*
X9082857Y-23076857D01*
X9082857Y-23105429D01*
X9068571Y-23148286D01*
X8897143Y-23319714D01*
X9082857Y-23319714D01*
X9268571Y-23019714D02*
X9297143Y-23019714D01*
X9325714Y-23034000D01*
X9340000Y-23048286D01*
X9354286Y-23076857D01*
X9368571Y-23134000D01*
X9368571Y-23205429D01*
X9354286Y-23262571D01*
X9340000Y-23291143D01*
X9325714Y-23305429D01*
X9297143Y-23319714D01*
X9268571Y-23319714D01*
X9240000Y-23305429D01*
X9225714Y-23291143D01*
X9211428Y-23262571D01*
X9197143Y-23205429D01*
X9197143Y-23134000D01*
X9211428Y-23076857D01*
X9225714Y-23048286D01*
X9240000Y-23034000D01*
X9268571Y-23019714D01*
X9625714Y-23119714D02*
X9625714Y-23319714D01*
X9554286Y-23005429D02*
X9482857Y-23219714D01*
X9668571Y-23219714D01*
X10011428Y-23319714D02*
X10011428Y-23019714D01*
X10140000Y-23319714D02*
X10140000Y-23162571D01*
X10125714Y-23134000D01*
X10097143Y-23119714D01*
X10054286Y-23119714D01*
X10025714Y-23134000D01*
X10011428Y-23148286D01*
X10325714Y-23319714D02*
X10297143Y-23305429D01*
X10282857Y-23291143D01*
X10268571Y-23262571D01*
X10268571Y-23176857D01*
X10282857Y-23148286D01*
X10297143Y-23134000D01*
X10325714Y-23119714D01*
X10368571Y-23119714D01*
X10397143Y-23134000D01*
X10411428Y-23148286D01*
X10425714Y-23176857D01*
X10425714Y-23262571D01*
X10411428Y-23291143D01*
X10397143Y-23305429D01*
X10368571Y-23319714D01*
X10325714Y-23319714D01*
X10597143Y-23319714D02*
X10568571Y-23305429D01*
X10554286Y-23276857D01*
X10554286Y-23019714D01*
X10825714Y-23305429D02*
X10797143Y-23319714D01*
X10740000Y-23319714D01*
X10711428Y-23305429D01*
X10697143Y-23276857D01*
X10697143Y-23162571D01*
X10711428Y-23134000D01*
X10740000Y-23119714D01*
X10797143Y-23119714D01*
X10825714Y-23134000D01*
X10840000Y-23162571D01*
X10840000Y-23191143D01*
X10697143Y-23219714D01*
X10954286Y-23305429D02*
X10982857Y-23319714D01*
X11040000Y-23319714D01*
X11068571Y-23305429D01*
X11082857Y-23276857D01*
X11082857Y-23262571D01*
X11068571Y-23234000D01*
X11040000Y-23219714D01*
X10997143Y-23219714D01*
X10968571Y-23205429D01*
X10954286Y-23176857D01*
X10954286Y-23162571D01*
X10968571Y-23134000D01*
X10997143Y-23119714D01*
X11040000Y-23119714D01*
X11068571Y-23134000D01*
X11182857Y-23434000D02*
X11197143Y-23419714D01*
X11225714Y-23376857D01*
X11240000Y-23348286D01*
X11254286Y-23305429D01*
X11268571Y-23234000D01*
X11268571Y-23176857D01*
X11254286Y-23105429D01*
X11240000Y-23062571D01*
X11225714Y-23034000D01*
X11197143Y-22991143D01*
X11182857Y-22976857D01*
M02*
