G04 #@! TF.GenerationSoftware,KiCad,Pcbnew,(5.1.4)-1*
G04 #@! TF.CreationDate,2021-09-15T16:32:01-03:00*
G04 #@! TF.ProjectId,keyboard-pcb,6b657962-6f61-4726-942d-7063622e6b69,rev?*
G04 #@! TF.SameCoordinates,Original*
G04 #@! TF.FileFunction,Legend,Top*
G04 #@! TF.FilePolarity,Positive*
%FSLAX46Y46*%
G04 Gerber Fmt 4.6, Leading zero omitted, Abs format (unit mm)*
G04 Created by KiCad (PCBNEW (5.1.4)-1) date 2021-09-15 16:32:01*
%MOMM*%
%LPD*%
G04 APERTURE LIST*
%ADD10C,0.120000*%
%ADD11C,0.150000*%
%ADD12C,5.702000*%
%ADD13O,0.952000X0.952000*%
%ADD14R,0.952000X0.952000*%
%ADD15C,1.626000*%
%ADD16O,1.102000X2.202000*%
%ADD17C,0.752000*%
%ADD18O,1.102000X1.702000*%
%ADD19C,1.852000*%
%ADD20C,4.089800*%
G04 APERTURE END LIST*
D10*
X288925000Y-175418750D02*
X288925000Y-176212500D01*
X288925000Y-177006250D02*
X288925000Y-177800000D01*
X288925000Y-172243750D02*
X288925000Y-173037500D01*
X288925000Y-202406250D02*
X288925000Y-203200000D01*
X288925000Y-178593750D02*
X288925000Y-179387500D01*
X288925000Y-180181250D02*
X288925000Y-180975000D01*
X288925000Y-188118750D02*
X288925000Y-188912500D01*
X288925000Y-184943750D02*
X288925000Y-185737500D01*
X288925000Y-169068751D02*
X288925000Y-169862500D01*
X288925000Y-191293750D02*
X288925000Y-192087500D01*
X288925000Y-165893751D02*
X288925000Y-166687501D01*
X288925000Y-173831250D02*
X288925000Y-174625000D01*
X288925000Y-183356250D02*
X288925000Y-184150000D01*
X288925000Y-203993750D02*
X288925000Y-204787500D01*
X288925000Y-205581250D02*
X288925000Y-206375000D01*
X288925000Y-200818750D02*
X288925000Y-201612500D01*
X288925000Y-181768750D02*
X288925000Y-182562500D01*
X288925000Y-159543751D02*
X288925000Y-160337501D01*
X288925000Y-197643750D02*
X288925000Y-198437500D01*
X288925000Y-189706250D02*
X288925000Y-190500000D01*
X288925000Y-186531250D02*
X288925000Y-187325000D01*
X288925000Y-164306251D02*
X288925000Y-165100001D01*
X288925000Y-170656250D02*
X288925000Y-171450000D01*
X288925000Y-91281250D02*
X288925000Y-92075000D01*
X288925000Y-192881250D02*
X288925000Y-193675000D01*
X288925000Y-199231250D02*
X288925000Y-200025000D01*
X288925000Y-196056250D02*
X288925000Y-196850000D01*
X288925000Y-194468750D02*
X288925000Y-195262500D01*
X288925000Y-148431249D02*
X288925000Y-149224999D01*
X288925000Y-129381250D02*
X288925000Y-130175000D01*
X288925000Y-140493749D02*
X288925000Y-141287499D01*
X288925000Y-89693750D02*
X288925000Y-90487500D01*
X288925000Y-123031250D02*
X288925000Y-123825000D01*
X288925000Y-86518750D02*
X288925000Y-87312500D01*
X288925000Y-132556250D02*
X288925000Y-133350000D01*
X288925000Y-138906249D02*
X288925000Y-139699999D01*
X288925000Y-103981250D02*
X288925000Y-104775000D01*
X288925000Y-118268750D02*
X288925000Y-119062500D01*
X288925000Y-135731250D02*
X288925000Y-136525000D01*
X288925000Y-145256249D02*
X288925000Y-146049999D01*
X288925000Y-107156250D02*
X288925000Y-107950000D01*
X288925000Y-119856250D02*
X288925000Y-120650000D01*
X288925000Y-124618750D02*
X288925000Y-125412500D01*
X288925000Y-151606249D02*
X288925000Y-152399999D01*
X288925000Y-153193749D02*
X288925000Y-153987501D01*
X288925000Y-150018749D02*
X288925000Y-150812499D01*
X288925000Y-134143750D02*
X288925000Y-134937500D01*
X288925000Y-88106250D02*
X288925000Y-88900000D01*
X288925000Y-105568750D02*
X288925000Y-106362500D01*
X288925000Y-94456250D02*
X288925000Y-95250000D01*
X288925000Y-130968750D02*
X288925000Y-131762500D01*
X288925000Y-157956251D02*
X288925000Y-158750001D01*
X288925000Y-161131251D02*
X288925000Y-161925001D01*
X288925000Y-137318750D02*
X288925000Y-138112500D01*
X288925000Y-113506250D02*
X288925000Y-114300000D01*
X288925000Y-127793750D02*
X288925000Y-128587500D01*
X288925000Y-92868750D02*
X288925000Y-93662500D01*
X288925000Y-154781251D02*
X288925000Y-155575001D01*
X288925000Y-100806250D02*
X288925000Y-101600000D01*
X288925000Y-146843749D02*
X288925000Y-147637499D01*
X288925000Y-102393750D02*
X288925000Y-103187500D01*
X288925000Y-99218750D02*
X288925000Y-100012500D01*
X288925000Y-110331250D02*
X288925000Y-111125000D01*
X288925000Y-111918750D02*
X288925000Y-112712500D01*
X288925000Y-84931250D02*
X288925000Y-85725000D01*
X288925000Y-121443750D02*
X288925000Y-122237500D01*
X288925000Y-115093750D02*
X288925000Y-115887500D01*
X288925000Y-96043750D02*
X288925000Y-96837500D01*
X288925000Y-156368751D02*
X288925000Y-157162501D01*
X288925000Y-126206250D02*
X288925000Y-127000000D01*
X288925000Y-143668749D02*
X288925000Y-144462499D01*
X288925000Y-97631250D02*
X288925000Y-98425000D01*
X288925000Y-142081249D02*
X288925000Y-142874999D01*
X288925000Y-116681250D02*
X288925000Y-117475000D01*
X288925000Y-108743750D02*
X288925000Y-109537500D01*
X288925000Y-162718751D02*
X288925000Y-163512501D01*
X288925000Y-167481251D02*
X288925000Y-168275001D01*
X343693750Y-149225000D02*
X344487500Y-149225000D01*
X146843750Y-149225000D02*
X147637500Y-149225000D01*
X326231251Y-149225000D02*
X327025001Y-149225000D01*
X359568750Y-149225000D02*
X360362500Y-149225000D01*
X329406250Y-149225000D02*
X330200000Y-149225000D01*
X191293751Y-149225000D02*
X192087501Y-149225000D01*
X348456250Y-149225000D02*
X349250000Y-149225000D01*
X192881251Y-149225000D02*
X193675001Y-149225000D01*
X345281250Y-149225000D02*
X346075000Y-149225000D01*
X357981250Y-149225000D02*
X358775000Y-149225000D01*
X327818751Y-149225000D02*
X328612500Y-149225000D01*
X140493750Y-149225000D02*
X141287500Y-149225000D01*
X197643751Y-149225000D02*
X198437501Y-149225000D01*
X145256250Y-149225000D02*
X146050000Y-149225000D01*
X364331250Y-149225000D02*
X365125000Y-149225000D01*
X362743750Y-149225000D02*
X363537500Y-149225000D01*
X356393750Y-149225000D02*
X357187500Y-149225000D01*
X175418748Y-149225000D02*
X176212498Y-149225000D01*
X321468751Y-149225000D02*
X322262501Y-149225000D01*
X137318750Y-149225000D02*
X138112500Y-149225000D01*
X154781250Y-149225000D02*
X155575000Y-149225000D01*
X194468751Y-149225000D02*
X195262501Y-149225000D01*
X161131250Y-149225000D02*
X161925000Y-149225000D01*
X129381250Y-149225000D02*
X130175000Y-149225000D01*
X142081250Y-149225000D02*
X142875000Y-149225000D01*
X323056251Y-149225000D02*
X323850001Y-149225000D01*
X354806250Y-149225000D02*
X355600000Y-149225000D01*
X346868750Y-149225000D02*
X347662500Y-149225000D01*
X273843750Y-149225000D02*
X274637500Y-149225000D01*
X289718750Y-149225000D02*
X290512500Y-149225000D01*
X253206250Y-149225000D02*
X254000000Y-149225000D01*
X297656249Y-149225000D02*
X298449999Y-149225000D01*
X269081250Y-149225000D02*
X269875000Y-149225000D01*
X245268750Y-149225000D02*
X246062500Y-149225000D01*
X265906250Y-149225000D02*
X266700000Y-149225000D01*
X243681250Y-149225000D02*
X244475000Y-149225000D01*
X310356249Y-149225000D02*
X311149999Y-149225000D01*
X284956250Y-149225000D02*
X285750000Y-149225000D01*
X291306250Y-149225000D02*
X292100000Y-149225000D01*
X256381250Y-149225000D02*
X257175000Y-149225000D01*
X278606250Y-149225000D02*
X279400000Y-149225000D01*
X264318750Y-149225000D02*
X265112500Y-149225000D01*
X300831249Y-149225000D02*
X301624999Y-149225000D01*
X275431250Y-149225000D02*
X276225000Y-149225000D01*
X281781250Y-149225000D02*
X282575000Y-149225000D01*
X246856250Y-149225000D02*
X247650000Y-149225000D01*
X259556250Y-149225000D02*
X260350000Y-149225000D01*
X272256250Y-149225000D02*
X273050000Y-149225000D01*
X319881251Y-149225000D02*
X320675001Y-149225000D01*
X270668750Y-149225000D02*
X271462500Y-149225000D01*
X286543750Y-149225000D02*
X287337500Y-149225000D01*
X283368750Y-149225000D02*
X284162500Y-149225000D01*
X316706251Y-149225000D02*
X317500001Y-149225000D01*
X251618750Y-149225000D02*
X252412500Y-149225000D01*
X324643751Y-149225000D02*
X325437501Y-149225000D01*
X250031250Y-149225000D02*
X250825000Y-149225000D01*
X305593749Y-149225000D02*
X306387499Y-149225000D01*
X318293751Y-149225000D02*
X319087501Y-149225000D01*
X304006249Y-149225000D02*
X304799999Y-149225000D01*
X337343750Y-149225000D02*
X338137500Y-149225000D01*
X351631250Y-149225000D02*
X352425000Y-149225000D01*
X311943749Y-149225000D02*
X312737501Y-149225000D01*
X296068750Y-149225000D02*
X296862500Y-149225000D01*
X335756250Y-149225000D02*
X336550000Y-149225000D01*
X308768749Y-149225000D02*
X309562499Y-149225000D01*
X294481250Y-149225000D02*
X295275000Y-149225000D01*
X350043750Y-149225000D02*
X350837500Y-149225000D01*
X313531251Y-149225000D02*
X314325001Y-149225000D01*
X277018750Y-149225000D02*
X277812500Y-149225000D01*
X334168750Y-149225000D02*
X334962500Y-149225000D01*
X342106250Y-149225000D02*
X342900000Y-149225000D01*
X353218750Y-149225000D02*
X354012500Y-149225000D01*
X340518750Y-149225000D02*
X341312500Y-149225000D01*
X280193750Y-149225000D02*
X280987500Y-149225000D01*
X338931250Y-149225000D02*
X339725000Y-149225000D01*
X332581250Y-149225000D02*
X333375000Y-149225000D01*
X330993750Y-149225000D02*
X331787500Y-149225000D01*
X254793750Y-149225000D02*
X255587500Y-149225000D01*
X257968750Y-149225000D02*
X258762500Y-149225000D01*
X248443750Y-149225000D02*
X249237500Y-149225000D01*
X315118751Y-149225000D02*
X315912501Y-149225000D01*
X267493750Y-149225000D02*
X268287500Y-149225000D01*
X302418749Y-149225000D02*
X303212499Y-149225000D01*
X307181249Y-149225000D02*
X307974999Y-149225000D01*
X361156250Y-149225000D02*
X361950000Y-149225000D01*
X292893750Y-149225000D02*
X293687500Y-149225000D01*
X262731250Y-149225000D02*
X263525000Y-149225000D01*
X261143750Y-149225000D02*
X261937500Y-149225000D01*
X288131250Y-149225000D02*
X288925000Y-149225000D01*
X299243749Y-149225000D02*
X300037499Y-149225000D01*
X119856250Y-149225000D02*
X120650000Y-149225000D01*
X111918751Y-149225000D02*
X112712501Y-149225000D01*
X115093751Y-149225000D02*
X115887501Y-149225000D01*
X99218749Y-149225000D02*
X100012499Y-149225000D01*
X118268750Y-149225000D02*
X119062500Y-149225000D01*
X84931250Y-149225000D02*
X85725000Y-149225000D01*
X78581251Y-149225000D02*
X79375001Y-149225000D01*
X76993751Y-149225000D02*
X77787501Y-149225000D01*
X83343751Y-149225000D02*
X84137500Y-149225000D01*
X102393749Y-149225000D02*
X103187501Y-149225000D01*
X81756251Y-149225000D02*
X82550001Y-149225000D01*
X100806249Y-149225000D02*
X101599999Y-149225000D01*
X103981251Y-149225000D02*
X104775001Y-149225000D01*
X57943748Y-149225000D02*
X58737498Y-149225000D01*
X51593750Y-149225000D02*
X52387500Y-149225000D01*
X64293748Y-149225000D02*
X65087498Y-149225000D01*
X72231251Y-149225000D02*
X73025001Y-149225000D01*
X89693749Y-149225000D02*
X90487499Y-149225000D01*
X48418750Y-149225000D02*
X49212500Y-149225000D01*
X88106249Y-149225000D02*
X88899999Y-149225000D01*
X86518750Y-149225000D02*
X87312500Y-149225000D01*
X42068750Y-149225000D02*
X42862500Y-149225000D01*
X65881248Y-149225000D02*
X66674998Y-149225000D01*
X69056251Y-149225000D02*
X69850001Y-149225000D01*
X113506251Y-149225000D02*
X114300001Y-149225000D01*
X110331251Y-149225000D02*
X111125001Y-149225000D01*
X70643751Y-149225000D02*
X71437501Y-149225000D01*
X105568751Y-149225000D02*
X106362501Y-149225000D01*
X94456249Y-149225000D02*
X95249999Y-149225000D01*
X43656250Y-149225000D02*
X44450000Y-149225000D01*
X59531248Y-149225000D02*
X60324998Y-149225000D01*
X80168751Y-149225000D02*
X80962501Y-149225000D01*
X92868749Y-149225000D02*
X93662499Y-149225000D01*
X107156251Y-149225000D02*
X107950001Y-149225000D01*
X91281249Y-149225000D02*
X92074999Y-149225000D01*
X73818751Y-149225000D02*
X74612501Y-149225000D01*
X54768749Y-149225000D02*
X55562499Y-149225000D01*
X108743751Y-149225000D02*
X109537501Y-149225000D01*
X53181249Y-149225000D02*
X53974999Y-149225000D01*
X97631249Y-149225000D02*
X98424999Y-149225000D01*
X67468748Y-149225000D02*
X68262501Y-149225000D01*
X50006250Y-149225000D02*
X50800000Y-149225000D01*
X46831250Y-149225000D02*
X47625000Y-149225000D01*
X75406251Y-149225000D02*
X76200001Y-149225000D01*
X96043749Y-149225000D02*
X96837499Y-149225000D01*
X116681251Y-149225000D02*
X117475001Y-149225000D01*
X56356249Y-149225000D02*
X57149998Y-149225000D01*
X61118748Y-149225000D02*
X61912498Y-149225000D01*
X62706248Y-149225000D02*
X63499998Y-149225000D01*
X45243750Y-149225000D02*
X46037500Y-149225000D01*
X240506250Y-149225000D02*
X241300000Y-149225000D01*
X242093750Y-149225000D02*
X242887500Y-149225000D01*
X159543750Y-149225000D02*
X160337500Y-149225000D01*
X237331250Y-149225000D02*
X238125000Y-149225000D01*
X223043751Y-149225000D02*
X223837500Y-149225000D01*
X207168749Y-149225000D02*
X207962501Y-149225000D01*
X138906250Y-149225000D02*
X139700000Y-149225000D01*
X157956250Y-149225000D02*
X158750000Y-149225000D01*
X200818751Y-149225000D02*
X201612501Y-149225000D01*
X238918750Y-149225000D02*
X239712500Y-149225000D01*
X235743750Y-149225000D02*
X236537500Y-149225000D01*
X218281251Y-149225000D02*
X219075001Y-149225000D01*
X196056251Y-149225000D02*
X196850001Y-149225000D01*
X126206250Y-149225000D02*
X127000000Y-149225000D01*
X121443750Y-149225000D02*
X122237500Y-149225000D01*
X156368750Y-149225000D02*
X157162500Y-149225000D01*
X189706250Y-149225000D02*
X190500001Y-149225000D01*
X148431250Y-149225000D02*
X149225000Y-149225000D01*
X169068750Y-149225000D02*
X169862500Y-149225000D01*
X151606250Y-149225000D02*
X152400000Y-149225000D01*
X150018750Y-149225000D02*
X150812500Y-149225000D01*
X134143750Y-149225000D02*
X134937500Y-149225000D01*
X227806250Y-149225000D02*
X228600000Y-149225000D01*
X226218750Y-149225000D02*
X227012500Y-149225000D01*
X202406251Y-149225000D02*
X203200001Y-149225000D01*
X130968750Y-149225000D02*
X131762500Y-149225000D01*
X213518751Y-149225000D02*
X214312501Y-149225000D01*
X219868751Y-149225000D02*
X220662501Y-149225000D01*
X184943750Y-149225000D02*
X185737500Y-149225000D01*
X186531250Y-149225000D02*
X187325000Y-149225000D01*
X132556250Y-149225000D02*
X133350000Y-149225000D01*
X127793750Y-149225000D02*
X128587500Y-149225000D01*
X165893750Y-149225000D02*
X166687500Y-149225000D01*
X177006248Y-149225000D02*
X177800000Y-149225000D01*
X188118750Y-149225000D02*
X188912500Y-149225000D01*
X123031250Y-149225000D02*
X123825000Y-149225000D01*
X153193750Y-149225000D02*
X153987500Y-149225000D01*
X180181250Y-149225000D02*
X180975000Y-149225000D01*
X135731250Y-149225000D02*
X136525000Y-149225000D01*
X167481250Y-149225000D02*
X168275000Y-149225000D01*
X162718750Y-149225000D02*
X163512500Y-149225000D01*
X230981250Y-149225000D02*
X231775000Y-149225000D01*
X232568750Y-149225000D02*
X233362500Y-149225000D01*
X215106251Y-149225000D02*
X215900001Y-149225000D01*
X164306250Y-149225000D02*
X165100000Y-149225000D01*
X229393750Y-149225000D02*
X230187500Y-149225000D01*
X183356250Y-149225000D02*
X184150000Y-149225000D01*
X170656250Y-149225000D02*
X171450000Y-149225000D01*
X234156250Y-149225000D02*
X234950000Y-149225000D01*
X208756251Y-149225000D02*
X209550001Y-149225000D01*
X172243750Y-149225000D02*
X173037500Y-149225000D01*
X216693751Y-149225000D02*
X217487501Y-149225000D01*
X124618750Y-149225000D02*
X125412500Y-149225000D01*
X199231251Y-149225000D02*
X200025001Y-149225000D01*
X203993751Y-149225000D02*
X204787501Y-149225000D01*
X143668750Y-149225000D02*
X144462500Y-149225000D01*
X181768750Y-149225000D02*
X182562500Y-149225000D01*
X224631250Y-149225000D02*
X225425000Y-149225000D01*
X211931251Y-149225000D02*
X212725001Y-149225000D01*
X173831250Y-149225000D02*
X174625000Y-149225000D01*
X221456251Y-149225000D02*
X222250001Y-149225000D01*
X178593750Y-149225000D02*
X179387500Y-149225000D01*
X205581251Y-149225000D02*
X206374999Y-149225000D01*
X210343751Y-149225000D02*
X211137501Y-149225000D01*
X329406249Y-187325000D02*
X328612499Y-187325000D01*
X324643749Y-187325000D02*
X323849999Y-187325000D01*
X304006250Y-187325000D02*
X303212500Y-187325000D01*
X307181250Y-187325000D02*
X306387500Y-187325000D01*
X323056249Y-187325000D02*
X322262500Y-187325000D01*
X288131250Y-187325000D02*
X287337500Y-187325000D01*
X286543750Y-187325000D02*
X285750000Y-187325000D01*
X291306250Y-187325000D02*
X290512500Y-187325000D01*
X294481250Y-187325000D02*
X293687500Y-187325000D01*
X302418750Y-187325000D02*
X301625000Y-187325000D01*
X305593750Y-187325000D02*
X304800000Y-187325000D01*
X321468750Y-187325000D02*
X320675000Y-187325000D01*
X327818749Y-187325000D02*
X327024999Y-187325000D01*
X292893750Y-187325000D02*
X292100000Y-187325000D01*
X296068750Y-187325000D02*
X295275000Y-187325000D01*
X326231249Y-187325000D02*
X325437499Y-187325000D01*
X313531250Y-187325000D02*
X312737500Y-187325000D01*
X299243750Y-187325000D02*
X298450000Y-187325000D01*
X315118750Y-187325000D02*
X314325000Y-187325000D01*
X297656250Y-187325000D02*
X296862500Y-187325000D01*
X300831250Y-187325000D02*
X300037500Y-187325000D01*
X310356250Y-187325000D02*
X309562500Y-187325000D01*
X311943750Y-187325000D02*
X311150000Y-187325000D01*
X316706250Y-187325000D02*
X315912500Y-187325000D01*
X308768750Y-187325000D02*
X307975000Y-187325000D01*
X318293750Y-187325000D02*
X317500000Y-187325000D01*
X319881250Y-187325000D02*
X319087500Y-187325000D01*
X289718750Y-187325000D02*
X288925000Y-187325000D01*
X332581249Y-187325000D02*
X331787499Y-187325000D01*
X345281251Y-187325000D02*
X344487501Y-187325000D01*
X343693751Y-187325000D02*
X342900001Y-187325000D01*
X362743750Y-187325000D02*
X361950000Y-187325000D01*
X351631251Y-187325000D02*
X350837501Y-187325000D01*
X340518751Y-187325000D02*
X339725001Y-187325000D01*
X338931251Y-187325000D02*
X338137499Y-187325000D01*
X342106251Y-187325000D02*
X341312501Y-187325000D01*
X348456251Y-187325000D02*
X347662501Y-187325000D01*
X357981250Y-187325000D02*
X357187500Y-187325000D01*
X346868751Y-187325000D02*
X346075001Y-187325000D01*
X354806250Y-187325000D02*
X354012500Y-187325000D01*
X356393750Y-187325000D02*
X355600000Y-187325000D01*
X359568750Y-187325000D02*
X358775000Y-187325000D01*
X350043751Y-187325000D02*
X349250001Y-187325000D01*
X361156250Y-187325000D02*
X360362500Y-187325000D01*
X364331250Y-187325000D02*
X363537500Y-187325000D01*
X353218751Y-187325000D02*
X352425001Y-187325000D01*
X334168749Y-187325000D02*
X333374999Y-187325000D01*
X335756249Y-187325000D02*
X334962499Y-187325000D01*
X330993749Y-187325000D02*
X330199999Y-187325000D01*
X337343749Y-187325000D02*
X336549999Y-187325000D01*
X207168749Y-187325000D02*
X206374999Y-187325000D01*
X202406249Y-187325000D02*
X201612499Y-187325000D01*
X181768750Y-187325000D02*
X180975000Y-187325000D01*
X184943750Y-187325000D02*
X184150000Y-187325000D01*
X200818749Y-187325000D02*
X200025000Y-187325000D01*
X165893750Y-187325000D02*
X165100000Y-187325000D01*
X164306250Y-187325000D02*
X163512500Y-187325000D01*
X169068750Y-187325000D02*
X168275000Y-187325000D01*
X172243750Y-187325000D02*
X171450000Y-187325000D01*
X180181250Y-187325000D02*
X179387500Y-187325000D01*
X183356250Y-187325000D02*
X182562500Y-187325000D01*
X199231250Y-187325000D02*
X198437500Y-187325000D01*
X205581249Y-187325000D02*
X204787499Y-187325000D01*
X170656250Y-187325000D02*
X169862500Y-187325000D01*
X173831250Y-187325000D02*
X173037500Y-187325000D01*
X203993749Y-187325000D02*
X203199999Y-187325000D01*
X191293750Y-187325000D02*
X190500000Y-187325000D01*
X177006250Y-187325000D02*
X176212500Y-187325000D01*
X192881250Y-187325000D02*
X192087500Y-187325000D01*
X175418750Y-187325000D02*
X174625000Y-187325000D01*
X178593750Y-187325000D02*
X177800000Y-187325000D01*
X188118750Y-187325000D02*
X187325000Y-187325000D01*
X189706250Y-187325000D02*
X188912500Y-187325000D01*
X194468750Y-187325000D02*
X193675000Y-187325000D01*
X186531250Y-187325000D02*
X185737500Y-187325000D01*
X196056250Y-187325000D02*
X195262500Y-187325000D01*
X197643750Y-187325000D02*
X196850000Y-187325000D01*
X167481250Y-187325000D02*
X166687500Y-187325000D01*
X278606250Y-187325000D02*
X277812500Y-187325000D01*
X210343749Y-187325000D02*
X209549999Y-187325000D01*
X223043751Y-187325000D02*
X222250001Y-187325000D01*
X267493750Y-187325000D02*
X266700000Y-187325000D01*
X273843750Y-187325000D02*
X273050000Y-187325000D01*
X221456251Y-187325000D02*
X220662501Y-187325000D01*
X240506250Y-187325000D02*
X239712500Y-187325000D01*
X229393751Y-187325000D02*
X228600001Y-187325000D01*
X262731250Y-187325000D02*
X261937500Y-187325000D01*
X218281251Y-187325000D02*
X217487501Y-187325000D01*
X243681250Y-187325000D02*
X242887500Y-187325000D01*
X216693751Y-187325000D02*
X215899999Y-187325000D01*
X219868751Y-187325000D02*
X219075001Y-187325000D01*
X226218751Y-187325000D02*
X225425001Y-187325000D01*
X270668750Y-187325000D02*
X269875000Y-187325000D01*
X280193750Y-187325000D02*
X279400000Y-187325000D01*
X284956250Y-187325000D02*
X284162500Y-187325000D01*
X235743750Y-187325000D02*
X234950000Y-187325000D01*
X248443750Y-187325000D02*
X247650000Y-187325000D01*
X246856250Y-187325000D02*
X246062500Y-187325000D01*
X250031250Y-187325000D02*
X249237500Y-187325000D01*
X281781250Y-187325000D02*
X280987500Y-187325000D01*
X275431250Y-187325000D02*
X274637500Y-187325000D01*
X272256250Y-187325000D02*
X271462500Y-187325000D01*
X283368750Y-187325000D02*
X282575000Y-187325000D01*
X224631251Y-187325000D02*
X223837501Y-187325000D01*
X232568750Y-187325000D02*
X231775000Y-187325000D01*
X234156250Y-187325000D02*
X233362500Y-187325000D01*
X237331250Y-187325000D02*
X236537500Y-187325000D01*
X227806251Y-187325000D02*
X227012501Y-187325000D01*
X253206250Y-187325000D02*
X252412500Y-187325000D01*
X257968750Y-187325000D02*
X257175000Y-187325000D01*
X254793750Y-187325000D02*
X254000000Y-187325000D01*
X256381250Y-187325000D02*
X255587500Y-187325000D01*
X238918750Y-187325000D02*
X238125000Y-187325000D01*
X242093750Y-187325000D02*
X241300000Y-187325000D01*
X230981251Y-187325000D02*
X230187501Y-187325000D01*
X245268750Y-187325000D02*
X244475000Y-187325000D01*
X265906250Y-187325000D02*
X265112500Y-187325000D01*
X269081250Y-187325000D02*
X268287500Y-187325000D01*
X277018750Y-187325000D02*
X276225000Y-187325000D01*
X264318750Y-187325000D02*
X263525000Y-187325000D01*
X259556250Y-187325000D02*
X258762500Y-187325000D01*
X211931249Y-187325000D02*
X211137499Y-187325000D01*
X213518749Y-187325000D02*
X212724999Y-187325000D01*
X251618750Y-187325000D02*
X250825000Y-187325000D01*
X208756249Y-187325000D02*
X207962499Y-187325000D01*
X215106249Y-187325000D02*
X214312499Y-187325000D01*
X261143750Y-187325000D02*
X260350000Y-187325000D01*
X84931249Y-187325000D02*
X84137499Y-187325000D01*
X80168749Y-187325000D02*
X79374999Y-187325000D01*
X59531250Y-187325000D02*
X58737500Y-187325000D01*
X62706250Y-187325000D02*
X61912500Y-187325000D01*
X78581249Y-187325000D02*
X77787500Y-187325000D01*
X43656250Y-187325000D02*
X42862500Y-187325000D01*
X42068750Y-187325000D02*
X41275000Y-187325000D01*
X46831250Y-187325000D02*
X46037500Y-187325000D01*
X50006250Y-187325000D02*
X49212500Y-187325000D01*
X57943750Y-187325000D02*
X57150000Y-187325000D01*
X61118750Y-187325000D02*
X60325000Y-187325000D01*
X76993750Y-187325000D02*
X76200000Y-187325000D01*
X83343749Y-187325000D02*
X82549999Y-187325000D01*
X48418750Y-187325000D02*
X47625000Y-187325000D01*
X51593750Y-187325000D02*
X50800000Y-187325000D01*
X81756249Y-187325000D02*
X80962499Y-187325000D01*
X69056250Y-187325000D02*
X68262500Y-187325000D01*
X54768750Y-187325000D02*
X53975000Y-187325000D01*
X70643750Y-187325000D02*
X69850000Y-187325000D01*
X53181250Y-187325000D02*
X52387500Y-187325000D01*
X56356250Y-187325000D02*
X55562500Y-187325000D01*
X65881250Y-187325000D02*
X65087500Y-187325000D01*
X67468750Y-187325000D02*
X66675000Y-187325000D01*
X72231250Y-187325000D02*
X71437500Y-187325000D01*
X64293750Y-187325000D02*
X63500000Y-187325000D01*
X73818750Y-187325000D02*
X73025000Y-187325000D01*
X75406250Y-187325000D02*
X74612500Y-187325000D01*
X45243750Y-187325000D02*
X44450000Y-187325000D01*
X156368750Y-187325000D02*
X155575000Y-187325000D01*
X88106249Y-187325000D02*
X87312499Y-187325000D01*
X100806251Y-187325000D02*
X100012501Y-187325000D01*
X145256250Y-187325000D02*
X144462500Y-187325000D01*
X151606250Y-187325000D02*
X150812500Y-187325000D01*
X99218751Y-187325000D02*
X98425001Y-187325000D01*
X118268750Y-187325000D02*
X117475000Y-187325000D01*
X107156251Y-187325000D02*
X106362501Y-187325000D01*
X140493750Y-187325000D02*
X139700000Y-187325000D01*
X96043751Y-187325000D02*
X95250001Y-187325000D01*
X121443750Y-187325000D02*
X120650000Y-187325000D01*
X94456251Y-187325000D02*
X93662499Y-187325000D01*
X97631251Y-187325000D02*
X96837501Y-187325000D01*
X103981251Y-187325000D02*
X103187501Y-187325000D01*
X148431250Y-187325000D02*
X147637500Y-187325000D01*
X157956250Y-187325000D02*
X157162500Y-187325000D01*
X162718750Y-187325000D02*
X161925000Y-187325000D01*
X113506250Y-187325000D02*
X112712500Y-187325000D01*
X126206250Y-187325000D02*
X125412500Y-187325000D01*
X124618750Y-187325000D02*
X123825000Y-187325000D01*
X127793750Y-187325000D02*
X127000000Y-187325000D01*
X159543750Y-187325000D02*
X158750000Y-187325000D01*
X153193750Y-187325000D02*
X152400000Y-187325000D01*
X150018750Y-187325000D02*
X149225000Y-187325000D01*
X161131250Y-187325000D02*
X160337500Y-187325000D01*
X102393751Y-187325000D02*
X101600001Y-187325000D01*
X110331250Y-187325000D02*
X109537500Y-187325000D01*
X111918750Y-187325000D02*
X111125000Y-187325000D01*
X115093750Y-187325000D02*
X114300000Y-187325000D01*
X105568751Y-187325000D02*
X104775001Y-187325000D01*
X130968750Y-187325000D02*
X130175000Y-187325000D01*
X135731250Y-187325000D02*
X134937500Y-187325000D01*
X132556250Y-187325000D02*
X131762500Y-187325000D01*
X134143750Y-187325000D02*
X133350000Y-187325000D01*
X116681250Y-187325000D02*
X115887500Y-187325000D01*
X119856250Y-187325000D02*
X119062500Y-187325000D01*
X108743751Y-187325000D02*
X107950001Y-187325000D01*
X123031250Y-187325000D02*
X122237500Y-187325000D01*
X143668750Y-187325000D02*
X142875000Y-187325000D01*
X146843750Y-187325000D02*
X146050000Y-187325000D01*
X154781250Y-187325000D02*
X153987500Y-187325000D01*
X142081250Y-187325000D02*
X141287500Y-187325000D01*
X137318750Y-187325000D02*
X136525000Y-187325000D01*
X89693749Y-187325000D02*
X88899999Y-187325000D01*
X91281249Y-187325000D02*
X90487499Y-187325000D01*
X129381250Y-187325000D02*
X128587500Y-187325000D01*
X86518749Y-187325000D02*
X85724999Y-187325000D01*
X92868749Y-187325000D02*
X92074999Y-187325000D01*
X138906250Y-187325000D02*
X138112500Y-187325000D01*
X329406249Y-168275000D02*
X328612499Y-168275000D01*
X324643749Y-168275000D02*
X323849999Y-168275000D01*
X304006250Y-168275000D02*
X303212500Y-168275000D01*
X307181250Y-168275000D02*
X306387500Y-168275000D01*
X323056249Y-168275000D02*
X322262500Y-168275000D01*
X288131250Y-168275000D02*
X287337500Y-168275000D01*
X286543750Y-168275000D02*
X285750000Y-168275000D01*
X291306250Y-168275000D02*
X290512500Y-168275000D01*
X294481250Y-168275000D02*
X293687500Y-168275000D01*
X302418750Y-168275000D02*
X301625000Y-168275000D01*
X305593750Y-168275000D02*
X304800000Y-168275000D01*
X321468750Y-168275000D02*
X320675000Y-168275000D01*
X327818749Y-168275000D02*
X327024999Y-168275000D01*
X292893750Y-168275000D02*
X292100000Y-168275000D01*
X296068750Y-168275000D02*
X295275000Y-168275000D01*
X326231249Y-168275000D02*
X325437499Y-168275000D01*
X313531250Y-168275000D02*
X312737500Y-168275000D01*
X299243750Y-168275000D02*
X298450000Y-168275000D01*
X315118750Y-168275000D02*
X314325000Y-168275000D01*
X297656250Y-168275000D02*
X296862500Y-168275000D01*
X300831250Y-168275000D02*
X300037500Y-168275000D01*
X310356250Y-168275000D02*
X309562500Y-168275000D01*
X311943750Y-168275000D02*
X311150000Y-168275000D01*
X316706250Y-168275000D02*
X315912500Y-168275000D01*
X308768750Y-168275000D02*
X307975000Y-168275000D01*
X318293750Y-168275000D02*
X317500000Y-168275000D01*
X319881250Y-168275000D02*
X319087500Y-168275000D01*
X289718750Y-168275000D02*
X288925000Y-168275000D01*
X332581249Y-168275000D02*
X331787499Y-168275000D01*
X345281251Y-168275000D02*
X344487501Y-168275000D01*
X343693751Y-168275000D02*
X342900001Y-168275000D01*
X362743750Y-168275000D02*
X361950000Y-168275000D01*
X351631251Y-168275000D02*
X350837501Y-168275000D01*
X340518751Y-168275000D02*
X339725001Y-168275000D01*
X338931251Y-168275000D02*
X338137499Y-168275000D01*
X342106251Y-168275000D02*
X341312501Y-168275000D01*
X348456251Y-168275000D02*
X347662501Y-168275000D01*
X357981250Y-168275000D02*
X357187500Y-168275000D01*
X346868751Y-168275000D02*
X346075001Y-168275000D01*
X354806250Y-168275000D02*
X354012500Y-168275000D01*
X356393750Y-168275000D02*
X355600000Y-168275000D01*
X359568750Y-168275000D02*
X358775000Y-168275000D01*
X350043751Y-168275000D02*
X349250001Y-168275000D01*
X361156250Y-168275000D02*
X360362500Y-168275000D01*
X364331250Y-168275000D02*
X363537500Y-168275000D01*
X353218751Y-168275000D02*
X352425001Y-168275000D01*
X334168749Y-168275000D02*
X333374999Y-168275000D01*
X335756249Y-168275000D02*
X334962499Y-168275000D01*
X330993749Y-168275000D02*
X330199999Y-168275000D01*
X337343749Y-168275000D02*
X336549999Y-168275000D01*
X207168749Y-168275000D02*
X206374999Y-168275000D01*
X202406249Y-168275000D02*
X201612499Y-168275000D01*
X181768750Y-168275000D02*
X180975000Y-168275000D01*
X184943750Y-168275000D02*
X184150000Y-168275000D01*
X200818749Y-168275000D02*
X200025000Y-168275000D01*
X165893750Y-168275000D02*
X165100000Y-168275000D01*
X164306250Y-168275000D02*
X163512500Y-168275000D01*
X169068750Y-168275000D02*
X168275000Y-168275000D01*
X172243750Y-168275000D02*
X171450000Y-168275000D01*
X180181250Y-168275000D02*
X179387500Y-168275000D01*
X183356250Y-168275000D02*
X182562500Y-168275000D01*
X199231250Y-168275000D02*
X198437500Y-168275000D01*
X205581249Y-168275000D02*
X204787499Y-168275000D01*
X170656250Y-168275000D02*
X169862500Y-168275000D01*
X173831250Y-168275000D02*
X173037500Y-168275000D01*
X203993749Y-168275000D02*
X203199999Y-168275000D01*
X191293750Y-168275000D02*
X190500000Y-168275000D01*
X177006250Y-168275000D02*
X176212500Y-168275000D01*
X192881250Y-168275000D02*
X192087500Y-168275000D01*
X175418750Y-168275000D02*
X174625000Y-168275000D01*
X178593750Y-168275000D02*
X177800000Y-168275000D01*
X188118750Y-168275000D02*
X187325000Y-168275000D01*
X189706250Y-168275000D02*
X188912500Y-168275000D01*
X194468750Y-168275000D02*
X193675000Y-168275000D01*
X186531250Y-168275000D02*
X185737500Y-168275000D01*
X196056250Y-168275000D02*
X195262500Y-168275000D01*
X197643750Y-168275000D02*
X196850000Y-168275000D01*
X167481250Y-168275000D02*
X166687500Y-168275000D01*
X278606250Y-168275000D02*
X277812500Y-168275000D01*
X210343749Y-168275000D02*
X209549999Y-168275000D01*
X223043751Y-168275000D02*
X222250001Y-168275000D01*
X267493750Y-168275000D02*
X266700000Y-168275000D01*
X273843750Y-168275000D02*
X273050000Y-168275000D01*
X221456251Y-168275000D02*
X220662501Y-168275000D01*
X240506250Y-168275000D02*
X239712500Y-168275000D01*
X229393751Y-168275000D02*
X228600001Y-168275000D01*
X262731250Y-168275000D02*
X261937500Y-168275000D01*
X218281251Y-168275000D02*
X217487501Y-168275000D01*
X243681250Y-168275000D02*
X242887500Y-168275000D01*
X216693751Y-168275000D02*
X215899999Y-168275000D01*
X219868751Y-168275000D02*
X219075001Y-168275000D01*
X226218751Y-168275000D02*
X225425001Y-168275000D01*
X270668750Y-168275000D02*
X269875000Y-168275000D01*
X280193750Y-168275000D02*
X279400000Y-168275000D01*
X284956250Y-168275000D02*
X284162500Y-168275000D01*
X235743750Y-168275000D02*
X234950000Y-168275000D01*
X248443750Y-168275000D02*
X247650000Y-168275000D01*
X246856250Y-168275000D02*
X246062500Y-168275000D01*
X250031250Y-168275000D02*
X249237500Y-168275000D01*
X281781250Y-168275000D02*
X280987500Y-168275000D01*
X275431250Y-168275000D02*
X274637500Y-168275000D01*
X272256250Y-168275000D02*
X271462500Y-168275000D01*
X283368750Y-168275000D02*
X282575000Y-168275000D01*
X224631251Y-168275000D02*
X223837501Y-168275000D01*
X232568750Y-168275000D02*
X231775000Y-168275000D01*
X234156250Y-168275000D02*
X233362500Y-168275000D01*
X237331250Y-168275000D02*
X236537500Y-168275000D01*
X227806251Y-168275000D02*
X227012501Y-168275000D01*
X253206250Y-168275000D02*
X252412500Y-168275000D01*
X257968750Y-168275000D02*
X257175000Y-168275000D01*
X254793750Y-168275000D02*
X254000000Y-168275000D01*
X256381250Y-168275000D02*
X255587500Y-168275000D01*
X238918750Y-168275000D02*
X238125000Y-168275000D01*
X242093750Y-168275000D02*
X241300000Y-168275000D01*
X230981251Y-168275000D02*
X230187501Y-168275000D01*
X245268750Y-168275000D02*
X244475000Y-168275000D01*
X265906250Y-168275000D02*
X265112500Y-168275000D01*
X269081250Y-168275000D02*
X268287500Y-168275000D01*
X277018750Y-168275000D02*
X276225000Y-168275000D01*
X264318750Y-168275000D02*
X263525000Y-168275000D01*
X259556250Y-168275000D02*
X258762500Y-168275000D01*
X211931249Y-168275000D02*
X211137499Y-168275000D01*
X213518749Y-168275000D02*
X212724999Y-168275000D01*
X251618750Y-168275000D02*
X250825000Y-168275000D01*
X208756249Y-168275000D02*
X207962499Y-168275000D01*
X215106249Y-168275000D02*
X214312499Y-168275000D01*
X261143750Y-168275000D02*
X260350000Y-168275000D01*
X84931249Y-168275000D02*
X84137499Y-168275000D01*
X80168749Y-168275000D02*
X79374999Y-168275000D01*
X59531250Y-168275000D02*
X58737500Y-168275000D01*
X62706250Y-168275000D02*
X61912500Y-168275000D01*
X78581249Y-168275000D02*
X77787500Y-168275000D01*
X43656250Y-168275000D02*
X42862500Y-168275000D01*
X42068750Y-168275000D02*
X41275000Y-168275000D01*
X46831250Y-168275000D02*
X46037500Y-168275000D01*
X50006250Y-168275000D02*
X49212500Y-168275000D01*
X57943750Y-168275000D02*
X57150000Y-168275000D01*
X61118750Y-168275000D02*
X60325000Y-168275000D01*
X76993750Y-168275000D02*
X76200000Y-168275000D01*
X83343749Y-168275000D02*
X82549999Y-168275000D01*
X48418750Y-168275000D02*
X47625000Y-168275000D01*
X51593750Y-168275000D02*
X50800000Y-168275000D01*
X81756249Y-168275000D02*
X80962499Y-168275000D01*
X69056250Y-168275000D02*
X68262500Y-168275000D01*
X54768750Y-168275000D02*
X53975000Y-168275000D01*
X70643750Y-168275000D02*
X69850000Y-168275000D01*
X53181250Y-168275000D02*
X52387500Y-168275000D01*
X56356250Y-168275000D02*
X55562500Y-168275000D01*
X65881250Y-168275000D02*
X65087500Y-168275000D01*
X67468750Y-168275000D02*
X66675000Y-168275000D01*
X72231250Y-168275000D02*
X71437500Y-168275000D01*
X64293750Y-168275000D02*
X63500000Y-168275000D01*
X73818750Y-168275000D02*
X73025000Y-168275000D01*
X75406250Y-168275000D02*
X74612500Y-168275000D01*
X45243750Y-168275000D02*
X44450000Y-168275000D01*
X156368750Y-168275000D02*
X155575000Y-168275000D01*
X88106249Y-168275000D02*
X87312499Y-168275000D01*
X100806251Y-168275000D02*
X100012501Y-168275000D01*
X145256250Y-168275000D02*
X144462500Y-168275000D01*
X151606250Y-168275000D02*
X150812500Y-168275000D01*
X99218751Y-168275000D02*
X98425001Y-168275000D01*
X118268750Y-168275000D02*
X117475000Y-168275000D01*
X107156251Y-168275000D02*
X106362501Y-168275000D01*
X140493750Y-168275000D02*
X139700000Y-168275000D01*
X96043751Y-168275000D02*
X95250001Y-168275000D01*
X121443750Y-168275000D02*
X120650000Y-168275000D01*
X94456251Y-168275000D02*
X93662499Y-168275000D01*
X97631251Y-168275000D02*
X96837501Y-168275000D01*
X103981251Y-168275000D02*
X103187501Y-168275000D01*
X148431250Y-168275000D02*
X147637500Y-168275000D01*
X157956250Y-168275000D02*
X157162500Y-168275000D01*
X162718750Y-168275000D02*
X161925000Y-168275000D01*
X113506250Y-168275000D02*
X112712500Y-168275000D01*
X126206250Y-168275000D02*
X125412500Y-168275000D01*
X124618750Y-168275000D02*
X123825000Y-168275000D01*
X127793750Y-168275000D02*
X127000000Y-168275000D01*
X159543750Y-168275000D02*
X158750000Y-168275000D01*
X153193750Y-168275000D02*
X152400000Y-168275000D01*
X150018750Y-168275000D02*
X149225000Y-168275000D01*
X161131250Y-168275000D02*
X160337500Y-168275000D01*
X102393751Y-168275000D02*
X101600001Y-168275000D01*
X110331250Y-168275000D02*
X109537500Y-168275000D01*
X111918750Y-168275000D02*
X111125000Y-168275000D01*
X115093750Y-168275000D02*
X114300000Y-168275000D01*
X105568751Y-168275000D02*
X104775001Y-168275000D01*
X130968750Y-168275000D02*
X130175000Y-168275000D01*
X135731250Y-168275000D02*
X134937500Y-168275000D01*
X132556250Y-168275000D02*
X131762500Y-168275000D01*
X134143750Y-168275000D02*
X133350000Y-168275000D01*
X116681250Y-168275000D02*
X115887500Y-168275000D01*
X119856250Y-168275000D02*
X119062500Y-168275000D01*
X108743751Y-168275000D02*
X107950001Y-168275000D01*
X123031250Y-168275000D02*
X122237500Y-168275000D01*
X143668750Y-168275000D02*
X142875000Y-168275000D01*
X146843750Y-168275000D02*
X146050000Y-168275000D01*
X154781250Y-168275000D02*
X153987500Y-168275000D01*
X142081250Y-168275000D02*
X141287500Y-168275000D01*
X137318750Y-168275000D02*
X136525000Y-168275000D01*
X89693749Y-168275000D02*
X88899999Y-168275000D01*
X91281249Y-168275000D02*
X90487499Y-168275000D01*
X129381250Y-168275000D02*
X128587500Y-168275000D01*
X86518749Y-168275000D02*
X85724999Y-168275000D01*
X92868749Y-168275000D02*
X92074999Y-168275000D01*
X138906250Y-168275000D02*
X138112500Y-168275000D01*
X98425000Y-128587500D02*
X98425000Y-127793750D01*
X98425000Y-123825000D02*
X98425000Y-123031250D01*
X98425000Y-103187500D02*
X98425000Y-102393750D01*
X98425000Y-106362500D02*
X98425000Y-105568750D01*
X98425000Y-122237500D02*
X98425000Y-121443750D01*
X98425000Y-87312500D02*
X98425000Y-86518750D01*
X98425000Y-85725000D02*
X98425000Y-84931250D01*
X98425000Y-90487500D02*
X98425000Y-89693750D01*
X98425000Y-93662500D02*
X98425000Y-92868750D01*
X98425000Y-101600000D02*
X98425000Y-100806250D01*
X98425000Y-104775000D02*
X98425000Y-103981250D01*
X98425000Y-120650000D02*
X98425000Y-119856250D01*
X98425000Y-127000000D02*
X98425000Y-126206250D01*
X98425000Y-92075000D02*
X98425000Y-91281250D01*
X98425000Y-95250000D02*
X98425000Y-94456250D01*
X98425000Y-125412500D02*
X98425000Y-124618750D01*
X98425000Y-112712500D02*
X98425000Y-111918750D01*
X98425000Y-98425000D02*
X98425000Y-97631250D01*
X98425000Y-114300000D02*
X98425000Y-113506250D01*
X98425000Y-96837500D02*
X98425000Y-96043750D01*
X98425000Y-100012500D02*
X98425000Y-99218750D01*
X98425000Y-109537500D02*
X98425000Y-108743750D01*
X98425000Y-111125000D02*
X98425000Y-110331250D01*
X98425000Y-115887500D02*
X98425000Y-115093750D01*
X98425000Y-107950000D02*
X98425000Y-107156250D01*
X98425000Y-117475000D02*
X98425000Y-116681250D01*
X98425000Y-119062500D02*
X98425000Y-118268750D01*
X98425000Y-88900000D02*
X98425000Y-88106250D01*
X98425000Y-200025000D02*
X98425000Y-199231250D01*
X98425000Y-131762500D02*
X98425000Y-130968750D01*
X98425000Y-144462500D02*
X98425000Y-143668750D01*
X98425000Y-188912500D02*
X98425000Y-188118750D01*
X98425000Y-195262500D02*
X98425000Y-194468750D01*
X98425000Y-142875000D02*
X98425000Y-142081250D01*
X98425000Y-161925000D02*
X98425000Y-161131250D01*
X98425000Y-150812500D02*
X98425000Y-150018750D01*
X98425000Y-184150000D02*
X98425000Y-183356250D01*
X98425000Y-139700000D02*
X98425000Y-138906250D01*
X98425000Y-165100000D02*
X98425000Y-164306250D01*
X98425000Y-138112500D02*
X98425000Y-137318750D01*
X98425000Y-141287500D02*
X98425000Y-140493750D01*
X98425000Y-147637500D02*
X98425000Y-146843750D01*
X98425000Y-192087500D02*
X98425000Y-191293750D01*
X98425000Y-201612500D02*
X98425000Y-200818750D01*
X98425000Y-206375000D02*
X98425000Y-205581250D01*
X98425000Y-157162500D02*
X98425000Y-156368750D01*
X98425000Y-169862500D02*
X98425000Y-169068750D01*
X98425000Y-168275000D02*
X98425000Y-167481250D01*
X98425000Y-171450000D02*
X98425000Y-170656250D01*
X98425000Y-203200000D02*
X98425000Y-202406250D01*
X98425000Y-196850000D02*
X98425000Y-196056250D01*
X98425000Y-193675000D02*
X98425000Y-192881250D01*
X98425000Y-204787500D02*
X98425000Y-203993750D01*
X98425000Y-146050000D02*
X98425000Y-145256250D01*
X98425000Y-153987500D02*
X98425000Y-153193750D01*
X98425000Y-155575000D02*
X98425000Y-154781250D01*
X98425000Y-158750000D02*
X98425000Y-157956250D01*
X98425000Y-149225000D02*
X98425000Y-148431250D01*
X98425000Y-174625000D02*
X98425000Y-173831250D01*
X98425000Y-179387500D02*
X98425000Y-178593750D01*
X98425000Y-176212500D02*
X98425000Y-175418750D01*
X98425000Y-177800000D02*
X98425000Y-177006250D01*
X98425000Y-160337500D02*
X98425000Y-159543750D01*
X98425000Y-163512500D02*
X98425000Y-162718750D01*
X98425000Y-152400000D02*
X98425000Y-151606250D01*
X98425000Y-166687500D02*
X98425000Y-165893750D01*
X98425000Y-187325000D02*
X98425000Y-186531250D01*
X98425000Y-190500000D02*
X98425000Y-189706250D01*
X98425000Y-198437500D02*
X98425000Y-197643750D01*
X98425000Y-185737500D02*
X98425000Y-184943750D01*
X98425000Y-180975000D02*
X98425000Y-180181250D01*
X98425000Y-133350000D02*
X98425000Y-132556250D01*
X98425000Y-134937500D02*
X98425000Y-134143750D01*
X98425000Y-173037500D02*
X98425000Y-172243750D01*
X98425000Y-130175000D02*
X98425000Y-129381250D01*
X98425000Y-136525000D02*
X98425000Y-135731250D01*
X98425000Y-182562500D02*
X98425000Y-181768750D01*
X136525000Y-128587500D02*
X136525000Y-127793750D01*
X136525000Y-123825000D02*
X136525000Y-123031250D01*
X136525000Y-103187500D02*
X136525000Y-102393750D01*
X136525000Y-106362500D02*
X136525000Y-105568750D01*
X136525000Y-122237500D02*
X136525000Y-121443750D01*
X136525000Y-87312500D02*
X136525000Y-86518750D01*
X136525000Y-85725000D02*
X136525000Y-84931250D01*
X136525000Y-90487500D02*
X136525000Y-89693750D01*
X136525000Y-93662500D02*
X136525000Y-92868750D01*
X136525000Y-101600000D02*
X136525000Y-100806250D01*
X136525000Y-104775000D02*
X136525000Y-103981250D01*
X136525000Y-120650000D02*
X136525000Y-119856250D01*
X136525000Y-127000000D02*
X136525000Y-126206250D01*
X136525000Y-92075000D02*
X136525000Y-91281250D01*
X136525000Y-95250000D02*
X136525000Y-94456250D01*
X136525000Y-125412500D02*
X136525000Y-124618750D01*
X136525000Y-112712500D02*
X136525000Y-111918750D01*
X136525000Y-98425000D02*
X136525000Y-97631250D01*
X136525000Y-114300000D02*
X136525000Y-113506250D01*
X136525000Y-96837500D02*
X136525000Y-96043750D01*
X136525000Y-100012500D02*
X136525000Y-99218750D01*
X136525000Y-109537500D02*
X136525000Y-108743750D01*
X136525000Y-111125000D02*
X136525000Y-110331250D01*
X136525000Y-115887500D02*
X136525000Y-115093750D01*
X136525000Y-107950000D02*
X136525000Y-107156250D01*
X136525000Y-117475000D02*
X136525000Y-116681250D01*
X136525000Y-119062500D02*
X136525000Y-118268750D01*
X136525000Y-88900000D02*
X136525000Y-88106250D01*
X136525000Y-200025000D02*
X136525000Y-199231250D01*
X136525000Y-131762500D02*
X136525000Y-130968750D01*
X136525000Y-144462500D02*
X136525000Y-143668750D01*
X136525000Y-188912500D02*
X136525000Y-188118750D01*
X136525000Y-195262500D02*
X136525000Y-194468750D01*
X136525000Y-142875000D02*
X136525000Y-142081250D01*
X136525000Y-161925000D02*
X136525000Y-161131250D01*
X136525000Y-150812500D02*
X136525000Y-150018750D01*
X136525000Y-184150000D02*
X136525000Y-183356250D01*
X136525000Y-139700000D02*
X136525000Y-138906250D01*
X136525000Y-165100000D02*
X136525000Y-164306250D01*
X136525000Y-138112500D02*
X136525000Y-137318750D01*
X136525000Y-141287500D02*
X136525000Y-140493750D01*
X136525000Y-147637500D02*
X136525000Y-146843750D01*
X136525000Y-192087500D02*
X136525000Y-191293750D01*
X136525000Y-201612500D02*
X136525000Y-200818750D01*
X136525000Y-206375000D02*
X136525000Y-205581250D01*
X136525000Y-157162500D02*
X136525000Y-156368750D01*
X136525000Y-169862500D02*
X136525000Y-169068750D01*
X136525000Y-168275000D02*
X136525000Y-167481250D01*
X136525000Y-171450000D02*
X136525000Y-170656250D01*
X136525000Y-203200000D02*
X136525000Y-202406250D01*
X136525000Y-196850000D02*
X136525000Y-196056250D01*
X136525000Y-193675000D02*
X136525000Y-192881250D01*
X136525000Y-204787500D02*
X136525000Y-203993750D01*
X136525000Y-146050000D02*
X136525000Y-145256250D01*
X136525000Y-153987500D02*
X136525000Y-153193750D01*
X136525000Y-155575000D02*
X136525000Y-154781250D01*
X136525000Y-158750000D02*
X136525000Y-157956250D01*
X136525000Y-149225000D02*
X136525000Y-148431250D01*
X136525000Y-174625000D02*
X136525000Y-173831250D01*
X136525000Y-179387500D02*
X136525000Y-178593750D01*
X136525000Y-176212500D02*
X136525000Y-175418750D01*
X136525000Y-177800000D02*
X136525000Y-177006250D01*
X136525000Y-160337500D02*
X136525000Y-159543750D01*
X136525000Y-163512500D02*
X136525000Y-162718750D01*
X136525000Y-152400000D02*
X136525000Y-151606250D01*
X136525000Y-166687500D02*
X136525000Y-165893750D01*
X136525000Y-187325000D02*
X136525000Y-186531250D01*
X136525000Y-190500000D02*
X136525000Y-189706250D01*
X136525000Y-198437500D02*
X136525000Y-197643750D01*
X136525000Y-185737500D02*
X136525000Y-184943750D01*
X136525000Y-180975000D02*
X136525000Y-180181250D01*
X136525000Y-133350000D02*
X136525000Y-132556250D01*
X136525000Y-134937500D02*
X136525000Y-134143750D01*
X136525000Y-173037500D02*
X136525000Y-172243750D01*
X136525000Y-130175000D02*
X136525000Y-129381250D01*
X136525000Y-136525000D02*
X136525000Y-135731250D01*
X136525000Y-182562500D02*
X136525000Y-181768750D01*
X174625000Y-128587500D02*
X174625000Y-127793750D01*
X174625000Y-123825000D02*
X174625000Y-123031250D01*
X174625000Y-103187500D02*
X174625000Y-102393750D01*
X174625000Y-106362500D02*
X174625000Y-105568750D01*
X174625000Y-122237500D02*
X174625000Y-121443750D01*
X174625000Y-87312500D02*
X174625000Y-86518750D01*
X174625000Y-85725000D02*
X174625000Y-84931250D01*
X174625000Y-90487500D02*
X174625000Y-89693750D01*
X174625000Y-93662500D02*
X174625000Y-92868750D01*
X174625000Y-101600000D02*
X174625000Y-100806250D01*
X174625000Y-104775000D02*
X174625000Y-103981250D01*
X174625000Y-120650000D02*
X174625000Y-119856250D01*
X174625000Y-127000000D02*
X174625000Y-126206250D01*
X174625000Y-92075000D02*
X174625000Y-91281250D01*
X174625000Y-95250000D02*
X174625000Y-94456250D01*
X174625000Y-125412500D02*
X174625000Y-124618750D01*
X174625000Y-112712500D02*
X174625000Y-111918750D01*
X174625000Y-98425000D02*
X174625000Y-97631250D01*
X174625000Y-114300000D02*
X174625000Y-113506250D01*
X174625000Y-96837500D02*
X174625000Y-96043750D01*
X174625000Y-100012500D02*
X174625000Y-99218750D01*
X174625000Y-109537500D02*
X174625000Y-108743750D01*
X174625000Y-111125000D02*
X174625000Y-110331250D01*
X174625000Y-115887500D02*
X174625000Y-115093750D01*
X174625000Y-107950000D02*
X174625000Y-107156250D01*
X174625000Y-117475000D02*
X174625000Y-116681250D01*
X174625000Y-119062500D02*
X174625000Y-118268750D01*
X174625000Y-88900000D02*
X174625000Y-88106250D01*
X174625000Y-200025000D02*
X174625000Y-199231250D01*
X174625000Y-131762500D02*
X174625000Y-130968750D01*
X174625000Y-144462500D02*
X174625000Y-143668750D01*
X174625000Y-188912500D02*
X174625000Y-188118750D01*
X174625000Y-195262500D02*
X174625000Y-194468750D01*
X174625000Y-142875000D02*
X174625000Y-142081250D01*
X174625000Y-161925000D02*
X174625000Y-161131250D01*
X174625000Y-150812500D02*
X174625000Y-150018750D01*
X174625000Y-184150000D02*
X174625000Y-183356250D01*
X174625000Y-139700000D02*
X174625000Y-138906250D01*
X174625000Y-165100000D02*
X174625000Y-164306250D01*
X174625000Y-138112500D02*
X174625000Y-137318750D01*
X174625000Y-141287500D02*
X174625000Y-140493750D01*
X174625000Y-147637500D02*
X174625000Y-146843750D01*
X174625000Y-192087500D02*
X174625000Y-191293750D01*
X174625000Y-201612500D02*
X174625000Y-200818750D01*
X174625000Y-206375000D02*
X174625000Y-205581250D01*
X174625000Y-157162500D02*
X174625000Y-156368750D01*
X174625000Y-169862500D02*
X174625000Y-169068750D01*
X174625000Y-168275000D02*
X174625000Y-167481250D01*
X174625000Y-171450000D02*
X174625000Y-170656250D01*
X174625000Y-203200000D02*
X174625000Y-202406250D01*
X174625000Y-196850000D02*
X174625000Y-196056250D01*
X174625000Y-193675000D02*
X174625000Y-192881250D01*
X174625000Y-204787500D02*
X174625000Y-203993750D01*
X174625000Y-146050000D02*
X174625000Y-145256250D01*
X174625000Y-153987500D02*
X174625000Y-153193750D01*
X174625000Y-155575000D02*
X174625000Y-154781250D01*
X174625000Y-158750000D02*
X174625000Y-157956250D01*
X174625000Y-149225000D02*
X174625000Y-148431250D01*
X174625000Y-174625000D02*
X174625000Y-173831250D01*
X174625000Y-179387500D02*
X174625000Y-178593750D01*
X174625000Y-176212500D02*
X174625000Y-175418750D01*
X174625000Y-177800000D02*
X174625000Y-177006250D01*
X174625000Y-160337500D02*
X174625000Y-159543750D01*
X174625000Y-163512500D02*
X174625000Y-162718750D01*
X174625000Y-152400000D02*
X174625000Y-151606250D01*
X174625000Y-166687500D02*
X174625000Y-165893750D01*
X174625000Y-187325000D02*
X174625000Y-186531250D01*
X174625000Y-190500000D02*
X174625000Y-189706250D01*
X174625000Y-198437500D02*
X174625000Y-197643750D01*
X174625000Y-185737500D02*
X174625000Y-184943750D01*
X174625000Y-180975000D02*
X174625000Y-180181250D01*
X174625000Y-133350000D02*
X174625000Y-132556250D01*
X174625000Y-134937500D02*
X174625000Y-134143750D01*
X174625000Y-173037500D02*
X174625000Y-172243750D01*
X174625000Y-130175000D02*
X174625000Y-129381250D01*
X174625000Y-136525000D02*
X174625000Y-135731250D01*
X174625000Y-182562500D02*
X174625000Y-181768750D01*
X312610235Y-83408497D02*
G75*
G03X313099859Y-83798153I1714765J1652247D01*
G01*
X312008831Y-82309140D02*
G75*
G03X312271686Y-82962164I2316169J552890D01*
G01*
X313604982Y-84026035D02*
G75*
G03X314325000Y-84137500I720018J2269785D01*
G01*
X311943750Y-80962500D02*
X311943750Y-81756250D01*
X311943750Y-79375000D02*
X311943750Y-80168750D01*
X311943750Y-77787500D02*
X311943750Y-78581250D01*
X311943750Y-76200000D02*
X311943750Y-76993750D01*
X311943750Y-74612500D02*
X311943750Y-75406250D01*
X311943750Y-73025000D02*
X311943750Y-73818750D01*
X311943750Y-71437500D02*
X311943750Y-72231250D01*
X311943750Y-69850000D02*
X311943750Y-70643750D01*
X311943750Y-68262500D02*
X311943750Y-69056250D01*
X311943750Y-66675000D02*
X311943750Y-67468750D01*
X311943750Y-65087500D02*
X311943750Y-65881250D01*
X311943750Y-63500000D02*
X311943750Y-64293750D01*
X312610317Y-61847669D02*
G75*
G02X313099859Y-61458097I1714683J-1652331D01*
G01*
X312009212Y-62945516D02*
G75*
G02X312271686Y-62294086I2315788J-554484D01*
G01*
X313605673Y-61229996D02*
G75*
G02X314325000Y-61118750I719327J-2270004D01*
G01*
X315912500Y-61118750D02*
X315118750Y-61118750D01*
X317500000Y-61118750D02*
X316706250Y-61118750D01*
X319087500Y-61118750D02*
X318293750Y-61118750D01*
X320675000Y-61118750D02*
X319881250Y-61118750D01*
X322262500Y-61118750D02*
X321468750Y-61118750D01*
X323850000Y-61118750D02*
X323056250Y-61118750D01*
X325437500Y-61118750D02*
X324643750Y-61118750D01*
X327025000Y-61118750D02*
X326231250Y-61118750D01*
X328612500Y-61118750D02*
X327818750Y-61118750D01*
X330200000Y-61118750D02*
X329406250Y-61118750D01*
X331787500Y-61118750D02*
X330993750Y-61118750D01*
X333375000Y-61118750D02*
X332581250Y-61118750D01*
X334962500Y-61118750D02*
X334168750Y-61118750D01*
X336550000Y-61118750D02*
X335756250Y-61118750D01*
X338137500Y-61118750D02*
X337343750Y-61118750D01*
X339725000Y-61118750D02*
X338931250Y-61118750D01*
X341312500Y-61118750D02*
X340518750Y-61118750D01*
X342900000Y-61118750D02*
X342106250Y-61118750D01*
X344487500Y-61118750D02*
X343693750Y-61118750D01*
X346075000Y-61118750D02*
X345281250Y-61118750D01*
X347662500Y-61118750D02*
X346868750Y-61118750D01*
X349250000Y-61118750D02*
X348456250Y-61118750D01*
X350837500Y-61118750D02*
X350043750Y-61118750D01*
X352425000Y-61118750D02*
X351631250Y-61118750D01*
X354012500Y-61118750D02*
X353218750Y-61118750D01*
X355600000Y-61118750D02*
X354806250Y-61118750D01*
X357187500Y-61118750D02*
X356393750Y-61118750D01*
X358775000Y-61118750D02*
X357981250Y-61118750D01*
X360362500Y-61118750D02*
X359568750Y-61118750D01*
X361950000Y-61118750D02*
X361156250Y-61118750D01*
X364458515Y-61847753D02*
G75*
G03X363968891Y-61458097I-1714765J-1652247D01*
G01*
X365059919Y-62947110D02*
G75*
G03X364797064Y-62294086I-2316169J-552890D01*
G01*
X363463768Y-61230215D02*
G75*
G03X362743750Y-61118750I-720018J-2269785D01*
G01*
X365125000Y-64293750D02*
X365125000Y-63500000D01*
X365125000Y-65881250D02*
X365125000Y-65087500D01*
X365125000Y-67468750D02*
X365125000Y-66675000D01*
X365125000Y-69056250D02*
X365125000Y-68262500D01*
X365125000Y-70643750D02*
X365125000Y-69850000D01*
X365125000Y-72231250D02*
X365125000Y-71437500D01*
X365125000Y-73818750D02*
X365125000Y-73025000D01*
X365125000Y-75406250D02*
X365125000Y-74612500D01*
X365125000Y-76993750D02*
X365125000Y-76200000D01*
X365125000Y-78581250D02*
X365125000Y-77787500D01*
X365125000Y-80168750D02*
X365125000Y-79375000D01*
X365125000Y-81756250D02*
X365125000Y-80962500D01*
X365059537Y-82310734D02*
G75*
G02X364797063Y-82962164I-2315787J554484D01*
G01*
X364458433Y-83408581D02*
G75*
G02X363968891Y-83798153I-1714683J1652331D01*
G01*
X363463077Y-84026254D02*
G75*
G02X362743750Y-84137500I-719327J2270004D01*
G01*
X361156250Y-84137500D02*
X361950000Y-84137500D01*
X359568750Y-84137500D02*
X360362500Y-84137500D01*
X357981250Y-84137500D02*
X358775000Y-84137500D01*
X356393750Y-84137500D02*
X357187500Y-84137500D01*
X354806250Y-84137500D02*
X355600000Y-84137500D01*
X353218750Y-84137500D02*
X354012500Y-84137500D01*
X351631250Y-84137500D02*
X352425000Y-84137500D01*
X350043750Y-84137500D02*
X350837500Y-84137500D01*
X348456250Y-84137500D02*
X349250000Y-84137500D01*
X346868750Y-84137500D02*
X347662500Y-84137500D01*
X345281250Y-84137500D02*
X346075000Y-84137500D01*
X343693750Y-84137500D02*
X344487500Y-84137500D01*
X342106250Y-84137500D02*
X342900000Y-84137500D01*
X340518750Y-84137500D02*
X341312500Y-84137500D01*
X338931250Y-84137500D02*
X339725000Y-84137500D01*
X337343750Y-84137500D02*
X338137500Y-84137500D01*
X335756250Y-84137500D02*
X336550000Y-84137500D01*
X334168750Y-84137500D02*
X334962500Y-84137500D01*
X332581250Y-84137500D02*
X333375000Y-84137500D01*
X330993750Y-84137500D02*
X331787500Y-84137500D01*
X329406250Y-84137500D02*
X330200000Y-84137500D01*
X327818750Y-84137500D02*
X328612500Y-84137500D01*
X326231250Y-84137500D02*
X327025000Y-84137500D01*
X324643750Y-84137500D02*
X325437500Y-84137500D01*
X323056250Y-84137500D02*
X323850000Y-84137500D01*
X321468750Y-84137500D02*
X322262500Y-84137500D01*
X319881250Y-84137500D02*
X320675000Y-84137500D01*
X318293750Y-84137500D02*
X319087500Y-84137500D01*
X316706250Y-84137500D02*
X317500000Y-84137500D01*
X315118750Y-84137500D02*
X315912500Y-84137500D01*
D11*
X192341666Y-180008630D02*
X192008333Y-179532440D01*
X191770238Y-180008630D02*
X191770238Y-179008630D01*
X192151190Y-179008630D01*
X192246428Y-179056250D01*
X192294047Y-179103869D01*
X192341666Y-179199107D01*
X192341666Y-179341964D01*
X192294047Y-179437202D01*
X192246428Y-179484821D01*
X192151190Y-179532440D01*
X191770238Y-179532440D01*
X192770238Y-179484821D02*
X193103571Y-179484821D01*
X193246428Y-180008630D02*
X192770238Y-180008630D01*
X192770238Y-179008630D01*
X193246428Y-179008630D01*
X194008333Y-179484821D02*
X193675000Y-179484821D01*
X193675000Y-180008630D02*
X193675000Y-179008630D01*
X194151190Y-179008630D01*
X194675000Y-179008630D02*
X194675000Y-179246726D01*
X194436904Y-179151488D02*
X194675000Y-179246726D01*
X194913095Y-179151488D01*
X194532142Y-179437202D02*
X194675000Y-179246726D01*
X194817857Y-179437202D01*
X195436904Y-179008630D02*
X195436904Y-179246726D01*
X195198809Y-179151488D02*
X195436904Y-179246726D01*
X195675000Y-179151488D01*
X195294047Y-179437202D02*
X195436904Y-179246726D01*
X195579761Y-179437202D01*
X192341666Y-141908630D02*
X192008333Y-141432440D01*
X191770238Y-141908630D02*
X191770238Y-140908630D01*
X192151190Y-140908630D01*
X192246428Y-140956250D01*
X192294047Y-141003869D01*
X192341666Y-141099107D01*
X192341666Y-141241964D01*
X192294047Y-141337202D01*
X192246428Y-141384821D01*
X192151190Y-141432440D01*
X191770238Y-141432440D01*
X192770238Y-141384821D02*
X193103571Y-141384821D01*
X193246428Y-141908630D02*
X192770238Y-141908630D01*
X192770238Y-140908630D01*
X193246428Y-140908630D01*
X194008333Y-141384821D02*
X193675000Y-141384821D01*
X193675000Y-141908630D02*
X193675000Y-140908630D01*
X194151190Y-140908630D01*
X194675000Y-140908630D02*
X194675000Y-141146726D01*
X194436904Y-141051488D02*
X194675000Y-141146726D01*
X194913095Y-141051488D01*
X194532142Y-141337202D02*
X194675000Y-141146726D01*
X194817857Y-141337202D01*
X195436904Y-140908630D02*
X195436904Y-141146726D01*
X195198809Y-141051488D02*
X195436904Y-141146726D01*
X195675000Y-141051488D01*
X195294047Y-141337202D02*
X195436904Y-141146726D01*
X195579761Y-141337202D01*
X192341666Y-103808630D02*
X192008333Y-103332440D01*
X191770238Y-103808630D02*
X191770238Y-102808630D01*
X192151190Y-102808630D01*
X192246428Y-102856250D01*
X192294047Y-102903869D01*
X192341666Y-102999107D01*
X192341666Y-103141964D01*
X192294047Y-103237202D01*
X192246428Y-103284821D01*
X192151190Y-103332440D01*
X191770238Y-103332440D01*
X192770238Y-103284821D02*
X193103571Y-103284821D01*
X193246428Y-103808630D02*
X192770238Y-103808630D01*
X192770238Y-102808630D01*
X193246428Y-102808630D01*
X194008333Y-103284821D02*
X193675000Y-103284821D01*
X193675000Y-103808630D02*
X193675000Y-102808630D01*
X194151190Y-102808630D01*
X194675000Y-102808630D02*
X194675000Y-103046726D01*
X194436904Y-102951488D02*
X194675000Y-103046726D01*
X194913095Y-102951488D01*
X194532142Y-103237202D02*
X194675000Y-103046726D01*
X194817857Y-103237202D01*
X195436904Y-102808630D02*
X195436904Y-103046726D01*
X195198809Y-102951488D02*
X195436904Y-103046726D01*
X195675000Y-102951488D01*
X195294047Y-103237202D02*
X195436904Y-103046726D01*
X195579761Y-103237202D01*
X306641666Y-180008630D02*
X306308333Y-179532440D01*
X306070238Y-180008630D02*
X306070238Y-179008630D01*
X306451190Y-179008630D01*
X306546428Y-179056250D01*
X306594047Y-179103869D01*
X306641666Y-179199107D01*
X306641666Y-179341964D01*
X306594047Y-179437202D01*
X306546428Y-179484821D01*
X306451190Y-179532440D01*
X306070238Y-179532440D01*
X307070238Y-179484821D02*
X307403571Y-179484821D01*
X307546428Y-180008630D02*
X307070238Y-180008630D01*
X307070238Y-179008630D01*
X307546428Y-179008630D01*
X308308333Y-179484821D02*
X307975000Y-179484821D01*
X307975000Y-180008630D02*
X307975000Y-179008630D01*
X308451190Y-179008630D01*
X308975000Y-179008630D02*
X308975000Y-179246726D01*
X308736904Y-179151488D02*
X308975000Y-179246726D01*
X309213095Y-179151488D01*
X308832142Y-179437202D02*
X308975000Y-179246726D01*
X309117857Y-179437202D01*
X309736904Y-179008630D02*
X309736904Y-179246726D01*
X309498809Y-179151488D02*
X309736904Y-179246726D01*
X309975000Y-179151488D01*
X309594047Y-179437202D02*
X309736904Y-179246726D01*
X309879761Y-179437202D01*
X306641666Y-141908630D02*
X306308333Y-141432440D01*
X306070238Y-141908630D02*
X306070238Y-140908630D01*
X306451190Y-140908630D01*
X306546428Y-140956250D01*
X306594047Y-141003869D01*
X306641666Y-141099107D01*
X306641666Y-141241964D01*
X306594047Y-141337202D01*
X306546428Y-141384821D01*
X306451190Y-141432440D01*
X306070238Y-141432440D01*
X307070238Y-141384821D02*
X307403571Y-141384821D01*
X307546428Y-141908630D02*
X307070238Y-141908630D01*
X307070238Y-140908630D01*
X307546428Y-140908630D01*
X308308333Y-141384821D02*
X307975000Y-141384821D01*
X307975000Y-141908630D02*
X307975000Y-140908630D01*
X308451190Y-140908630D01*
X308975000Y-140908630D02*
X308975000Y-141146726D01*
X308736904Y-141051488D02*
X308975000Y-141146726D01*
X309213095Y-141051488D01*
X308832142Y-141337202D02*
X308975000Y-141146726D01*
X309117857Y-141337202D01*
X309736904Y-140908630D02*
X309736904Y-141146726D01*
X309498809Y-141051488D02*
X309736904Y-141146726D01*
X309975000Y-141051488D01*
X309594047Y-141337202D02*
X309736904Y-141146726D01*
X309879761Y-141337202D01*
X306641666Y-103808630D02*
X306308333Y-103332440D01*
X306070238Y-103808630D02*
X306070238Y-102808630D01*
X306451190Y-102808630D01*
X306546428Y-102856250D01*
X306594047Y-102903869D01*
X306641666Y-102999107D01*
X306641666Y-103141964D01*
X306594047Y-103237202D01*
X306546428Y-103284821D01*
X306451190Y-103332440D01*
X306070238Y-103332440D01*
X307070238Y-103284821D02*
X307403571Y-103284821D01*
X307546428Y-103808630D02*
X307070238Y-103808630D01*
X307070238Y-102808630D01*
X307546428Y-102808630D01*
X308308333Y-103284821D02*
X307975000Y-103284821D01*
X307975000Y-103808630D02*
X307975000Y-102808630D01*
X308451190Y-102808630D01*
X308975000Y-102808630D02*
X308975000Y-103046726D01*
X308736904Y-102951488D02*
X308975000Y-103046726D01*
X309213095Y-102951488D01*
X308832142Y-103237202D02*
X308975000Y-103046726D01*
X309117857Y-103237202D01*
X309736904Y-102808630D02*
X309736904Y-103046726D01*
X309498809Y-102951488D02*
X309736904Y-103046726D01*
X309975000Y-102951488D01*
X309594047Y-103237202D02*
X309736904Y-103046726D01*
X309879761Y-103237202D01*
X58991666Y-103808630D02*
X58658333Y-103332440D01*
X58420238Y-103808630D02*
X58420238Y-102808630D01*
X58801190Y-102808630D01*
X58896428Y-102856250D01*
X58944047Y-102903869D01*
X58991666Y-102999107D01*
X58991666Y-103141964D01*
X58944047Y-103237202D01*
X58896428Y-103284821D01*
X58801190Y-103332440D01*
X58420238Y-103332440D01*
X59420238Y-103284821D02*
X59753571Y-103284821D01*
X59896428Y-103808630D02*
X59420238Y-103808630D01*
X59420238Y-102808630D01*
X59896428Y-102808630D01*
X60658333Y-103284821D02*
X60325000Y-103284821D01*
X60325000Y-103808630D02*
X60325000Y-102808630D01*
X60801190Y-102808630D01*
X61325000Y-102808630D02*
X61325000Y-103046726D01*
X61086904Y-102951488D02*
X61325000Y-103046726D01*
X61563095Y-102951488D01*
X61182142Y-103237202D02*
X61325000Y-103046726D01*
X61467857Y-103237202D01*
X62086904Y-102808630D02*
X62086904Y-103046726D01*
X61848809Y-102951488D02*
X62086904Y-103046726D01*
X62325000Y-102951488D01*
X61944047Y-103237202D02*
X62086904Y-103046726D01*
X62229761Y-103237202D01*
X58991666Y-141908630D02*
X58658333Y-141432440D01*
X58420238Y-141908630D02*
X58420238Y-140908630D01*
X58801190Y-140908630D01*
X58896428Y-140956250D01*
X58944047Y-141003869D01*
X58991666Y-141099107D01*
X58991666Y-141241964D01*
X58944047Y-141337202D01*
X58896428Y-141384821D01*
X58801190Y-141432440D01*
X58420238Y-141432440D01*
X59420238Y-141384821D02*
X59753571Y-141384821D01*
X59896428Y-141908630D02*
X59420238Y-141908630D01*
X59420238Y-140908630D01*
X59896428Y-140908630D01*
X60658333Y-141384821D02*
X60325000Y-141384821D01*
X60325000Y-141908630D02*
X60325000Y-140908630D01*
X60801190Y-140908630D01*
X61325000Y-140908630D02*
X61325000Y-141146726D01*
X61086904Y-141051488D02*
X61325000Y-141146726D01*
X61563095Y-141051488D01*
X61182142Y-141337202D02*
X61325000Y-141146726D01*
X61467857Y-141337202D01*
X62086904Y-140908630D02*
X62086904Y-141146726D01*
X61848809Y-141051488D02*
X62086904Y-141146726D01*
X62325000Y-141051488D01*
X61944047Y-141337202D02*
X62086904Y-141146726D01*
X62229761Y-141337202D01*
X58991666Y-180008630D02*
X58658333Y-179532440D01*
X58420238Y-180008630D02*
X58420238Y-179008630D01*
X58801190Y-179008630D01*
X58896428Y-179056250D01*
X58944047Y-179103869D01*
X58991666Y-179199107D01*
X58991666Y-179341964D01*
X58944047Y-179437202D01*
X58896428Y-179484821D01*
X58801190Y-179532440D01*
X58420238Y-179532440D01*
X59420238Y-179484821D02*
X59753571Y-179484821D01*
X59896428Y-180008630D02*
X59420238Y-180008630D01*
X59420238Y-179008630D01*
X59896428Y-179008630D01*
X60658333Y-179484821D02*
X60325000Y-179484821D01*
X60325000Y-180008630D02*
X60325000Y-179008630D01*
X60801190Y-179008630D01*
X61325000Y-179008630D02*
X61325000Y-179246726D01*
X61086904Y-179151488D02*
X61325000Y-179246726D01*
X61563095Y-179151488D01*
X61182142Y-179437202D02*
X61325000Y-179246726D01*
X61467857Y-179437202D01*
X62086904Y-179008630D02*
X62086904Y-179246726D01*
X61848809Y-179151488D02*
X62086904Y-179246726D01*
X62325000Y-179151488D01*
X61944047Y-179437202D02*
X62086904Y-179246726D01*
X62229761Y-179437202D01*
X154241666Y-180008630D02*
X153908333Y-179532440D01*
X153670238Y-180008630D02*
X153670238Y-179008630D01*
X154051190Y-179008630D01*
X154146428Y-179056250D01*
X154194047Y-179103869D01*
X154241666Y-179199107D01*
X154241666Y-179341964D01*
X154194047Y-179437202D01*
X154146428Y-179484821D01*
X154051190Y-179532440D01*
X153670238Y-179532440D01*
X154670238Y-179484821D02*
X155003571Y-179484821D01*
X155146428Y-180008630D02*
X154670238Y-180008630D01*
X154670238Y-179008630D01*
X155146428Y-179008630D01*
X155908333Y-179484821D02*
X155575000Y-179484821D01*
X155575000Y-180008630D02*
X155575000Y-179008630D01*
X156051190Y-179008630D01*
X156575000Y-179008630D02*
X156575000Y-179246726D01*
X156336904Y-179151488D02*
X156575000Y-179246726D01*
X156813095Y-179151488D01*
X156432142Y-179437202D02*
X156575000Y-179246726D01*
X156717857Y-179437202D01*
X157336904Y-179008630D02*
X157336904Y-179246726D01*
X157098809Y-179151488D02*
X157336904Y-179246726D01*
X157575000Y-179151488D01*
X157194047Y-179437202D02*
X157336904Y-179246726D01*
X157479761Y-179437202D01*
X154241666Y-141908630D02*
X153908333Y-141432440D01*
X153670238Y-141908630D02*
X153670238Y-140908630D01*
X154051190Y-140908630D01*
X154146428Y-140956250D01*
X154194047Y-141003869D01*
X154241666Y-141099107D01*
X154241666Y-141241964D01*
X154194047Y-141337202D01*
X154146428Y-141384821D01*
X154051190Y-141432440D01*
X153670238Y-141432440D01*
X154670238Y-141384821D02*
X155003571Y-141384821D01*
X155146428Y-141908630D02*
X154670238Y-141908630D01*
X154670238Y-140908630D01*
X155146428Y-140908630D01*
X155908333Y-141384821D02*
X155575000Y-141384821D01*
X155575000Y-141908630D02*
X155575000Y-140908630D01*
X156051190Y-140908630D01*
X156575000Y-140908630D02*
X156575000Y-141146726D01*
X156336904Y-141051488D02*
X156575000Y-141146726D01*
X156813095Y-141051488D01*
X156432142Y-141337202D02*
X156575000Y-141146726D01*
X156717857Y-141337202D01*
X157336904Y-140908630D02*
X157336904Y-141146726D01*
X157098809Y-141051488D02*
X157336904Y-141146726D01*
X157575000Y-141051488D01*
X157194047Y-141337202D02*
X157336904Y-141146726D01*
X157479761Y-141337202D01*
X154241666Y-103808630D02*
X153908333Y-103332440D01*
X153670238Y-103808630D02*
X153670238Y-102808630D01*
X154051190Y-102808630D01*
X154146428Y-102856250D01*
X154194047Y-102903869D01*
X154241666Y-102999107D01*
X154241666Y-103141964D01*
X154194047Y-103237202D01*
X154146428Y-103284821D01*
X154051190Y-103332440D01*
X153670238Y-103332440D01*
X154670238Y-103284821D02*
X155003571Y-103284821D01*
X155146428Y-103808630D02*
X154670238Y-103808630D01*
X154670238Y-102808630D01*
X155146428Y-102808630D01*
X155908333Y-103284821D02*
X155575000Y-103284821D01*
X155575000Y-103808630D02*
X155575000Y-102808630D01*
X156051190Y-102808630D01*
X156575000Y-102808630D02*
X156575000Y-103046726D01*
X156336904Y-102951488D02*
X156575000Y-103046726D01*
X156813095Y-102951488D01*
X156432142Y-103237202D02*
X156575000Y-103046726D01*
X156717857Y-103237202D01*
X157336904Y-102808630D02*
X157336904Y-103046726D01*
X157098809Y-102951488D02*
X157336904Y-103046726D01*
X157575000Y-102951488D01*
X157194047Y-103237202D02*
X157336904Y-103046726D01*
X157479761Y-103237202D01*
X268541666Y-103808630D02*
X268208333Y-103332440D01*
X267970238Y-103808630D02*
X267970238Y-102808630D01*
X268351190Y-102808630D01*
X268446428Y-102856250D01*
X268494047Y-102903869D01*
X268541666Y-102999107D01*
X268541666Y-103141964D01*
X268494047Y-103237202D01*
X268446428Y-103284821D01*
X268351190Y-103332440D01*
X267970238Y-103332440D01*
X268970238Y-103284821D02*
X269303571Y-103284821D01*
X269446428Y-103808630D02*
X268970238Y-103808630D01*
X268970238Y-102808630D01*
X269446428Y-102808630D01*
X270208333Y-103284821D02*
X269875000Y-103284821D01*
X269875000Y-103808630D02*
X269875000Y-102808630D01*
X270351190Y-102808630D01*
X270875000Y-102808630D02*
X270875000Y-103046726D01*
X270636904Y-102951488D02*
X270875000Y-103046726D01*
X271113095Y-102951488D01*
X270732142Y-103237202D02*
X270875000Y-103046726D01*
X271017857Y-103237202D01*
X271636904Y-102808630D02*
X271636904Y-103046726D01*
X271398809Y-102951488D02*
X271636904Y-103046726D01*
X271875000Y-102951488D01*
X271494047Y-103237202D02*
X271636904Y-103046726D01*
X271779761Y-103237202D01*
X268541666Y-180008630D02*
X268208333Y-179532440D01*
X267970238Y-180008630D02*
X267970238Y-179008630D01*
X268351190Y-179008630D01*
X268446428Y-179056250D01*
X268494047Y-179103869D01*
X268541666Y-179199107D01*
X268541666Y-179341964D01*
X268494047Y-179437202D01*
X268446428Y-179484821D01*
X268351190Y-179532440D01*
X267970238Y-179532440D01*
X268970238Y-179484821D02*
X269303571Y-179484821D01*
X269446428Y-180008630D02*
X268970238Y-180008630D01*
X268970238Y-179008630D01*
X269446428Y-179008630D01*
X270208333Y-179484821D02*
X269875000Y-179484821D01*
X269875000Y-180008630D02*
X269875000Y-179008630D01*
X270351190Y-179008630D01*
X270875000Y-179008630D02*
X270875000Y-179246726D01*
X270636904Y-179151488D02*
X270875000Y-179246726D01*
X271113095Y-179151488D01*
X270732142Y-179437202D02*
X270875000Y-179246726D01*
X271017857Y-179437202D01*
X271636904Y-179008630D02*
X271636904Y-179246726D01*
X271398809Y-179151488D02*
X271636904Y-179246726D01*
X271875000Y-179151488D01*
X271494047Y-179437202D02*
X271636904Y-179246726D01*
X271779761Y-179437202D01*
X268541666Y-141908630D02*
X268208333Y-141432440D01*
X267970238Y-141908630D02*
X267970238Y-140908630D01*
X268351190Y-140908630D01*
X268446428Y-140956250D01*
X268494047Y-141003869D01*
X268541666Y-141099107D01*
X268541666Y-141241964D01*
X268494047Y-141337202D01*
X268446428Y-141384821D01*
X268351190Y-141432440D01*
X267970238Y-141432440D01*
X268970238Y-141384821D02*
X269303571Y-141384821D01*
X269446428Y-141908630D02*
X268970238Y-141908630D01*
X268970238Y-140908630D01*
X269446428Y-140908630D01*
X270208333Y-141384821D02*
X269875000Y-141384821D01*
X269875000Y-141908630D02*
X269875000Y-140908630D01*
X270351190Y-140908630D01*
X270875000Y-140908630D02*
X270875000Y-141146726D01*
X270636904Y-141051488D02*
X270875000Y-141146726D01*
X271113095Y-141051488D01*
X270732142Y-141337202D02*
X270875000Y-141146726D01*
X271017857Y-141337202D01*
X271636904Y-140908630D02*
X271636904Y-141146726D01*
X271398809Y-141051488D02*
X271636904Y-141146726D01*
X271875000Y-141051488D01*
X271494047Y-141337202D02*
X271636904Y-141146726D01*
X271779761Y-141337202D01*
X344741666Y-141908630D02*
X344408333Y-141432440D01*
X344170238Y-141908630D02*
X344170238Y-140908630D01*
X344551190Y-140908630D01*
X344646428Y-140956250D01*
X344694047Y-141003869D01*
X344741666Y-141099107D01*
X344741666Y-141241964D01*
X344694047Y-141337202D01*
X344646428Y-141384821D01*
X344551190Y-141432440D01*
X344170238Y-141432440D01*
X345170238Y-141384821D02*
X345503571Y-141384821D01*
X345646428Y-141908630D02*
X345170238Y-141908630D01*
X345170238Y-140908630D01*
X345646428Y-140908630D01*
X346408333Y-141384821D02*
X346075000Y-141384821D01*
X346075000Y-141908630D02*
X346075000Y-140908630D01*
X346551190Y-140908630D01*
X347075000Y-140908630D02*
X347075000Y-141146726D01*
X346836904Y-141051488D02*
X347075000Y-141146726D01*
X347313095Y-141051488D01*
X346932142Y-141337202D02*
X347075000Y-141146726D01*
X347217857Y-141337202D01*
X347836904Y-140908630D02*
X347836904Y-141146726D01*
X347598809Y-141051488D02*
X347836904Y-141146726D01*
X348075000Y-141051488D01*
X347694047Y-141337202D02*
X347836904Y-141146726D01*
X347979761Y-141337202D01*
X344741666Y-180008630D02*
X344408333Y-179532440D01*
X344170238Y-180008630D02*
X344170238Y-179008630D01*
X344551190Y-179008630D01*
X344646428Y-179056250D01*
X344694047Y-179103869D01*
X344741666Y-179199107D01*
X344741666Y-179341964D01*
X344694047Y-179437202D01*
X344646428Y-179484821D01*
X344551190Y-179532440D01*
X344170238Y-179532440D01*
X345170238Y-179484821D02*
X345503571Y-179484821D01*
X345646428Y-180008630D02*
X345170238Y-180008630D01*
X345170238Y-179008630D01*
X345646428Y-179008630D01*
X346408333Y-179484821D02*
X346075000Y-179484821D01*
X346075000Y-180008630D02*
X346075000Y-179008630D01*
X346551190Y-179008630D01*
X347075000Y-179008630D02*
X347075000Y-179246726D01*
X346836904Y-179151488D02*
X347075000Y-179246726D01*
X347313095Y-179151488D01*
X346932142Y-179437202D02*
X347075000Y-179246726D01*
X347217857Y-179437202D01*
X347836904Y-179008630D02*
X347836904Y-179246726D01*
X347598809Y-179151488D02*
X347836904Y-179246726D01*
X348075000Y-179151488D01*
X347694047Y-179437202D02*
X347836904Y-179246726D01*
X347979761Y-179437202D01*
X344741666Y-103808630D02*
X344408333Y-103332440D01*
X344170238Y-103808630D02*
X344170238Y-102808630D01*
X344551190Y-102808630D01*
X344646428Y-102856250D01*
X344694047Y-102903869D01*
X344741666Y-102999107D01*
X344741666Y-103141964D01*
X344694047Y-103237202D01*
X344646428Y-103284821D01*
X344551190Y-103332440D01*
X344170238Y-103332440D01*
X345170238Y-103284821D02*
X345503571Y-103284821D01*
X345646428Y-103808630D02*
X345170238Y-103808630D01*
X345170238Y-102808630D01*
X345646428Y-102808630D01*
X346408333Y-103284821D02*
X346075000Y-103284821D01*
X346075000Y-103808630D02*
X346075000Y-102808630D01*
X346551190Y-102808630D01*
X347075000Y-102808630D02*
X347075000Y-103046726D01*
X346836904Y-102951488D02*
X347075000Y-103046726D01*
X347313095Y-102951488D01*
X346932142Y-103237202D02*
X347075000Y-103046726D01*
X347217857Y-103237202D01*
X347836904Y-102808630D02*
X347836904Y-103046726D01*
X347598809Y-102951488D02*
X347836904Y-103046726D01*
X348075000Y-102951488D01*
X347694047Y-103237202D02*
X347836904Y-103046726D01*
X347979761Y-103237202D01*
%LPC*%
D12*
X193675000Y-183356250D03*
X193675000Y-145256250D03*
X193675000Y-107156250D03*
X307975000Y-183356250D03*
X307975000Y-145256250D03*
X307975000Y-107156250D03*
X60325000Y-107156250D03*
X60325000Y-145256250D03*
X60325000Y-183356250D03*
X155575000Y-183356250D03*
X155575000Y-145256250D03*
X155575000Y-107156250D03*
X269875000Y-107156250D03*
X269875000Y-183356250D03*
X269875000Y-145256250D03*
X346075000Y-145256250D03*
X346075000Y-183356250D03*
X346075000Y-107156250D03*
D13*
X313055000Y-73501000D03*
X313055000Y-72501000D03*
D14*
X313055000Y-71501000D03*
D15*
X315849000Y-68921000D03*
X315849000Y-63921000D03*
D13*
X331581000Y-62230000D03*
D14*
X330581000Y-62230000D03*
D16*
X356999000Y-68408000D03*
X348359000Y-68408000D03*
D17*
X349789000Y-67878000D03*
D18*
X348359000Y-64228000D03*
D17*
X355569000Y-67878000D03*
D18*
X356999000Y-64228000D03*
D19*
X341630000Y-120650000D03*
X331470000Y-120650000D03*
D20*
X336550000Y-120650000D03*
D13*
X320977000Y-73660000D03*
X321977000Y-73660000D03*
X322977000Y-73660000D03*
D14*
X323977000Y-73660000D03*
D13*
X320977000Y-71374000D03*
X321977000Y-71374000D03*
X322977000Y-71374000D03*
D14*
X323977000Y-71374000D03*
D13*
X333899000Y-62230000D03*
D14*
X334899000Y-62230000D03*
D13*
X345821000Y-70374000D03*
D14*
X345821000Y-71374000D03*
X322961000Y-78740000D03*
D13*
X331962000Y-82931000D03*
D14*
X330962000Y-82931000D03*
D13*
X321930000Y-82931000D03*
X322930000Y-82931000D03*
X323930000Y-82931000D03*
X324930000Y-82931000D03*
X325930000Y-82931000D03*
X326930000Y-82931000D03*
X327930000Y-82931000D03*
D14*
X328930000Y-82931000D03*
D19*
X189230000Y-177800000D03*
X179070000Y-177800000D03*
D20*
X184150000Y-177800000D03*
D19*
X360680000Y-196850000D03*
X350520000Y-196850000D03*
D20*
X355600000Y-196850000D03*
D19*
X360680000Y-177800000D03*
X350520000Y-177800000D03*
D20*
X355600000Y-177800000D03*
D19*
X360680000Y-158750000D03*
X350520000Y-158750000D03*
D20*
X355600000Y-158750000D03*
D19*
X360680000Y-139700000D03*
X350520000Y-139700000D03*
D20*
X355600000Y-139700000D03*
D19*
X360680000Y-120650000D03*
X350520000Y-120650000D03*
D20*
X355600000Y-120650000D03*
D19*
X360680000Y-101600000D03*
X350520000Y-101600000D03*
D20*
X355600000Y-101600000D03*
D19*
X341630000Y-196850000D03*
X331470000Y-196850000D03*
D20*
X336550000Y-196850000D03*
D19*
X341630000Y-177800000D03*
X331470000Y-177800000D03*
D20*
X336550000Y-177800000D03*
D19*
X341630000Y-158750000D03*
X331470000Y-158750000D03*
D20*
X336550000Y-158750000D03*
D19*
X341630000Y-139700000D03*
X331470000Y-139700000D03*
D20*
X336550000Y-139700000D03*
D19*
X341630000Y-101600000D03*
X331470000Y-101600000D03*
D20*
X336550000Y-101600000D03*
D19*
X322580000Y-196850000D03*
X312420000Y-196850000D03*
D20*
X317500000Y-196850000D03*
D19*
X322580000Y-177800000D03*
X312420000Y-177800000D03*
D20*
X317500000Y-177800000D03*
D19*
X322580000Y-158750000D03*
X312420000Y-158750000D03*
D20*
X317500000Y-158750000D03*
D19*
X322580000Y-139700000D03*
X312420000Y-139700000D03*
D20*
X317500000Y-139700000D03*
D19*
X322580000Y-120650000D03*
X312420000Y-120650000D03*
D20*
X317500000Y-120650000D03*
D19*
X322580000Y-101600000D03*
X312420000Y-101600000D03*
D20*
X317500000Y-101600000D03*
D19*
X303530000Y-196850000D03*
X293370000Y-196850000D03*
D20*
X298450000Y-196850000D03*
D19*
X303530000Y-177800000D03*
X293370000Y-177800000D03*
D20*
X298450000Y-177800000D03*
D19*
X303530000Y-158750000D03*
X293370000Y-158750000D03*
D20*
X298450000Y-158750000D03*
D19*
X303530000Y-139700000D03*
X293370000Y-139700000D03*
D20*
X298450000Y-139700000D03*
D19*
X303530000Y-120650000D03*
X293370000Y-120650000D03*
D20*
X298450000Y-120650000D03*
D19*
X303530000Y-101600000D03*
X293370000Y-101600000D03*
D20*
X298450000Y-101600000D03*
D19*
X284480000Y-196850000D03*
X274320000Y-196850000D03*
D20*
X279400000Y-196850000D03*
D19*
X284480000Y-177800000D03*
X274320000Y-177800000D03*
D20*
X279400000Y-177800000D03*
D19*
X284480000Y-158750000D03*
X274320000Y-158750000D03*
D20*
X279400000Y-158750000D03*
D19*
X284480000Y-139700000D03*
X274320000Y-139700000D03*
D20*
X279400000Y-139700000D03*
D19*
X284480000Y-120650000D03*
X274320000Y-120650000D03*
D20*
X279400000Y-120650000D03*
D19*
X284480000Y-101600000D03*
X274320000Y-101600000D03*
D20*
X279400000Y-101600000D03*
D19*
X265430000Y-196850000D03*
X255270000Y-196850000D03*
D20*
X260350000Y-196850000D03*
D19*
X265430000Y-177800000D03*
X255270000Y-177800000D03*
D20*
X260350000Y-177800000D03*
D19*
X265430000Y-158750000D03*
X255270000Y-158750000D03*
D20*
X260350000Y-158750000D03*
D19*
X265430000Y-139700000D03*
X255270000Y-139700000D03*
D20*
X260350000Y-139700000D03*
D19*
X265430000Y-120650000D03*
X255270000Y-120650000D03*
D20*
X260350000Y-120650000D03*
D19*
X265430000Y-101600000D03*
X255270000Y-101600000D03*
D20*
X260350000Y-101600000D03*
D19*
X246380000Y-196850000D03*
X236220000Y-196850000D03*
D20*
X241300000Y-196850000D03*
D19*
X246380000Y-177800000D03*
X236220000Y-177800000D03*
D20*
X241300000Y-177800000D03*
D19*
X246380000Y-158750000D03*
X236220000Y-158750000D03*
D20*
X241300000Y-158750000D03*
D19*
X246380000Y-139700000D03*
X236220000Y-139700000D03*
D20*
X241300000Y-139700000D03*
D19*
X246380000Y-120650000D03*
X236220000Y-120650000D03*
D20*
X241300000Y-120650000D03*
D19*
X246380000Y-101600000D03*
X236220000Y-101600000D03*
D20*
X241300000Y-101600000D03*
D19*
X227330000Y-196850000D03*
X217170000Y-196850000D03*
D20*
X222250000Y-196850000D03*
D19*
X227330000Y-177800000D03*
X217170000Y-177800000D03*
D20*
X222250000Y-177800000D03*
D19*
X227330000Y-158750000D03*
X217170000Y-158750000D03*
D20*
X222250000Y-158750000D03*
D19*
X227330000Y-139700000D03*
X217170000Y-139700000D03*
D20*
X222250000Y-139700000D03*
D19*
X227330000Y-120650000D03*
X217170000Y-120650000D03*
D20*
X222250000Y-120650000D03*
D19*
X227330000Y-101600000D03*
X217170000Y-101600000D03*
D20*
X222250000Y-101600000D03*
D19*
X208280000Y-196850000D03*
X198120000Y-196850000D03*
D20*
X203200000Y-196850000D03*
D19*
X208280000Y-177800000D03*
X198120000Y-177800000D03*
D20*
X203200000Y-177800000D03*
D19*
X208280000Y-158750000D03*
X198120000Y-158750000D03*
D20*
X203200000Y-158750000D03*
D19*
X208280000Y-139700000D03*
X198120000Y-139700000D03*
D20*
X203200000Y-139700000D03*
D19*
X208280000Y-120650000D03*
X198120000Y-120650000D03*
D20*
X203200000Y-120650000D03*
D19*
X208280000Y-101600000D03*
X198120000Y-101600000D03*
D20*
X203200000Y-101600000D03*
D19*
X189230000Y-196850000D03*
X179070000Y-196850000D03*
D20*
X184150000Y-196850000D03*
D19*
X189230000Y-158750000D03*
X179070000Y-158750000D03*
D20*
X184150000Y-158750000D03*
D19*
X189230000Y-139700000D03*
X179070000Y-139700000D03*
D20*
X184150000Y-139700000D03*
D19*
X189230000Y-120650000D03*
X179070000Y-120650000D03*
D20*
X184150000Y-120650000D03*
D19*
X189230000Y-101600000D03*
X179070000Y-101600000D03*
D20*
X184150000Y-101600000D03*
D19*
X170180000Y-196850000D03*
X160020000Y-196850000D03*
D20*
X165100000Y-196850000D03*
D19*
X170180000Y-177800000D03*
X160020000Y-177800000D03*
D20*
X165100000Y-177800000D03*
D19*
X170180000Y-158750000D03*
X160020000Y-158750000D03*
D20*
X165100000Y-158750000D03*
D19*
X170180000Y-139700000D03*
X160020000Y-139700000D03*
D20*
X165100000Y-139700000D03*
D19*
X170180000Y-120650000D03*
X160020000Y-120650000D03*
D20*
X165100000Y-120650000D03*
D19*
X170180000Y-101600000D03*
X160020000Y-101600000D03*
D20*
X165100000Y-101600000D03*
D19*
X151130000Y-196850000D03*
X140970000Y-196850000D03*
D20*
X146050000Y-196850000D03*
D19*
X151130000Y-177800000D03*
X140970000Y-177800000D03*
D20*
X146050000Y-177800000D03*
D19*
X151130000Y-158750000D03*
X140970000Y-158750000D03*
D20*
X146050000Y-158750000D03*
D19*
X151130000Y-139700000D03*
X140970000Y-139700000D03*
D20*
X146050000Y-139700000D03*
D19*
X151130000Y-120650000D03*
X140970000Y-120650000D03*
D20*
X146050000Y-120650000D03*
D19*
X151130000Y-101600000D03*
X140970000Y-101600000D03*
D20*
X146050000Y-101600000D03*
D19*
X132080000Y-196850000D03*
X121920000Y-196850000D03*
D20*
X127000000Y-196850000D03*
D19*
X132080000Y-177800000D03*
X121920000Y-177800000D03*
D20*
X127000000Y-177800000D03*
D19*
X132080000Y-158750000D03*
X121920000Y-158750000D03*
D20*
X127000000Y-158750000D03*
D19*
X132080000Y-139700000D03*
X121920000Y-139700000D03*
D20*
X127000000Y-139700000D03*
D19*
X132080000Y-120650000D03*
X121920000Y-120650000D03*
D20*
X127000000Y-120650000D03*
D19*
X132080000Y-101600000D03*
X121920000Y-101600000D03*
D20*
X127000000Y-101600000D03*
D19*
X113030000Y-196850000D03*
X102870000Y-196850000D03*
D20*
X107950000Y-196850000D03*
D19*
X113030000Y-177800000D03*
X102870000Y-177800000D03*
D20*
X107950000Y-177800000D03*
D19*
X113030000Y-158750000D03*
X102870000Y-158750000D03*
D20*
X107950000Y-158750000D03*
D19*
X113030000Y-139700000D03*
X102870000Y-139700000D03*
D20*
X107950000Y-139700000D03*
D19*
X113030000Y-120650000D03*
X102870000Y-120650000D03*
D20*
X107950000Y-120650000D03*
D19*
X113030000Y-101600000D03*
X102870000Y-101600000D03*
D20*
X107950000Y-101600000D03*
D19*
X93980000Y-196850000D03*
X83820000Y-196850000D03*
D20*
X88900000Y-196850000D03*
D19*
X93980000Y-177800000D03*
X83820000Y-177800000D03*
D20*
X88900000Y-177800000D03*
D19*
X93980000Y-158750000D03*
X83820000Y-158750000D03*
D20*
X88900000Y-158750000D03*
D19*
X93980000Y-139700000D03*
X83820000Y-139700000D03*
D20*
X88900000Y-139700000D03*
D19*
X93980000Y-120650000D03*
X83820000Y-120650000D03*
D20*
X88900000Y-120650000D03*
D19*
X93980000Y-101600000D03*
X83820000Y-101600000D03*
D20*
X88900000Y-101600000D03*
D19*
X74930000Y-196850000D03*
X64770000Y-196850000D03*
D20*
X69850000Y-196850000D03*
D19*
X74930000Y-177800000D03*
X64770000Y-177800000D03*
D20*
X69850000Y-177800000D03*
D19*
X74930000Y-158750000D03*
X64770000Y-158750000D03*
D20*
X69850000Y-158750000D03*
D19*
X74930000Y-139700000D03*
X64770000Y-139700000D03*
D20*
X69850000Y-139700000D03*
D19*
X74930000Y-120650000D03*
X64770000Y-120650000D03*
D20*
X69850000Y-120650000D03*
D19*
X74930000Y-101600000D03*
X64770000Y-101600000D03*
D20*
X69850000Y-101600000D03*
D19*
X55880000Y-196850000D03*
X45720000Y-196850000D03*
D20*
X50800000Y-196850000D03*
D19*
X55880000Y-177800000D03*
X45720000Y-177800000D03*
D20*
X50800000Y-177800000D03*
D19*
X55880000Y-158750000D03*
X45720000Y-158750000D03*
D20*
X50800000Y-158750000D03*
D19*
X55880000Y-139700000D03*
X45720000Y-139700000D03*
D20*
X50800000Y-139700000D03*
D19*
X55880000Y-120650000D03*
X45720000Y-120650000D03*
D20*
X50800000Y-120650000D03*
D19*
X55880000Y-101600000D03*
X45720000Y-101600000D03*
D20*
X50800000Y-101600000D03*
D13*
X342821000Y-85280500D03*
X343821000Y-85280500D03*
X344821000Y-85280500D03*
D14*
X345821000Y-85280500D03*
D13*
X347853500Y-85280500D03*
X348853500Y-85280500D03*
X349853500Y-85280500D03*
X350853500Y-85280500D03*
D14*
X351853500Y-85280500D03*
D13*
X353854000Y-85280500D03*
X354854000Y-85280500D03*
D14*
X355854000Y-85280500D03*
D13*
X333995000Y-82931000D03*
X334995000Y-82931000D03*
X335995000Y-82931000D03*
X336995000Y-82931000D03*
X337995000Y-82931000D03*
X338995000Y-82931000D03*
X339995000Y-82931000D03*
D14*
X340995000Y-82931000D03*
D13*
X343931000Y-62230000D03*
X342931000Y-62230000D03*
X341931000Y-62230000D03*
X340931000Y-62230000D03*
X339931000Y-62230000D03*
X338931000Y-62230000D03*
X337931000Y-62230000D03*
D14*
X336931000Y-62230000D03*
D13*
X320914000Y-62230000D03*
X321914000Y-62230000D03*
X322914000Y-62230000D03*
X323914000Y-62230000D03*
X324914000Y-62230000D03*
X325914000Y-62230000D03*
X326914000Y-62230000D03*
D14*
X327914000Y-62230000D03*
M02*
