M48
; DRILL file {KiCad (5.1.4)-1} date 14-09-2021 20:53:45
; FORMAT={-:-/ absolute / metric / decimal}
; #@! TF.CreationDate,2021-09-14T20:53:45-03:00
; #@! TF.GenerationSoftware,Kicad,Pcbnew,(5.1.4)-1
; #@! TF.FileFunction,NonPlated,1,2,NPTH
FMAT,2
METRIC
T1C0.650
T2C1.750
T3C3.988
%
G90
G05
T1
X349.789Y-67.878
X355.569Y-67.878
T2
X293.37Y-120.65
X303.53Y-120.65
X350.52Y-101.6
X360.68Y-101.6
X236.22Y-120.65
X246.38Y-120.65
X312.42Y-101.6
X322.58Y-101.6
X350.52Y-139.7
X360.68Y-139.7
X255.27Y-101.6
X265.43Y-101.6
X274.32Y-177.8
X284.48Y-177.8
X179.07Y-120.65
X189.23Y-120.65
X121.92Y-139.7
X132.08Y-139.7
X160.02Y-158.75
X170.18Y-158.75
X83.82Y-139.7
X93.98Y-139.7
X140.97Y-120.65
X151.13Y-120.65
X198.12Y-196.85
X208.28Y-196.85
X45.72Y-101.6
X55.88Y-101.6
X121.92Y-196.85
X132.08Y-196.85
X179.07Y-196.85
X189.23Y-196.85
X312.42Y-139.7
X322.58Y-139.7
X236.22Y-196.85
X246.38Y-196.85
X45.72Y-196.85
X55.88Y-196.85
X121.92Y-101.6
X132.08Y-101.6
X255.27Y-158.75
X265.43Y-158.75
X160.02Y-120.65
X170.18Y-120.65
X312.42Y-120.65
X322.58Y-120.65
X217.17Y-177.8
X227.33Y-177.8
X64.77Y-101.6
X74.93Y-101.6
X121.92Y-158.75
X132.08Y-158.75
X293.37Y-158.75
X303.53Y-158.75
X160.02Y-101.6
X170.18Y-101.6
X350.52Y-158.75
X360.68Y-158.75
X198.12Y-120.65
X208.28Y-120.65
X45.72Y-120.65
X55.88Y-120.65
X102.87Y-139.7
X113.03Y-139.7
X255.27Y-177.8
X265.43Y-177.8
X312.42Y-196.85
X322.58Y-196.85
X217.17Y-120.65
X227.33Y-120.65
X274.32Y-158.75
X284.48Y-158.75
X331.47Y-158.75
X341.63Y-158.75
X217.17Y-196.85
X227.33Y-196.85
X274.32Y-196.85
X284.48Y-196.85
X312.42Y-158.75
X322.58Y-158.75
X255.27Y-139.7
X265.43Y-139.7
X160.02Y-177.8
X170.18Y-177.8
X64.77Y-158.75
X74.93Y-158.75
X83.82Y-158.75
X93.98Y-158.75
X140.97Y-139.7
X151.13Y-139.7
X331.47Y-120.65
X341.63Y-120.65
X64.77Y-196.85
X74.93Y-196.85
X121.92Y-177.8
X132.08Y-177.8
X198.12Y-101.6
X208.28Y-101.6
X331.47Y-139.7
X341.63Y-139.7
X198.12Y-177.8
X208.28Y-177.8
X83.82Y-177.8
X93.98Y-177.8
X179.07Y-139.7
X189.23Y-139.7
X217.17Y-158.75
X227.33Y-158.75
X64.77Y-139.7
X74.93Y-139.7
X121.92Y-120.65
X132.08Y-120.65
X293.37Y-196.85
X303.53Y-196.85
X140.97Y-196.85
X151.13Y-196.85
X350.52Y-177.8
X360.68Y-177.8
X217.17Y-139.7
X227.33Y-139.7
X45.72Y-158.75
X55.88Y-158.75
X102.87Y-101.6
X113.03Y-101.6
X255.27Y-120.65
X265.43Y-120.65
X140.97Y-177.8
X151.13Y-177.8
X350.52Y-120.65
X360.68Y-120.65
X236.22Y-177.8
X246.38Y-177.8
X102.87Y-177.8
X113.03Y-177.8
X274.32Y-120.65
X284.48Y-120.65
X312.42Y-177.8
X322.58Y-177.8
X236.22Y-158.75
X246.38Y-158.75
X179.07Y-177.8
X189.23Y-177.8
X255.27Y-196.85
X265.43Y-196.85
X331.47Y-196.85
X341.63Y-196.85
X217.17Y-101.6
X227.33Y-101.6
X293.37Y-177.8
X303.53Y-177.8
X140.97Y-158.75
X151.13Y-158.75
X274.32Y-139.7
X284.48Y-139.7
X45.72Y-177.8
X55.88Y-177.8
X83.82Y-101.6
X93.98Y-101.6
X160.02Y-139.7
X170.18Y-139.7
X83.82Y-196.85
X93.98Y-196.85
X140.97Y-101.6
X151.13Y-101.6
X64.77Y-120.65
X74.93Y-120.65
X102.87Y-120.65
X113.03Y-120.65
X179.07Y-158.75
X189.23Y-158.75
X198.12Y-158.75
X208.28Y-158.75
X83.82Y-120.65
X93.98Y-120.65
X293.37Y-101.6
X303.53Y-101.6
X160.02Y-196.85
X170.18Y-196.85
X350.52Y-196.85
X360.68Y-196.85
X236.22Y-139.7
X246.38Y-139.7
X64.77Y-177.8
X74.93Y-177.8
X102.87Y-158.75
X113.03Y-158.75
X293.37Y-139.7
X303.53Y-139.7
X179.07Y-101.6
X189.23Y-101.6
X331.47Y-177.8
X341.63Y-177.8
X198.12Y-139.7
X208.28Y-139.7
X45.72Y-139.7
X55.88Y-139.7
X102.87Y-196.85
X113.03Y-196.85
X274.32Y-101.6
X284.48Y-101.6
X331.47Y-101.6
X341.63Y-101.6
X236.22Y-101.6
X246.38Y-101.6
T3
X260.35Y-196.85
X336.55Y-196.85
X222.25Y-101.6
X298.45Y-177.8
X146.05Y-158.75
X279.4Y-139.7
X50.8Y-177.8
X88.9Y-101.6
X165.1Y-139.7
X88.9Y-196.85
X146.05Y-101.6
X69.85Y-120.65
X107.95Y-120.65
X184.15Y-158.75
X203.2Y-158.75
X88.9Y-120.65
X298.45Y-101.6
X165.1Y-196.85
X355.6Y-196.85
X241.3Y-139.7
X69.85Y-177.8
X107.95Y-158.75
X298.45Y-139.7
X184.15Y-101.6
X336.55Y-177.8
X203.2Y-139.7
X50.8Y-139.7
X107.95Y-196.85
X279.4Y-101.6
X336.55Y-101.6
X241.3Y-101.6
X298.45Y-120.65
X355.6Y-101.6
X241.3Y-120.65
X317.5Y-101.6
X355.6Y-139.7
X260.35Y-101.6
X279.4Y-177.8
X184.15Y-120.65
X127.0Y-139.7
X165.1Y-158.75
X88.9Y-139.7
X146.05Y-120.65
X203.2Y-196.85
X50.8Y-101.6
X127.0Y-196.85
X184.15Y-196.85
X317.5Y-139.7
X241.3Y-196.85
X50.8Y-196.85
X127.0Y-101.6
X260.35Y-158.75
X165.1Y-120.65
X317.5Y-120.65
X222.25Y-177.8
X69.85Y-101.6
X127.0Y-158.75
X298.45Y-158.75
X165.1Y-101.6
X355.6Y-158.75
X203.2Y-120.65
X50.8Y-120.65
X107.95Y-139.7
X260.35Y-177.8
X317.5Y-196.85
X222.25Y-120.65
X279.4Y-158.75
X336.55Y-158.75
X222.25Y-196.85
X279.4Y-196.85
X317.5Y-158.75
X260.35Y-139.7
X165.1Y-177.8
X69.85Y-158.75
X88.9Y-158.75
X146.05Y-139.7
X336.55Y-120.65
X69.85Y-196.85
X127.0Y-177.8
X203.2Y-101.6
X336.55Y-139.7
X203.2Y-177.8
X88.9Y-177.8
X184.15Y-139.7
X222.25Y-158.75
X69.85Y-139.7
X127.0Y-120.65
X298.45Y-196.85
X146.05Y-196.85
X355.6Y-177.8
X222.25Y-139.7
X50.8Y-158.75
X107.95Y-101.6
X260.35Y-120.65
X146.05Y-177.8
X355.6Y-120.65
X241.3Y-177.8
X107.95Y-177.8
X279.4Y-120.65
X317.5Y-177.8
X241.3Y-158.75
X184.15Y-177.8
T0
M30
