M48
; DRILL file {KiCad (5.1.4)-1} date 09/13/21 16:49:03
; FORMAT={-:-/ absolute / inch / decimal}
; #@! TF.CreationDate,2021-09-13T16:49:03-03:00
; #@! TF.GenerationSoftware,Kicad,Pcbnew,(5.1.4)-1
; #@! TF.FileFunction,NonPlated,1,2,NPTH
FMAT,2
INCH
T1C0.0256
T2C0.0689
T3C0.1570
%
G90
G05
T1
X13.7712Y-2.6724
X13.9988Y-2.6724
T2
X12.3Y-6.25
X12.7Y-6.25
X2.55Y-7.75
X2.95Y-7.75
X8.55Y-4.0
X8.95Y-4.0
X11.55Y-6.25
X11.95Y-6.25
X9.3Y-6.25
X9.7Y-6.25
X13.8Y-6.25
X14.2Y-6.25
X4.05Y-6.25
X4.45Y-6.25
X10.05Y-6.25
X10.45Y-6.25
X10.05Y-4.75
X10.45Y-4.75
X13.8Y-7.75
X14.2Y-7.75
X4.8Y-4.75
X5.2Y-4.75
X12.3Y-4.75
X12.7Y-4.75
X8.55Y-7.0
X8.95Y-7.0
X3.3Y-4.0
X3.7Y-4.0
X7.05Y-7.75
X7.45Y-7.75
X13.05Y-7.75
X13.45Y-7.75
X4.05Y-7.0
X4.45Y-7.0
X10.8Y-7.0
X11.2Y-7.0
X10.05Y-4.0
X10.45Y-4.0
X6.3Y-6.25
X6.7Y-6.25
X13.05Y-4.0
X13.45Y-4.0
X4.8Y-7.75
X5.2Y-7.75
X11.55Y-7.75
X11.95Y-7.75
X7.8Y-7.0
X8.2Y-7.0
X1.8Y-4.0
X2.2Y-4.0
X7.8Y-4.75
X8.2Y-4.75
X4.05Y-7.75
X4.45Y-7.75
X12.3Y-4.0
X12.7Y-4.0
X2.55Y-7.0
X2.95Y-7.0
X5.55Y-5.5
X5.95Y-5.5
X3.3Y-6.25
X3.7Y-6.25
X2.55Y-5.5
X2.95Y-5.5
X5.55Y-7.75
X5.95Y-7.75
X2.55Y-4.75
X2.95Y-4.75
X7.8Y-5.5
X8.2Y-5.5
X13.8Y-4.0
X14.2Y-4.0
X10.8Y-6.25
X11.2Y-6.25
X7.8Y-6.25
X8.2Y-6.25
X13.05Y-6.25
X13.45Y-6.25
X10.05Y-7.75
X10.45Y-7.75
X9.3Y-5.5
X9.7Y-5.5
X13.8Y-7.0
X14.2Y-7.0
X4.05Y-4.0
X4.45Y-4.0
X11.55Y-5.5
X11.95Y-5.5
X9.3Y-4.0
X9.7Y-4.0
X7.05Y-4.75
X7.45Y-4.75
X13.8Y-4.75
X14.2Y-4.75
X4.8Y-5.5
X5.2Y-5.5
X11.55Y-4.75
X11.95Y-4.75
X8.55Y-6.25
X8.95Y-6.25
X1.8Y-7.0
X2.2Y-7.0
X7.05Y-6.25
X7.45Y-6.25
X13.05Y-4.75
X13.45Y-4.75
X4.05Y-5.5
X4.45Y-5.5
X10.8Y-4.0
X11.2Y-4.0
X8.55Y-4.75
X8.95Y-4.75
X2.55Y-6.25
X2.95Y-6.25
X6.3Y-4.75
X6.7Y-4.75
X12.3Y-7.75
X12.7Y-7.75
X4.8Y-7.0
X5.2Y-7.0
X10.8Y-7.75
X11.2Y-7.75
X10.05Y-5.5
X10.45Y-5.5
X6.3Y-5.5
X6.7Y-5.5
X7.05Y-7.0
X7.45Y-7.0
X4.05Y-4.75
X4.45Y-4.75
X1.8Y-5.5
X2.2Y-5.5
X7.8Y-4.0
X8.2Y-4.0
X3.3Y-5.5
X3.7Y-5.5
X6.3Y-7.0
X6.7Y-7.0
X12.3Y-7.0
X12.7Y-7.0
X2.55Y-4.0
X2.95Y-4.0
X13.05Y-7.0
X13.45Y-7.0
X10.8Y-4.75
X11.2Y-4.75
X9.3Y-7.0
X9.7Y-7.0
X13.05Y-5.5
X13.45Y-5.5
X10.05Y-7.0
X10.45Y-7.0
X9.3Y-4.75
X9.7Y-4.75
X5.55Y-4.0
X5.95Y-4.0
X11.55Y-7.0
X11.95Y-7.0
X9.3Y-7.75
X9.7Y-7.75
X7.05Y-4.0
X7.45Y-4.0
X4.8Y-4.0
X5.2Y-4.0
X11.55Y-4.0
X11.95Y-4.0
X8.55Y-5.5
X8.95Y-5.5
X1.8Y-7.75
X2.2Y-7.75
X6.3Y-7.75
X6.7Y-7.75
X13.8Y-5.5
X14.2Y-5.5
X3.3Y-7.75
X3.7Y-7.75
X12.3Y-5.5
X12.7Y-5.5
X7.8Y-7.75
X8.2Y-7.75
X1.8Y-6.25
X2.2Y-6.25
X5.55Y-7.0
X5.95Y-7.0
X3.3Y-7.0
X3.7Y-7.0
X10.8Y-5.5
X11.2Y-5.5
X8.55Y-7.75
X8.95Y-7.75
X3.3Y-4.75
X3.7Y-4.75
X5.55Y-6.25
X5.95Y-6.25
X4.8Y-6.25
X5.2Y-6.25
X6.3Y-4.0
X6.7Y-4.0
X5.55Y-4.75
X5.95Y-4.75
X1.8Y-4.75
X2.2Y-4.75
X7.05Y-5.5
X7.45Y-5.5
T3
X9.5Y-7.0
X13.25Y-5.5
X10.25Y-7.0
X9.5Y-4.75
X5.75Y-4.0
X11.75Y-7.0
X9.5Y-7.75
X7.25Y-4.0
X5.0Y-4.0
X11.75Y-4.0
X8.75Y-5.5
X2.0Y-7.75
X6.5Y-7.75
X14.0Y-5.5
X3.5Y-7.75
X12.5Y-5.5
X8.0Y-7.75
X2.0Y-6.25
X5.75Y-7.0
X3.5Y-7.0
X11.0Y-5.5
X8.75Y-7.75
X3.5Y-4.75
X5.75Y-6.25
X5.0Y-6.25
X6.5Y-4.0
X5.75Y-4.75
X2.0Y-4.75
X7.25Y-5.5
X12.5Y-6.25
X2.75Y-7.75
X8.75Y-4.0
X11.75Y-6.25
X9.5Y-6.25
X14.0Y-6.25
X4.25Y-6.25
X10.25Y-6.25
X10.25Y-4.75
X14.0Y-7.75
X5.0Y-4.75
X12.5Y-4.75
X8.75Y-7.0
X3.5Y-4.0
X7.25Y-7.75
X13.25Y-7.75
X4.25Y-7.0
X11.0Y-7.0
X10.25Y-4.0
X6.5Y-6.25
X13.25Y-4.0
X5.0Y-7.75
X11.75Y-7.75
X8.0Y-7.0
X2.0Y-4.0
X8.0Y-4.75
X4.25Y-7.75
X12.5Y-4.0
X2.75Y-7.0
X5.75Y-5.5
X3.5Y-6.25
X2.75Y-5.5
X5.75Y-7.75
X2.75Y-4.75
X8.0Y-5.5
X14.0Y-4.0
X11.0Y-6.25
X8.0Y-6.25
X13.25Y-6.25
X10.25Y-7.75
X9.5Y-5.5
X14.0Y-7.0
X4.25Y-4.0
X11.75Y-5.5
X9.5Y-4.0
X7.25Y-4.75
X14.0Y-4.75
X5.0Y-5.5
X11.75Y-4.75
X8.75Y-6.25
X2.0Y-7.0
X7.25Y-6.25
X13.25Y-4.75
X4.25Y-5.5
X11.0Y-4.0
X8.75Y-4.75
X2.75Y-6.25
X6.5Y-4.75
X12.5Y-7.75
X5.0Y-7.0
X11.0Y-7.75
X10.25Y-5.5
X6.5Y-5.5
X7.25Y-7.0
X4.25Y-4.75
X2.0Y-5.5
X8.0Y-4.0
X3.5Y-5.5
X6.5Y-7.0
X12.5Y-7.0
X2.75Y-4.0
X13.25Y-7.0
X11.0Y-4.75
T0
M30
